<svg xmlns="http://www.w3.org/2000/svg" fill="none" viewBox="0 0 73 100"><path fill="#A8E7F4" d="M56.3 63.1H40.4v4.8h15.9v-4.8ZM60.2 12.3H40.4v23.8h3.9V48h8V36.1h7.9V12.3Z"/><path fill="#026262" d="M4.7 8.3h-4v4h4v-4Z"/><path fill="#29B8B8" fill-opacity=".962" d="M60.3 20.2h-4v4h4v-4Z"/><path fill="#009E9E" d="M56.3 28.2h-4v4h4v-4Z"/><path fill="#29B8B8" fill-opacity=".962" d="M48.3 20.2h-4v4h4v-4Z"/><path fill="#026262" d="M60 8.3V4.4H40.4v3.9h-4v4h-4v11.9h4v8h4V16.3H44.3v-4h19.9v-4H60Z"/><path fill="#29B8B8" fill-opacity=".962" d="M40.4 4.4h-4v4h4v-4ZM36.4 8.3h-4v4h4v-4ZM56.3 48v-7.9h-4V48h-8v-7.9h-3.9v23.8h15.9V48Z"/><path fill="#026262" d="M56.3 71.9v-4H36.4v15.9h7.9v-4h8v4h7.9V71.9h-3.9Z"/><path fill="#A8E7F4" d="M60.3 40.1h-4V48h4v-7.9ZM68.1 48h-7.9v4h7.9v-4ZM36.4 40.1v4h-4V48h8v-7.9h-4ZM32.5 48h-4v7.9h4V48ZM72.2 44.1h-4v4h4v-4ZM36.4 56h-4v4h4v-4ZM36.4 83.8h-4v4h8v-4h-4Z"/><path fill="#026262" d="M32.5 83.8h-4v7.9h4v-7.9Z"/><path fill="#A8E7F4" d="M60.2 83.8h-7.9v4h4v7.9h3.9V83.8Z"/><path fill="#026262" d="M64.2 95.7h-7.9v4h7.9v-4ZM36.4 4.4v-4H24.5v4h-8v3.9h-3.9v4h-8v4h15.9v-4h8v-4h7.9V4.4Z"/></svg>