<svg width="650" height="401" viewBox="0 0 650 401" fill="none" xmlns="http://www.w3.org/2000/svg">
<path d="M122.964 23.1896C158.485 23.1896 187.182 51.5363 187.182 87.0573C187.182 122.578 158.485 150.75 122.964 150.75C87.4435 150.75 58.7468 122.578 58.7468 87.0573C58.7468 51.5363 87.4435 23.1896 122.964 23.1896ZM122.964 93.1816C126.289 93.1816 129.089 90.5569 129.089 87.0573C129.089 83.7327 126.289 80.933 122.964 80.933C119.64 80.933 116.84 83.7327 116.84 87.0573C116.84 90.5569 119.64 93.1816 122.964 93.1816ZM257.504 67.6345L268.177 24.4144C268.352 23.7145 269.052 23.1896 269.752 23.1896H327.496C328.895 23.1896 329.595 24.0645 329.07 25.4643L286.025 149.7C285.85 150.4 285.15 150.75 284.45 150.75H229.332C228.457 150.75 227.757 150.4 227.582 149.7L184.887 25.4643C184.362 24.0645 185.062 23.1896 186.462 23.1896H244.03C244.73 23.1896 245.43 23.7145 245.605 24.4144L256.104 67.6345C256.279 68.3344 256.454 68.6844 256.804 68.6844C257.154 68.6844 257.329 68.3344 257.504 67.6345ZM336.24 23.1896H457.677C458.726 23.1896 459.426 23.7145 459.426 24.9394V59.7604C459.426 60.9853 458.726 61.5102 457.677 61.5102H393.284V67.8095H434.754C435.804 67.8095 436.329 68.3344 436.329 69.5593V104.555C436.329 105.78 435.804 106.305 434.754 106.305H393.284V112.604H457.677C458.726 112.604 459.426 113.129 459.426 114.179V149C459.426 150.225 458.726 150.75 457.677 150.75H336.24C335.191 150.75 334.491 150.05 334.491 149.175V24.9394C334.491 24.0645 335.191 23.1896 336.24 23.1896ZM561.317 105.255L591.063 148.125C591.413 148.65 591.413 149.35 591.063 149.875C590.713 150.4 590.188 150.75 589.488 150.75H531.57C531.045 150.75 530.52 150.575 530.17 150.05L519.846 135.527V149C519.846 150.05 519.146 150.75 518.097 150.75H466.477C465.428 150.75 464.728 150.05 464.728 149V24.9394C464.728 23.8895 465.428 23.1896 466.477 23.1896H543.294C568.666 23.1896 587.039 40.5126 587.039 65.8847C587.039 82.8578 576.715 98.606 561.317 105.255ZM520.371 60.4603V71.3091H523.346C526.496 71.3091 529.12 68.8594 529.12 65.8847C529.12 62.91 526.496 60.4603 523.346 60.4603H520.371ZM68.6349 178.815C68.6349 179.109 68.3996 179.403 68.0468 179.403H49.7574C49.581 179.403 49.4046 179.285 49.287 179.109C48.8165 178.403 48.1108 177.991 47.2875 177.991C45.9937 177.991 44.9352 179.05 44.9352 180.344C44.9352 181.638 45.9937 182.696 47.2875 182.696C48.1108 182.696 48.8165 182.226 49.287 181.52C49.4046 181.344 49.581 181.285 49.7574 181.285H68.0468C68.3996 181.285 68.6349 181.579 68.6349 181.873C68.6349 192.988 58.461 201.75 47.2875 201.75C35.467 201.75 25.8225 192.164 25.8225 180.344C25.8225 168.523 35.467 158.879 47.2875 158.879C58.4022 158.879 68.6349 167.7 68.6349 178.815ZM91.1184 158.879C103.056 158.879 112.701 168.406 112.701 180.344C112.701 192.282 103.056 201.75 91.1184 201.75C79.1804 201.75 69.5358 192.282 69.5358 180.344C69.5358 168.406 79.1804 158.879 91.1184 158.879ZM91.1184 182.402C92.2358 182.402 93.1767 181.52 93.1767 180.344C93.1767 179.226 92.2358 178.286 91.1184 178.286C90.0011 178.286 89.0601 179.226 89.0601 180.344C89.0601 181.52 90.0011 182.402 91.1184 182.402ZM113.945 201.221V159.408C113.945 159.114 114.18 158.879 114.474 158.879H133.528C133.822 158.879 134.116 159.114 134.116 159.408V188.695H156.228C156.522 188.695 156.816 188.93 156.816 189.224V201.221C156.816 201.515 156.522 201.75 156.228 201.75H114.474C114.18 201.75 113.945 201.515 113.945 201.221ZM158.003 201.221V159.408C158.003 159.114 158.238 158.879 158.532 158.879H177.586C177.88 158.879 178.174 159.114 178.174 159.408V188.695H200.286C200.58 188.695 200.874 188.93 200.874 189.224V201.221C200.874 201.515 200.58 201.75 200.286 201.75H158.532C158.238 201.75 158.003 201.515 158.003 201.221ZM235.993 159.232L250.284 200.985C250.46 201.456 250.225 201.75 249.754 201.75H230.524C230.113 201.75 229.936 201.515 229.818 201.162L228.701 197.81H223.408L222.291 201.162C222.173 201.515 221.997 201.75 221.585 201.75H202.296C201.826 201.75 201.591 201.456 201.767 200.985L216.175 159.232C216.293 158.996 216.469 158.879 216.763 158.879H235.464C235.699 158.879 235.935 158.996 235.993 159.232ZM224.232 195.34H227.878L226.055 189.694L224.232 195.34ZM247.618 158.879H289.254C289.548 158.879 289.783 159.114 289.783 159.408V180.05C289.783 180.344 289.548 180.579 289.254 180.579H278.551V201.221C278.551 201.515 278.257 201.75 277.963 201.75H258.85C258.556 201.75 258.321 201.515 258.321 201.221V180.579H247.618C247.324 180.579 247.088 180.344 247.088 180.05V159.408C247.088 159.114 247.324 158.879 247.618 158.879ZM292.157 158.879H332.97C333.323 158.879 333.558 159.055 333.558 159.467V171.17C333.558 171.581 333.323 171.758 332.97 171.758H311.328V173.875H325.266C325.619 173.875 325.795 174.051 325.795 174.463V186.225C325.795 186.636 325.619 186.813 325.266 186.813H311.328V188.93H332.97C333.323 188.93 333.558 189.106 333.558 189.459V201.162C333.558 201.574 333.323 201.75 332.97 201.75H292.157C291.804 201.75 291.569 201.515 291.569 201.221V159.467C291.569 159.173 291.804 158.879 292.157 158.879ZM367.802 186.46L377.799 200.868C377.917 201.044 377.917 201.28 377.799 201.456C377.682 201.632 377.505 201.75 377.27 201.75H357.804C357.628 201.75 357.452 201.691 357.334 201.515L353.864 196.634V201.162C353.864 201.515 353.629 201.75 353.276 201.75H335.928C335.575 201.75 335.34 201.515 335.34 201.162V159.467C335.34 159.114 335.575 158.879 335.928 158.879H361.745C370.272 158.879 376.447 164.701 376.447 173.228C376.447 178.932 372.977 184.225 367.802 186.46ZM354.041 171.405V175.051H355.04C356.099 175.051 356.981 174.228 356.981 173.228C356.981 172.228 356.099 171.405 355.04 171.405H354.041ZM412.972 159.232L427.262 200.985C427.438 201.456 427.203 201.75 426.733 201.75H407.502C407.091 201.75 406.914 201.515 406.797 201.162L405.679 197.81H400.387L399.269 201.162C399.152 201.515 398.975 201.75 398.564 201.75H379.274C378.804 201.75 378.569 201.456 378.745 200.985L393.153 159.232C393.271 158.996 393.447 158.879 393.741 158.879H412.442C412.677 158.879 412.913 158.996 412.972 159.232ZM401.21 195.34H404.856L403.033 189.694L401.21 195.34ZM428.496 201.221V159.408C428.496 159.114 428.731 158.879 429.025 158.879H448.079C448.373 158.879 448.667 159.114 448.667 159.408V188.695H470.779C471.073 188.695 471.367 188.93 471.367 189.224V201.221C471.367 201.515 471.073 201.75 470.779 201.75H429.025C428.731 201.75 428.496 201.515 428.496 201.221ZM483.139 179.697C477.317 179.697 472.553 174.992 472.553 169.17C472.553 163.348 477.317 158.879 483.139 158.879C489.02 158.879 493.724 163.348 493.724 169.17C493.724 174.992 489.02 179.697 483.139 179.697ZM473.436 180.932H492.842C493.136 180.932 493.43 181.226 493.43 181.52V201.162C493.43 201.515 493.136 201.75 492.842 201.75H473.436C473.142 201.75 472.847 201.515 472.847 201.162V181.52C472.847 181.226 473.142 180.932 473.436 180.932ZM526.77 183.225H536.591C536.885 183.225 537.12 183.461 537.12 183.755V201.221C537.12 201.515 536.885 201.75 536.591 201.75H495.543C495.072 201.75 494.661 201.397 495.014 200.691L505.599 177.933C505.658 177.815 505.717 177.697 505.658 177.58C505.599 177.462 505.423 177.462 505.364 177.462H495.425C495.131 177.462 494.896 177.227 494.896 176.933V159.467C494.896 159.173 495.131 158.879 495.425 158.879H536.473C536.944 158.879 537.355 159.232 537.003 159.996L526.535 182.755C526.476 182.873 526.417 182.99 526.476 183.108C526.535 183.225 526.711 183.225 526.77 183.225ZM539.448 158.879H580.261C580.613 158.879 580.849 159.055 580.849 159.467V171.17C580.849 171.581 580.613 171.758 580.261 171.758H558.619V173.875H572.557C572.91 173.875 573.086 174.051 573.086 174.463V186.225C573.086 186.636 572.91 186.813 572.557 186.813H558.619V188.93H580.261C580.613 188.93 580.849 189.106 580.849 189.459V201.162C580.849 201.574 580.613 201.75 580.261 201.75H539.448C539.095 201.75 538.86 201.515 538.86 201.221V159.467C538.86 159.173 539.095 158.879 539.448 158.879ZM583.218 158.879H602.802C614.563 158.879 624.149 168.523 624.149 180.344C624.149 192.105 614.563 201.75 602.743 201.75H583.218C582.866 201.75 582.63 201.515 582.63 201.221V159.467C582.63 159.173 582.866 158.879 583.218 158.879ZM601.567 178.168V182.343H602.743C603.919 182.343 604.86 181.461 604.86 180.285C604.86 179.109 603.919 178.168 602.743 178.168H601.567ZM53.1115 285.753V206.974C53.1115 206.42 53.5547 205.977 54.1087 205.977H90.0079C90.5619 205.977 91.1159 206.42 91.1159 206.974V262.152H132.777C133.331 262.152 133.885 262.596 133.885 263.15V285.753C133.885 286.307 133.331 286.75 132.777 286.75H54.1087C53.5547 286.75 53.1115 286.307 53.1115 285.753ZM138.337 205.977H215.232C215.897 205.977 216.34 206.309 216.34 207.085V229.134C216.34 229.91 215.897 230.242 215.232 230.242H174.457V234.231H200.717C201.382 234.231 201.714 234.563 201.714 235.339V257.499C201.714 258.274 201.382 258.607 200.717 258.607H174.457V262.596H215.232C215.897 262.596 216.34 262.928 216.34 263.593V285.642C216.34 286.418 215.897 286.75 215.232 286.75H138.337C137.672 286.75 137.229 286.307 137.229 285.753V207.085C137.229 206.531 137.672 205.977 138.337 205.977ZM257.812 246.086V285.753C257.812 286.307 257.258 286.75 256.704 286.75H220.694C220.14 286.75 219.697 286.307 219.697 285.753V207.085C219.697 206.42 220.14 205.977 220.694 205.977H256.926C257.59 205.977 258.034 206.309 258.144 206.974L263.13 245.754C263.13 245.976 263.352 245.976 263.352 245.754V207.085C263.352 206.42 263.795 205.977 264.349 205.977H300.359C300.913 205.977 301.467 206.42 301.467 207.085V285.753C301.467 286.307 300.913 286.75 300.359 286.75H264.017C263.574 286.639 263.241 286.196 263.13 285.753L258.034 246.086C258.034 245.865 257.812 245.865 257.812 246.086ZM307.601 205.977H344.497C366.657 205.977 384.718 224.148 384.718 246.419C384.718 268.579 366.657 286.75 344.387 286.75H307.601C306.936 286.75 306.493 286.307 306.493 285.753V207.085C306.493 206.531 306.936 205.977 307.601 205.977ZM342.171 242.319V250.186H344.387C346.603 250.186 348.375 248.524 348.375 246.308C348.375 244.092 346.603 242.319 344.387 242.319H342.171ZM406.931 245.2C395.962 245.2 386.987 236.336 386.987 225.367C386.987 214.398 395.962 205.977 406.931 205.977C418.011 205.977 426.875 214.398 426.875 225.367C426.875 236.336 418.011 245.2 406.931 245.2ZM388.649 247.527H425.213C425.767 247.527 426.321 248.081 426.321 248.635V285.642C426.321 286.307 425.767 286.75 425.213 286.75H388.649C388.095 286.75 387.541 286.307 387.541 285.642V248.635C387.541 248.081 388.095 247.527 388.649 247.527ZM468.86 246.086V285.753C468.86 286.307 468.306 286.75 467.752 286.75H431.742C431.188 286.75 430.745 286.307 430.745 285.753V207.085C430.745 206.42 431.188 205.977 431.742 205.977H467.974C468.638 205.977 469.082 206.309 469.192 206.974L474.178 245.754C474.178 245.976 474.4 245.976 474.4 245.754V207.085C474.4 206.42 474.843 205.977 475.397 205.977H511.407C511.961 205.977 512.515 206.42 512.515 207.085V285.753C512.515 286.307 511.961 286.75 511.407 286.75H475.065C474.622 286.639 474.289 286.196 474.178 285.753L469.082 246.086C469.082 245.865 468.86 245.865 468.86 246.086ZM561.418 248.192H596.541C597.095 248.192 597.428 248.746 597.428 249.3V271.792C597.428 272.346 596.985 272.9 596.431 272.9H587.567C580.143 281.653 568.952 286.75 556.764 286.75C534.272 286.75 515.879 268.8 515.879 246.308C515.879 223.926 534.272 205.977 556.764 205.977C577.816 205.977 595.655 221.932 597.317 243.206C597.428 244.203 597.206 244.535 596.209 244.535H561.418C561.085 244.535 560.753 244.314 560.531 243.981C559.534 242.541 558.315 241.876 556.764 241.876C554.216 241.876 552.221 243.87 552.221 246.308C552.221 248.856 554.216 250.851 556.764 250.851C558.315 250.851 559.645 250.075 560.531 248.635C560.753 248.302 561.085 248.192 561.418 248.192Z" fill="#FBCB83"/>
<path d="M387 266.5H263V274.25H387V266.5Z" fill="#97CADB"/>
<path d="M394.75 313V320.75H387V313H394.75ZM394.75 305.25H387V289.75H394.75V305.25Z" fill="#FFF0EE"/>
<path d="M317.25 351.75H309.5V359.5H317.25V351.75Z" fill="#FE500C"/>
<path d="M332.75 351.75H325V359.5H332.75V351.75Z" fill="black"/>
<path d="M332.75 359.5V351.75H325V359.5H332.75ZM340.5 367.25H317.25V344H340.5V351.75H348.25V359.5H340.5V367.25Z" fill="#FFAE1A"/>
<path d="M340.5 367.25V359.5H348.25V351.75H340.5V344H317.25V351.75H309.5V359.5H317.25V367.25H340.5ZM387 320.75H394.75V313H387V320.75ZM371.5 375H278.5V367.25H263V359.5H255.25V344H247.5V297.5H387V305.25H394.75V297.5H402.5V344H394.75V359.5H387V367.25H371.5V375Z" fill="#5648ED"/>
<path d="M371.5 375V367.25H387V359.5H394.75V344H402.5V297.5H394.75V289.75H387V297.5H247.5V344H255.25V359.5H263V367.25H278.5V375H371.5ZM394.75 266.5H255.25V258.75H394.75V266.5ZM379.25 382.75H270.75V375H255.25V367.25H247.5V351.75H239.75V282H247.5V274.25H402.5V282H410.25V351.75H402.5V367.25H394.75V375H379.25V382.75Z" fill="#A6E1E7"/>
<path d="M150.076 347.14H137.202V351.431H150.076V347.14Z" fill="#FFF0EE"/>
<path d="M154.367 351.431H132.911V355.722H154.367V351.431Z" fill="#FFF0EE"/>
<path d="M158.658 355.722H128.62V360.013H158.658V355.722Z" fill="#FFF0EE"/>
<path d="M115.747 360.014H111.456V355.723H115.747V360.014ZM175.822 355.723V360.014H171.531V355.723H175.822ZM150.076 308.52H162.949V317.102H171.531V325.685H184.404V338.558H192.987V351.431H184.404V355.722H171.531V351.431H180.113V347.14H184.404V342.849H180.113V334.267H175.822V329.976H162.949V321.394H150.076V317.102H137.202V321.394H124.329V329.976H111.456V334.267H107.164V342.849H102.873V347.14H111.456V351.431H115.747V355.722H102.873V351.431H94.291V338.558H102.873V325.685H115.747V317.102H124.329V308.52H137.202V304.229H150.076V308.52Z" fill="#D18687"/>
<path d="M158.658 360.013H128.62V364.304H158.658V360.013Z" fill="#FFF0EE"/>
<path d="M128.62 360.014H120.038V364.305H115.747V355.723H128.62V360.014ZM167.24 360.014H158.658V355.723H171.531V364.305H167.24V360.014ZM150.076 321.394H162.949V329.976H175.822V334.267H180.113V342.849H184.404V347.14H180.113V351.431H171.531V355.722H154.367V351.431H150.076V347.14H137.202V351.431H132.911V355.722H115.747V351.431H111.456V347.14H102.873V342.849H107.164V334.267H111.456V329.976H124.329V321.394H137.202V317.102H150.076V321.394Z" fill="#A86F60"/>
<path d="M154.367 368.596H132.911V372.887H120.038V368.596H111.456V364.305H120.038V360.014H128.62V364.305H158.658V360.014H167.24V364.305H175.822V368.596H167.24V372.887H154.367V368.596Z" fill="#E11833"/>
<path d="M180.113 372.887H171.531V377.178H150.076V372.887H137.202V377.178H115.747V372.887H107.164V377.178H102.873V368.596H107.164V364.305H111.456V368.596H120.038V372.887H132.911V368.596H154.367V372.887H167.24V368.596H175.822V364.305H180.113V368.596H184.404V377.178H180.113V372.887ZM115.747 364.305H111.456V360.014H115.747V364.305ZM175.822 364.305H171.531V360.014H175.822V364.305ZM111.456 360.014H102.873V355.723H111.456V360.014ZM184.404 360.014H175.822V355.723H184.404V360.014ZM102.873 355.722H94.291V351.431H102.873V355.722ZM192.987 355.722H184.404V351.431H192.987V355.722ZM154.367 304.229H167.24V312.811H175.822V321.394H188.695V334.267H197.278V351.431H192.987V338.558H184.404V325.685H171.531V317.102H162.949V308.52H150.076V304.229H137.202V308.52H124.329V317.102H115.747V325.685H102.873V338.558H94.291V351.431H90V334.267H98.582V321.394H111.456V312.811H120.038V304.229H132.911V299.938H154.367V304.229Z" fill="#D4B7B2"/>
<path d="M107.164 372.887H115.747V377.178H137.202V372.887H150.076V377.178H171.531V372.887H180.113V381.469H107.164V372.887Z" fill="#C3A199"/>
<path d="M150.076 353.577H145.784V357.868H150.076V353.577Z" fill="black"/>
<path d="M145.785 359.979H141.493V362.159H145.785V359.979Z" fill="black"/>
<path d="M141.493 353.577H137.202V357.868H141.493V353.577Z" fill="black"/>
<rect x="157.857" y="338.07" width="3.14748" height="3.14748" fill="black"/>
<rect x="162.984" y="332.121" width="3.14748" height="3.14748" fill="black"/>
<rect x="166.238" y="350.365" width="3.14748" height="3.14748" transform="rotate(-90 166.238 350.365)" fill="black"/>
<rect x="163.091" y="353.512" width="3.14748" height="3.14748" transform="rotate(-90 163.091 353.512)" fill="black"/>
<rect x="163.091" y="347.217" width="3.14748" height="3.14748" transform="rotate(-90 163.091 347.217)" fill="black"/>
<rect x="163.091" y="350.365" width="3.14748" height="3.14748" transform="rotate(-90 163.091 350.365)" fill="#C8F5FF"/>
<rect x="159.943" y="350.39" width="3.14748" height="3.14748" transform="rotate(-90 159.943 350.39)" fill="black"/>
<path d="M522.076 318.232H513.493V322.523H522.076V318.232Z" fill="#6E3206"/>
<path d="M522.076 322.523V318.232H513.493V322.523H522.076ZM483.456 305.358H466.291V309.649H483.456V313.94H466.291V318.232H483.456V322.523H462V301.067H483.456V305.358ZM560.695 322.523H539.24V318.232H556.404V313.94H539.24V309.649H556.404V305.358H539.24V301.067H560.695V322.523ZM483.456 275.321H479.164V279.612H474.873V288.194H462V271.03H483.456V275.321ZM504.911 283.903H492.038V271.03H504.911V283.903ZM526.367 283.903H517.784V275.321H526.367V283.903ZM474.873 271.029H462V266.738H474.873V271.029ZM513.493 271.029H509.202V266.738H513.493V271.029ZM526.367 326.814H509.202V313.94H526.367V326.814Z" fill="#FF7216"/>
<path d="M526.367 313.94H509.202V326.814H500.62V322.523H492.038V318.232H466.291V313.94H492.038V309.65H487.747V305.358H483.456V301.067H470.582V288.194H474.873V279.612H479.164V275.321H483.456V271.03H492.038V283.903H504.911V271.03H534.949V275.321H539.24V279.612H543.531V288.194H547.822V301.067H539.24V305.358H534.949V309.65H530.658V313.94H556.404V318.232H534.949V322.523H530.658V326.814H526.367V313.94ZM483.455 309.65H466.291V305.358H483.455V309.65ZM556.404 309.65H539.24V305.358H556.404V309.65ZM517.784 283.903H526.367V275.321H517.784V283.903ZM504.911 262.447H513.493V258.156H517.784V262.447H522.076V266.738H526.367V262.447H530.658V271.029H513.493V266.738H509.202V271.029H487.747V262.447H492.038V266.738H496.329V262.447H500.62V258.156H504.911V262.447Z" fill="#F7913D"/>
<path d="M492.038 335.396H483.456V331.105H479.164V326.814H474.873V322.523H483.456V318.232H492.038V322.523H500.62V326.814H530.658V322.523H534.949V318.232H539.24V322.523H543.531V326.814H539.24V331.105H534.949V335.396H526.367V339.687H492.038V335.396ZM487.747 309.649H492.038V313.94H483.456V305.358H487.747V309.649ZM539.24 313.94H530.658V309.649H534.949V305.358H539.24V313.94Z" fill="#FFD067"/>
<path d="M526.367 302.486H522.076V306.777H526.367V302.486Z" fill="black"/>
<path d="M513.493 302.486H509.202V306.777H513.493V302.486Z" fill="black"/>
<path d="M459.309 310.271L457.45 308.205L446.916 307.792L443.817 310.271L440.513 310.89L437.208 313.782L434.936 316.88L434.316 319.772L431.424 323.49L431.218 332.372L434.316 335.884L434.522 338.982L437.621 342.08L440.306 344.972L443.817 345.798L447.122 348.07L457.244 347.864L459.309 346.005L463.234 344.972L465.299 342.906L466.539 341.667L468.604 339.602L469.637 335.47L472.116 332.579L471.703 323.697L470.257 321.011L468.398 316.88L466.745 314.402L463.647 311.51L459.309 310.271Z" fill="#FFD850"/>
<path d="M458.042 346.988H445.493V350.157H458.042V346.988Z" fill="#231E2B"/>
<path d="M458.042 343.82H445.494V346.988H458.042V343.82Z" fill="#FAAF0D"/>
<path d="M445.493 343.82H439.219V346.988H445.493V343.82Z" fill="#231E2B"/>
<path d="M464.316 343.82H458.042V346.988H464.316V343.82Z" fill="#231E2B"/>
<path d="M439.219 340.651H436.082V343.82H439.219V340.651Z" fill="#231E2B"/>
<path d="M436.082 334.313H432.945V340.651H436.082V334.313Z" fill="#231E2B"/>
<path d="M445.493 340.651H439.219V343.819H445.493V340.651Z" fill="#FAAF0D"/>
<path d="M467.453 340.651H464.316V343.82H467.453V340.651Z" fill="#231E2B"/>
<path d="M439.219 337.482H436.082V340.651H439.219V337.482Z" fill="#FAAF0D"/>
<path d="M436.076 330.582H432.951V336.851H436.076V330.582Z" fill="#FAAF0D"/>
<path d="M470.591 334.313H467.454V340.651H470.591V334.313Z" fill="#231E2B"/>
<path d="M432.945 321.638H429.808V334.313H432.945V321.638Z" fill="#231E2B"/>
<path d="M473.728 321.638H470.591V334.313H473.728V321.638Z" fill="#231E2B"/>
<path d="M436.082 315.3H432.945V321.637H436.082V315.3Z" fill="#231E2B"/>
<path d="M470.591 315.3H467.454V321.637H470.591V315.3Z" fill="#231E2B"/>
<path d="M470.567 318.538H467.43V324.875H470.567V318.538Z" fill="#FFECA9"/>
<path d="M467.453 312.131H464.316V315.3H467.453V312.131Z" fill="#231E2B"/>
<path d="M467.43 315.369H464.293V318.538H467.43V315.369Z" fill="#FFECA9"/>
<path d="M439.219 312.131H436.082V315.3H439.219V312.131Z" fill="#231E2B"/>
<path d="M464.316 308.963H458.042V312.131H464.316V308.963Z" fill="#231E2B"/>
<path d="M464.293 312.201H458.019V315.369H464.293V312.201Z" fill="#FFECA9"/>
<path d="M445.493 308.962H439.219V312.131H445.493V308.962Z" fill="#231E2B"/>
<path d="M458.042 305.794H445.493V308.963H458.042V305.794Z" fill="#231E2B"/>
<path d="M458.019 309.031H445.47V312.2H458.019V309.031Z" fill="#FFECA9"/>
<path d="M445.24 335.071L447.804 335.071L447.804 336.593L450.32 336.592L450.32 338.233L453.334 338.233L453.335 343.82L450.32 343.82L450.32 341.738L447.635 341.738L447.635 338.867L445.12 338.867L445.12 336.593L442.555 336.593L442.555 333.473L445.24 333.473L445.24 335.071ZM453.614 316.21L456.019 316.21L456.019 320.634L458.009 320.634L458.009 324.845L459.766 324.845L459.766 330.93L458.009 330.93L458.009 330.931L445.571 330.931L445.571 330.93L443.96 330.93L443.96 324.845L445.571 324.845L445.571 320.635L447.561 320.635L447.561 316.21L450.209 316.21L450.209 312.201L453.614 312.201L453.614 316.21Z" fill="#FFF671"/>
<path d="M461.321 336.592L458.636 336.592L458.636 338.867L456.019 338.867L456.019 341.739L453.335 341.739L453.335 343.82L451.851 343.82L451.851 338.233L453.334 338.233L453.334 336.592L455.952 336.592L455.952 335.071L458.636 335.071L458.636 333.431L461.321 333.431L461.321 336.592ZM453.614 316.147L456.019 316.147L456.019 320.613L458.163 320.613L458.163 324.845L459.766 324.845L459.766 330.599L456.28 330.599L456.28 328.826L456.019 328.826L456.019 330.598L452.533 330.598L452.532 327.269L451.851 327.269L451.851 312.201L453.614 312.201L453.614 316.147Z" fill="#FFC215"/>
<path d="M453.334 323.877L453.335 323.877L453.335 325.706L456.019 325.706L456.019 327.224L458.636 327.224L458.636 329.1L461.099 329.1L461.099 331.679L458.636 331.679L458.636 333.509L456.019 333.509L456.019 335.072L453.335 335.072L453.335 336.592L450.32 336.592L450.32 335.072L447.804 335.072L447.804 333.509L445.188 333.509L445.188 331.679L442.555 331.679L442.555 329.1L445.188 329.1L445.188 327.27L447.804 327.27L447.804 325.707L450.32 325.707L450.32 323.853L453.334 323.853L453.334 323.877Z" fill="#DB8323"/>
<rect width="3.47588" height="6.95175" transform="matrix(-1 0 0 1 550.998 287)" fill="black" fill-opacity="0.962426"/>
<rect width="3.47588" height="6.95175" transform="matrix(-1 0 0 1 540.571 287)" fill="black" fill-opacity="0.962426"/>
<rect width="3.47588" height="6.95175" transform="matrix(4.37114e-08 1 1 -4.37114e-08 540.571 283.581)" fill="black" fill-opacity="0.962426"/>
<rect width="6.95166" height="7.25188" transform="matrix(4.37114e-08 1 1 -4.37114e-08 540.571 287)" fill="#C8F5FF"/>
<rect width="3.47588" height="6.95175" transform="matrix(4.37114e-08 1 1 -4.37114e-08 540.571 293.952)" fill="black" fill-opacity="0.962426"/>
<rect width="3.47588" height="3.47588" transform="matrix(-1 0 0 1 550.612 273.492)" fill="black"/>
<rect width="3.47588" height="3.47588" transform="matrix(-1 0 0 1 545.784 266.085)" fill="black"/>
<path d="M230.297 151.548H217.424V155.839H213.132V151.548H200.259V155.839H195.968V151.548H183.095V155.839H178.804V151.548H165.93V147.257H247.461V151.548H234.588V155.839H230.297V151.548ZM217.424 112.928H226.006V117.219H234.588V121.51H238.879V130.092H243.17V138.674H247.461V147.256H165.93V138.674H170.221V130.092H174.512V121.51H178.804V117.219H187.386V112.928H195.968V108.636H217.424V112.928Z" fill="#DA42CB"/>
<path d="M165.93 155.839H161.639V147.257H165.93V155.839ZM247.461 147.257H251.752V155.839H247.461V147.257ZM195.968 112.928H187.386V117.219H178.804V121.51H174.512V130.092H170.221V138.674H165.93V147.256H161.639V138.674H157.348V117.219H161.639V108.637H195.968V112.928ZM238.879 112.928H243.17V108.637H251.752V117.219H256.043V138.674H251.752V147.256H247.461V138.674H243.17V130.092H238.879V121.51H234.588V117.219H226.006V112.928H217.424V108.637H238.879V112.928ZM161.639 125.801H165.93V121.51H161.639V125.801ZM247.461 125.801H251.752V121.51H247.461V125.801ZM165.93 117.219H170.221V112.928H165.93V117.219ZM208.841 95.7631H213.132V91.472H226.006V95.7631H238.879V100.054H247.461V108.636H165.93V100.054H178.804V95.7631H187.386V91.472H208.841V95.7631ZM191.677 104.345H195.968V100.054H191.677V104.345Z" fill="#FEB9D5"/>
<path d="M221.715 160.13H204.55V164.421H221.715V160.13Z" fill="#3A085B"/>
<path d="M178.804 164.421H165.93V160.13H161.639V155.839H165.93V151.548H178.804V155.839H183.095V151.548H195.968V155.839H200.259V151.548H213.132V155.839H217.424V151.548H230.297V155.839H234.588V151.548H247.461V155.839H251.752V164.421H238.879V168.712H178.804V164.421Z" fill="#AB36BE"/>
<path d="M161.639 198.75H157.348V177.294H161.639V198.75ZM251.752 177.294H256.043V198.75H251.752V177.294ZM247.461 190.167H243.17V181.585H247.461V190.167ZM174.512 185.876H170.221V177.294H174.512V185.876ZM243.17 181.585H238.879V164.421H243.17V181.585ZM165.93 177.294H161.639V160.13H165.93V177.294ZM178.804 177.294H174.512V164.421H178.804V177.294ZM251.752 177.294H247.461V164.421H251.752V177.294ZM165.93 125.801H161.639V121.51H165.93V125.801ZM251.752 125.801H247.461V121.51H251.752V125.801ZM170.221 117.219H165.93V112.928H170.221V117.219ZM243.17 112.928H238.879V108.637H243.17V112.928ZM195.968 104.345H191.677V100.054H195.968V104.345ZM178.804 100.054H174.512V95.7631H178.804V100.054ZM213.132 95.7631H208.841V91.472H213.132V95.7631Z" fill="#FF82AD"/>
<path d="M226.006 144.385H221.715V148.676H226.006V144.385Z" fill="black"/>
<path d="M205.408 144.385H201.117V148.676H205.408V144.385Z" fill="black"/>
<path d="M277.928 173.63L276.008 171.497L265.129 171.071L261.929 173.63L258.516 174.27L255.103 177.257L252.757 180.456L252.117 183.443L249.13 187.282L248.917 196.455L252.117 200.081L252.33 203.281L255.53 206.481L258.303 209.467L261.929 210.32L265.342 212.667L275.795 212.453L277.928 210.534L281.981 209.467L284.114 207.334L285.394 206.054L287.527 203.921L288.593 199.655L291.153 196.668L290.727 187.496L289.233 184.723L287.314 180.456L285.607 177.897L282.407 174.91L277.928 173.63Z" fill="#9391F7"/>
<path d="M276.619 211.549H263.66V214.822H276.619V211.549Z" fill="#231E2B"/>
<path d="M276.619 208.277H263.66V211.549H276.619V208.277Z" fill="#7472E2"/>
<path d="M263.66 208.277H257.181V211.549H263.66V208.277Z" fill="#231E2B"/>
<path d="M283.099 208.277H276.619V211.549H283.099V208.277Z" fill="#231E2B"/>
<path d="M257.181 205.004H253.941V208.277H257.181V205.004Z" fill="#231E2B"/>
<path d="M253.941 198.459H250.701V205.004H253.941V198.459Z" fill="#231E2B"/>
<path d="M263.66 205.004H257.181V208.277H263.66V205.004Z" fill="#7472E2"/>
<path d="M286.339 205.004H283.099V208.277H286.339V205.004Z" fill="#231E2B"/>
<path d="M257.181 201.732H253.941V205.004H257.181V201.732Z" fill="#7472E2"/>
<path d="M253.934 194.606H250.708V201.081H253.934V194.606Z" fill="#7472E2"/>
<path d="M289.578 198.459H286.339V205.004H289.578V198.459Z" fill="#231E2B"/>
<path d="M250.701 185.369H247.461V198.459H250.701V185.369Z" fill="#231E2B"/>
<path d="M292.818 185.369H289.578V198.459H292.818V185.369Z" fill="#231E2B"/>
<path d="M253.941 178.824H250.701V185.369H253.941V178.824Z" fill="#231E2B"/>
<path d="M289.578 178.824H286.339V185.369H289.578V178.824Z" fill="#231E2B"/>
<path d="M289.554 182.168H286.314V188.713H289.554V182.168Z" fill="#BCBAFF"/>
<path d="M286.339 175.552H283.099V178.824H286.339V175.552Z" fill="#231E2B"/>
<path d="M286.314 178.896H283.075V182.168H286.314V178.896Z" fill="#BCBAFF"/>
<path d="M257.181 175.552H253.941V178.824H257.181V175.552Z" fill="#231E2B"/>
<path d="M283.099 172.279H276.619V175.552H283.099V172.279Z" fill="#231E2B"/>
<path d="M283.075 175.623H276.595V178.896H283.075V175.623Z" fill="#BCBAFF"/>
<path d="M263.66 172.279H257.181V175.552H263.66V172.279Z" fill="#231E2B"/>
<path d="M276.619 169.007H263.66V172.279H276.619V169.007Z" fill="#231E2B"/>
<path d="M276.595 172.351H263.636V175.623H276.595V172.351Z" fill="#BCBAFF"/>
<path d="M283.051 185.369H279.811V193.304H283.051V185.369Z" fill="white"/>
<path d="M276.619 190.031H273.38V193.304H276.619V190.031Z" fill="white"/>
<path d="M267.611 190.031H264.371V193.304H267.611V190.031Z" fill="white"/>
<path d="M259.512 185.369H256.272V193.304H259.512V185.369Z" fill="white"/>
<path d="M279.811 182.025H273.331V185.298H279.811V182.025Z" fill="white"/>
<path d="M265.991 182.025H259.511V185.297H265.991V182.025Z" fill="white"/>
<path d="M273.331 178.824H265.991V182.097H273.331V178.824Z" fill="white"/>
<rect x="141.493" y="112.471" width="3.93023" height="7.86045" fill="black" fill-opacity="0.962426"/>
<rect x="153.284" y="112.471" width="3.93023" height="7.86045" fill="black" fill-opacity="0.962426"/>
<rect x="153.284" y="108.605" width="3.93023" height="7.86045" transform="rotate(90 153.284 108.605)" fill="black" fill-opacity="0.962426"/>
<rect x="153.284" y="112.471" width="7.86044" height="7.86044" transform="rotate(90 153.284 112.471)" fill="#C8F5FF"/>
<rect x="153.284" y="120.331" width="3.93023" height="7.86045" transform="rotate(90 153.284 120.331)" fill="black" fill-opacity="0.962426"/>
<rect x="159.179" y="131.571" width="7.8935" height="15.6396" fill="#C8F5FF"/>
<rect x="155.216" y="135.419" width="15.7539" height="7.90112" fill="#C8F5FF"/>
<rect x="151.319" y="135.42" width="3.93023" height="7.86045" fill="black" fill-opacity="0.962426"/>
<rect x="170.97" y="135.42" width="3.93023" height="7.86045" fill="black" fill-opacity="0.962426"/>
<rect x="167.04" y="127.641" width="3.93023" height="7.86045" transform="rotate(90 167.04 127.641)" fill="black" fill-opacity="0.962426"/>
<rect x="167.04" y="147.21" width="3.93023" height="7.86045" transform="rotate(90 167.04 147.21)" fill="black" fill-opacity="0.962426"/>
<rect x="155.249" y="131.489" width="3.93023" height="3.93023" fill="black"/>
<rect x="155.249" y="143.28" width="3.93023" height="3.93023" fill="black"/>
<rect x="167.04" y="131.489" width="3.93023" height="3.93023" fill="black"/>
<rect x="163.143" y="135.46" width="3.93023" height="7.81983" fill="#83DAE3"/>
<rect x="167.04" y="143.28" width="3.93023" height="3.93023" fill="black"/>
<rect x="157.214" y="96.75" width="3.93023" height="3.93023" fill="black"/>
</svg>
