<svg width="650" height="401" viewBox="0 0 650 401" fill="none" xmlns="http://www.w3.org/2000/svg">
<path d="M59.3256 21.0752C82.8749 21.0752 101.9 39.8683 101.9 63.4176C101.9 86.967 82.8749 105.644 59.3256 105.644C35.7762 105.644 16.7511 86.967 16.7511 63.4176C16.7511 39.8683 35.7762 21.0752 59.3256 21.0752ZM59.3256 67.4779C61.5297 67.4779 63.3858 65.7378 63.3858 63.4176C63.3858 61.2135 61.5297 59.3574 59.3256 59.3574C57.1214 59.3574 55.2653 61.2135 55.2653 63.4176C55.2653 65.7378 57.1214 67.4779 59.3256 67.4779Z" fill="#8CD9DA"/>
<path d="M170.13 75.4823L189.851 103.904C190.083 104.252 190.083 104.716 189.851 105.064C189.619 105.412 189.271 105.644 188.807 105.644H150.409C150.061 105.644 149.713 105.528 149.481 105.18L142.637 95.5515V104.484C142.637 105.18 142.172 105.644 141.476 105.644H107.254C106.558 105.644 106.094 105.18 106.094 104.484V22.2353C106.094 21.5392 106.558 21.0752 107.254 21.0752H158.181C175.002 21.0752 187.183 32.5599 187.183 49.3808C187.183 60.6335 180.339 71.0741 170.13 75.4823ZM142.985 45.7846V52.977H144.957C147.045 52.977 148.785 51.3529 148.785 49.3808C148.785 47.4087 147.045 45.7846 144.957 45.7846H142.985Z" fill="#8CD9DA"/>
<path d="M259.813 21.7712L288.003 104.136C288.351 105.064 287.887 105.644 286.959 105.644H249.025C248.213 105.644 247.865 105.18 247.633 104.484L245.428 97.8716H234.988L232.784 104.484C232.552 105.18 232.204 105.644 231.392 105.644H193.341C192.413 105.644 191.949 105.064 192.297 104.136L220.719 21.7712C220.951 21.3072 221.299 21.0752 221.879 21.0752H258.769C259.233 21.0752 259.697 21.3072 259.813 21.7712ZM236.612 92.9994H243.804L240.208 81.8627L236.612 92.9994Z" fill="#8CD9DA"/>
<path d="M368.545 60.4015C368.545 60.9815 368.081 61.5615 367.385 61.5615H331.307C330.959 61.5615 330.611 61.3295 330.379 60.9815C329.451 59.5894 328.059 58.7774 326.435 58.7774C323.882 58.7774 321.794 60.8655 321.794 63.4176C321.794 65.9698 323.882 68.0579 326.435 68.0579C328.059 68.0579 329.451 67.1299 330.379 65.7378C330.611 65.3898 330.959 65.2738 331.307 65.2738H367.385C368.081 65.2738 368.545 65.8538 368.545 66.4338C368.545 88.3591 348.476 105.644 326.435 105.644C303.117 105.644 284.092 86.735 284.092 63.4176C284.092 40.1003 303.117 21.0752 326.435 21.0752C348.36 21.0752 368.545 38.4762 368.545 60.4015Z" fill="#8CD9DA"/>
<path d="M371.482 104.6V22.1193C371.482 21.5392 371.946 21.0752 372.526 21.0752H410.113C410.693 21.0752 411.273 21.5392 411.273 22.1193V79.8906H454.891C455.471 79.8906 456.051 80.3546 456.051 80.9347V104.6C456.051 105.18 455.471 105.644 454.891 105.644H372.526C371.946 105.644 371.482 105.18 371.482 104.6Z" fill="#8CD9DA"/>
<path d="M461.292 21.0752H541.801C542.497 21.0752 542.961 21.4232 542.961 22.2353V45.3206C542.961 46.1326 542.497 46.4807 541.801 46.4807H499.111V50.6569H526.604C527.3 50.6569 527.648 51.0049 527.648 51.817V75.0183C527.648 75.8304 527.3 76.1784 526.604 76.1784H499.111V80.3546H541.801C542.497 80.3546 542.961 80.7026 542.961 81.3987V104.484C542.961 105.296 542.497 105.644 541.801 105.644H461.292C460.596 105.644 460.132 105.18 460.132 104.6V22.2353C460.132 21.6552 460.596 21.0752 461.292 21.0752Z" fill="#8CD9DA"/>
<path d="M587.078 78.3825C587.078 80.4706 588.354 81.5147 590.442 81.5147C592.182 81.5147 593.575 80.2386 593.575 78.7305C593.575 76.6424 591.834 75.3663 589.166 75.3663C563.297 75.2503 545.316 66.8978 545.316 49.0328C545.316 32.6759 566.661 21.0752 589.514 21.0752C612.252 21.0752 632.437 30.3557 632.437 47.7567C632.437 48.4528 631.857 49.0328 631.045 49.0328H593.807C592.878 49.0328 592.182 48.4528 592.182 47.4087C592.182 45.7846 590.674 44.7406 588.934 44.7406C587.078 44.7406 585.57 46.0166 585.57 47.5247C585.57 48.3368 585.802 50.4249 588.818 50.4249C617.936 50.4249 633.249 60.9815 633.249 78.7305C633.249 95.3195 617.936 105.644 588.934 105.644C565.965 105.644 545.896 96.1315 545.896 78.3825C545.896 77.6865 546.476 77.1064 547.288 77.1064H585.686C586.498 77.1064 587.078 77.6865 587.078 78.3825Z" fill="#8CD9DA"/>
<path d="M416.02 303.879V309.624H364.312V303.879H416.02ZM352.821 303.879H318.348V298.134H352.821V303.879ZM461.983 303.879H427.511V298.134H461.983V303.879ZM312.603 298.134H289.621V292.389H312.603V298.134ZM484.964 298.134H467.729V292.389H484.964V298.134ZM289.621 292.388H272.385V286.643H289.621V292.388ZM507.947 292.388H490.71V286.643H507.947V292.388ZM266.64 286.643H255.149V280.897H266.64V286.643ZM519.437 286.643H507.947V280.897H519.437V286.643ZM255.149 280.897H243.659V275.152H255.149V280.897ZM530.928 280.897H519.437V275.152H530.928V280.897ZM243.659 275.152H232.167V269.406H243.659V275.152ZM542.418 275.152H530.928V269.406H542.418V275.152ZM232.167 269.406H220.676V263.661H232.167V269.406ZM548.164 269.406H542.418V263.661H548.164V269.406ZM220.676 263.661H214.931V257.916H220.676V263.661ZM559.655 263.661H548.164V257.916H553.91V252.171H559.655V263.661ZM214.931 257.916H209.186V252.171H214.931V257.916ZM209.186 252.17H203.441V246.425H209.186V252.17ZM565.401 252.17H559.655V246.425H565.401V252.17ZM203.441 246.425H197.695V234.935H203.441V246.425ZM571.146 240.68H565.401V217.698H571.146V240.68ZM197.695 234.935H191.95V223.443H197.695V234.935ZM191.95 217.698H186.204V211.952H191.95V217.698ZM565.401 217.698H559.655V206.207H565.401V217.698ZM197.695 206.207H191.95V194.717H197.695V206.207ZM559.655 206.207H553.91V200.462H559.655V206.207ZM553.91 200.462H548.164V194.717H553.91V200.462ZM203.441 194.717H197.695V188.971H203.441V194.717ZM548.164 194.717H542.418V188.971H548.164V194.717ZM209.186 188.972H203.441V183.226H209.186V188.972ZM542.418 188.972H536.673V183.226H542.418V188.972ZM214.931 183.226H209.186V177.48H214.931V183.226ZM536.673 183.226H525.183V177.48H536.673V183.226ZM226.422 177.48H214.931V171.735H226.422V177.48ZM525.183 177.48H513.692V171.735H525.183V177.48ZM237.912 171.735H226.422V165.989H237.912V171.735ZM513.692 171.735H496.455V165.989H513.692V171.735ZM260.894 165.989H243.659V160.244H260.894V165.989ZM484.964 165.989H479.219V160.244H484.964V165.989ZM496.455 165.989H484.965V160.244H496.455V165.989ZM289.621 160.244H260.894V154.499H289.621V160.244ZM479.219 160.244H456.238V154.499H479.219V160.244ZM335.584 154.499H295.367V148.753H335.584V154.499ZM450.493 154.499H410.275V148.753H450.493V154.499ZM393.038 148.753H358.566V143.008H393.038V148.753Z" fill="#B5F9FF"/>
<path d="M188.937 150.307H180.531V154.51H176.329V167.117H172.127V158.713H167.924V150.307H163.722V146.105H188.937V150.307ZM193.14 162.915H214.152V158.713H209.949V154.51H205.747V146.105H235.164V154.51H226.759V158.713H230.962V162.915H226.759V167.117H193.14V162.915ZM172.127 120.889H176.329V133.497H180.531V137.7H184.735V141.902H188.937V146.104H163.722V125.093H167.924V116.687H172.127V120.889ZM239.367 116.687H243.57V125.093H247.772V137.7H243.57V141.902H239.367V146.104H205.747V137.7H209.949V133.497H230.962V129.295H209.949V125.093H205.747V116.687H209.949V112.485H239.367V116.687ZM188.937 116.687H193.14V120.889H188.937V125.093H184.735V120.889H180.531V112.485H188.937V116.687ZM193.14 112.484H180.531V108.282H188.937V104.08H193.14V112.484ZM218.355 108.282H226.76V104.08H235.164V108.282H239.367V112.484H214.152V104.08H218.355V108.282Z" fill="#4BEA69"/>
<path d="M193.14 175.522H184.735V171.32H226.759V175.522H218.355V179.724H193.14V175.522ZM205.747 154.51H209.949V158.713H214.152V162.915H193.14V167.117H226.76V162.915H230.962V158.713H226.76V154.51H235.164V146.105H247.772V150.307H243.57V158.713H239.367V167.117H235.164V171.319H176.329V154.51H180.531V150.307H188.937V146.105H205.747V154.51ZM180.531 120.889H184.735V125.093H188.937V120.889H193.14V116.687H188.937V112.485H209.949V116.687H205.747V125.093H209.949V129.295H230.962V133.497H209.949V137.7H205.747V146.104H188.937V141.902H184.735V137.7H180.531V133.497H176.329V120.889H172.127V112.485H180.531V120.889ZM247.772 146.104H239.367V141.902H243.57V137.7H247.772V146.104ZM218.355 99.8767H226.759V108.282H218.355V104.08H214.152V112.484H193.14V104.08H188.937V108.282H180.531V112.484H172.127V108.282H176.329V104.08H184.735V99.8767H193.14V95.6746H218.355V99.8767Z" fill="#2B83F6"/>
<path d="M152.43 160.325H161.787V169.683H152.43V160.325Z" fill="#667AF9"/>
<path d="M191.565 175.739H180.217V171.955H191.565V175.739ZM195.349 175.739H191.566V171.955H195.349V175.739ZM233.181 171.955V175.739H195.35V171.955H233.181ZM176.434 171.956H165.084V168.173H168.867V168.172H176.434V171.956ZM244.529 171.956H233.181V168.172H244.529V171.956ZM165.084 168.173H157.518V164.39H165.084V168.173ZM252.096 168.173H244.53V164.39H252.096V168.173ZM157.518 164.39H153.734V160.607H157.518V164.39ZM255.879 164.39H252.096V160.607H255.879V164.39ZM149.951 156.823H153.734V160.607H146.168V153.04H149.951V156.823ZM259.662 160.607H255.879V156.823H259.662V160.607ZM263.445 156.823H259.662V153.04H263.445V156.823ZM146.168 153.04H142.386V145.474H146.168V153.04ZM267.229 149.257H263.445V137.908H267.229V149.257ZM146.168 137.907H142.386V130.342H146.168V137.907ZM263.445 137.907H259.662V130.342H263.445V137.907ZM149.951 130.342H146.168V126.559H149.951V130.342ZM259.662 130.342H255.879V126.559H259.662V130.342ZM153.734 126.559H149.951V122.776H153.734V126.559ZM255.879 126.559H252.096V122.776H255.879V126.559ZM161.301 122.776H153.734V118.992H161.301V122.776ZM168.867 118.992H161.301V115.209H168.867V118.992Z" fill="#B6F4FF"/>
<path d="M481.039 142.557H476.676V138.193H472.313V120.742H476.676V116.379H481.039V112.016H498.49V116.379H502.853V120.742H507.217V138.193H502.853V142.557H498.49V146.919H481.039V142.557Z" fill="black"/>
<path d="M498.49 146.92V151.282H481.039V146.92H498.49ZM476.676 142.557H481.039V146.919H472.313V138.193H476.676V142.557ZM507.216 146.919H498.49V142.557H502.853V138.193H507.216V146.919ZM472.313 138.193H467.95V120.742H472.313V138.193ZM511.579 138.193H507.217V120.742H511.579V138.193ZM481.039 116.379H476.676V120.742H472.313V112.017H481.039V116.379ZM507.216 120.742H502.853V116.379H498.49V112.017H507.216V120.742ZM498.49 112.016H481.039V107.653H498.49V112.016Z" fill="#3A085B"/>
<path d="M489.765 155.646H498.49V151.282H502.853V160.008H489.765V155.646ZM481.039 155.646H472.313V151.282H481.039V155.646ZM515.942 151.282H511.579V155.646H507.217V146.92H515.942V151.282ZM472.313 151.282H467.95V146.92H472.313V151.282ZM467.95 142.557H463.587V138.193H467.95V142.557ZM520.305 142.557H511.579V138.193H515.942V125.104H520.305V142.557ZM463.587 138.193H459.224V129.468H463.587V138.193ZM467.95 120.742H463.587V112.017H467.95V120.742ZM515.942 116.379H520.305V120.742H511.579V112.017H515.942V116.379ZM472.313 112.016H467.95V107.653H472.313V112.016ZM511.579 112.016H507.217V107.653H511.579V112.016ZM481.039 107.653H472.313V103.29H476.676V98.9277H481.039V107.653ZM507.216 107.653H498.49V103.29H507.216V107.653ZM498.49 103.29H485.401V98.9277H498.49V103.29Z" fill="#FF638D"/>
<path d="M498.49 160.008V164.371H485.401V160.008H498.49ZM467.95 160.008H459.224V155.646H467.95V160.008ZM515.942 160.008H507.217V155.646H511.579V151.282H515.942V160.008ZM472.313 155.646H467.95V151.282H472.313V155.646ZM467.95 151.282H459.224V146.92H467.95V151.282ZM524.668 151.282H520.305V146.92H524.668V151.282ZM524.668 146.919H515.942V142.557H520.305V138.193H524.668V146.919ZM463.587 142.557H459.224V138.193H463.587V142.557ZM529.031 129.468H524.668V125.104H529.031V129.468ZM459.224 125.104H454.861V120.742H459.224V125.104ZM524.668 125.104H520.305V116.379H524.668V125.104ZM520.305 116.379H515.942V112.017H520.305V116.379ZM467.95 112.016H463.587V107.653H467.95V112.016ZM515.942 112.016H511.579V107.653H515.942V112.016ZM472.313 107.653H467.95V103.29H472.313V107.653ZM476.676 103.29H472.313V98.9277H476.676V103.29ZM511.579 103.29H498.49V98.9277H511.579V103.29Z" fill="#E9265C"/>
<path d="M494.128 164.371V168.734H489.765V164.371H494.128ZM498.49 155.646H489.765V160.008H481.039V164.371H476.676V160.008H467.95V155.646H481.039V151.282H498.49V155.646ZM502.853 164.371H498.49V160.008H502.853V164.371ZM507.216 160.008H502.853V151.282H498.49V146.92H507.216V160.008ZM529.031 160.008H524.668V155.646H529.031V160.008ZM467.95 155.646H463.587V151.282H467.95V155.646ZM520.305 155.646H515.942V146.92H520.305V155.646ZM459.224 151.282H450.499V146.92H459.224V151.282ZM481.039 151.282H472.313V146.92H481.039V151.282ZM533.393 151.282H529.031V146.92H533.393V151.282ZM450.498 146.919H446.136V142.557H450.498V146.919ZM472.313 146.919H459.224V142.557H467.95V138.193H472.313V146.919ZM511.579 142.557H515.942V146.919H507.217V138.193H511.579V142.557ZM533.393 146.919H529.031V142.557H533.393V146.919ZM459.224 142.557H454.861V129.468H459.224V142.557ZM529.031 142.557H524.668V138.193H529.031V142.557ZM463.587 120.742H467.95V138.193H463.587V129.468H459.224V120.742H454.861V116.379H459.224V112.017H463.587V120.742ZM520.305 125.104H515.942V138.193H511.579V120.742H520.305V125.104ZM524.668 138.193H520.305V125.104H524.668V138.193ZM446.136 120.742H441.772V116.379H446.136V120.742ZM472.313 120.742H467.95V112.017H472.313V120.742ZM511.579 120.742H507.217V112.017H511.579V120.742ZM454.861 116.379H450.499V112.017H454.861V116.379ZM524.668 116.379H520.305V112.017H524.668V116.379ZM533.393 116.379H529.031V112.017H533.393V116.379ZM454.861 112.016H450.499V103.29H454.861V112.016ZM463.587 112.016H459.224V107.653H463.587V112.016ZM481.039 112.016H472.313V107.653H481.039V112.016ZM507.216 112.016H498.49V107.653H507.216V112.016ZM520.305 112.016H515.942V107.653H520.305V112.016ZM467.95 107.653H463.587V103.29H467.95V107.653ZM485.401 103.29H498.49V107.653H481.039V98.9277H485.401V103.29ZM515.942 107.653H507.217V103.29H515.942V107.653ZM472.313 103.29H467.95V94.5645H472.313V103.29ZM502.853 98.9277H485.401V94.5645H502.853V98.9277ZM520.305 98.9277H515.942V94.5645H520.305V98.9277ZM476.676 94.5645H472.313V90.2021H476.676V94.5645ZM507.216 94.5645H502.853V90.2021H507.216V94.5645ZM481.039 90.2012H476.676V85.8389H481.039V90.2012ZM511.579 90.2012H507.217V85.8389H511.579V90.2012Z" fill="#FEB9D5"/>
<path d="M533.393 168.734V173.097H529.031V168.734H533.393ZM450.498 168.734H446.136V164.371H450.498V168.734ZM537.757 168.734H533.393V164.371H537.757V168.734ZM446.136 164.371H441.772V160.008H446.136V164.371ZM441.772 138.193H437.41V133.831H441.772V138.193ZM437.41 133.831H433.047V125.104H437.41V133.831ZM546.482 129.468H542.119V120.742H546.482V129.468ZM542.119 120.742H537.757V116.379H542.119V120.742ZM450.498 94.5645H446.136V90.2021H450.498V94.5645ZM537.757 94.5645H533.393V90.2021H537.757V94.5645ZM450.498 90.2012H446.136V85.8389H450.498V90.2012ZM533.393 90.2012H529.031V85.8389H533.393V90.2012ZM454.861 85.8389H450.499V81.4756H454.861V85.8389ZM494.128 81.4756H489.765V77.1133H494.128V81.4756ZM498.49 77.1133H494.128V72.75H498.49V77.1133Z" fill="#A28EF4"/>
<path d="M367.911 219.53H360.674V226.767H353.437V234.005H338.962V241.242H317.25V248.479H281.064V241.242H266.589V234.005H252.114V226.767H244.877V212.293H367.911V219.53ZM367.911 248.479H360.674V241.242H367.911V248.479ZM360.674 241.242H353.437V234.005H360.674V241.242ZM375.149 241.242H367.911V234.005H375.149V241.242ZM367.911 234.005H360.674V226.767H367.911V234.005ZM346.199 118.208H367.911V125.445H375.149V132.682H382.386V147.157H389.623V183.343H382.386V197.818H375.149V212.292H237.64V183.343H244.877V161.631H252.114V147.157H259.352V161.631H273.826V154.394H281.064V147.157H288.301V139.92H295.538V125.445H281.064V118.208H302.776V110.97H346.199V118.208ZM273.826 190.581H266.589V197.818H273.826V205.055H281.064V197.818H288.301V190.581H281.064V183.343H273.826V190.581ZM281.064 197.818H273.826V190.581H281.064V197.818ZM252.114 183.343H266.589V168.869H252.114V183.343ZM353.437 139.92H346.199V147.157H353.437V154.394H360.674V147.157H367.911V139.92H360.674V132.682H353.437V139.92ZM266.589 147.157H259.352V139.92H266.589V147.157ZM360.674 147.157H353.437V139.92H360.674V147.157ZM273.826 139.92H266.589V132.682H273.826V139.92ZM281.064 132.682H273.826V125.445H281.064V132.682Z" fill="#9C8ADA"/>
<path d="M360.674 262.954H346.199V270.191H281.064V262.954H266.589V255.716H360.674V262.954ZM244.877 226.767H252.114V234.005H266.589V241.242H281.064V248.479H317.25V241.242H338.962V234.005H353.437V241.242H360.674V248.479H367.911V241.242H375.149V234.005H367.911V226.767H360.674V219.53H367.911V212.293H396.861V226.767H389.623V241.242H382.386V248.479H375.149V255.715H259.352V248.479H252.114V241.242H244.877V234.005H237.64V219.53H230.403V212.293H244.877V226.767ZM367.911 241.242H360.674V234.005H367.911V241.242ZM360.674 234.005H353.437V226.767H360.674V234.005ZM237.64 212.292H230.403V183.343H237.64V212.292ZM396.861 161.631H404.098V212.292H375.149V197.818H382.386V183.343H389.623V147.157H396.861V161.631ZM281.064 205.055H273.826V197.818H281.064V205.055ZM273.826 197.818H266.589V190.581H273.826V197.818ZM288.301 197.818H281.064V190.581H288.301V197.818ZM281.064 190.581H273.826V183.343H281.064V190.581ZM244.877 183.343H237.64V161.631H244.877V183.343ZM252.114 161.631H244.877V147.157H252.114V161.631ZM360.674 154.394H353.437V147.157H360.674V154.394ZM259.352 147.157H252.114V139.92H259.352V147.157ZM353.437 147.157H346.199V139.92H353.437V147.157ZM367.911 147.157H360.674V139.92H367.911V147.157ZM389.623 147.157H382.386V132.682H389.623V147.157ZM266.589 139.92H259.352V132.682H266.589V139.92ZM360.674 139.92H353.437V132.682H360.674V139.92ZM273.826 132.682H266.589V125.445H273.826V132.682ZM382.386 132.682H375.149V125.445H382.386V132.682ZM281.064 125.445H273.826V118.208H281.064V125.445ZM375.149 125.445H367.911V118.208H375.149V125.445ZM302.776 118.208H281.064V110.97H302.776V118.208ZM367.911 118.208H346.199V110.97H367.911V118.208ZM346.199 110.97H302.776V103.733H346.199V110.97Z" fill="#7864C7"/>
<path d="M346.199 284.666V291.903H302.776V284.666H346.199ZM266.589 262.954H281.064V270.191H346.199V262.954H360.674V255.716H396.861V262.954H389.623V270.191H382.386V277.428H367.911V284.665H281.064V277.428H266.589V270.191H259.352V262.954H252.114V255.716H266.589V262.954ZM252.114 248.479H259.352V255.715H244.877V241.242H252.114V248.479ZM411.335 234.005H404.098V255.715H375.149V248.479H382.386V241.242H389.623V226.767H396.861V212.293H411.335V234.005ZM244.877 241.242H237.64V234.005H244.877V241.242ZM404.098 154.394H411.335V176.106H418.572V212.292H404.098V161.631H396.861V147.157H404.098V154.394ZM396.861 147.157H389.623V139.92H396.861V147.157Z" fill="#4A4284"/>
<path d="M367.911 284.666V291.903H353.437V284.666H367.911ZM382.386 284.665H367.911V277.428H382.386V284.665ZM389.623 277.428H382.386V270.191H389.623V277.428ZM396.861 270.191H389.623V262.954H396.861V270.191ZM404.098 262.954H396.861V255.716H404.098V262.954ZM411.335 255.715H404.098V241.242H411.335V255.715ZM418.572 241.242H411.335V219.53H418.572V241.242ZM230.403 219.53H223.165V212.293H230.403V219.53ZM425.81 219.53H418.572V212.293H425.81V219.53ZM230.403 212.292H223.165V176.106H230.403V212.292ZM425.81 212.292H418.572V183.343H425.81V212.292ZM266.589 183.343H252.114V168.869H266.589V183.343ZM237.64 168.869H230.403V154.394H237.64V168.869ZM295.538 139.92H288.301V147.157H281.064V154.394H273.826V161.631H259.352V147.157H266.589V139.92H273.826V132.682H281.064V125.445H295.538V139.92ZM244.877 147.157H237.64V139.92H244.877V147.157ZM411.335 147.157H404.098V139.92H411.335V147.157ZM252.114 139.92H244.877V132.682H252.114V139.92ZM404.098 139.92H396.861V132.682H404.098V139.92ZM259.352 132.682H252.114V125.445H259.352V132.682ZM396.861 132.682H389.623V125.445H396.861V132.682ZM266.589 125.445H259.352V118.208H266.589V125.445ZM389.623 125.445H382.386V118.208H389.623V125.445ZM273.826 118.208H266.589V110.97H273.826V118.208ZM382.386 118.208H375.149V110.97H382.386V118.208ZM295.538 110.97H281.064V103.733H295.538V110.97ZM367.911 110.97H353.437V103.733H367.911V110.97ZM346.199 103.733H302.776V96.4957H346.199V103.733Z" fill="#FBD7FF"/>
<path d="M346.199 291.903V299.139H302.776V291.903H346.199ZM302.776 291.903H281.064V284.666H302.776V291.903ZM353.437 291.903H346.199V284.666H353.437V291.903ZM281.064 284.665H266.589V277.428H281.064V284.665ZM266.589 277.428H259.352V270.191H266.589V277.428ZM259.352 270.191H252.114V262.954H259.352V270.191ZM252.114 262.954H244.877V255.716H252.114V262.954ZM244.877 255.715H237.64V241.242H244.877V255.715ZM237.64 241.242H230.403V219.53H237.64V241.242ZM411.335 241.242H404.098V234.005H411.335V241.242ZM418.572 219.53H411.335V212.293H418.572V219.53ZM237.64 183.343H230.403V168.869H237.64V183.343ZM425.81 183.343H418.572V176.106H425.81V183.343ZM418.572 176.106H411.335V154.394H418.572V176.106ZM244.877 161.631H237.64V147.157H244.877V161.631ZM411.335 154.394H404.098V147.157H411.335V154.394ZM252.114 147.157H244.877V139.92H252.114V147.157ZM404.098 147.157H396.861V139.92H404.098V147.157ZM259.352 139.92H252.114V132.682H259.352V139.92ZM396.861 139.92H389.623V132.682H396.861V139.92ZM266.589 132.682H259.352V125.445H266.589V132.682ZM389.623 132.682H382.386V125.445H389.623V132.682ZM273.826 125.445H266.589V118.208H273.826V125.445ZM382.386 125.445H375.149V118.208H382.386V125.445ZM281.064 118.208H273.826V110.97H281.064V118.208ZM375.149 118.208H367.911V110.97H375.149V118.208ZM302.776 110.97H295.538V103.733H302.776V110.97ZM353.437 110.97H346.199V103.733H353.437V110.97Z" fill="#CAABEF"/>
<rect x="360.674" y="313.614" width="7.23729" height="7.23729" fill="#3F2520"/>
<rect x="367.911" y="313.614" width="7.23729" height="7.23729" fill="#3F2520"/>
<rect x="317.25" y="320.852" width="7.23729" height="7.23729" fill="#3F2520"/>
<rect x="324.487" y="320.852" width="7.23729" height="7.23729" fill="#3F2520"/>
<rect x="273.826" y="328.089" width="7.23729" height="7.23729" fill="#D59433"/>
<path d="M331.725 328.089V335.326H317.25V328.089H331.725ZM346.199 313.614H331.725V306.378H346.199V313.614ZM295.538 306.378H288.301V299.14H295.538V306.378ZM281.064 299.139H266.589V291.902H281.064V299.139Z" fill="#CA8343"/>
<path d="M302.776 349.801H295.538V342.564H302.776V349.801ZM317.25 349.801H310.013V342.564H317.25V349.801ZM338.962 349.801H331.725V342.564H338.962V349.801ZM353.437 349.801H346.199V342.564H353.437V349.801ZM302.776 335.326H295.538V328.089H302.776V335.326ZM353.437 335.326H346.199V328.089H353.437V335.326ZM317.25 328.089H310.013V320.852H317.25V328.089ZM338.962 328.089H331.725V320.852H338.962V328.089Z" fill="#8E492A"/>
<path d="M252.114 357.038H244.877V349.8H252.114V357.038ZM259.352 349.801H252.114V342.564H259.352V349.801ZM367.911 349.801H360.674V335.327H367.911V349.801ZM266.589 342.564H259.352V335.327H266.589V342.564ZM331.725 342.564H317.25V335.327H331.725V342.564ZM273.826 335.326H266.589V328.089H273.826V335.326ZM367.911 335.326H360.674V320.852H367.911V335.326ZM288.301 328.089H273.826V320.852H288.301V328.089ZM331.725 313.614H288.301V306.378H331.725V313.614ZM288.301 306.378H273.826V299.14H288.301V306.378Z" fill="#FBBD45"/>
<path d="M310.013 357.038H302.776V349.8H310.013V357.038ZM346.199 357.038H338.962V349.8H346.199V357.038ZM411.335 342.564H404.098V335.327H411.335V342.564ZM411.335 335.326H404.098V320.852H411.335V335.326ZM244.877 328.089H237.64V320.852H244.877V328.089ZM252.114 320.851H244.877V313.614H252.114V320.851ZM404.098 320.851H396.861V313.614H404.098V320.851ZM259.352 313.614H252.114V306.378H259.352V313.614ZM367.911 306.378H360.674V313.614H346.199V306.378H353.437V299.14H367.911V306.378ZM396.861 313.614H389.623V306.378H396.861V313.614ZM266.589 306.378H259.352V299.14H266.589V306.378ZM389.623 306.378H382.386V299.14H389.623V306.378Z" fill="#A16138"/>
<path d="M302.776 357.038H295.538V349.8H302.776V357.038ZM353.437 357.038H346.199V349.8H353.437V357.038ZM252.114 342.564H244.877V335.327H252.114V342.564ZM266.589 328.089H259.352V335.326H244.877V328.089H252.114V320.852H266.589V328.089ZM404.098 335.326H396.861V328.089H389.623V320.852H404.098V335.326ZM266.589 320.851H259.352V313.614H266.589V320.851ZM288.301 320.851H273.826V313.614H288.301V320.851ZM389.623 313.614H396.861V320.851H382.386V313.614H375.149V306.378H389.623V313.614ZM273.826 313.614H266.589V306.378H273.826V313.614ZM375.149 306.378H367.911V299.14H375.149V306.378ZM382.386 299.139H367.911V291.902H382.386V299.139Z" fill="#623A35"/>
<path d="M266.589 364.276H252.114V357.039H266.589V364.276ZM389.623 364.276H382.386V357.039H389.623V364.276ZM281.064 349.801H273.826V357.038H259.352V349.8H266.589V342.564H273.826V335.327H281.064V349.801ZM375.149 342.564H382.386V349.8H389.623V357.038H375.149V349.801H367.911V335.327H375.149V342.564ZM310.013 342.564H302.776V335.327H310.013V342.564ZM346.199 342.564H338.962V335.327H346.199V342.564Z" fill="#B96423"/>
<path d="M317.25 364.276H310.013V357.039H317.25V364.276ZM338.962 364.276H331.725V357.039H338.962V364.276ZM396.861 364.276H389.623V357.039H396.861V364.276ZM259.352 357.038H252.114V349.8H259.352V357.038ZM331.725 357.038H317.25V349.8H331.725V357.038ZM396.861 357.038H389.623V349.8H396.861V357.038ZM266.589 349.801H259.352V342.564H266.589V349.801ZM389.623 349.801H382.386V342.564H389.623V349.801ZM404.098 349.801H396.861V342.564H404.098V349.801ZM244.877 342.564H237.64V335.327H244.877V342.564ZM273.826 342.564H266.589V335.327H273.826V342.564ZM302.776 342.564H295.538V335.327H302.776V342.564ZM353.437 342.564H346.199V335.327H353.437V342.564ZM382.386 342.564H375.149V335.327H382.386V342.564ZM396.861 342.564H389.623V335.327H396.861V342.564ZM244.877 335.326H237.64V328.089H244.877V335.326ZM382.386 335.326H367.911V328.089H382.386V335.326ZM252.114 328.089H244.877V320.852H252.114V328.089ZM310.013 320.852V328.089H295.538V320.852H310.013ZM353.437 320.852V328.089H338.962V320.852H353.437ZM259.352 320.851H252.114V313.614H259.352V320.851ZM266.589 313.614H259.352V306.377H266.589V313.614Z" fill="#7A3E24"/>
<path d="M252.114 364.276H266.589V371.513H244.877V357.039H252.114V364.276ZM396.861 364.276V357.039H404.098V371.513H382.386V364.276H396.861ZM273.826 364.276H266.589V357.039H273.826V364.276ZM331.725 364.276H317.25V357.039H331.725V364.276ZM382.386 364.276H375.149V357.039H382.386V364.276ZM281.064 357.038H273.826V349.8H281.064V357.038ZM375.149 357.038H367.911V349.8H375.149V357.038ZM404.098 357.038H396.861V349.8H404.098V357.038ZM288.301 349.801H281.064V335.327H288.301V349.801ZM310.013 349.801H302.776V342.564H310.013V349.801ZM331.725 349.801H317.25V342.564H331.725V349.801ZM346.199 349.801H338.962V342.564H346.199V349.801ZM396.861 349.801H389.623V342.564H396.861V349.801ZM389.623 342.564H382.386V335.327H389.623V342.564ZM288.301 335.326H281.064V328.089H288.301V335.326ZM310.013 335.326H302.776V328.089H310.013V335.326ZM346.199 335.326H338.962V328.089H346.199V335.326ZM389.623 335.326H382.386V328.089H389.623V335.326ZM382.386 328.089H367.911V320.852H382.386V328.089Z" fill="#DC8F49"/>
<path d="M244.877 371.512H266.589V378.75H237.64V357.039H244.877V371.512ZM411.335 378.75H382.386V371.512H404.098V357.039H411.335V378.75ZM273.826 371.513H266.589V364.276H273.826V371.513ZM338.962 364.276V371.513H310.013V364.276H338.962ZM382.386 371.513H375.149V364.276H382.386V371.513ZM288.301 364.276H273.826V357.039H288.301V364.276ZM310.013 364.276H295.538V357.039H310.013V364.276ZM353.437 364.276H338.962V357.039H353.437V364.276ZM375.149 364.276H360.674V357.039H375.149V364.276ZM237.64 342.564H252.114V349.801H244.877V357.038H237.64V349.801H230.403V335.327H237.64V342.564ZM295.538 357.038H281.064V349.8H288.301V335.327H295.538V357.038ZM317.25 357.038H310.013V349.8H317.25V357.038ZM338.962 357.038H331.725V349.8H338.962V357.038ZM360.674 349.8H367.911V357.038H353.437V335.327H360.674V349.8ZM418.572 349.801H411.335V357.038H404.098V342.564H411.335V335.327H418.572V349.801ZM259.352 342.564H252.114V335.327H259.352V342.564ZM317.25 342.564H310.013V335.327H317.25V342.564ZM338.962 342.564H331.725V335.327H338.962V342.564ZM404.098 342.564H396.861V335.327H404.098V342.564ZM237.64 335.326H230.403V320.852H237.64V335.326ZM266.589 335.326H259.352V328.089H266.589V335.326ZM295.538 335.326H288.301V320.852H295.538V335.326ZM317.25 335.326H310.013V328.089H317.25V335.326ZM338.962 335.326H331.725V328.089H338.962V335.326ZM360.674 335.326H353.437V320.852H360.674V335.326ZM396.861 335.326H389.623V328.089H396.861V335.326ZM418.572 335.326H411.335V320.852H418.572V335.326ZM273.826 328.089H266.589V320.852H273.826V328.089ZM389.623 328.089H382.386V320.852H389.623V328.089ZM244.877 320.851H237.64V313.614H244.877V320.851ZM273.826 320.851H266.589V313.614H273.826V320.851ZM360.674 320.851H288.301V313.614H360.674V320.851ZM382.386 320.851H375.149V313.614H382.386V320.851ZM411.335 320.851H404.098V313.614H411.335V320.851ZM252.114 313.614H244.877V306.378H252.114V313.614ZM288.301 313.614H273.826V306.378H288.301V313.614ZM375.149 313.614H360.674V306.378H375.149V313.614ZM404.098 313.614H396.861V306.378H404.098V313.614ZM259.352 306.378H252.114V299.14H259.352V306.378ZM273.826 306.378H266.589V299.14H273.826V306.378ZM353.437 306.378H295.538V299.14H353.437V306.378ZM382.386 306.378H375.149V299.14H382.386V306.378ZM396.861 306.378H389.623V299.14H396.861V306.378ZM281.064 291.903H266.589V299.139H259.352V284.666H281.064V291.903ZM302.776 299.139H281.064V291.903H302.776V299.139ZM367.911 299.139H346.199V291.903H367.911V299.139ZM389.623 299.139H382.386V291.903H367.911V284.666H389.623V299.139ZM266.589 284.665H259.352V277.428H266.589V284.665ZM389.623 284.665H382.386V277.428H389.623V284.665ZM259.352 277.428H252.114V270.191H259.352V277.428ZM396.861 277.428H389.623V270.191H396.861V277.428ZM252.114 270.191H244.877V262.954H252.114V270.191ZM404.098 270.191H396.861V262.954H404.098V270.191ZM244.877 262.954H237.64V255.716H244.877V262.954ZM411.335 262.954H404.098V255.716H411.335V262.954ZM237.64 255.715H230.403V241.242H237.64V255.715ZM418.572 255.715H411.335V241.242H418.572V255.715ZM230.403 241.242H223.165V219.53H230.403V241.242ZM425.81 241.242H418.572V219.53H425.81V241.242ZM223.165 219.53H215.928V212.293H223.165V219.53ZM433.047 219.53H425.81V212.293H433.047V219.53ZM223.165 212.292H215.928V176.106H223.165V212.292ZM433.047 212.292H425.81V176.106H433.047V212.292ZM230.403 176.106H223.165V154.394H230.403V176.106ZM425.81 176.106H418.572V154.394H425.81V176.106ZM237.64 154.394H230.403V139.92H237.64V154.394ZM418.572 154.394H411.335V139.92H418.572V154.394ZM244.877 139.92H237.64V132.682H244.877V139.92ZM411.335 139.92H404.098V132.682H411.335V139.92ZM252.114 132.682H244.877V125.445H252.114V132.682ZM404.098 132.682H396.861V125.445H404.098V132.682ZM259.352 125.445H252.114V118.208H259.352V125.445ZM396.861 125.445H389.623V118.208H396.861V125.445ZM266.589 118.208H259.352V110.97H266.589V118.208ZM389.623 118.208H382.386V110.97H389.623V118.208ZM281.064 110.97H266.589V103.733H281.064V110.97ZM382.386 110.97H367.911V103.733H382.386V110.97ZM302.776 103.733H281.064V96.4957H302.776V103.733ZM367.911 103.733H346.199V96.4957H367.911V103.733ZM346.199 96.4957H302.776V89.2584H346.199V96.4957Z" fill="black"/>
<path d="M355.541 339.572H272.941V334.409H355.541V339.572ZM262.616 334.409H236.803V329.247H262.616V334.409ZM381.352 334.409H365.865V329.247H381.352V334.409ZM391.677 334.409H381.353V329.247H391.677V334.409ZM231.641 329.247H210.991V324.085H231.641V329.247ZM417.49 329.247H396.841V324.085H417.49V329.247ZM210.991 324.084H195.504V318.922H210.991V324.084ZM432.977 324.084H417.49V318.922H432.977V324.084ZM190.341 318.922H180.016V313.76H190.341V318.922ZM448.465 318.922H432.977V313.76H448.465V318.922ZM180.016 313.76H169.691V308.596H180.016V313.76ZM458.79 313.76H448.465V308.596H458.79V313.76ZM169.691 308.596H159.367V303.434H169.691V308.596ZM463.952 308.596H458.79V303.434H463.952V308.596ZM159.367 303.434H149.042V298.272H159.367V303.434ZM474.277 303.434H463.952V298.272H474.277V303.434ZM149.042 298.272H143.879V293.109H149.042V298.272ZM479.44 298.272H474.277V293.109H479.44V298.272ZM143.879 293.109H138.716V287.947H143.879V293.109ZM484.602 293.109H479.44V282.785H484.602V293.109ZM138.716 287.947H133.554V282.785H138.716V287.947ZM133.554 282.785H128.391V277.622H133.554V282.785ZM489.764 282.785H484.602V262.135H489.764V282.785ZM128.391 277.622H123.229V262.135H128.391V277.622ZM484.602 262.135H479.44V251.809H484.602V262.135ZM128.391 251.809H123.229V241.484H128.391V251.809ZM479.44 251.809H474.277V246.647H479.44V251.809ZM474.277 246.647H469.115V241.484H474.277V246.647ZM133.554 241.485H128.391V236.322H133.554V241.485ZM469.115 241.485H463.952V236.322H469.115V241.485ZM138.716 236.322H133.554V231.16H138.716V236.322ZM463.952 236.322H453.628V231.16H463.952V236.322ZM143.879 231.16H138.716V225.997H143.879V231.16ZM453.628 231.16H448.465V225.997H453.628V231.16ZM154.204 225.998H143.879V220.835H154.204V225.998ZM443.302 225.998H432.977V220.835H443.302V225.998ZM169.691 220.835H154.204V215.673H169.691V220.835ZM432.977 220.835H432.479L432.977 219.889V220.835ZM190.341 215.673H169.691V210.51H190.341V215.673ZM214.861 210.51H190.341V205.347H214.861V210.51Z" fill="#B5F9FF"/>
<path d="M105.604 235.364V239.951H101.017V235.364H105.604ZM169.828 235.364H160.654V226.189H169.828V235.364ZM151.479 217.015H156.067V226.189H151.479V230.776H142.304V226.189H137.716V217.015H142.304V212.427H151.479V217.015Z" fill="white"/>
<path d="M110.192 295.001H105.604V290.414H110.192V295.001ZM183.591 276.651H179.003V285.826H174.416V290.414H169.828V285.826H165.242V290.414H151.479V295.001H123.954V290.414H110.192V285.826H105.604V290.414H101.017V285.826H96.4291V276.651H91.8422V272.064H183.591V276.651ZM169.828 290.414V295.001H165.242V290.414H169.828ZM142.304 290.414H146.891V285.826H142.304V290.414ZM188.178 267.477H183.591V272.063H91.8422V267.477H87.2543V239.952H188.178V267.477ZM151.479 207.84H160.654V212.427H169.828V217.015H174.416V221.602H179.003V230.776H183.591V239.951H105.604V235.364H101.017V239.951H91.8422V230.776H96.4291V221.602H101.017V217.015H105.604V212.427H114.779V217.015H110.192V221.602H105.604V226.189H110.192V221.602H114.779V217.015H123.954V212.427H114.779V207.84H123.954V203.252H151.479V207.84ZM160.654 235.364H169.828V226.189H160.654V235.364ZM142.304 217.015H137.716V226.189H142.304V230.776H151.479V226.189H156.067V217.015H151.479V212.427H142.304V217.015ZM128.541 212.427H137.716V207.84H128.541V212.427Z" fill="#FF1AD2"/>
<path d="M123.954 299.589H114.779V295.001H110.192V290.414H123.954V295.001H151.479V290.414H165.242V295.001H160.654V299.589H151.479V304.177H123.954V299.589ZM110.192 290.414H105.604V285.826H110.192V290.414ZM146.891 290.414H142.304V285.826H146.891V290.414ZM169.828 290.414H165.242V285.826H169.828V290.414ZM110.192 226.189H105.604V221.602H110.192V226.189ZM114.779 221.602H110.192V217.015H114.779V221.602ZM123.954 217.015H114.779V212.427H123.954V217.015ZM137.716 212.427H128.541V207.84H137.716V212.427Z" fill="#CC0595"/>
<path d="M487.455 213.839H510.231V209.284H555.785V213.839H514.787V218.395H487.455V213.839ZM587.674 209.283H546.675V204.729H587.674V209.283Z" fill="#FF5E47"/>
<path d="M492.01 259.393H482.899V241.172H601.34V245.727H592.228V250.282H583.118V254.838H574.007V259.393H542.119V263.948H492.01V259.393ZM596.784 222.95H601.34V241.171H482.899V232.061H501.121V227.505H510.231V222.95H528.453V218.395H560.341V213.839H596.784V222.95ZM569.452 195.617H574.007V200.173H519.343V204.729H496.565V200.173H501.121V195.617H555.786V191.062H569.452V195.617Z" fill="#FFAF79"/>
<path d="M569.452 273.06V277.614H514.787V273.06H569.452ZM601.34 259.393H596.784V263.948H583.118V268.504H574.007V273.059H555.786V268.504H555.785V273.059H496.565V268.504H487.455V259.393H492.01V263.948H542.119V259.393H574.007V254.838H583.118V250.282H592.228V245.727H601.34V259.393ZM596.784 213.839H560.341V218.395H528.453V222.95H510.231V227.505H501.121V232.061H482.899V222.95H487.455V218.395H514.787V213.839H555.786V209.284H596.784V213.839ZM510.231 213.839H487.455V209.284H510.231V213.839ZM583.118 200.173H587.674V204.729H546.675V209.283H496.565V204.729H519.343V200.173H574.007V195.617H583.118V200.173Z" fill="#FF8873"/>
<path d="M523.897 291.28H514.787V286.726H501.121V282.17H496.565V273.06H514.787V277.614H569.452V273.06H587.673V282.17H583.118V286.726H569.452V291.28H560.341V300.392H523.897V291.28ZM596.784 268.504H587.674V273.059H574.007V268.504H583.118V263.948H596.784V268.504ZM560.341 186.507H569.452V191.062H555.785V195.617H514.787V186.507H523.897V181.951H560.341V186.507Z" fill="#FFBD91"/>
<rect x="198.284" y="240.967" width="5.7454" height="5.7454" fill="#B5F9FF"/>
<rect x="204.029" y="246.712" width="5.7454" height="5.7454" fill="#B5F9FF"/>
<rect x="209.775" y="252.458" width="5.7454" height="5.7454" fill="#B5F9FF"/>
<rect x="215.52" y="258.203" width="5.7454" height="5.7454" fill="#B5F9FF"/>
<rect x="221.265" y="263.948" width="5.7454" height="5.7454" fill="#B5F9FF"/>
<rect x="227.011" y="263.948" width="5.7454" height="5.7454" fill="#B5F9FF"/>
<rect x="232.756" y="269.694" width="5.7454" height="5.7454" fill="#B5F9FF"/>
<rect x="238.502" y="269.694" width="5.7454" height="5.7454" fill="#B5F9FF"/>
<rect x="244.247" y="275.439" width="5.7454" height="5.7454" fill="#B5F9FF"/>
<rect x="249.992" y="275.439" width="5.7454" height="5.7454" fill="#B5F9FF"/>
<rect x="255.738" y="281.184" width="5.7454" height="5.7454" fill="#B5F9FF"/>
<rect x="261.483" y="281.184" width="5.7454" height="5.7454" fill="#B5F9FF"/>
<rect x="272.974" y="286.93" width="5.7454" height="5.7454" fill="#B5F9FF"/>
<rect x="278.719" y="286.93" width="5.7454" height="5.7454" fill="#B5F9FF"/>
<rect x="284.465" y="286.93" width="5.7454" height="5.7454" fill="#B5F9FF"/>
<rect x="290.21" y="292.675" width="5.7454" height="5.7454" fill="#B5F9FF"/>
<rect x="295.956" y="292.675" width="5.7454" height="5.7454" fill="#B5F9FF"/>
<rect x="301.701" y="292.675" width="5.7454" height="5.7454" fill="#B5F9FF"/>
<rect x="307.446" y="292.675" width="5.7454" height="5.7454" fill="#B5F9FF"/>
<rect x="468.317" y="292.675" width="5.7454" height="5.7454" fill="#B5F9FF"/>
<rect x="474.063" y="292.675" width="5.7454" height="5.7454" fill="#B5F9FF"/>
<rect x="479.808" y="292.675" width="5.7454" height="5.7454" fill="#B5F9FF"/>
<rect x="318.937" y="298.421" width="5.7454" height="5.7454" fill="#B5F9FF"/>
<rect x="324.683" y="298.421" width="5.7454" height="5.7454" fill="#B5F9FF"/>
<rect x="330.428" y="298.421" width="5.7454" height="5.7454" fill="#B5F9FF"/>
<rect x="336.173" y="298.421" width="5.7454" height="5.7454" fill="#B5F9FF"/>
<rect x="341.919" y="298.421" width="5.7454" height="5.7454" fill="#B5F9FF"/>
<rect x="347.664" y="298.421" width="5.7454" height="5.7454" fill="#B5F9FF"/>
<rect x="428.1" y="298.421" width="5.7454" height="5.7454" fill="#B5F9FF"/>
<rect x="433.845" y="298.421" width="5.7454" height="5.7454" fill="#B5F9FF"/>
<rect x="439.59" y="298.421" width="5.7454" height="5.7454" fill="#B5F9FF"/>
<rect x="445.336" y="298.421" width="5.7454" height="5.7454" fill="#B5F9FF"/>
<rect x="451.081" y="298.421" width="5.7454" height="5.7454" fill="#B5F9FF"/>
<rect x="456.827" y="298.421" width="5.7454" height="5.7454" fill="#B5F9FF"/>
<rect x="364.9" y="304.166" width="5.7454" height="5.7454" fill="#B5F9FF"/>
<rect x="370.646" y="304.166" width="5.7454" height="5.7454" fill="#B5F9FF"/>
<rect x="376.391" y="304.166" width="5.7454" height="5.7454" fill="#B5F9FF"/>
<rect x="382.136" y="304.166" width="5.7454" height="5.7454" fill="#B5F9FF"/>
<rect x="387.882" y="304.166" width="5.7454" height="5.7454" fill="#B5F9FF"/>
<rect x="393.627" y="304.166" width="5.7454" height="5.7454" fill="#B5F9FF"/>
<rect x="399.373" y="304.166" width="5.7454" height="5.7454" fill="#B5F9FF"/>
<rect x="405.118" y="304.166" width="5.7454" height="5.7454" fill="#B5F9FF"/>
<rect x="410.863" y="304.166" width="5.7454" height="5.7454" fill="#B5F9FF"/>
<path d="M419.958 245.021H408.024V241.043H396.09V233.087H392.113V225.131H388.134V217.175H396.09V221.153H400.068V225.131H404.047V229.109H408.024V233.087H419.958V237.065H439.848V233.087H443.826V229.109H447.803V217.175H451.782V225.131H455.759V241.043H451.782V245.021H443.826V248.998H419.958V245.021Z" fill="#FE500C"/>
<path d="M380.178 252.977H388.134V260.933H380.178V252.977ZM467.693 245.021H463.715V241.042H467.693V245.021ZM427.914 201.263H435.87V205.241H443.826V209.219H447.803V229.109H443.826V233.087H439.847V237.065H419.958V233.087H408.024V229.109H404.047V225.131H400.068V221.154H396.09V217.175H392.113V209.219H396.09V205.241H404.047V201.263H412.003V197.285H427.914V201.263Z" fill="#FFB913"/>
<path d="M376.201 256.954H380.178V260.933H384.157V264.91H376.201V256.954ZM459.738 213.198H451.782V205.241H459.738V213.198Z" fill="#667AF9"/>
<path d="M412.003 264.91H404.047V260.933H396.09V256.954H392.113V248.998H400.068V252.977H408.024V248.998H400.068V245.021H392.113V241.043H388.134V237.065H384.157V225.131H392.113V233.087H396.09V241.042H408.024V245.021H419.958V248.998H443.826V245.021H451.782V248.998H447.803V256.954H443.826V260.933H431.892V256.954H419.958V260.933H431.892V264.91H427.914V268.888H412.003V264.91ZM408.024 256.954H419.958V252.977H408.024V256.954ZM392.112 248.998H388.134V245.021H392.112V248.998Z" fill="#E11833"/>
<path d="M463.715 264.91V268.888H443.826V264.91H463.715ZM443.826 264.91H431.892V260.933H443.826V264.91ZM467.693 264.91H463.715V252.977H467.693V264.91ZM431.892 260.933H419.958V256.954H431.892V260.933ZM419.958 256.954H408.024V252.977H419.958V256.954ZM408.024 252.977H400.068V248.998H408.024V252.977ZM463.715 252.977H459.738V248.998H463.715V252.977ZM400.068 248.998H392.113V245.021H400.068V248.998ZM459.738 248.998H455.759V245.021H459.738V248.998ZM392.112 245.021H388.134V241.042H392.112V245.021ZM455.759 245.021H451.782V241.042H455.759V245.021ZM388.134 241.043H384.157V237.065H388.134V241.043ZM384.157 237.065H380.178V233.087H384.157V237.065ZM380.178 233.087H376.201V229.109H380.178V233.087ZM376.201 229.109H372.222V225.131H376.201V229.109ZM372.222 225.131H368.245V213.198H372.222V225.131ZM392.113 213.198H372.222V209.219H392.113V213.198Z" fill="#FFF0EE"/>
</svg>
