<svg width="650" height="401" viewBox="0 0 650 401" fill="none" xmlns="http://www.w3.org/2000/svg">
<g clip-path="url(#clip0_124_1193)">
<rect width="152.011" height="72.5011" transform="matrix(-1.69113e-08 -1 -1 1.12983e-07 368.78 430.113)" fill="#B5DC3A"/>
<rect width="151.813" height="72.5011" transform="matrix(-1.65359e-08 -1 -1 1.15548e-07 565.088 430.113)" fill="#B5DC3A"/>
<rect width="125.721" height="77.5625" transform="matrix(1 2.71755e-08 -7.18361e-08 -1 368.78 353.885)" fill="#B5DC3A"/>
<rect width="78.1033" height="8.45256" transform="matrix(-1.69113e-08 -1 -1 1.12983e-07 377.233 430.113)" fill="#4FAB59"/>
<rect width="160.712" height="16.3219" transform="matrix(-1.69113e-08 -1 -1 1.12983e-07 298.256 430.113)" fill="#4FAB59"/>
<rect width="162.511" height="8.45256" transform="matrix(-1.65359e-08 -1 -1 1.15548e-07 573.54 430.113)" fill="#4FAB59"/>
<rect width="76.2282" height="16.3219" transform="matrix(-1.65359e-08 -1 -1 1.15548e-07 494.564 430.113)" fill="#4FAB59"/>
<rect width="115.979" height="8.45256" transform="matrix(1 2.71755e-08 -7.18361e-08 -1 373.153 357.276)" fill="#4FAB59"/>
<rect width="276.207" height="16.3219" transform="matrix(1 2.71755e-08 -7.18361e-08 -1 288.881 278.3)" fill="#4FAB59"/>
<rect width="10.2636" height="5.47843" transform="matrix(-3.61508e-08 -1 -1 5.28532e-08 560.011 378.981)" fill="white"/>
<rect width="10.2636" height="5.47843" transform="matrix(-3.61508e-08 -1 -1 5.28532e-08 360.484 388.541)" fill="white"/>
<rect width="21.117" height="5.47843" transform="matrix(-3.61508e-08 -1 -1 5.28532e-08 560.011 316.484)" fill="white"/>
<rect width="35.3435" height="5.47843" transform="matrix(-3.61508e-08 -1 -1 5.28532e-08 560.011 423.885)" fill="white"/>
<rect width="34.8583" height="5.47843" transform="matrix(-3.61508e-08 -1 -1 5.28532e-08 560.011 359.158)" fill="white"/>
<rect width="5.05534" height="5.47843" transform="matrix(-3.61508e-08 -1 -1 5.28532e-08 560.011 290.446)" fill="white"/>
<rect width="35.3435" height="5.47843" transform="matrix(-3.61508e-08 -1 -1 5.28532e-08 360.484 430.113)" fill="white"/>
<rect width="23.4445" height="5.47843" transform="matrix(-3.61508e-08 -1 -1 5.28532e-08 360.484 371.314)" fill="white"/>
<rect width="10.2636" height="5.47843" transform="matrix(-1 7.98622e-08 9.65646e-08 1 503.458 285.179)" fill="white"/>
<rect width="21.117" height="5.47843" transform="matrix(-1 7.98622e-08 9.65646e-08 1 439.217 285.179)" fill="white"/>
<rect width="5.05534" height="5.47843" transform="matrix(-1 7.98622e-08 9.65646e-08 1 413.178 285.179)" fill="white"/>
<rect width="35.3435" height="5.47843" transform="matrix(-1 7.98622e-08 9.65646e-08 1 548.361 285.179)" fill="white"/>
<rect width="34.8583" height="5.47843" transform="matrix(-1 7.98622e-08 9.65646e-08 1 483.635 285.179)" fill="white"/>
<rect width="10.2636" height="5.47843" transform="matrix(-1 7.98622e-08 9.65646e-08 1 357.745 285.179)" fill="white"/>
<rect width="35.3435" height="5.47843" transform="matrix(-1 7.98622e-08 9.65646e-08 1 402.648 285.179)" fill="white"/>
<rect width="34.8583" height="5.47843" transform="matrix(-1 7.98622e-08 9.65646e-08 1 340.538 285.179)" fill="white"/>
<rect width="5.93429" height="160.712" transform="matrix(1 0 0 -1 276 430.113)" fill="black"/>
<rect width="5.93429" height="72.8369" transform="matrix(1 0 0 -1 377.233 430.113)" fill="black"/>
<rect width="5.93429" height="72.8369" transform="matrix(1 0 0 -1 472.308 430.113)" fill="black"/>
<rect width="5.93429" height="95.3508" transform="matrix(-4.37114e-08 -1 -1 4.37114e-08 475.551 363.21)" fill="black"/>
<rect width="5.93429" height="276.664" transform="matrix(-4.37114e-08 -1 -1 4.37114e-08 565.088 261.998)" fill="black"/>
<rect width="5.93429" height="162.511" transform="matrix(1 0 0 -1 573.54 430.113)" fill="black"/>
<rect width="6.94623" height="7.42345" transform="matrix(1 0 0 -1 281.934 269.401)" fill="black"/>
<rect width="8.45263" height="5.62416" transform="matrix(1 0 0 -1 565.088 267.602)" fill="black"/>
<rect x="486.764" y="296.675" width="11.2761" height="28.0142" transform="rotate(90 486.764 296.675)" fill="#CCF34E"/>
<rect x="461.171" y="302.758" width="15.3177" height="2.75773" fill="#4FAB59"/>
<rect x="477.931" y="302.758" width="2.90821" height="2.75773" fill="#4FAB59"/>
<path d="M488.021 309.824L488.021 295.692L456.919 295.692L456.919 309.824L488.021 309.824ZM459.756 298.529L485.184 298.529L485.184 307.005L459.756 307.005L459.756 298.529Z" fill="#4FAB59"/>
<rect x="450.967" y="296.675" width="11.2761" height="11.3017" transform="rotate(90 450.967 296.675)" fill="#CCF34E"/>
<path d="M452.225 309.824L452.225 295.692L437.99 295.692L437.99 309.824L452.225 309.824ZM440.828 298.529L449.387 298.529L449.387 307.005L440.828 307.005L440.828 298.529Z" fill="#4FAB59"/>
<rect x="496.455" y="298.365" width="49.3515" height="49.3687" fill="#CCF34E"/>
<path d="M548.398 300.973H545.807V345.125H548.398V300.973Z" fill="#4FAB59"/>
<path d="M545.807 345.125H543.199V347.733H545.807V345.125Z" fill="#4FAB59"/>
<path d="M545.807 298.365H543.199V300.973H545.807V298.365Z" fill="#4FAB59"/>
<path d="M543.199 339.926H540.608V342.534H543.199V339.926Z" fill="#4FAB59"/>
<path d="M543.199 303.564H540.608V306.155H543.199V303.564Z" fill="#4FAB59"/>
<path d="M543.199 347.733H499.046V350.325H543.199V347.733Z" fill="#4FAB59"/>
<path d="M532.817 306.155H527.618V303.564H525.026V300.973H506.837V303.564H519.827V306.155H506.837V303.564H504.246V311.355H506.837V308.764H525.026V311.355H527.618V313.963H530.226V316.554H532.817V319.145H514.628V316.554H512.036V337.335H514.628V321.754H532.817V337.335H535.408V308.764H532.817V306.155Z" fill="#4FAB59"/>
<path d="M532.817 337.335H514.628V339.926H532.817V337.335Z" fill="#4FAB59"/>
<path d="M530.226 329.544H527.618V332.135H530.226V329.544Z" fill="#4FAB59"/>
<path d="M530.226 324.345H527.618V326.936H530.226V324.345Z" fill="#4FAB59"/>
<path d="M527.618 332.135H519.827V334.744H527.618V332.135Z" fill="#4FAB59"/>
<path d="M519.827 329.544H517.236V332.135H519.827V329.544Z" fill="#4FAB59"/>
<path d="M519.827 324.345H517.236V326.936H519.827V324.345Z" fill="#4FAB59"/>
<path d="M512.037 313.963H509.445V316.554H512.037V313.963Z" fill="#4FAB59"/>
<path d="M509.445 311.355H506.837V313.963H509.445V311.355Z" fill="#4FAB59"/>
<path d="M543.199 295.774H499.046V298.365H543.199V295.774Z" fill="#4FAB59"/>
<path d="M501.638 339.926H499.046V342.534H501.638V339.926Z" fill="#4FAB59"/>
<path d="M501.638 303.564H499.046V306.155H501.638V303.564Z" fill="#4FAB59"/>
<path d="M499.047 345.125H496.455V347.733H499.047V345.125Z" fill="#4FAB59"/>
<path d="M499.047 298.365H496.455V300.973H499.047V298.365Z" fill="#4FAB59"/>
<path d="M496.455 300.973H493.847V345.125H496.455V300.973Z" fill="#4FAB59"/>
<path d="M71.7338 87.7047C71.7338 90.0826 73.187 91.2716 75.565 91.2716C77.5466 91.2716 79.1319 89.8184 79.1319 88.101C79.1319 85.7231 77.1503 84.2699 74.1118 84.2699C44.6518 84.1378 24.1751 74.6261 24.1751 54.2815C24.1751 35.6543 48.4829 22.4435 74.5081 22.4435C100.401 22.4435 123.388 33.0121 123.388 52.8283C123.388 53.6209 122.727 54.2815 121.803 54.2815H79.3961C78.3392 54.2815 77.5466 53.6209 77.5466 52.432C77.5466 50.5825 75.8292 49.3935 73.8476 49.3935C71.7338 49.3935 70.0164 50.8467 70.0164 52.5641C70.0164 53.4888 70.2807 55.8668 73.7155 55.8668C106.874 55.8668 124.313 67.8886 124.313 88.101C124.313 106.992 106.874 118.75 73.8476 118.75C47.6903 118.75 24.8356 107.917 24.8356 87.7047C24.8356 86.9121 25.4962 86.2515 26.4209 86.2515H70.1486C71.0733 86.2515 71.7338 86.9121 71.7338 87.7047ZM127.433 22.4435H220.965C221.625 22.4435 222.154 22.972 222.154 23.6325V70.0023C222.154 70.6628 221.625 71.1913 220.965 71.1913H196.921V117.561C196.921 118.222 196.261 118.75 195.6 118.75H152.665C152.005 118.75 151.476 118.222 151.476 117.561V71.1913H127.433C126.772 71.1913 126.244 70.6628 126.244 70.0023V23.6325C126.244 22.972 126.772 22.4435 127.433 22.4435ZM278.571 23.2362L310.673 117.033C311.07 118.089 310.541 118.75 309.484 118.75H266.285C265.36 118.75 264.964 118.222 264.7 117.429L262.19 109.899H250.3L247.79 117.429C247.526 118.222 247.129 118.75 246.205 118.75H202.873C201.816 118.75 201.288 118.089 201.684 117.033L234.051 23.2362C234.315 22.7078 234.711 22.4435 235.372 22.4435H277.382C277.91 22.4435 278.439 22.7078 278.571 23.2362ZM252.15 104.35H260.34L256.245 91.6679L252.15 104.35ZM290.152 22.4435H383.684C384.345 22.4435 384.873 22.972 384.873 23.6325V70.0023C384.873 70.6628 384.345 71.1913 383.684 71.1913H359.641V117.561C359.641 118.222 358.98 118.75 358.32 118.75H315.385C314.724 118.75 314.196 118.222 314.196 117.561V71.1913H290.152C289.492 71.1913 288.963 70.6628 288.963 70.0023V23.6325C288.963 22.972 289.492 22.4435 290.152 22.4435ZM390.867 22.4435H482.549C483.342 22.4435 483.87 22.8399 483.87 23.7646V50.054C483.87 50.9788 483.342 51.3751 482.549 51.3751H433.934V56.131H465.243C466.036 56.131 466.432 56.5273 466.432 57.4521V83.8736C466.432 84.7983 466.036 85.1947 465.243 85.1947H433.934V89.9505H482.549C483.342 89.9505 483.87 90.3469 483.87 91.1395V117.429C483.87 118.354 483.342 118.75 482.549 118.75H390.867C390.074 118.75 389.546 118.222 389.546 117.561V23.7646C389.546 23.1041 390.074 22.4435 390.867 22.4435Z" fill="#E4D0FF"/>
<path d="M72.9644 150.638C72.9644 151.014 72.6641 151.389 72.2136 151.389H48.8627C48.6375 151.389 48.4122 151.239 48.2621 151.014C47.6614 150.113 46.7604 149.587 45.7092 149.587C44.0574 149.587 42.7059 150.938 42.7059 152.59C42.7059 154.242 44.0574 155.594 45.7092 155.594C46.7604 155.594 47.6614 154.993 48.2621 154.092C48.4122 153.867 48.6375 153.792 48.8627 153.792H72.2136C72.6641 153.792 72.9644 154.167 72.9644 154.542C72.9644 168.733 59.975 179.921 45.7092 179.921C30.6175 179.921 18.3038 167.682 18.3038 152.59C18.3038 137.499 30.6175 125.185 45.7092 125.185C59.9 125.185 72.9644 136.447 72.9644 150.638ZM132.154 125.936V179.17C132.154 179.62 131.854 179.921 131.478 179.921H106.626C106.25 179.921 105.875 179.62 105.875 179.17V161.6H102.646V179.17C102.646 179.62 102.346 179.921 101.896 179.921H77.043C76.6676 179.921 76.3672 179.62 76.3672 179.17V125.936C76.3672 125.56 76.6676 125.185 77.043 125.185H101.896C102.346 125.185 102.646 125.56 102.646 125.936V144.782H105.875V125.936C105.875 125.56 106.25 125.185 106.626 125.185H131.478C131.854 125.185 132.154 125.56 132.154 125.936ZM179.249 125.635L197.495 178.945C197.72 179.545 197.42 179.921 196.819 179.921H172.267C171.741 179.921 171.516 179.62 171.366 179.17L169.939 174.89H163.182L161.755 179.17C161.605 179.62 161.38 179.921 160.854 179.921H136.227C135.626 179.921 135.326 179.545 135.551 178.945L153.946 125.635C154.097 125.335 154.322 125.185 154.697 125.185H178.574C178.874 125.185 179.174 125.335 179.249 125.635ZM164.233 171.737H168.888L166.56 164.529L164.233 171.737ZM226.775 152.365V179.245C226.775 179.62 226.4 179.921 226.025 179.921H201.622C201.247 179.921 200.947 179.62 200.947 179.245V125.936C200.947 125.485 201.247 125.185 201.622 125.185H226.175C226.625 125.185 226.926 125.41 227.001 125.861L230.379 152.14C230.379 152.29 230.53 152.29 230.53 152.14V125.936C230.53 125.485 230.83 125.185 231.205 125.185H255.607C255.983 125.185 256.358 125.485 256.358 125.936V179.245C256.358 179.62 255.983 179.921 255.607 179.921H230.98C230.68 179.846 230.454 179.545 230.379 179.245L226.926 152.365C226.926 152.215 226.775 152.215 226.775 152.365ZM286.719 152.365V179.245C286.719 179.62 286.343 179.921 285.968 179.921H261.566C261.19 179.921 260.89 179.62 260.89 179.245V125.936C260.89 125.485 261.19 125.185 261.566 125.185H286.118C286.569 125.185 286.869 125.41 286.944 125.861L290.323 152.14C290.323 152.29 290.473 152.29 290.473 152.14V125.936C290.473 125.485 290.773 125.185 291.149 125.185H315.551C315.926 125.185 316.302 125.485 316.302 125.936V179.245C316.302 179.62 315.926 179.921 315.551 179.921H290.923C290.623 179.846 290.398 179.545 290.323 179.245L286.869 152.365C286.869 152.215 286.719 152.215 286.719 152.365ZM321.584 125.185H373.692C374.143 125.185 374.443 125.41 374.443 125.936V140.877C374.443 141.403 374.143 141.628 373.692 141.628H346.062V144.331H363.856C364.307 144.331 364.532 144.556 364.532 145.082V160.099C364.532 160.624 364.307 160.849 363.856 160.849H346.062V163.552H373.692C374.143 163.552 374.443 163.778 374.443 164.228V179.17C374.443 179.695 374.143 179.921 373.692 179.921H321.584C321.134 179.921 320.834 179.62 320.834 179.245V125.936C320.834 125.56 321.134 125.185 321.584 125.185ZM377.093 179.245V125.861C377.093 125.485 377.394 125.185 377.769 125.185H402.096C402.471 125.185 402.847 125.485 402.847 125.861V163.252H431.078C431.453 163.252 431.829 163.552 431.829 163.928V179.245C431.829 179.62 431.453 179.921 431.078 179.921H377.769C377.394 179.921 377.093 179.62 377.093 179.245ZM461.125 162.276C461.125 163.628 461.951 164.303 463.302 164.303C464.428 164.303 465.329 163.477 465.329 162.501C465.329 161.15 464.203 160.324 462.476 160.324C445.733 160.249 434.095 154.843 434.095 143.28C434.095 132.693 447.91 125.185 462.702 125.185C477.418 125.185 490.482 131.192 490.482 142.454C490.482 142.905 490.107 143.28 489.581 143.28H465.48C464.879 143.28 464.428 142.905 464.428 142.229C464.428 141.178 463.452 140.502 462.326 140.502C461.125 140.502 460.149 141.328 460.149 142.304C460.149 142.829 460.299 144.181 462.251 144.181C481.097 144.181 491.008 151.014 491.008 162.501C491.008 173.238 481.097 179.921 462.326 179.921C447.46 179.921 434.47 173.764 434.47 162.276C434.47 161.826 434.846 161.45 435.371 161.45H460.224C460.749 161.45 461.125 161.826 461.125 162.276Z" fill="#E4D0FF"/>
<rect x="122.142" y="206.115" width="50.1282" height="106.06" fill="#B5DC3A"/>
<rect x="-59.5967" y="215.901" width="172.868" height="83.9478" fill="#B5DC3A"/>
<rect x="127.388" y="191.873" width="51.2193" height="14.2413" fill="#4FAB59"/>
<rect x="122.142" y="196.62" width="5.24685" height="14.3646" fill="#4FAB59"/>
<rect width="51.2193" height="14.2413" transform="matrix(1 0 0 -1 127.388 326.415)" fill="#4FAB59"/>
<rect width="5.24685" height="19.1116" transform="matrix(1 0 0 -1 122.142 326.415)" fill="#4FAB59"/>
<rect x="116.228" y="206.115" width="5.91335" height="106.06" fill="#4FAB59"/>
<rect x="110.315" y="206.115" width="5.91335" height="110.344" fill="#4FAB59"/>
<rect x="-59.5967" y="206.115" width="175.825" height="9.78707" fill="#4FAB59"/>
<rect x="-59.5967" y="297.56" width="175.825" height="18.8988" fill="#4FAB59"/>
<rect x="12.1406" y="225.128" width="9.82854" height="4.94989" fill="white"/>
<rect x="146.235" y="215.901" width="14.2346" height="4.94989" fill="white"/>
<rect x="73.6582" y="225.128" width="20.2218" height="4.94989" fill="white"/>
<rect x="98.5928" y="225.128" width="4.84103" height="4.94989" fill="white"/>
<rect x="136.954" y="215.901" width="4.84103" height="4.94989" fill="white"/>
<rect x="-30.8593" y="225.128" width="33.8453" height="4.94989" fill="white"/>
<rect x="31.1232" y="225.128" width="33.3806" height="4.94989" fill="white"/>
<rect x="170.363" y="196.62" width="24.2355" height="124.675" fill="#5CCF69"/>
<rect x="175.11" y="191.873" width="14.7412" height="134.542" fill="#5CCF69"/>
<rect x="187.352" y="210.362" width="12.2427" height="96.9417" fill="#5CCF69"/>
<rect x="180.107" y="201.367" width="9.74417" height="115.181" fill="black"/>
<rect x="175.11" y="220.356" width="19.4883" height="77.2037" fill="black"/>
<rect x="129.827" y="264.882" width="13.2113" height="32.8221" fill="#CCF34E"/>
<path d="M145.233 263.409L128.675 263.409L128.675 299.849L145.233 299.849L145.233 263.409ZM132 296.525L132 266.733L141.93 266.734L141.93 296.525L132 296.525Z" fill="#4FAB59"/>
<rect x="97.6934" y="244.533" width="43.2668" height="63.2504" transform="rotate(90 97.6934 244.533)" fill="#CCF34E"/>
<path d="M94.352 291.119L94.352 287.799L37.7844 287.799L37.7844 291.119L94.352 291.119Z" fill="#4FAB59"/>
<path d="M37.7844 287.799L37.7844 284.479L34.4428 284.479L34.4428 287.799L37.7844 287.799Z" fill="#4FAB59"/>
<path d="M97.6934 287.799L97.6934 284.479L94.3518 284.479L94.3518 287.799L97.6934 287.799Z" fill="#4FAB59"/>
<path d="M47.7652 284.479L47.7652 261.175L37.7839 261.175L37.7839 284.479L47.7652 284.479Z" fill="#4FAB59"/>
<path d="M34.443 284.479L34.443 247.852L31.1232 247.852L31.1232 284.479L34.443 284.479Z" fill="#4FAB59"/>
<path d="M61.067 284.479L61.067 274.498L51.0857 274.498L51.0857 284.479L61.067 284.479ZM54.4274 281.138L54.4274 277.818L57.7472 277.818L57.7472 281.138L54.4274 281.138Z" fill="#4FAB59"/>
<path d="M74.3894 284.479L74.3894 274.498L64.4082 274.498L64.4082 284.479L74.3894 284.479ZM67.728 281.138L67.728 277.818L71.0696 277.818L71.0696 281.138L67.728 281.138Z" fill="#4FAB59"/>
<path d="M94.352 247.852L77.7094 247.852L77.7094 284.479L94.352 284.479L94.352 247.852ZM81.051 281.138L81.051 251.194L91.0322 251.194L91.0322 281.138L81.051 281.138Z" fill="#4FAB59"/>
<path d="M87.6905 277.818L87.6905 274.498L84.3707 274.498L84.3707 277.818L87.6905 277.818Z" fill="#4FAB59"/>
<path d="M87.6905 271.156L87.6905 267.837L84.3707 267.837L84.3707 271.156L87.6905 271.156Z" fill="#4FAB59"/>
<path d="M61.067 271.157L61.067 261.175L51.0857 261.175L51.0857 271.157L61.067 271.157ZM54.4274 267.837L54.4274 264.495L57.7472 264.495L57.7472 267.837L54.4274 267.837Z" fill="#4FAB59"/>
<path d="M74.3894 271.157L74.3894 261.175L64.4082 261.175L64.4082 271.157L74.3894 271.157ZM67.728 267.837L67.728 264.495L71.0696 264.495L71.0696 267.837L67.728 267.837Z" fill="#4FAB59"/>
<path d="M37.7839 257.866L47.7652 257.866L47.7652 247.852L37.7839 247.852L37.7839 257.866ZM44.4235 251.205L44.4235 254.525L41.1037 254.525L41.1037 251.194L44.4235 251.205Z" fill="#4FAB59"/>
<path d="M61.067 257.866L61.067 247.852L51.0857 247.852L51.0857 257.866L61.067 257.866ZM54.4274 254.525L54.4274 251.194L57.7472 251.194L57.7472 254.514L54.4274 254.525Z" fill="#4FAB59"/>
<path d="M74.3894 257.866L74.3894 247.852L64.4082 247.852L64.4082 257.866L74.3894 257.866ZM67.728 254.525L67.728 251.194L71.0696 251.194L71.0696 254.514L67.728 254.525Z" fill="#4FAB59"/>
<path d="M101.013 284.479L101.013 247.852L97.6934 247.852L97.6934 284.479L101.013 284.479Z" fill="#4FAB59"/>
<path d="M37.7844 247.852L37.7844 244.533L34.4428 244.533L34.4428 247.852L37.7844 247.852Z" fill="#4FAB59"/>
<path d="M97.6934 247.852L97.6934 244.533L94.3518 244.533L94.3518 247.852L97.6934 247.852Z" fill="#4FAB59"/>
<path d="M94.352 244.533L94.352 241.213L37.7844 241.213L37.7844 244.533L94.352 244.533Z" fill="#4FAB59"/>
<rect x="-59.5967" y="201.367" width="181.738" height="5.13856" fill="black"/>
<rect x="117.293" y="196.528" width="4.84847" height="7.40851" fill="black"/>
<rect x="127.388" y="191.68" width="4.84847" height="5.24688" transform="rotate(90 127.388 191.68)" fill="black"/>
<rect x="189.851" y="187.025" width="4.84847" height="62.9415" transform="rotate(90 189.851 187.025)" fill="black"/>
<rect width="181.738" height="5.13856" transform="matrix(1 0 0 -1 -59.5967 316.693)" fill="black"/>
<rect width="4.84847" height="7.40851" transform="matrix(1 0 0 -1 117.293 321.533)" fill="black"/>
<rect width="4.84847" height="5.24688" transform="matrix(-4.37114e-08 -1 -1 4.37114e-08 127.388 326.381)" fill="black"/>
<rect width="4.84847" height="62.9415" transform="matrix(-4.37114e-08 -1 -1 4.37114e-08 189.851 331.036)" fill="black"/>
<rect x="194.598" y="196.62" width="4.99709" height="13.7417" fill="black"/>
<rect x="194.598" y="307.304" width="4.99709" height="13.9919" fill="black"/>
<rect x="170.113" y="321.295" width="4.99709" height="9.52171" fill="black"/>
<rect x="189.851" y="321.295" width="4.99709" height="4.8921" fill="black"/>
<rect x="189.851" y="191.873" width="4.99709" height="4.8921" fill="black"/>
<rect x="170.363" y="191.873" width="4.99709" height="4.8921" fill="black"/>
<rect x="199.595" y="210.362" width="4.99709" height="96.9416" fill="black"/>
<rect x="165.366" y="196.766" width="4.99709" height="124.53" fill="black"/>
<rect x="117.145" y="205.12" width="4.99709" height="107.821" fill="black"/>
<mask id="mask0_124_1193" style="mask-type:alpha" maskUnits="userSpaceOnUse" x="175" y="199" width="120" height="116">
<rect x="180.107" y="199.356" width="113.893" height="115.181" fill="black"/>
<rect x="175.11" y="218.344" width="19.4883" height="77.2037" fill="black"/>
</mask>
<g mask="url(#mask0_124_1193)">
<path d="M227.542 305.235H197.166V312.905H227.542V305.235Z" fill="#231E2B"/>
<path d="M242.729 297.565H227.542V305.235H242.729V297.565Z" fill="#231E2B"/>
<path d="M197.166 297.565H181.979V305.235H197.166V297.565Z" fill="#231E2B"/>
<path d="M250.323 289.894H242.729V297.565H250.323V289.894Z" fill="#231E2B"/>
<path d="M212.354 289.894H197.166V297.565H212.354V289.894Z" fill="#F5F38E"/>
<path d="M189.573 289.894V282.224H181.979V243.871H189.573V236.201H197.166V228.53H227.542V220.86H212.354V213.189H197.166V220.86H181.979V228.53H174.385V243.871H166.791V274.553H174.385V289.894H181.979V297.565H197.166V289.894H189.573Z" fill="#E2B436"/>
<path d="M181.979 289.894H174.385V297.565H181.979V289.894Z" fill="#231E2B"/>
<path d="M197.166 282.223H189.573V289.894H197.166V282.223Z" fill="#F5F38E"/>
<path d="M257.917 274.553H250.323V289.894H257.917V274.553Z" fill="#231E2B"/>
<path d="M212.354 274.553H204.76V282.224H212.354V274.553Z" fill="#C2751D"/>
<path d="M189.573 274.553H181.979V282.224H189.573V274.553Z" fill="#F5F38E"/>
<path d="M204.76 266.883H197.166V274.553H204.76V266.883Z" fill="#C2751D"/>
<path d="M265.511 243.871H257.917V274.553H265.511V243.871Z" fill="#231E2B"/>
<path d="M227.542 251.542H219.948V259.212H227.542V251.542Z" fill="#F5F38E"/>
<path d="M242.729 243.871H235.135V251.542H242.729V243.871Z" fill="#C2751D"/>
<path d="M219.948 243.871H212.354V251.542H219.948V243.871Z" fill="#F5F38E"/>
<path d="M212.354 243.871H204.76V251.542H197.166V266.883H204.76V274.553H219.948V266.883H227.542V259.212H219.948V251.542H212.354V243.871Z" fill="#E2B436"/>
<path d="M250.323 236.2H242.729V228.53H227.542V236.2H235.135V243.871H242.729V274.553H235.135V282.223H227.542V289.894H212.354V297.564H197.166V305.235H227.542V297.564H242.729V289.894H250.323V274.553H257.917V243.871H250.323V236.2Z" fill="#E2B436"/>
<path d="M235.136 236.201H227.542V243.871H235.136V236.201Z" fill="#C2751D"/>
<path d="M212.354 236.2V228.53H197.166V236.2H189.573V243.871H181.979V274.553H189.573V282.223H197.166V289.894H227.542V282.223H235.135V274.553H242.729V251.541H235.135V243.871H227.542V236.2H212.354ZM227.542 251.541V266.882H219.948V274.553H212.354V282.223H204.76V274.553H197.166V251.541H204.76V243.871H219.948V251.541H227.542Z" fill="#CF8934"/>
<path d="M257.917 228.53H250.323V243.871H257.917V228.53Z" fill="#231E2B"/>
<path d="M250.323 228.53H242.729V236.2H250.323V228.53Z" fill="#F5F38E"/>
<path d="M227.542 228.53H212.354V236.2H227.542V228.53Z" fill="#C2751D"/>
<path d="M250.323 220.859H242.729V228.53H250.323V220.859Z" fill="#231E2B"/>
<path d="M242.729 220.859H227.542V228.53H242.729V220.859Z" fill="#F5F38E"/>
<path d="M181.979 220.859H174.385V228.53H181.979V220.859Z" fill="#231E2B"/>
<path d="M242.729 213.189H227.542V220.86H242.729V213.189Z" fill="#231E2B"/>
<path d="M227.542 213.189H212.354V220.86H227.542V213.189Z" fill="#F5F38E"/>
<path d="M197.166 213.189H181.979V220.86H197.166V213.189Z" fill="#231E2B"/>
<path d="M227.542 205.518H197.166V213.189H227.542V205.518Z" fill="#231E2B"/>
</g>
<rect x="618.206" y="164.281" width="46.7258" height="98.8609" transform="rotate(90 618.206 164.281)" fill="#B5DC3A"/>
<rect x="609.083" y="-61.5823" width="214.84" height="78.25" transform="rotate(90 609.083 -61.5823)" fill="#B5DC3A"/>
<rect x="631.481" y="169.172" width="47.7428" height="13.2747" transform="rotate(90 631.481 169.172)" fill="#4FAB59"/>
<rect x="627.056" y="164.281" width="4.89073" height="13.3896" transform="rotate(90 627.056 164.281)" fill="#4FAB59"/>
<rect width="47.7428" height="13.2747" transform="matrix(-4.37114e-08 1 1 4.37114e-08 506.071 169.172)" fill="#4FAB59"/>
<rect width="4.89073" height="17.8144" transform="matrix(-4.37114e-08 1 1 4.37114e-08 506.071 164.281)" fill="#4FAB59"/>
<rect x="618.206" y="158.769" width="5.51199" height="98.8609" transform="rotate(90 618.206 158.769)" fill="#4FAB59"/>
<rect x="618.206" y="153.257" width="5.51199" height="102.855" transform="rotate(90 618.206 153.257)" fill="#4FAB59"/>
<rect x="618.206" y="-61.5823" width="218.514" height="9.12279" transform="rotate(90 618.206 -61.5823)" fill="#4FAB59"/>
<rect x="532.967" y="-61.5823" width="218.514" height="17.6161" transform="rotate(90 532.967 -61.5823)" fill="#4FAB59"/>
<rect x="600.482" y="8.19257" width="9.16143" height="4.61392" transform="rotate(90 600.482 8.19257)" fill="white"/>
<rect x="600.482" y="61.7462" width="9.16143" height="4.61392" transform="rotate(90 600.482 61.7462)" fill="white"/>
<rect x="609.083" y="186.739" width="13.2684" height="4.61392" transform="rotate(90 609.083 186.739)" fill="white"/>
<rect x="600.482" y="119.088" width="18.8493" height="4.61392" transform="rotate(90 600.482 119.088)" fill="white"/>
<rect x="600.482" y="142.33" width="4.51245" height="4.61392" transform="rotate(90 600.482 142.33)" fill="white"/>
<rect x="609.083" y="178.088" width="4.51245" height="4.61392" transform="rotate(90 609.083 178.088)" fill="white"/>
<rect x="600.482" y="21.6648" width="31.548" height="4.61392" transform="rotate(90 600.482 21.6648)" fill="white"/>
<rect x="600.482" y="79.4402" width="31.1149" height="4.61392" transform="rotate(90 600.482 79.4402)" fill="white"/>
<rect x="627.056" y="209.229" width="22.5905" height="116.213" transform="rotate(90 627.056 209.229)" fill="#5CCF69"/>
<rect x="631.481" y="213.654" width="13.7407" height="125.41" transform="rotate(90 631.481 213.654)" fill="#5CCF69"/>
<rect x="614.247" y="225.066" width="11.4117" height="90.3619" transform="rotate(90 614.247 225.066)" fill="#5CCF69"/>
<rect x="622.631" y="218.312" width="9.0828" height="107.363" transform="rotate(90 622.631 218.312)" fill="black"/>
<rect x="604.931" y="213.654" width="18.1656" height="71.9636" transform="rotate(90 604.931 213.654)" fill="black"/>
<rect x="622.631" y="-61.5823" width="225.863" height="4.78979" transform="rotate(90 622.631 -61.5823)" fill="black"/>
<rect x="627.142" y="159.761" width="4.51939" height="6.90567" transform="rotate(90 627.142 159.761)" fill="black"/>
<rect x="631.661" y="169.172" width="4.51939" height="4.89076" transform="rotate(-180 631.661 169.172)" fill="black"/>
<rect x="636" y="227.395" width="4.51939" height="58.6695" transform="rotate(-180 636 227.395)" fill="black"/>
<rect width="225.863" height="4.78979" transform="matrix(-3.27846e-08 1 1 5.82799e-08 515.133 -61.5823)" fill="black"/>
<rect width="4.51939" height="6.90567" transform="matrix(-4.37114e-08 1 1 4.37114e-08 510.622 159.761)" fill="black"/>
<rect width="4.51939" height="4.89076" transform="matrix(1 0 0 -1 506.102 169.172)" fill="black"/>
<rect width="4.51939" height="58.6695" transform="matrix(1 0 0 -1 501.763 227.395)" fill="black"/>
<rect x="627.056" y="231.819" width="4.65792" height="12.809" transform="rotate(90 627.056 231.819)" fill="black"/>
<rect x="523.885" y="231.819" width="4.65792" height="13.0422" transform="rotate(90 523.885 231.819)" fill="black"/>
<rect x="510.843" y="208.996" width="4.65792" height="8.87543" transform="rotate(90 510.843 208.996)" fill="black"/>
<rect x="510.843" y="227.395" width="4.65792" height="4.56005" transform="rotate(90 510.843 227.395)" fill="black"/>
<rect x="631.481" y="227.395" width="4.65792" height="4.56005" transform="rotate(90 631.481 227.395)" fill="black"/>
<rect x="631.481" y="209.229" width="4.65792" height="4.56005" transform="rotate(90 631.481 209.229)" fill="black"/>
<rect x="614.247" y="236.477" width="4.65792" height="90.3618" transform="rotate(90 614.247 236.477)" fill="black"/>
<rect x="626.921" y="204.571" width="4.65792" height="116.078" transform="rotate(90 626.921 204.571)" fill="black"/>
<rect x="619.133" y="159.623" width="4.65792" height="100.503" transform="rotate(90 619.133 159.623)" fill="black"/>
<mask id="mask1_124_1193" style="mask-type:alpha" maskUnits="userSpaceOnUse" x="514" y="213" width="109" height="93">
<rect x="622.341" y="218.038" width="87.8225" height="107.363" transform="rotate(90 622.341 218.038)" fill="black"/>
<rect x="604.641" y="213.654" width="92.2071" height="71.9636" transform="rotate(90 604.641 213.654)" fill="black"/>
</mask>
<g mask="url(#mask1_124_1193)">
<path d="M532.786 190.74L532.786 290.696L604.184 290.696L604.184 190.74L532.786 190.74ZM597.044 283.557L539.926 283.557L539.926 197.879L597.044 197.879L597.044 283.557Z" fill="#231E2B"/>
<path d="M589.905 212.159L582.765 212.159L582.765 219.299L575.625 219.299L575.625 226.438L582.765 226.438L582.765 254.997L575.625 254.997L575.625 262.137L582.765 262.137L582.765 269.277L589.905 269.277L589.905 276.417L597.044 276.417L597.044 205.019L589.905 205.019L589.905 212.159Z" fill="#F7FEFF"/>
<path d="M589.905 276.417L589.905 283.557L597.045 283.557L597.045 276.417L589.905 276.417Z" fill="#B6B7B8"/>
<path d="M582.765 269.277L582.765 276.417L589.905 276.417L589.905 269.277L582.765 269.277Z" fill="#B6B7B8"/>
<path d="M582.765 276.417L582.765 269.277L575.625 269.277L575.625 262.137L568.486 262.137L568.486 269.277L561.346 269.277L561.346 276.417L554.206 276.417L554.206 283.557L589.905 283.557L589.905 276.417L582.765 276.417Z" fill="#F7FEFF"/>
<path d="M575.625 212.159L575.625 219.299L582.765 219.299L582.765 212.159L575.625 212.159Z" fill="#B6B7B8"/>
<path d="M575.625 226.438L575.625 254.997L582.765 254.997L582.765 226.438L575.625 226.438Z" fill="#B6B7B8"/>
<path d="M575.625 262.137L575.625 269.277L582.765 269.277L582.765 262.137L575.625 262.137Z" fill="#B6B7B8"/>
<path d="M568.486 219.299L568.486 226.438L575.625 226.438L575.625 219.299L568.486 219.299Z" fill="#B6B7B8"/>
<path d="M568.486 254.997L568.486 262.137L575.625 262.137L575.625 254.997L568.486 254.997Z" fill="#B6B7B8"/>
<path d="M561.346 212.159L561.346 219.299L568.485 219.299L568.485 212.159L561.346 212.159Z" fill="#B6B7B8"/>
<path d="M561.346 262.137L561.346 269.277L568.485 269.277L568.485 262.137L561.346 262.137Z" fill="#B6B7B8"/>
<path d="M561.346 205.019L561.346 212.159L568.486 212.159L568.486 219.299L575.625 219.299L575.625 212.159L582.765 212.159L582.765 205.019L589.905 205.019L589.905 197.879L554.206 197.879L554.206 205.019L561.346 205.019Z" fill="#F7FEFF"/>
<path d="M554.206 269.277L554.206 276.417L561.346 276.417L561.346 269.277L554.206 269.277Z" fill="#B6B7B8"/>
<path d="M554.206 276.417L554.206 269.277L561.346 269.277L561.346 262.137L568.485 262.137L568.485 254.997L575.625 254.997L575.625 226.438L568.485 226.438L568.485 219.299L561.346 219.299L561.346 212.159L554.206 212.159L554.206 205.019L547.066 205.019L547.066 197.879L539.926 197.879L539.926 283.557L547.066 283.557L547.066 276.417L554.206 276.417Z" fill="#F7FEFF"/>
<path d="M547.066 276.417L547.066 283.557L554.206 283.557L554.206 276.417L547.066 276.417Z" fill="#B6B7B8"/>
</g>
<rect x="542.928" y="90.4512" width="20.4534" height="50.8142" fill="#CCF34E"/>
<path d="M566.779 88.1703L541.144 88.1703L541.144 144.586L566.779 144.586L566.779 88.1703ZM546.291 139.439L546.291 93.3174L561.665 93.3174L561.665 139.439L546.291 139.439Z" fill="#4FAB59"/>
</g>
<defs>
<clipPath id="clip0_124_1193">
<rect width="650" height="400" fill="white" transform="translate(0 0.75)"/>
</clipPath>
</defs>
</svg>
