<svg fill="none" height="401" viewBox="0 0 650 401" width="650" xmlns="http://www.w3.org/2000/svg" xmlns:xlink="http://www.w3.org/1999/xlink"><clipPath id="a"><path d="m0 .75h650v400h-650z"/></clipPath><mask id="b" height="116" maskUnits="userSpaceOnUse" width="120" x="175" y="199"><path d="m180.107 199.356h113.893v115.181h-113.893z" fill="#000"/><path d="m175.11 218.344h19.4883v77.2037h-19.4883z" fill="#000"/></mask><mask id="c" height="93" maskUnits="userSpaceOnUse" width="109" x="514" y="213"><path d="m622.341 218.038h87.8225v107.363h-87.8225z" fill="#000" transform="matrix(0 1 -1 0 840.379 -404.303)"/><path d="m604.641 213.654h92.2071v71.9636h-92.2071z" fill="#000" transform="matrix(0 1 -1 0 818.295 -390.987)"/></mask><g clip-path="url(#a)"><path d="m0 0h152.011v72.5011h-152.011z" fill="#b5dc3a" transform="matrix(-.00000002 -1 -1 .00000011 368.78 430.113)"/><path d="m0 0h151.813v72.5011h-151.813z" fill="#b5dc3a" transform="matrix(-.00000002 -1 -1 .00000012 565.088 430.113)"/><path d="m0 0h125.721v77.5625h-125.721z" fill="#b5dc3a" transform="matrix(1 .00000003 -.00000007 -1 368.78 353.885)"/><path d="m0 0h78.1033v8.45256h-78.1033z" fill="#4fab59" transform="matrix(-.00000002 -1 -1 .00000011 377.233 430.113)"/><path d="m0 0h160.712v16.3219h-160.712z" fill="#4fab59" transform="matrix(-.00000002 -1 -1 .00000011 298.256 430.113)"/><path d="m0 0h162.511v8.45256h-162.511z" fill="#4fab59" transform="matrix(-.00000002 -1 -1 .00000012 573.54 430.113)"/><path d="m0 0h76.2282v16.3219h-76.2282z" fill="#4fab59" transform="matrix(-.00000002 -1 -1 .00000012 494.564 430.113)"/><path d="m0 0h115.979v8.45256h-115.979z" fill="#4fab59" transform="matrix(1 .00000003 -.00000007 -1 373.153 357.276)"/><path d="m0 0h276.207v16.3219h-276.207z" fill="#4fab59" transform="matrix(1 .00000003 -.00000007 -1 288.881 278.3)"/><path d="m0 0h10.2636v5.47843h-10.2636z" fill="#fff" transform="matrix(-.00000004 -1 -1 .00000005 560.011 378.981)"/><path d="m0 0h10.2636v5.47843h-10.2636z" fill="#fff" transform="matrix(-.00000004 -1 -1 .00000005 360.484 388.541)"/><path d="m0 0h21.117v5.47843h-21.117z" fill="#fff" transform="matrix(-.00000004 -1 -1 .00000005 560.011 316.484)"/><path d="m0 0h35.3435v5.47843h-35.3435z" fill="#fff" transform="matrix(-.00000004 -1 -1 .00000005 560.011 423.885)"/><path d="m0 0h34.8583v5.47843h-34.8583z" fill="#fff" transform="matrix(-.00000004 -1 -1 .00000005 560.011 359.158)"/><path d="m0 0h5.05534v5.47843h-5.05534z" fill="#fff" transform="matrix(-.00000004 -1 -1 .00000005 560.011 290.446)"/><path d="m0 0h35.3435v5.47843h-35.3435z" fill="#fff" transform="matrix(-.00000004 -1 -1 .00000005 360.484 430.113)"/><path d="m0 0h23.4445v5.47843h-23.4445z" fill="#fff" transform="matrix(-.00000004 -1 -1 .00000005 360.484 371.314)"/><path d="m0 0h10.2636v5.47843h-10.2636z" fill="#fff" transform="matrix(-1 .00000008 .0000001 1 503.458 285.179)"/><path d="m0 0h21.117v5.47843h-21.117z" fill="#fff" transform="matrix(-1 .00000008 .0000001 1 439.217 285.179)"/><path d="m0 0h5.05534v5.47843h-5.05534z" fill="#fff" transform="matrix(-1 .00000008 .0000001 1 413.178 285.179)"/><path d="m0 0h35.3435v5.47843h-35.3435z" fill="#fff" transform="matrix(-1 .00000008 .0000001 1 548.361 285.179)"/><path d="m0 0h34.8583v5.47843h-34.8583z" fill="#fff" transform="matrix(-1 .00000008 .0000001 1 483.635 285.179)"/><path d="m0 0h10.2636v5.47843h-10.2636z" fill="#fff" transform="matrix(-1 .00000008 .0000001 1 357.745 285.179)"/><path d="m0 0h35.3435v5.47843h-35.3435z" fill="#fff" transform="matrix(-1 .00000008 .0000001 1 402.648 285.179)"/><path d="m0 0h34.8583v5.47843h-34.8583z" fill="#fff" transform="matrix(-1 .00000008 .0000001 1 340.538 285.179)"/><path d="m0 0h5.93429v160.712h-5.93429z" fill="#000" transform="matrix(1 0 0 -1 276 430.113)"/><path d="m0 0h5.93429v72.8369h-5.93429z" fill="#000" transform="matrix(1 0 0 -1 377.233 430.113)"/><path d="m0 0h5.93429v72.8369h-5.93429z" fill="#000" transform="matrix(1 0 0 -1 472.308 430.113)"/><path d="m0 0h5.93429v95.3508h-5.93429z" fill="#000" transform="matrix(-.00000004 -1 -1 .00000004 475.551 363.21)"/><path d="m0 0h5.93429v276.664h-5.93429z" fill="#000" transform="matrix(-.00000004 -1 -1 .00000004 565.088 261.998)"/><path d="m0 0h5.93429v162.511h-5.93429z" fill="#000" transform="matrix(1 0 0 -1 573.54 430.113)"/><path d="m0 0h6.94623v7.42345h-6.94623z" fill="#000" transform="matrix(1 0 0 -1 281.934 269.401)"/><path d="m0 0h8.45263v5.62416h-8.45263z" fill="#000" transform="matrix(1 0 0 -1 565.088 267.602)"/><path d="m486.764 296.675h11.2761v28.0142h-11.2761z" fill="#ccf34e" transform="matrix(0 1 -1 0 783.439 -190.089)"/><path d="m461.171 302.758h15.3177v2.75773h-15.3177z" fill="#4fab59"/><path d="m477.931 302.758h2.90821v2.75773h-2.90821z" fill="#4fab59"/><path d="m488.021 309.824v-14.132h-31.102v14.132zm-28.265-11.295h25.428v8.476h-25.428z" fill="#4fab59"/><path d="m450.967 296.675h11.2761v11.3017h-11.2761z" fill="#ccf34e" transform="matrix(0 1 -1 0 747.642 -154.292)"/><path d="m452.225 309.824v-14.132h-14.235v14.132zm-11.397-11.295h8.559v8.476h-8.559z" fill="#4fab59"/><path d="m496.455 298.365h49.3515v49.3687h-49.3515z" fill="#ccf34e"/><g fill="#4fab59"><path d="m548.398 300.973h-2.591v44.152h2.591z"/><path d="m545.807 345.125h-2.608v2.608h2.608z"/><path d="m545.807 298.365h-2.608v2.608h2.608z"/><path d="m543.199 339.926h-2.591v2.608h2.591z"/><path d="m543.199 303.564h-2.591v2.591h2.591z"/><path d="m543.199 347.733h-44.153v2.592h44.153z"/><path d="m532.817 306.155h-5.199v-2.591h-2.592v-2.591h-18.189v2.591h12.99v2.591h-12.99v-2.591h-2.591v7.791h2.591v-2.591h18.189v2.591h2.592v2.608h2.608v2.591h2.591v2.591h-18.189v-2.591h-2.592v20.781h2.592v-15.581h18.189v15.581h2.591v-28.571h-2.591z"/><path d="m532.817 337.335h-18.189v2.591h18.189z"/><path d="m530.226 329.544h-2.608v2.591h2.608z"/><path d="m530.226 324.345h-2.608v2.591h2.608z"/><path d="m527.618 332.135h-7.791v2.609h7.791z"/><path d="m519.827 329.544h-2.591v2.591h2.591z"/><path d="m519.827 324.345h-2.591v2.591h2.591z"/><path d="m512.037 313.963h-2.592v2.591h2.592z"/><path d="m509.445 311.355h-2.608v2.608h2.608z"/><path d="m543.199 295.774h-44.153v2.591h44.153z"/><path d="m501.638 339.926h-2.592v2.608h2.592z"/><path d="m501.638 303.564h-2.592v2.591h2.592z"/><path d="m499.047 345.125h-2.592v2.608h2.592z"/><path d="m499.047 298.365h-2.592v2.608h2.592z"/><path d="m496.455 300.973h-2.608v44.152h2.608z"/></g><path d="m71.7338 87.7047c0 2.3779 1.4532 3.5669 3.8312 3.5669 1.9816 0 3.5669-1.4532 3.5669-3.1706 0-2.3779-1.9816-3.8311-5.0201-3.8311-29.46-.1321-49.9367-9.6438-49.9367-29.9884 0-18.6272 24.3078-31.838 50.333-31.838 25.8929 0 48.8799 10.5686 48.8799 30.3848 0 .7926-.661 1.4532-1.585 1.4532h-42.4069c-1.0569 0-1.8495-.6606-1.8495-1.8495 0-1.8495-1.7174-3.0385-3.699-3.0385-2.1138 0-3.8312 1.4532-3.8312 3.1706 0 .9247.2643 3.3027 3.6991 3.3027 33.1585 0 50.5975 12.0218 50.5975 32.2342 0 18.891-17.439 30.649-50.4654 30.649-26.1573 0-49.012-10.833-49.012-31.0453 0-.7926.6606-1.4532 1.5853-1.4532h43.7277c.9247 0 1.5852.6606 1.5852 1.4532zm55.6992-65.2612h93.532c.66 0 1.189.5285 1.189 1.189v46.3698c0 .6605-.529 1.189-1.189 1.189h-24.044v46.3697c0 .661-.66 1.189-1.321 1.189h-42.935c-.66 0-1.189-.528-1.189-1.189v-46.3697h-24.043c-.661 0-1.189-.5285-1.189-1.189v-46.3698c0-.6605.528-1.189 1.189-1.189zm151.138.7927 32.102 93.7968c.397 1.056-.132 1.717-1.189 1.717h-43.199c-.925 0-1.321-.528-1.585-1.321l-2.51-7.53h-11.89l-2.51 7.53c-.264.793-.661 1.321-1.585 1.321h-43.332c-1.057 0-1.585-.661-1.189-1.717l32.367-93.7968c.264-.5284.66-.7927 1.321-.7927h42.01c.528 0 1.057.2643 1.189.7927zm-26.421 81.1138h8.19l-4.095-12.6821zm38.002-81.9065h93.532c.661 0 1.189.5285 1.189 1.189v46.3698c0 .6605-.528 1.189-1.189 1.189h-24.043v46.3697c0 .661-.661 1.189-1.321 1.189h-42.935c-.661 0-1.189-.528-1.189-1.189v-46.3697h-24.044c-.66 0-1.189-.5285-1.189-1.189v-46.3698c0-.6605.529-1.189 1.189-1.189zm100.715 0h91.682c.793 0 1.321.3964 1.321 1.3211v26.2894c0 .9248-.528 1.3211-1.321 1.3211h-48.615v4.7559h31.309c.793 0 1.189.3963 1.189 1.3211v26.4215c0 .9247-.396 1.3211-1.189 1.3211h-31.309v4.7558h48.615c.793 0 1.321.3964 1.321 1.189v26.2895c0 .925-.528 1.321-1.321 1.321h-91.682c-.793 0-1.321-.528-1.321-1.189v-93.7964c0-.6605.528-1.3211 1.321-1.3211z" fill="#e4d0ff"/><path d="m72.9644 150.638c0 .376-.3003.751-.7508.751h-23.3509c-.2252 0-.4505-.15-.6006-.375-.6007-.901-1.5017-1.427-2.5529-1.427-1.6518 0-3.0033 1.351-3.0033 3.003s1.3515 3.004 3.0033 3.004c1.0512 0 1.9522-.601 2.5529-1.502.1501-.225.3754-.3.6006-.3h23.3509c.4505 0 .7508.375.7508.75 0 14.191-12.9894 25.379-27.2552 25.379-15.0917 0-27.4054-12.239-27.4054-27.331 0-15.091 12.3137-27.405 27.4054-27.405 14.1908 0 27.2552 11.262 27.2552 25.453zm59.1896-24.702v53.234c0 .45-.3.751-.676.751h-24.852c-.376 0-.751-.301-.751-.751v-17.57h-3.229v17.57c0 .45-.3.751-.75.751h-24.853c-.3754 0-.6758-.301-.6758-.751v-53.234c0-.376.3004-.751.6758-.751h24.853c.45 0 .75.375.75.751v18.846h3.229v-18.846c0-.376.375-.751.751-.751h24.852c.376 0 .676.375.676.751zm47.095-.301 18.246 53.31c.225.6-.075.976-.676.976h-24.552c-.526 0-.751-.301-.901-.751l-1.427-4.28h-6.757l-1.427 4.28c-.15.45-.375.751-.901.751h-24.627c-.601 0-.901-.376-.676-.976l18.395-53.31c.151-.3.376-.45.751-.45h23.877c.3 0 .6.15.675.45zm-15.016 46.102h4.655l-2.328-7.208zm62.542-19.372v26.88c0 .375-.375.676-.75.676h-24.403c-.375 0-.675-.301-.675-.676v-53.309c0-.451.3-.751.675-.751h24.553c.45 0 .751.225.826.676l3.378 26.279c0 .15.151.15.151 0v-26.204c0-.451.3-.751.675-.751h24.402c.376 0 .751.3.751.751v53.309c0 .375-.375.676-.751.676h-24.627c-.3-.075-.526-.376-.601-.676l-3.453-26.88c0-.15-.151-.15-.151 0zm59.944 0v26.88c0 .375-.376.676-.751.676h-24.402c-.376 0-.676-.301-.676-.676v-53.309c0-.451.3-.751.676-.751h24.552c.451 0 .751.225.826.676l3.379 26.279c0 .15.15.15.15 0v-26.204c0-.451.3-.751.676-.751h24.402c.375 0 .751.3.751.751v53.309c0 .375-.376.676-.751.676h-24.628c-.3-.075-.525-.376-.6-.676l-3.454-26.88c0-.15-.15-.15-.15 0zm34.865-27.18h52.108c.451 0 .751.225.751.751v14.941c0 .526-.3.751-.751.751h-27.63v2.703h17.794c.451 0 .676.225.676.751v15.017c0 .525-.225.75-.676.75h-17.794v2.703h27.63c.451 0 .751.226.751.676v14.942c0 .525-.3.751-.751.751h-52.108c-.45 0-.75-.301-.75-.676v-53.309c0-.376.3-.751.75-.751zm55.509 54.06v-53.384c0-.376.301-.676.676-.676h24.327c.375 0 .751.3.751.676v37.391h28.231c.375 0 .751.3.751.676v15.317c0 .375-.376.676-.751.676h-53.309c-.375 0-.676-.301-.676-.676zm84.032-16.969c0 1.352.826 2.027 2.177 2.027 1.126 0 2.027-.826 2.027-1.802 0-1.351-1.126-2.177-2.853-2.177-16.743-.075-28.381-5.481-28.381-17.044 0-10.587 13.815-18.095 28.607-18.095 14.716 0 27.78 6.007 27.78 17.269 0 .451-.375.826-.901.826h-24.101c-.601 0-1.052-.375-1.052-1.051 0-1.051-.976-1.727-2.102-1.727-1.201 0-2.177.826-2.177 1.802 0 .525.15 1.877 2.102 1.877 18.846 0 28.757 6.833 28.757 18.32 0 10.737-9.911 17.42-28.682 17.42-14.866 0-27.856-6.157-27.856-17.645 0-.45.376-.826.901-.826h24.853c.525 0 .901.376.901.826z" fill="#e4d0ff"/><path d="m122.142 206.115h50.1282v106.06h-50.1282z" fill="#b5dc3a"/><path d="m-59.5967 215.901h172.868v83.9478h-172.868z" fill="#b5dc3a"/><path d="m127.388 191.873h51.2193v14.2413h-51.2193z" fill="#4fab59"/><path d="m122.142 196.62h5.24685v14.3646h-5.24685z" fill="#4fab59"/><path d="m0 0h51.2193v14.2413h-51.2193z" fill="#4fab59" transform="matrix(1 0 0 -1 127.388 326.415)"/><path d="m0 0h5.24685v19.1116h-5.24685z" fill="#4fab59" transform="matrix(1 0 0 -1 122.142 326.415)"/><path d="m116.228 206.115h5.91335v106.06h-5.91335z" fill="#4fab59"/><path d="m110.315 206.115h5.91335v110.344h-5.91335z" fill="#4fab59"/><path d="m-59.5967 206.115h175.825v9.78707h-175.825z" fill="#4fab59"/><path d="m-59.5967 297.56h175.825v18.8988h-175.825z" fill="#4fab59"/><path d="m12.1406 225.128h9.82854v4.94989h-9.82854z" fill="#fff"/><path d="m146.235 215.901h14.2346v4.94989h-14.2346z" fill="#fff"/><path d="m73.6582 225.128h20.2218v4.94989h-20.2218z" fill="#fff"/><path d="m98.5928 225.128h4.84103v4.94989h-4.84103z" fill="#fff"/><path d="m136.954 215.901h4.84103v4.94989h-4.84103z" fill="#fff"/><path d="m-30.8593 225.128h33.8453v4.94989h-33.8453z" fill="#fff"/><path d="m31.1232 225.128h33.3806v4.94989h-33.3806z" fill="#fff"/><path d="m170.363 196.62h24.2355v124.675h-24.2355z" fill="#5ccf69"/><path d="m175.11 191.873h14.7412v134.542h-14.7412z" fill="#5ccf69"/><path d="m187.352 210.362h12.2427v96.9417h-12.2427z" fill="#5ccf69"/><path d="m180.107 201.367h9.74417v115.181h-9.74417z" fill="#000"/><path d="m175.11 220.356h19.4883v77.2037h-19.4883z" fill="#000"/><path d="m129.827 264.882h13.2113v32.8221h-13.2113z" fill="#ccf34e"/><path d="m145.233 263.409h-16.558v36.44h16.558zm-13.233 33.116v-29.792l9.93.001v29.791z" fill="#4fab59"/><path d="m97.6934 244.533h43.2668v63.2504h-43.2668z" fill="#ccf34e" transform="matrix(0 1 -1 0 342.2264 146.8396)"/><path d="m94.352 291.119v-3.32h-56.5676v3.32z" fill="#4fab59"/><path d="m37.7844 287.799v-3.32h-3.3416v3.32z" fill="#4fab59"/><path d="m97.6934 287.799v-3.32h-3.3416v3.32z" fill="#4fab59"/><path d="m47.7652 284.479v-23.304h-9.9813v23.304z" fill="#4fab59"/><path d="m34.443 284.479v-36.627h-3.3198v36.627z" fill="#4fab59"/><path d="m61.067 284.479v-9.981h-9.9813v9.981zm-6.6396-3.341v-3.32h3.3198v3.32z" fill="#4fab59"/><path d="m74.3894 284.479v-9.981h-9.9812v9.981zm-6.6614-3.341v-3.32h3.3416v3.32z" fill="#4fab59"/><path d="m94.352 247.852h-16.6426v36.627h16.6426zm-13.301 33.286v-29.944h9.9812v29.944z" fill="#4fab59"/><path d="m87.6905 277.818v-3.32h-3.3198v3.32z" fill="#4fab59"/><path d="m87.6905 271.156v-3.319h-3.3198v3.319z" fill="#4fab59"/><path d="m61.067 271.157v-9.982h-9.9813v9.982zm-6.6396-3.32v-3.342h3.3198v3.342z" fill="#4fab59"/><path d="m74.3894 271.157v-9.982h-9.9812v9.982zm-6.6614-3.32v-3.342h3.3416v3.342z" fill="#4fab59"/><path d="m37.7839 257.866h9.9813v-10.014h-9.9813zm6.6396-6.661v3.32h-3.3198v-3.331z" fill="#4fab59"/><path d="m61.067 257.866v-10.014h-9.9813v10.014zm-6.6396-3.341v-3.331h3.3198v3.32z" fill="#4fab59"/><path d="m74.3894 257.866v-10.014h-9.9812v10.014zm-6.6614-3.341v-3.331h3.3416v3.32z" fill="#4fab59"/><path d="m101.013 284.479v-36.627h-3.3196v36.627z" fill="#4fab59"/><path d="m37.7844 247.852v-3.319h-3.3416v3.319z" fill="#4fab59"/><path d="m97.6934 247.852v-3.319h-3.3416v3.319z" fill="#4fab59"/><path d="m94.352 244.533v-3.32h-56.5676v3.32z" fill="#4fab59"/><path d="m-59.5967 201.367h181.738v5.13856h-181.738z" fill="#000"/><path d="m117.293 196.528h4.84847v7.40851h-4.84847z" fill="#000"/><path d="m127.388 191.68h4.84847v5.24688h-4.84847z" fill="#000" transform="matrix(0 1 -1 0 319.068 64.292)"/><path d="m189.851 187.025h4.84847v62.9415h-4.84847z" fill="#000" transform="matrix(0 1 -1 0 376.876 -2.826)"/><path d="m0 0h181.738v5.13856h-181.738z" fill="#000" transform="matrix(1 0 0 -1 -59.5967 316.693)"/><path d="m0 0h4.84847v7.40851h-4.84847z" fill="#000" transform="matrix(1 0 0 -1 117.293 321.533)"/><path d="m0 0h4.84847v5.24688h-4.84847z" fill="#000" transform="matrix(-.00000004 -1 -1 .00000004 127.388 326.381)"/><path d="m0 0h4.84847v62.9415h-4.84847z" fill="#000" transform="matrix(-.00000004 -1 -1 .00000004 189.851 331.036)"/><path d="m194.598 196.62h4.99709v13.7417h-4.99709z" fill="#000"/><path d="m194.598 307.304h4.99709v13.9919h-4.99709z" fill="#000"/><path d="m170.113 321.295h4.99709v9.52171h-4.99709z" fill="#000"/><path d="m189.851 321.295h4.99709v4.8921h-4.99709z" fill="#000"/><path d="m189.851 191.873h4.99709v4.8921h-4.99709z" fill="#000"/><path d="m170.363 191.873h4.99709v4.8921h-4.99709z" fill="#000"/><path d="m199.595 210.362h4.99709v96.9416h-4.99709z" fill="#000"/><path d="m165.366 196.766h4.99709v124.53h-4.99709z" fill="#000"/><path d="m117.145 205.12h4.99709v107.821h-4.99709z" fill="#000"/><g mask="url(#b)"><g fill="#231e2b"><path d="m227.542 305.235h-30.376v7.67h30.376z"/><path d="m242.729 297.565h-15.187v7.67h15.187z"/><path d="m197.166 297.565h-15.187v7.67h15.187z"/><path d="m250.323 289.894h-7.594v7.671h7.594z"/></g><path d="m212.354 289.894h-15.188v7.671h15.188z" fill="#f5f38e"/><path d="m189.573 289.894v-7.67h-7.594v-38.353h7.594v-7.67h7.593v-7.671h30.376v-7.67h-15.188v-7.671h-15.188v7.671h-15.187v7.67h-7.594v15.341h-7.594v30.682h7.594v15.341h7.594v7.671h15.187v-7.671z" fill="#e2b436"/><path d="m181.979 289.894h-7.594v7.671h7.594z" fill="#231e2b"/><path d="m197.166 282.223h-7.593v7.671h7.593z" fill="#f5f38e"/><path d="m257.917 274.553h-7.594v15.341h7.594z" fill="#231e2b"/><path d="m212.354 274.553h-7.594v7.671h7.594z" fill="#c2751d"/><path d="m189.573 274.553h-7.594v7.671h7.594z" fill="#f5f38e"/><path d="m204.76 266.883h-7.594v7.67h7.594z" fill="#c2751d"/><path d="m265.511 243.871h-7.594v30.682h7.594z" fill="#231e2b"/><path d="m227.542 251.542h-7.594v7.67h7.594z" fill="#f5f38e"/><path d="m242.729 243.871h-7.594v7.671h7.594z" fill="#c2751d"/><path d="m219.948 243.871h-7.594v7.671h7.594z" fill="#f5f38e"/><path d="m212.354 243.871h-7.594v7.671h-7.594v15.341h7.594v7.67h15.188v-7.67h7.594v-7.671h-7.594v-7.67h-7.594z" fill="#e2b436"/><path d="m250.323 236.2h-7.594v-7.67h-15.187v7.67h7.593v7.671h7.594v30.682h-7.594v7.67h-7.593v7.671h-15.188v7.67h-15.188v7.671h30.376v-7.671h15.187v-7.67h7.594v-15.341h7.594v-30.682h-7.594z" fill="#e2b436"/><path d="m235.136 236.201h-7.594v7.67h7.594z" fill="#c2751d"/><path d="m212.354 236.2v-7.67h-15.188v7.67h-7.593v7.671h-7.594v30.682h7.594v7.67h7.593v7.671h30.376v-7.671h7.593v-7.67h7.594v-23.012h-7.594v-7.67h-7.593v-7.671zm15.188 15.341v15.341h-7.594v7.671h-7.594v7.67h-7.594v-7.67h-7.594v-23.012h7.594v-7.67h15.188v7.67z" fill="#cf8934"/><path d="m257.917 228.53h-7.594v15.341h7.594z" fill="#231e2b"/><path d="m250.323 228.53h-7.594v7.67h7.594z" fill="#f5f38e"/><path d="m227.542 228.53h-15.188v7.67h15.188z" fill="#c2751d"/><path d="m250.323 220.859h-7.594v7.671h7.594z" fill="#231e2b"/><path d="m242.729 220.859h-15.187v7.671h15.187z" fill="#f5f38e"/><path d="m181.979 220.859h-7.594v7.671h7.594z" fill="#231e2b"/><path d="m242.729 213.189h-15.187v7.671h15.187z" fill="#231e2b"/><path d="m227.542 213.189h-15.188v7.671h15.188z" fill="#f5f38e"/><path d="m197.166 213.189h-15.187v7.671h15.187z" fill="#231e2b"/><path d="m227.542 205.518h-30.376v7.671h30.376z" fill="#231e2b"/></g><path d="m618.206 164.281h46.7258v98.8609h-46.7258z" fill="#b5dc3a" transform="matrix(0 1 -1 0 782.487 -453.925)"/><path d="m609.083-61.5823h214.84v78.25h-214.84z" fill="#b5dc3a" transform="matrix(0 1 -1 0 547.5007 -670.6653)"/><path d="m631.481 169.172h47.7428v13.2747h-47.7428z" fill="#4fab59" transform="matrix(0 1 -1 0 800.653 -462.309)"/><path d="m627.056 164.281h4.89073v13.3896h-4.89073z" fill="#4fab59" transform="matrix(0 1 -1 0 791.337 -462.775)"/><path d="m0 0h47.7428v13.2747h-47.7428z" fill="#4fab59" transform="matrix(-.00000004 1 1 .00000004 506.071 169.172)"/><path d="m0 0h4.89073v17.8144h-4.89073z" fill="#4fab59" transform="matrix(-.00000004 1 1 .00000004 506.071 164.281)"/><path d="m618.206 158.769h5.51199v98.8609h-5.51199z" fill="#4fab59" transform="matrix(0 1 -1 0 776.975 -459.437)"/><path d="m618.206 153.257h5.51199v102.855h-5.51199z" fill="#4fab59" transform="matrix(0 1 -1 0 771.463 -464.949)"/><path d="m618.206-61.5823h218.514v9.12279h-218.514z" fill="#4fab59" transform="matrix(0 1 -1 0 556.6237 -679.7883)"/><path d="m532.967-61.5823h218.514v17.6161h-218.514z" fill="#4fab59" transform="matrix(0 1 -1 0 471.3847 -594.5493)"/><path d="m600.482 8.19257h9.16143v4.61392h-9.16143z" fill="#fff" transform="matrix(0 1 -1 0 608.67457 -592.28943)"/><path d="m600.482 61.7462h9.16143v4.61392h-9.16143z" fill="#fff" transform="matrix(0 1 -1 0 662.2282 -538.7358)"/><path d="m609.083 186.739h13.2684v4.61392h-13.2684z" fill="#fff" transform="matrix(0 1 -1 0 795.822 -422.344)"/><path d="m600.482 119.088h18.8493v4.61392h-18.8493z" fill="#fff" transform="matrix(0 1 -1 0 719.57 -481.394)"/><path d="m600.482 142.33h4.51245v4.61392h-4.51245z" fill="#fff" transform="matrix(0 1 -1 0 742.812 -458.152)"/><path d="m609.083 178.088h4.51245v4.61392h-4.51245z" fill="#fff" transform="matrix(0 1 -1 0 787.171 -430.995)"/><path d="m600.482 21.6648h31.548v4.61392h-31.548z" fill="#fff" transform="matrix(0 1 -1 0 622.1468 -578.8172)"/><path d="m600.482 79.4402h31.1149v4.61392h-31.1149z" fill="#fff" transform="matrix(0 1 -1 0 679.9222 -521.0418)"/><path d="m627.056 209.229h22.5905v116.213h-22.5905z" fill="#5ccf69" transform="matrix(0 1 -1 0 836.285 -417.827)"/><path d="m631.481 213.654h13.7407v125.41h-13.7407z" fill="#5ccf69" transform="matrix(0 1 -1 0 845.135 -417.827)"/><path d="m614.247 225.066h11.4117v90.3619h-11.4117z" fill="#5ccf69" transform="matrix(0 1 -1 0 839.313 -389.181)"/><path d="m622.631 218.312h9.0828v107.363h-9.0828z" fill="#000" transform="matrix(0 1 -1 0 840.943 -404.319)"/><path d="m604.931 213.654h18.1656v71.9636h-18.1656z" fill="#000" transform="matrix(0 1 -1 0 818.585 -391.277)"/><path d="m622.631-61.5823h225.863v4.78979h-225.863z" fill="#000" transform="matrix(0 1 -1 0 561.0487 -684.2133)"/><path d="m627.142 159.761h4.51939v6.90567h-4.51939z" fill="#000" transform="matrix(0 1 -1 0 786.903 -467.381)"/><path d="m631.661 169.172h4.51939v4.89076h-4.51939z" fill="#000" transform="matrix(-1 -0 0 -1 1263.322 338.344)"/><path d="m636 227.395h4.51939v58.6695h-4.51939z" fill="#000" transform="matrix(-1 -0 0 -1 1272 454.79)"/><path d="m0 0h225.863v4.78979h-225.863z" fill="#000" transform="matrix(-.00000003 1 1 .00000006 515.133 -61.5823)"/><path d="m0 0h4.51939v6.90567h-4.51939z" fill="#000" transform="matrix(-.00000004 1 1 .00000004 510.622 159.761)"/><path d="m0 0h4.51939v4.89076h-4.51939z" fill="#000" transform="matrix(1 0 0 -1 506.102 169.172)"/><path d="m0 0h4.51939v58.6695h-4.51939z" fill="#000" transform="matrix(1 0 0 -1 501.763 227.395)"/><path d="m627.056 231.819h4.65792v12.809h-4.65792z" fill="#000" transform="matrix(0 1 -1 0 858.875 -395.237)"/><path d="m523.885 231.819h4.65792v13.0422h-4.65792z" fill="#000" transform="matrix(0 1 -1 0 755.704 -292.066)"/><path d="m510.843 208.996h4.65792v8.87543h-4.65792z" fill="#000" transform="matrix(0 1 -1 0 719.839 -301.847)"/><path d="m510.843 227.395h4.65792v4.56005h-4.65792z" fill="#000" transform="matrix(0 1 -1 0 738.238 -283.448)"/><path d="m631.481 227.395h4.65792v4.56005h-4.65792z" fill="#000" transform="matrix(0 1 -1 0 858.876 -404.086)"/><path d="m631.481 209.229h4.65792v4.56005h-4.65792z" fill="#000" transform="matrix(0 1 -1 0 840.71 -422.252)"/><path d="m614.247 236.477h4.65792v90.3618h-4.65792z" fill="#000" transform="matrix(0 1 -1 0 850.724 -377.77)"/><path d="m626.921 204.571h4.65792v116.078h-4.65792z" fill="#000" transform="matrix(0 1 -1 0 831.492 -422.35)"/><path d="m619.133 159.623h4.65792v100.503h-4.65792z" fill="#000" transform="matrix(0 1 -1 0 778.756 -459.51)"/><g mask="url(#c)"><path d="m532.786 190.74v99.956h71.398v-99.956zm64.258 92.817h-57.118v-85.678h57.118z" fill="#231e2b"/><path d="m589.905 212.159h-7.14v7.14h-7.14v7.139h7.14v28.559h-7.14v7.14h7.14v7.14h7.14v7.14h7.139v-71.398h-7.139z" fill="#f7feff"/><path d="m589.905 276.417v7.14h7.14v-7.14z" fill="#b6b7b8"/><path d="m582.765 269.277v7.14h7.14v-7.14z" fill="#b6b7b8"/><path d="m582.765 276.417v-7.14h-7.14v-7.14h-7.139v7.14h-7.14v7.14h-7.14v7.14h35.699v-7.14z" fill="#f7feff"/><g fill="#b6b7b8"><path d="m575.625 212.159v7.14h7.14v-7.14z"/><path d="m575.625 226.438v28.559h7.14v-28.559z"/><path d="m575.625 262.137v7.14h7.14v-7.14z"/><path d="m568.486 219.299v7.139h7.139v-7.139z"/><path d="m568.486 254.997v7.14h7.139v-7.14z"/><path d="m561.346 212.159v7.14h7.139v-7.14z"/><path d="m561.346 262.137v7.14h7.139v-7.14z"/></g><path d="m561.346 205.019v7.14h7.14v7.14h7.139v-7.14h7.14v-7.14h7.14v-7.14h-35.699v7.14z" fill="#f7feff"/><path d="m554.206 269.277v7.14h7.14v-7.14z" fill="#b6b7b8"/><path d="m554.206 276.417v-7.14h7.14v-7.14h7.139v-7.14h7.14v-28.559h-7.14v-7.139h-7.139v-7.14h-7.14v-7.14h-7.14v-7.14h-7.14v85.678h7.14v-7.14z" fill="#f7feff"/><path d="m547.066 276.417v7.14h7.14v-7.14z" fill="#b6b7b8"/></g><path d="m542.928 90.4512h20.4534v50.8142h-20.4534z" fill="#ccf34e"/><path d="m566.779 88.1703h-25.635v56.4157h25.635zm-20.488 51.2687v-46.1216h15.374v46.1216z" fill="#4fab59"/></g></svg>