<svg fill="none" height="401" viewBox="0 0 650 401" width="650" xmlns="http://www.w3.org/2000/svg"><path d="m0 .75h650v400h-650z" fill="#e9fbff"/><path d="m23.6509 23.0303h96.8471c.684 0 1.231.5471 1.231 1.2311v48.0132c0 .6839-.547 1.2311-1.231 1.2311h-24.8957v48.0133c0 .684-.684 1.231-1.3679 1.231h-44.4567c-.684 0-1.2311-.547-1.2311-1.231v-48.0133h-24.8957c-.684 0-1.2312-.5472-1.2312-1.2311v-48.0132c0-.684.5472-1.2311 1.2312-1.2311zm155.1701 0c27.768 0 50.202 22.1599 50.202 49.9282 0 27.7685-22.434 49.7915-50.202 49.7915-27.769 0-50.202-22.023-50.202-49.7915 0-27.7683 22.433-49.9282 50.202-49.9282zm0 54.7159c2.599 0 4.787-2.0519 4.787-4.7877 0-2.599-2.188-4.7876-4.787-4.7876s-4.788 2.1886-4.788 4.7876c0 2.7358 2.189 4.7877 4.788 4.7877zm59.251-54.7159h45.141c.82 0 1.368.6839 1.368 1.3679v33.6502h3.556l14.089-33.6502c.411-.8208.684-1.3679 1.779-1.3679h46.235c.957 0 1.231.4103.684 1.6414l-20.245 48.4236 20.245 48.0137c.547 1.231.273 1.641-.684 1.641h-46.372c-1.094 0-1.368-.547-1.778-1.368l-13.679-32.6926h-3.83v32.6926c0 .821-.548 1.368-1.368 1.368h-45.141c-.821 0-1.368-.547-1.368-1.368v-96.9838c0-.9576.547-1.3679 1.368-1.3679zm123.33 0h94.932c.821 0 1.368.4103 1.368 1.3679v27.2211c0 .9576-.547 1.3679-1.368 1.3679h-50.339v4.9245h32.419c.821 0 1.232.4103 1.232 1.3679v27.3579c0 .9575-.411 1.3679-1.232 1.3679h-32.419v4.9244h50.339c.821 0 1.368.4104 1.368 1.2311v27.2211c0 .958-.547 1.368-1.368 1.368h-94.932c-.821 0-1.368-.547-1.368-1.231v-97.1208c0-.684.547-1.3679 1.368-1.3679zm152.287 49.5179v48.9708c0 .684-.684 1.231-1.367 1.231h-44.457c-.684 0-1.231-.547-1.231-1.231v-97.1208c0-.8208.547-1.3679 1.231-1.3679h44.73c.821 0 1.368.4103 1.505 1.2311l6.155 47.8764c0 .2736.274.2736.274 0v-47.7396c0-.8208.547-1.3679 1.231-1.3679h44.457c.684 0 1.368.5471 1.368 1.3679v97.1208c0 .684-.684 1.231-1.368 1.231h-44.867c-.547-.137-.958-.684-1.095-1.231l-6.292-48.9708c0-.2736-.274-.2736-.274 0zm88.142-1.0944c-13.542 0-24.622-10.9431-24.622-24.4853s11.08-23.9382 24.622-23.9382c13.679 0 24.622 10.396 24.622 23.9382s-10.943 24.4853-24.622 24.4853zm-22.57 2.8726h45.141c.683 0 1.367.684 1.367 1.3679v45.6877c0 .821-.684 1.368-1.367 1.368h-45.141c-.684 0-1.368-.547-1.368-1.368v-45.6877c0-.6839.684-1.3679 1.368-1.3679zm-481.0293 116.4056h23.3363c.699 0 1.258.559 1.258 1.258v41.502c0 .699-.559 1.258-1.258 1.258h-97.5374c-1.1179 0-2.0961-.838-1.2577-2.515l25.1529-54.079c.1398-.28.2795-.559.1398-.838-.1398-.28-.559-.28-.6987-.28h-23.6158c-.6987 0-1.2576-.559-1.2576-1.258v-41.502c0-.699.5589-1.397 1.2576-1.397h97.5369c1.118 0 2.097.838 1.258 2.655l-24.8733 54.079c-.1397.279-.2795.558-.1397.838.1397.279.5589.279.6987.279zm112.8493-57.013 33.957 99.214c.419 1.118-.14 1.817-1.258 1.817h-45.694c-.979 0-1.398-.559-1.677-1.397l-2.655-7.965h-12.577l-2.655 7.965c-.279.838-.698 1.397-1.677 1.397h-45.834c-1.118 0-1.677-.699-1.257-1.817l34.235-99.214c.28-.559.699-.838 1.398-.838h44.437c.559 0 1.118.279 1.257.838zm-27.947 85.8h8.663l-4.331-13.415zm60.459-86.638h98.935c.699 0 1.258.559 1.258 1.257v49.049c0 .698-.559 1.257-1.258 1.257h-25.432v49.048c0 .699-.699 1.258-1.398 1.258h-45.415c-.698 0-1.257-.559-1.257-1.258v-49.048h-25.433c-.698 0-1.257-.559-1.257-1.257v-49.049c0-.698.559-1.257 1.257-1.257zm133.083 49.467c-13.834 0-25.153-11.179-25.153-25.013s11.319-24.454 25.153-24.454c13.973 0 25.153 10.62 25.153 24.454s-11.18 25.013-25.153 25.013zm-23.057 2.935h46.113c.699 0 1.398.698 1.398 1.397v46.673c0 .838-.699 1.397-1.398 1.397h-46.113c-.699 0-1.398-.559-1.398-1.397v-46.673c0-.699.699-1.397 1.398-1.397zm107.168-52.402c28.367 0 51.284 22.637 51.284 51.004s-22.917 50.865-51.284 50.865-51.284-22.498-51.284-50.865 22.917-51.004 51.284-51.004zm0 55.895c2.655 0 4.891-2.096 4.891-4.891 0-2.655-2.236-4.891-4.891-4.891s-4.891 2.236-4.891 4.891c0 2.795 2.236 4.891 4.891 4.891zm108.599-5.31v50.026c0 .699-.699 1.258-1.398 1.258h-45.415c-.698 0-1.257-.559-1.257-1.258v-99.214c0-.838.559-1.397 1.257-1.397h45.695c.838 0 1.397.419 1.537 1.257l6.288 48.909c0 .279.28.279.28 0v-48.769c0-.838.559-1.397 1.257-1.397h45.415c.699 0 1.398.559 1.398 1.397v99.214c0 .699-.699 1.258-1.398 1.258h-45.834c-.559-.14-.978-.699-1.118-1.258l-6.428-50.026c0-.279-.279-.279-.279 0z" fill="#8cd9da"/><path d="m170.33 215.628c-4.293 0-8.483 0-12.98 0v7.154h2.862c0-1.43 0-4.088 0-4.088h10.22c-.102-1.022-.102-2.044-.102-3.066z" fill="#000"/><path d="m180.549 192.123c-.817 0-1.737 0-3.066 0v8.278 8.074h3.066c0-5.621 0-10.936 0-16.352z" fill="#000"/><path d="m0 0h36.7919v3.27845h-36.7919z" fill="#000" transform="matrix(.00000004 -1 -1 -.00000004 208.394 228.915)"/><path d="m0 0h20.0493v5.90592h-20.0493z" fill="#000" transform="matrix(-1 0 0 1 212.803 202.564)"/><path d="m160.11 222.783v3.066h4.088c0-.92 0-1.84 0-3.066-1.533 0-2.862 0-4.088 0z" fill="#000"/><path d="m174.038 222.342v3.302h6.307c0-.889 0-2.032 0-3.302-2.175 0-4.241 0-6.307 0z" fill="#000"/><path d="m168.157 229.756v3.302h6.306c0-.889 0-2.032 0-3.302-2.175 0-4.24 0-6.306 0z" fill="#000"/><path d="m163.891 225.849v3.907h4.266c0-1.052 0-2.404 0-3.907-1.471 0-2.869 0-4.266 0z" fill="#000"/><path d="m0 0h24.7061v9.1504h-24.7061z" fill="#0d0a03" transform="matrix(-1 0 0 1 220.271 370.262)"/><path d="m0 0h25.6211v10.9805h-25.6211z" fill="#0d0a03" transform="matrix(-1 0 0 1 156.219 368.431)"/><path d="m198.075 301.451h2.053v20.522h8.209v12.315h22.575v8.209h4.104v8.209h12.315v-8.209h5.472v-8.209h8.894v-12.315h-2.053v-12.313h-2.736v-6.841h6.841v-5.473h-4.105v-4.104h-5.472v4.104h-.685v3.42h-.684v-21.89h-54.728zm13.683-36.943h-5.473v14.367h30.784v-14.367h-8.209v-6.156h-17.102z" fill="#824419"/><path d="m169.342 264.509h-4.104v4.104h4.104v.001h-12.313v4.105h-8.209v4.104h-8.209v4.105h-4.106v4.104h-8.209v4.105h-4.104v4.105h-4.105v8.208h-4.104v20.523h4.104v20.524h4.105v12.313h6.405v15.452h11.896v-23.661h1.83v16.34h10.065v-16.34h2.641v4.105h12.313v4.104h26.681v17.103h12.313v-23.943h.685v17.102h10.261v-18.471h3.421v-8.209h-12.314v-12.314h-8.21v-10.261h-4.104v-59.517h-28.733zm30.785 75.935h-2.052v-2.052h2.052z" fill="#a35a27"/><path d="m0 0h16.4184v16.4184h-16.4184z" fill="#d09062" transform="matrix(-1 0 0 1 198.075 256.3)"/><path d="m0 0h16.4184v4.10461h-16.4184z" fill="#d09062" transform="matrix(-1 0 0 1 183.709 260.405)"/><path d="m0 0h16.4184v4.10461h-16.4184z" fill="#d09062" transform="matrix(-1 0 0 1 181.657 264.509)"/><path d="m0 0h12.3138v4.10461h-12.3138z" fill="#d09062" transform="matrix(-1 0 0 1 169.343 268.614)"/><path d="m0 0h8.20922v4.10461h-8.20922z" fill="#d09062" transform="matrix(-1 0 0 1 157.029 272.719)"/><path d="m0 0h8.20922v4.10461h-8.20922z" fill="#d09062" transform="matrix(-1 0 0 1 148.82 276.823)"/><path d="m0 0h8.20922v4.10461h-8.20922z" fill="#d09062" transform="matrix(-1 0 0 1 140.611 280.927)"/><path d="m0 0h10.2615v16.4184h-10.2615z" fill="#824418" transform="matrix(-1 0 0 1 126.244 305.555)"/><path d="m0 0h10.2615v17.7866h-10.2615z" fill="#824418" transform="matrix(-1 0 0 1 130.349 316.5)"/><path d="m0 0h10.2615v20.523h-10.2615z" fill="#824418" transform="matrix(-1 0 0 1 134.454 321.973)"/><path d="m0 0h14.3661v12.3138h-14.3661z" fill="#824418" transform="matrix(-1 0 0 1 148.82 334.287)"/><path d="m0 0h12.3138v8.20922h-12.3138z" fill="#824418" transform="matrix(-1 0 0 1 152.924 326.078)"/><path d="m0 0h14.3661v12.3138h-14.3661z" fill="#824418" transform="matrix(-1 0 0 1 130.349 297.345)"/><path d="m0 0h16.4184v8.20922h-16.4184z" fill="#824418" transform="matrix(-1 0 0 1 185.761 346.601)"/><path d="m0 0h12.3138v8.20922h-12.3138z" fill="#824418" transform="matrix(-1 0 0 1 193.97 342.497)"/><path d="m0 0h9.57742v8.20922h-9.57742z" fill="#824418" transform="matrix(-1 0 0 1 198.075 334.287)"/><path d="m0 0h9.57742v8.20922h-9.57742z" fill="#824418" transform="matrix(-1 0 0 1 211.757 342.497)"/><path d="m0 0h16.4707v8.23536h-16.4707z" fill="#824418" transform="matrix(-1 0 0 1 173.604 342.81)"/><path d="m0 0h21.0459v15.5557h-21.0459z" fill="#824418" transform="matrix(-1 0 0 1 163.539 334.575)"/><path d="m0 0h12.8106v16.4707h-12.8106z" fill="#824418" transform="matrix(-1 0 0 1 140.663 338.235)"/><path d="m0 0h10.9805v21.961h-10.9805z" fill="#824418" transform="matrix(-1 0 0 1 154.388 346.47)"/><path d="m0 0h24.6276v24.6276h-24.6276z" fill="#824418" transform="matrix(-1 0 0 1 220.65 346.601)"/><path d="m200.811 278.875v-13.682l3.763-3.763 4.789 5.131 4.788 9.92-1.71 2.394-3.078 3.078h-1.369z" fill="#f5f5f5"/><path d="m230.57 271.008 6.841-3.763h4.104l3.079 2.395 4.105-1.711 5.814-1.368 2.395 5.131 5.131 2.052v6.157l-5.131 10.604h-9.92l-5.13 3.762-8.552 1.711-4.788-5.473-3.421-2.395v-14.366z" fill="#fff"/><path d="m0 0h4.10461v12.3138h-4.10461z" fill="#f5f5f5" transform="matrix(-1 0 0 1 247.33 256.3)"/><path d="m0 0h4.10461v4.78871h-4.10461z" fill="#824419" transform="matrix(-1 0 0 1 226.807 332.235)"/><path d="m0 0h10.9805v15.5557h-10.9805z" fill="#824418" transform="matrix(-1 0 0 1 141.578 352.876)"/><path d="m0 0h4.10461v20.523h-4.10461z" fill="#000" transform="matrix(-1 0 0 1 202.18 256.3)"/><path d="m0 0h4.10461v8.20922h-4.10461z" fill="#000" transform="matrix(-1 0 0 1 206.284 252.195)"/><path d="m0 0h4.10461v4.10461h-4.10461z" fill="#000" transform="matrix(-1 0 0 1 206.284 276.823)"/><path d="m0 0h4.10461v4.10461h-4.10461z" fill="#000" transform="matrix(-1 0 0 1 214.493 268.614)"/><path d="m0 0h4.10461v4.10461h-4.10461z" fill="#000" transform="matrix(-1 0 0 1 222.702 256.3)"/><path d="m0 0h4.10461v4.10461h-4.10461z" fill="#000" transform="matrix(-1 0 0 1 235.016 260.405)"/><path d="m0 0h4.10461v4.10461h-4.10461z" fill="#000" transform="matrix(-1 0 0 1 239.121 260.405)"/><path d="m0 0h4.10461v4.10461h-4.10461z" fill="#000" transform="matrix(-1 0 0 1 243.226 260.405)"/><path d="m0 0h4.10461v4.10461h-4.10461z" fill="#000" transform="matrix(-1 0 0 1 255.539 264.509)"/><path d="m0 0h4.10461v4.10461h-4.10461z" fill="#000" transform="matrix(-1 0 0 1 259.644 268.614)"/><path d="m0 0h4.10461v4.10461h-4.10461z" fill="#000" transform="matrix(-1 0 0 1 255.539 276.823)"/><path d="m0 0h4.10461v4.10461h-4.10461z" fill="#000" transform="matrix(-1 0 0 1 239.121 278.875)"/><path d="m0 0h4.10461v16.4184h-4.10461z" fill="#000" transform="matrix(-1 0 0 1 226.807 272.719)"/><path d="m0 0h4.10461v8.20922h-4.10461z" fill="#000" transform="matrix(-1 0 0 1 259.644 285.032)"/><path d="m0 0h4.10461v8.20922h-4.10461z" fill="#000" transform="matrix(-1 0 0 1 255.539 289.137)"/><path d="m0 0h4.10461v4.10461h-4.10461z" fill="#000" transform="matrix(-1 0 0 1 263.749 293.242)"/><path d="m0 0h8.20922v4.10461h-8.20922z" fill="#000" transform="matrix(-1 0 0 1 263.749 330.183)"/><path d="m0 0h16.4184v4.10461h-16.4184z" fill="#000" transform="matrix(-1 0 0 1 259.644 334.288)"/><path d="m0 0h4.10461v4.10461h-4.10461z" fill="#000" transform="matrix(-1 0 0 1 263.749 301.451)"/><path d="m0 0h4.10461v8.20922h-4.10461z" fill="#000" transform="matrix(-1 0 0 1 259.644 301.451)"/><path d="m0 0h4.10461v8.20922h-4.10461z" fill="#000" transform="matrix(-1 0 0 1 265.801 321.974)"/><path d="m0 0h4.10461v12.3138h-4.10461z" fill="#000" transform="matrix(-1 0 0 1 263.749 309.66)"/><path d="m0 0h4.10461v4.10461h-4.10461z" fill="#000" transform="matrix(-1 0 0 1 255.539 297.346)"/><path d="m0 0h4.10461v4.10461h-4.10461z" fill="#000" transform="matrix(-1 0 0 1 251.435 289.137)"/><path d="m0 0h4.10461v8.20922h-4.10461z" fill="#000" transform="matrix(-1 0 0 1 267.853 297.346)"/><path d="m0 0h4.10461v12.3138h-4.10461z" fill="#000" transform="matrix(-1 0 0 1 263.749 272.719)"/><path d="m0 0h4.10461v8.20922h-4.10461z" fill="#000" transform="matrix(-1 0 0 1 251.435 272.719)"/><path d="m0 0h4.10461v8.20922h-4.10461z" fill="#000" transform="matrix(-1 0 0 1 252.803 280.927)"/><path d="m0 0h4.10461v4.10461h-4.10461z" fill="#000" transform="matrix(-1 0 0 1 243.226 256.3)"/><path d="m0 0h4.10461v16.4184h-4.10461z" fill="#000" transform="matrix(-1 0 0 1 251.435 252.195)"/><path d="m0 0h4.10461v12.3138h-4.10461z" fill="#000" transform="matrix(-1 0 0 1 247.33 243.986)"/><path d="m0 0h4.10461v4.10461h-4.10461z" fill="#000" transform="matrix(-1 0 0 1 239.121 264.509)"/><path d="m0 0h8.20922v4.10461h-8.20922z" fill="#000" transform="matrix(-1 0 0 1 235.016 268.614)"/><path d="m0 0h4.10461v4.10461h-4.10461z" fill="#000" transform="matrix(-1 0 0 1 230.912 289.137)"/><path d="m0 0h4.10461v4.10461h-4.10461z" fill="#000" transform="matrix(-1 0 0 1 247.33 289.137)"/><path d="m0 0h12.3138v4.10461h-12.3138z" fill="#000" transform="matrix(-1 0 0 1 243.226 293.242)"/><path d="m0 0h12.3138v4.10461h-12.3138z" fill="#000" transform="matrix(-1 0 0 1 247.33 350.706)"/><path d="m0 0h4.10461v4.10461h-4.10461z" fill="#000" transform="matrix(-1 0 0 1 247.33 268.614)"/><path d="m0 0h4.10461v4.10461h-4.10461z" fill="#000" transform="matrix(-1 0 0 1 243.226 264.509)"/><path d="m0 0h4.10461v4.10461h-4.10461z" fill="#000" transform="matrix(-1 0 0 1 226.807 256.3)"/><path d="m0 0h4.10461v8.20922h-4.10461z" fill="#000" transform="matrix(-1 0 0 1 230.912 256.3)"/><path d="m0 0h4.10461v4.10461h-4.10461z" fill="#000" transform="matrix(-1 0 0 1 210.389 264.509)"/><path d="m0 0h4.10461v4.10461h-4.10461z" fill="#000" transform="matrix(-1 0 0 1 206.284 260.405)"/><path d="m0 0h4.10461v4.10461h-4.10461z" fill="#000" transform="matrix(-1 0 0 1 210.389 280.927)"/><path d="m0 0h4.10461v4.10461h-4.10461z" fill="#000" transform="matrix(-1 0 0 1 214.493 285.032)"/><path d="m0 0h4.10461v4.10461h-4.10461z" fill="#000" transform="matrix(-1 0 0 1 218.598 293.242)"/><path d="m0 0h4.10461v6.84101h-4.10461z" fill="#000" transform="matrix(-1 0 0 1 214.493 297.346)"/><path d="m0 0h4.10461v15.0502h-4.10461z" fill="#000" transform="matrix(-1 0 0 1 210.389 289.137)"/><path d="m0 0h4.10461v8.20922h-4.10461z" fill="#000" transform="matrix(-1 0 0 1 214.493 272.719)"/><path d="m0 0h4.10461v4.10461h-4.10461z" fill="#000" transform="matrix(-1 0 0 1 210.389 260.405)"/><path d="m0 0h4.10461v8.20922h-4.10461z" fill="#000" transform="matrix(-1 0 0 1 214.493 256.3)"/><path d="m0 0h4.10461v8.20922h-4.10461z" fill="#000" transform="matrix(-1 0 0 1 218.598 256.3)"/><path d="m0 0h16.4184v4.10461h-16.4184z" fill="#000" transform="matrix(-1 0 0 1 198.075 252.195)"/><path d="m0 0h12.3138v4.10461h-12.3138z" fill="#000" transform="matrix(-1 0 0 1 181.656 256.3)"/><path d="m0 0h4.10461v4.10461h-4.10461z" fill="#000" transform="matrix(-1 0 0 1 169.343 260.405)"/><path d="m0 0h4.10461v4.10461h-4.10461z" fill="#000" transform="matrix(-1 0 0 1 140.61 276.823)"/><path d="m0 0h4.10461v4.10461h-4.10461z" fill="#000" transform="matrix(-1 0 0 1 128.297 285.032)"/><path d="m0 0h4.10461v4.10461h-4.10461z" fill="#000" transform="matrix(-1 0 0 1 124.192 289.137)"/><path d="m0 0h4.10461v4.10461h-4.10461z" fill="#000" transform="matrix(-1 0 0 1 120.087 293.242)"/><path d="m0 0h4.10461v4.10461h-4.10461z" fill="#000" transform="matrix(-1 0 0 1 120.087 297.346)"/><path d="m0 0h4.10461v8.20922h-4.10461z" fill="#000" transform="matrix(-1 0 0 1 107.773 305.556)"/><path d="m0 0h8.20922v4.10461h-8.20922z" fill="#000" transform="matrix(-1 0 0 1 165.238 264.509)"/><path d="m0 0h8.20922v4.10461h-8.20922z" fill="#000" transform="matrix(-1 0 0 1 157.029 268.614)"/><path d="m0 0h8.20922v4.10461h-8.20922z" fill="#000" transform="matrix(-1 0 0 1 148.82 272.719)"/><path d="m0 0h8.20922v4.10461h-8.20922z" fill="#000" transform="matrix(-1 0 0 1 136.506 280.927)"/><path d="m0 0h4.10461v4.10461h-4.10461z" fill="#000" transform="matrix(-1 0 0 1 111.878 301.451)"/><path d="m0 0h4.10461v20.523h-4.10461z" fill="#000" transform="matrix(-1 0 0 1 115.983 301.451)"/><path d="m0 0h4.10461v12.3138h-4.10461z" fill="#000" transform="matrix(-1 0 0 1 120.087 321.974)"/><path d="m0 0h4.10461v12.3138h-4.10461z" fill="#000" transform="matrix(-1 0 0 1 103.669 313.764)"/><path d="m0 0h4.10461v8.20922h-4.10461z" fill="#000" transform="matrix(-1 0 0 1 107.773 326.078)"/><path d="m0 0h4.10461v8.20922h-4.10461z" fill="#000" transform="matrix(-1 0 0 1 124.192 334.288)"/><path d="m0 0h4.10461v12.3138h-4.10461z" fill="#000" transform="matrix(-1 0 0 1 128.297 342.497)"/><path d="m0 0h4.5752v26.5362h-4.5752z" fill="#000" transform="matrix(-1 0 0 1 132.427 354.706)"/><path d="m0 0h3.66016v24.7061h-3.66016z" fill="#000" transform="matrix(-1 0 0 1 144.323 346.47)"/><path d="m0 0h4.10461v12.3138h-4.10461z" fill="#000" transform="matrix(-1 0 0 1 154.388 350.706)"/><path d="m0 0h3.66016v10.0654h-3.66016z" fill="#000" transform="matrix(-1 0 0 1 147.983 368.432)"/><path d="m0 0h3.66016v18.3008h-3.66016z" fill="#000" transform="matrix(-1 0 0 1 158.048 362.941)"/><path d="m0 0h25.6211v3.66016h-25.6211z" fill="#000" transform="matrix(-1 0 0 1 157.133 367.516)"/><path d="m0 0h27.4512v3.66016h-27.4512z" fill="#000" transform="matrix(-1 0 0 1 158.048 377.582)"/><path d="m0 0h4.10461v8.20922h-4.10461z" fill="#000" transform="matrix(-1 0 0 1 148.82 338.392)"/><path d="m0 0h4.10461v4.10461h-4.10461z" fill="#000" transform="matrix(-1 0 0 1 152.924 334.288)"/><path d="m0 0h4.10461v4.10461h-4.10461z" fill="#000" transform="matrix(-1 0 0 1 152.924 342.497)"/><path d="m0 0h4.5752v34.7715h-4.5752z" fill="#000" transform="matrix(-1 0 0 1 198.31 346.47)"/><path d="m0 0h3.66016v21.961h-3.66016z" fill="#000" transform="matrix(-1 0 0 1 210.206 346.47)"/><path d="m0 0h4.5752v31.1114h-4.5752z" fill="#000" transform="matrix(-1 0 0 1 223.016 346.47)"/><path d="m0 0h4.10461v4.10461h-4.10461z" fill="#000" transform="matrix(-1 0 0 1 198.075 342.497)"/><path d="m0 0h4.10461v4.10461h-4.10461z" fill="#000" transform="matrix(-1 0 0 1 202.18 338.392)"/><path d="m0 0h4.10461v4.10461h-4.10461z" fill="#000" transform="matrix(-1 0 0 1 218.598 334.288)"/><path d="m0 0h4.10461v8.20922h-4.10461z" fill="#000" transform="matrix(-1 0 0 1 214.493 330.183)"/><path d="m0 0h4.10461v8.20922h-4.10461z" fill="#000" transform="matrix(-1 0 0 1 198.075 289.137)"/><path d="m0 0h4.10461v12.3138h-4.10461z" fill="#000" transform="matrix(-1 0 0 1 202.18 276.823)"/><path d="m0 0h4.10461v12.3138h-4.10461z" fill="#000" transform="matrix(-1 0 0 1 210.389 321.974)"/><path d="m0 0h4.10461v12.3138h-4.10461z" fill="#000" transform="matrix(-1 0 0 1 206.284 313.764)"/><path d="m0 0h4.10461v20.523h-4.10461z" fill="#000" transform="matrix(-1 0 0 1 202.18 297.346)"/><path d="m0 0h4.10461v4.10461h-4.10461z" fill="#000" transform="matrix(-1 0 0 1 157.029 346.601)"/><path d="m0 0h12.3138v4.10461h-12.3138z" fill="#000" transform="matrix(-1 0 0 1 169.343 350.706)"/><path d="m0 0h6.931v4.20801h-6.931z" fill="#000" transform="matrix(-1 0 0 1 109.02 380.713)"/><path d="m0 0h8.20922v4.10461h-8.20922z" fill="#000" transform="matrix(-1 0 0 1 193.97 350.706)"/><path d="m0 0h25.6211v4.5752h-25.6211z" fill="#000" transform="matrix(-1 0 0 1 223.016 367.516)"/><path d="m0 0h24.7061v3.66016h-24.7061z" fill="#000" transform="matrix(-1 0 0 1 223.016 377.582)"/><path d="m0 0h16.4184v4.10461h-16.4184z" fill="#000" transform="matrix(-1 0 0 1 185.761 354.811)"/><path d="m0 0h119.878v3.74566h-119.878z" fill="#000" transform="matrix(-1 0 0 1 240.885 381.175)"/><path d="m0 0h4.10461v8.20922h-4.10461z" fill="#000" transform="matrix(-1 0 0 1 157.029 326.078)"/><path d="m0 0h3.66016v12.8106h-3.66016z" fill="#000" transform="matrix(-1 0 0 1 213.866 368.432)"/><path d="m0 0h4.10461v8.20922h-4.10461z" fill="#000" transform="matrix(-1 0 0 1 213.866 342.81)"/><path d="m0 0h4.10461v9.57742h-4.10461z" fill="#000" transform="matrix(-1 0 0 1 226.807 337.024)"/><path d="m0 0h4.10461v6.15691h-4.10461z" fill="#000" transform="matrix(-1 0 0 1 222.702 332.235)"/><path d="m0 0h4.10461v4.10461h-4.10461z" fill="#000" transform="matrix(-1 0 0 1 243.226 330.183)"/><path d="m0 0h4.10461v4.10461h-4.10461z" fill="#000" transform="matrix(-1 0 0 1 255.539 338.392)"/><path d="m0 0h4.10461v8.20922h-4.10461z" fill="#000" transform="matrix(-1 0 0 1 251.435 342.497)"/><path d="m0 0h4.10461v4.10461h-4.10461z" fill="#000" transform="matrix(-1 0 0 1 239.121 346.601)"/><path d="m0 0h4.10461v8.20922h-4.10461z" fill="#000" transform="matrix(-1 0 0 1 235.016 342.497)"/><path d="m0 0h4.10461v10.2615h-4.10461z" fill="#000" transform="matrix(-1 0 0 1 230.912 332.235)"/><path d="m111.367 229.101 3.113-4.491 1.038.691 3.114 2.764 4.151 2.073-.346-6.219 5.189-2.764h6.92l1.037 15.893 3.46 4.147 3.806-4.147 2.767-4.491.692-3.456 3.46-4.491 4.497 3.455v8.292l-3.46 3.455-4.497 4.147v7.601l3.46 3.801 1.037 23.149 3.46 2.073 1.038 7.947 2.076 3.11 1.383 10.711-4.497 5.528-3.46 3.455h-16.605l-2.768-3.455-1.038-6.565-3.113-1.382-4.498-3.8-3.459 3.109v3.11l-4.152 5.528v23.15l-3.805 1.727v9.329l-3.114 4.492-1.384 29.024-7.2649 1.036v-33.17l-3.8055-1.382-3.8055 4.492-1.3838 28.333-6.9191.691-.6919-32.134h-19.7195l-4.1514 1.383v5.873l-3.4596.691.6919 6.22-3.8055 4.491-1.3838 15.203h-7.957v-21.076l-3.1136-.691-4.4974 3.455-3.1136 4.146-.6919 14.166h-7.2651l-1.0378-17.621 4.4974-4.146v-4.838l4.8434-3.109v-51.828l2.0757-3.801 5.1893-3.455 3.1136-4.491h20.4114l2.7676 3.455h17.6437v-6.911l2.0758-4.146 2.0757-4.837 2.0757-2.419 1.0379-4.837 2.7676-3.11 1.7298-3.109 3.1136-2.764.6919-6.911 2.4219-2.764 3.459-1.036 1.038-4.838 4.844-2.764z" fill="#fff"/><path d="m0 0h4.304v11.6823h-4.304z" fill="#dadada" transform="matrix(-1 0 0 1 129.249 222.999)"/><path d="m0 0h4.304v11.6823h-4.304z" fill="#ffd7d4" transform="matrix(-1 0 0 1 152.474 226.556)"/><path d="m0 0h4.304v11.6823h-4.304z" fill="#ffd7d4" transform="matrix(-1 0 0 1 117.434 226.588)"/><path d="m0 0h3.91491v7.83057h-3.91491z" fill="#dadada" transform="matrix(-1 0 0 1 148.364 234.355)"/><path d="m0 0h3.91491v11.745h-3.91491z" fill="#dadada" transform="matrix(-1 0 0 1 120.96 230.44)"/><path d="m0 0h3.91491v11.745h-3.91491z" fill="#dadada" transform="matrix(-1 0 0 1 113.13 238.239)"/><path d="m0 0h3.91491v11.745h-3.91491z" fill="#dadada" transform="matrix(-1 0 0 1 105.299 246.1)"/><path d="m0 0h3.91491v11.745h-3.91491z" fill="#dadada" transform="matrix(-1 0 0 1 109.215 250.015)"/><path d="m0 0h3.91491v3.91506h-3.91491z" fill="#dadada" transform="matrix(-1 0 0 1 117.008 242.185)"/><path d="m0 0h3.91491v11.745h-3.91491z" fill="#dadada" transform="matrix(-1 0 0 1 101.385 257.845)"/><path d="m0 0h3.91491v7.83012h-3.91491z" fill="#dadada" transform="matrix(-1 0 0 1 93.5548 269.59)"/><path d="m0 0h3.91491v7.83012h-3.91491z" fill="#dadada" transform="matrix(-1 0 0 1 97.4696 258.533)"/><path d="m0 0h3.91491v7.83012h-3.91491z" fill="#dadada" transform="matrix(-1 0 0 1 89.6399 275.463)"/><path d="m0 0h3.68914v7.99314h-3.68914z" fill="#bababa" transform="matrix(.00000004 1 1 -.00000004 124.945 230.992)"/><path d="m157.533 291.313-3.434-3.139h-16.481l-2.747 4.533-3.777 2.093v12.205l2.06 3.487 17.855 1.047 3.434-3.836 2.403-2.79z" fill="#ffd7d5"/><path d="m0 0h20.0268v3.51816h-20.0268z" fill="#ffb8b3" transform="matrix(-1 0 0 1 152.731 306.004)"/><path d="m0 0h3.91506v22.1171h-3.91506z" fill="#d9d9d9" transform="matrix(-1 0 0 1 113.13 307.764)"/><path d="m0 0h3.91506v15.6601h-3.91506z" fill="#d9d9d9" transform="matrix(-1 0 0 1 109.215 329.88)"/><path d="m0 0h3.91506v7.82997h-3.91506z" fill="#d9d9d9" transform="matrix(-1 0 0 1 117.045 297.778)"/><path d="m0 0h3.91506v7.82997h-3.91506z" fill="#d9d9d9" transform="matrix(-1 0 0 1 128.753 289.948)"/><path d="m0 0h3.91506v7.82997h-3.91506z" fill="#d9d9d9" transform="matrix(-1 0 0 1 124.838 286.033)"/><path d="m0 0h3.91506v7.82997h-3.91506z" fill="#d9d9d9" transform="matrix(-1 0 0 1 120.923 282.118)"/><path d="m0 0h3.91506v3.91536h-3.91506z" fill="#d9d9d9" transform="matrix(-1 0 0 1 132.668 289.948)"/><path d="m0 0h3.91491v13.367h-3.91491z" fill="#ffd7d5" transform="matrix(-1 0 0 1 105.3 361.2)"/><path d="m0 0h3.91491v13.367h-3.91491z" fill="#ffd7d5" transform="matrix(-1 0 0 1 89.6396 361.2)"/><path d="m0 0h3.91491v13.367h-3.91491z" fill="#ffd7d5" transform="matrix(-1 0 0 1 49.707 361.2)"/><path d="m0 0h3.91491v13.367h-3.91491z" fill="#ffd7d5" transform="matrix(-1 0 0 1 30.1322 361.2)"/><path d="m0 0h11.745v7.82997h-11.745z" fill="#c2c2c2" transform="matrix(-1 0 0 1 57.5371 341.626)"/><path d="m0 0h7.82989v11.745h-7.82989z" fill="#c2c2c2" transform="matrix(-1 0 0 1 53.6218 349.456)"/><path d="m0 0h36.0178v3.91476h-36.0178z" fill="#c2c2c2" transform="matrix(-1 0 0 1 81.8099 337.711)"/><path d="m0 0h32.1029v3.91491h-32.1029z" fill="#d9d9d9" transform="matrix(-1 0 0 1 81.81 333.795)"/><g fill="#000"><path d="m0 0h3.91499v11.745h-3.91499z" transform="matrix(-1 0 0 1 132.705 242.185)"/><path d="m0 0h3.91499v11.745h-3.91499z" transform="matrix(-1 0 0 1 148.365 242.185)"/><path d="m0 0h3.91499v11.745h-3.91499z" transform="matrix(-1 0 0 1 156.195 226.525)"/><path d="m0 0h3.91499v11.745h-3.91499z" transform="matrix(-1 0 0 1 113.13 226.525)"/><path d="m0 0h3.91499v11.745h-3.91499z" transform="matrix(-1 0 0 1 124.875 222.61)"/><path d="m0 0h3.91499v19.575h-3.91499z" transform="matrix(-1 0 0 1 136.62 218.695)"/><path d="m0 0h3.91499v15.66h-3.91499z" transform="matrix(-1 0 0 1 140.535 238.27)"/><path d="m0 0h11.7572v4.14961h-11.7572z" transform="matrix(-1 0 0 1 136.595 218.695)"/><path d="m0 0h11.745v3.91499h-11.745z" transform="matrix(-1 0 0 1 132.705 234.355)"/><path d="m0 0h3.91499v3.91499h-3.91499z" transform="matrix(-1 0 0 1 128.79 238.27)"/><path d="m0 0h3.91499v3.91499h-3.91499z" transform="matrix(-1 0 0 1 120.96 226.525)"/><path d="m0 0h3.91499v3.91499h-3.91499z" transform="matrix(-1 0 0 1 117.045 222.61)"/><path d="m0 0h3.91499v3.91499h-3.91499z" transform="matrix(-1 0 0 1 120.96 242.185)"/><path d="m0 0h3.91499v7.82998h-3.91499z" transform="matrix(-1 0 0 1 117.045 246.1)"/><path d="m0 0h3.91499v7.82998h-3.91499z" transform="matrix(-1 0 0 1 144.45 234.355)"/><path d="m0 0h3.91499v7.82998h-3.91499z" transform="matrix(-1 0 0 1 148.365 226.525)"/><path d="m0 0h3.91499v11.745h-3.91499z" transform="matrix(-1 0 0 1 113.13 250.015)"/><path d="m0 0h3.91499v11.745h-3.91499z" transform="matrix(-1 0 0 1 101.385 246.1)"/><path d="m0 0h3.91499v7.82998h-3.91499z" transform="matrix(-1 0 0 1 97.4697 253.93)"/><path d="m0 0h3.91499v7.82998h-3.91499z" transform="matrix(-1 0 0 1 93.5547 261.76)"/><path d="m0 0h3.91499v7.82998h-3.91499z" transform="matrix(-1 0 0 1 120.96 297.778)"/><path d="m0 0h3.91499v15.66h-3.91499z" transform="matrix(-1 0 0 1 132.705 293.863)"/><path d="m0 0h3.91499v15.66h-3.91499z" transform="matrix(-1 0 0 1 160.11 289.948)"/><path d="m0 0h3.91499v11.745h-3.91499z" transform="matrix(-1 0 0 1 117.045 278.203)"/><path d="m0 0h3.91499v7.82998h-3.91499z" transform="matrix(-1 0 0 1 89.6396 269.59)"/><path d="m0 0h3.91499v11.745h-3.91499z" transform="matrix(-1 0 0 1 105.3 257.845)"/><path d="m0 0h3.91499v11.745h-3.91499z" transform="matrix(-1 0 0 1 97.4697 265.675)"/><path d="m0 0h3.91499v11.745h-3.91499z" transform="matrix(-1 0 0 1 85.7249 277.42)"/><path d="m0 0h3.91499v23.4899h-3.91499z" transform="matrix(-1 0 0 1 81.81 286.033)"/><path d="m0 0h3.91499v19.575h-3.91499z" transform="matrix(-1 0 0 1 69.282 293.862)"/><path d="m0 0h3.91499v11.745h-3.91499z" transform="matrix(-1 0 0 1 69.282 322.051)"/><path d="m0 0h3.91499v11.745h-3.91499z" transform="matrix(-1 0 0 1 57.5371 322.051)"/><path d="m0 0h3.91499v11.745h-3.91499z" transform="matrix(-1 0 0 1 81.81 317.352)"/><path d="m0 0h3.91499v11.745h-3.91499z" transform="matrix(-1 0 0 1 113.13 333.795)"/><path d="m0 0h3.91499v25.056h-3.91499z" transform="matrix(-1 0 0 1 117.045 308.74)"/><path d="m0 0h3.91499v23.4899h-3.91499z" transform="matrix(-1 0 0 1 57.5371 289.948)"/><path d="m0 0h3.91499v23.4899h-3.91499z" transform="matrix(-1 0 0 1 45.7921 289.948)"/><path d="m0 0h3.91499v55.5929h-3.91499z" transform="matrix(-1 0 0 1 34.0471 293.862)"/><path d="m0 0h3.91499v3.91499h-3.91499z" transform="matrix(-1 0 0 1 117.045 238.27)"/><path d="m0 0h3.91499v3.91499h-3.91499z" transform="matrix(-1 0 0 1 152.279 222.61)"/><path d="m0 0h3.91499v3.91499h-3.91499z" transform="matrix(-1 0 0 1 152.279 238.27)"/><path d="m0 0h3.91499v3.91499h-3.91499z" transform="matrix(-1 0 0 1 109.215 261.76)"/><path d="m0 0h3.91499v3.91499h-3.91499z" transform="matrix(-1 0 0 1 101.385 269.59)"/><path d="m0 0h3.91499v3.91499h-3.91499z" transform="matrix(-1 0 0 1 105.3 273.505)"/><path d="m0 0h3.91499v3.91499h-3.91499z" transform="matrix(-1 0 0 1 109.215 277.42)"/><path d="m0 0h3.8609v3.91499h-3.8609z" transform="matrix(-1 0 0 1 124.821 270.373)"/><path d="m0 0h3.91499v3.91499h-3.91499z" transform="matrix(-1 0 0 1 124.875 293.863)"/><path d="m0 0h3.91499v3.91499h-3.91499z" transform="matrix(-1 0 0 1 128.79 297.778)"/><path d="m0 0h3.91499v3.91499h-3.91499z" transform="matrix(-1 0 0 1 136.62 289.948)"/><path d="m0 0h3.91499v3.91499h-3.91499z" transform="matrix(-1 0 0 1 145.233 297.778)"/><path d="m0 0h3.91499v3.91499h-3.91499z" transform="matrix(-1 0 0 1 153.062 297.778)"/><path d="m0 0h3.91499v3.91499h-3.91499z" transform="matrix(-1 0 0 1 156.195 305.608)"/><path d="m0 0h3.91499v3.91499h-3.91499z" transform="matrix(-1 0 0 1 120.96 289.948)"/><path d="m0 0h3.91499v7.82998h-3.91499z" transform="matrix(-1 0 0 1 124.875 282.118)"/><path d="m0 0h3.91499v7.82998h-3.91499z" transform="matrix(-1 0 0 1 156.195 278.203)"/><path d="m0 0h3.91499v28.6063h-3.91499z" transform="matrix(-1 0 0 1 152.279 253.512)"/><path d="m0 0h3.91499v3.91499h-3.91499z" transform="matrix(-1 0 0 1 93.5547 277.42)"/><path d="m0 0h3.91499v3.91499h-3.91499z" transform="matrix(-1 0 0 1 85.7249 309.523)"/><path d="m0 0h3.91499v3.91499h-3.91499z" transform="matrix(-1 0 0 1 73.197 313.438)"/><path d="m0 0h3.91499v3.91499h-3.91499z" transform="matrix(-1 0 0 1 73.197 333.795)"/><path d="m0 0h3.91499v3.91499h-3.91499z" transform="matrix(-1 0 0 1 61.4519 333.795)"/><path d="m0 0h3.91499v3.91499h-3.91499z" transform="matrix(-1 0 0 1 73.197 289.948)"/><path d="m0 0h3.91499v3.91499h-3.91499z" transform="matrix(-1 0 0 1 85.7249 329.098)"/><path d="m0 0h3.91499v3.91499h-3.91499z" transform="matrix(-1 0 0 1 93.5549 325.966)"/><path d="m0 0h3.91499v3.91499h-3.91499z" transform="matrix(-1 0 0 1 97.4697 313.438)"/><path d="m0 0h3.91499v3.91499h-3.91499z" transform="matrix(-1 0 0 1 61.4521 286.033)"/><path d="m0 0h3.91499v3.91499h-3.91499z" transform="matrix(-1 0 0 1 61.4521 313.438)"/><path d="m0 0h3.91499v3.91499h-3.91499z" transform="matrix(-1 0 0 1 89.6396 289.165)"/><path d="m0 0h3.91499v3.91499h-3.91499z" transform="matrix(-1 0 0 1 37.9622 317.352)"/><path d="m0 0h3.91499v3.91499h-3.91499z" transform="matrix(-1 0 0 1 49.707 286.033)"/><path d="m0 0h3.91499v3.91499h-3.91499z" transform="matrix(-1 0 0 1 41.877 286.033)"/><path d="m0 0h3.91499v3.91499h-3.91499z" transform="matrix(-1 0 0 1 37.9622 289.948)"/><path d="m0 0h3.91499v3.91499h-3.91499z" transform="matrix(-1 0 0 1 30.1322 293.862)"/><path d="m0 0h3.91499v7.82998h-3.91499z" transform="matrix(-1 0 0 1 26.2172 297.778)"/><path d="m0 0h3.91499v7.82998h-3.91499z" transform="matrix(-1 0 0 1 30.1322 349.456)"/><path d="m0 0h3.91499v7.82998h-3.91499z" transform="matrix(-1 0 0 1 45.7921 349.456)"/><path d="m0 0h3.91499v7.82998h-3.91499z" transform="matrix(-1 0 0 1 57.5371 353.371)"/><path d="m0 0h3.91499v7.82998h-3.91499z" transform="matrix(-1 0 0 1 22.3021 305.608)"/><path d="m0 0h3.91499v11.745h-3.91499z" transform="matrix(-1 0 0 1 26.2172 313.438)"/><path d="m0 0h3.91499v23.4899h-3.91499z" transform="matrix(-1 0 0 1 26.2172 357.285)"/><path d="m0 0h3.91499v19.575h-3.91499z" transform="matrix(-1 0 0 1 34.0471 361.2)"/><path d="m0 0h3.91499v23.4899h-3.91499z" transform="matrix(-1 0 0 1 45.7921 357.285)"/><path d="m0 0h3.91499v19.575h-3.91499z" transform="matrix(-1 0 0 1 53.6218 361.2)"/><path d="m0 0h3.91499v43.0651h-3.91499z" transform="matrix(-1 0 0 1 85.7249 337.711)"/><path d="m0 0h3.91499v36.0179h-3.91499z" transform="matrix(-1 0 0 1 93.5549 344.758)"/><path d="m0 0h3.91499v43.8479h-3.91499z" transform="matrix(-1 0 0 1 101.385 336.928)"/><path d="m0 0h3.91499v35.2349h-3.91499z" transform="matrix(-1 0 0 1 109.215 345.54)"/><path d="m0 0h3.91499v3.91499h-3.91499z" transform="matrix(-1 0 0 1 49.707 313.438)"/><path d="m0 0h3.91499v3.91499h-3.91499z" transform="matrix(-1 0 0 1 97.4697 281.335)"/><path d="m0 0h3.91499v3.91499h-3.91499z" transform="matrix(-1 0 0 1 101.385 285.25)"/><path d="m0 0h3.91499v3.91499h-3.91499z" transform="matrix(-1 0 0 1 89.6396 281.335)"/><path d="m0 0h12.528v3.91499h-12.528z" transform="matrix(-1 0 0 1 77.8949 286.033)"/><path d="m0 0h3.91499v3.91499h-3.91499z" transform="matrix(-1 0 0 1 93.5547 293.08)"/><path d="m0 0h3.91499v3.91499h-3.91499z" transform="matrix(-1 0 0 1 97.4697 296.995)"/><path d="m0 0h23.4899v3.91499h-23.4899z" transform="matrix(-1 0 0 1 65.3671 282.118)"/><path d="m0 0h3.91499v3.91499h-3.91499z" transform="matrix(-1 0 0 1 41.877 321.267)"/><path d="m0 0h3.91499v3.91499h-3.91499z" transform="matrix(-1 0 0 1 45.7921 325.182)"/><path d="m0 0h3.91499v3.91499h-3.91499z" transform="matrix(-1 0 0 1 45.7921 333.795)"/><path d="m0 0h3.91499v3.91499h-3.91499z" transform="matrix(-1 0 0 1 97.4697 340.843)"/><path d="m0 0h3.91499v3.91499h-3.91499z" transform="matrix(-1 0 0 1 89.6398 348.672)"/><path d="m0 0h3.91499v3.91499h-3.91499z" transform="matrix(-1 0 0 1 89.6398 357.285)"/><path d="m0 0h3.91499v3.91499h-3.91499z" transform="matrix(-1 0 0 1 105.3 348.672)"/><path d="m0 0h3.91499v3.91499h-3.91499z" transform="matrix(-1 0 0 1 105.3 357.285)"/><path d="m0 0h3.91499v3.91499h-3.91499z" transform="matrix(-1 0 0 1 49.707 337.711)"/><path d="m0 0h3.91499v3.91499h-3.91499z" transform="matrix(-1 0 0 1 34.0471 353.371)"/><path d="m0 0h11.745v3.91499h-11.745z" transform="matrix(-1 0 0 1 61.4521 349.456)"/><path d="m0 0h11.745v3.91499h-11.745z" transform="matrix(-1 0 0 1 49.707 345.54)"/><path d="m0 0h23.4899v3.91499h-23.4899z" transform="matrix(-1 0 0 1 117.045 329.881)"/><path d="m0 0h32.8859v3.91499h-32.8859z" transform="matrix(-1 0 0 1 82.5929 341.626)"/><path d="m0 0h105.206v4.20825h-105.206z" transform="matrix(-1 0 0 1 119.139 380.713)"/><path d="m0 0h19.575v3.91499h-19.575z" transform="matrix(-1 0 0 1 117.045 317.352)"/><path d="m0 0h15.66v3.91499h-15.66z" transform="matrix(-1 0 0 1 117.045 305.608)"/><path d="m0 0h20.358v3.91499h-20.358z" transform="matrix(-1 0 0 1 153.063 309.523)"/><path d="m0 0h19.575v3.91499h-19.575z" transform="matrix(-1 0 0 1 156.195 286.033)"/><path d="m0 0h3.91499v3.91499h-3.91499z" transform="matrix(-1 0 0 1 41.877 353.371)"/><path d="m0 0h9.39598v7.82998h-9.39598z" transform="matrix(-1 0 0 1 34.0471 372.946)"/><path d="m0 0h3.91499v3.91499h-3.91499z" transform="matrix(-1 0 0 1 37.9622 357.285)"/><path d="m0 0h3.91499v3.91499h-3.91499z" transform="matrix(-1 0 0 1 49.707 357.285)"/><path d="m0 0h9.39598v7.82998h-9.39598z" transform="matrix(-1 0 0 1 53.6218 372.946)"/><path d="m0 0h3.91499v3.91499h-3.91499z" transform="matrix(-1 0 0 1 61.4521 345.54)"/><path d="m0 0h3.91499v3.91499h-3.91499z" transform="matrix(-1 0 0 1 105.3 289.165)"/><path d="m0 0h9.39598v7.82998h-9.39598z" transform="matrix(-1 0 0 1 93.5549 372.946)"/><path d="m0 0h3.91499v3.91499h-3.91499z" transform="matrix(-1 0 0 1 105.3 242.185)"/><path d="m0 0h3.91499v15.66h-3.91499z" transform="matrix(-1 0 0 1 109.215 238.27)"/><path d="m0 0h9.39598v7.82998h-9.39598z" transform="matrix(-1 0 0 1 109.215 372.946)"/></g><path d="m123.031 255.733 6.525-3.49h3.915l2.936 2.221 3.915-1.587 5.546-1.269 2.284 4.759 4.894 1.904v5.71l-4.894 9.835h-9.461l-4.894 3.489-8.156 1.587-4.568-5.076-3.262-2.221v-13.324z" fill="#fff"/><path d="m0 0h8.79703v3.80698h-8.79703z" fill="#000" transform="matrix(-1 0 0 1 146.847 249.705)"/><path d="m0 0h3.915v3.80698h-3.915z" fill="#000" transform="matrix(-1 0 0 1 150.762 253.512)"/><path d="m0 0h3.915v3.80698h-3.915z" fill="#000" transform="matrix(-1 0 0 1 146.847 261.126)"/><path d="m0 0h3.915v3.80698h-3.915z" fill="#000" transform="matrix(-1 0 0 1 131.187 263.029)"/><path d="m0 0h3.915v15.2279h-3.915z" fill="#000" transform="matrix(-1 0 0 1 119.442 257.318)"/><path d="m0 0h3.915v7.61395h-3.915z" fill="#000" transform="matrix(-1 0 0 1 150.762 268.739)"/><path d="m0 0h3.915v3.80694h-3.915z" fill="#000" transform="matrix(-1 0 0 1 146.847 272.547)"/><path d="m0 0h3.915v3.80698h-3.915z" fill="#000" transform="matrix(-1 0 0 1 142.932 272.547)"/><path d="m0 0h3.915v11.4209h-3.915z" fill="#000" transform="matrix(-1 0 0 1 154.677 257.318)"/><path d="m0 0h3.915v7.61395h-3.915z" fill="#000" transform="matrix(-1 0 0 1 142.932 257.318)"/><path d="m0 0h3.915v7.61395h-3.915z" fill="#000" transform="matrix(-1 0 0 1 144.237 264.933)"/><path d="m0 0h4.13729v3.80698h-4.13729z" fill="#000" transform="matrix(-1 0 0 1 131.187 249.705)"/><path d="m0 0h7.83v3.80698h-7.83z" fill="#000" transform="matrix(-1 0 0 1 127.272 253.512)"/><path d="m0 0h3.915v3.80698h-3.915z" fill="#000" transform="matrix(-1 0 0 1 123.357 272.547)"/><path d="m0 0h3.915v3.80698h-3.915z" fill="#000" transform="matrix(-1 0 0 1 139.017 272.547)"/><path d="m0 0h11.745v3.80698h-11.745z" fill="#000" transform="matrix(-1 0 0 1 135.102 276.354)"/><path d="m0 0h3.915v3.80698h-3.915z" fill="#000" transform="matrix(-1 0 0 1 139.017 253.512)"/><path d="m0 0h3.915v3.80698h-3.915z" fill="#000" transform="matrix(-1 0 0 1 135.102 249.705)"/><path d="m0 0h3.65769v3.65769h-3.65769z" fill="#000" transform="matrix(-1 0 0 1 177.696 208.47)"/><path d="m0 0h3.27041v3.27041h-3.27041z" fill="#000" transform="matrix(-1 0 0 1 200.989 195.157)"/><path d="m0 0h4.16255v4.16255h-4.16255z" fill="#000" transform="matrix(-1 0 0 1 205.031 188.087)"/><path d="m0 0h4.16255v4.16255h-4.16255z" fill="#000" transform="matrix(-1 0 0 1 184.638 187.961)"/><path d="m0 0h3.27041v3.27041h-3.27041z" fill="#000" transform="matrix(-1 0 0 1 194.449 195.157)"/><path d="m0 0h3.65769v3.65769h-3.65769z" fill="#000" transform="matrix(-1 0 0 1 174.089 212.128)"/><path d="m0 0h3.65769v3.65769h-3.65769z" fill="#000" transform="matrix(-1 0 0 1 174.089 218.685)"/><path d="m0 0h4.33117v4.33117h-4.33117z" fill="#000" transform="matrix(-1 0 0 1 205.116 228.737)"/><path d="m0 0h26.4058v3.27845h-26.4058z" fill="#000" transform="matrix(-1 0 0 1 200.869 233.059)"/><path d="m0 0h16.2315v3.27845h-16.2315z" fill="#000" transform="matrix(-1 0 0 1 200.869 184.808)"/><path d="m0 0h18.8656v3.27845h-18.8656z" fill="#000" transform="matrix(.00000004 -1 -1 -.00000004 193.18 253.042)"/><path d="m0 0h18.8656v3.27845h-18.8656z" fill="#000" transform="matrix(.00000004 -1 -1 -.00000004 187.666 253.042)"/><path d="m488.066 269.719-8.691-4.713-39.515-1.391-6.033 4.783-6.181.662-5.739 6.328-6.328 6.255-5.519 6.401-4.782 4.415-2.208 8.593-4.635 4.872.882 31.419 4.121 5.004 1.177 7.505 6.181 5.445 3.9 5.371 7.284 6.181 3.9 5.371 6.77 1.546 5.592 4.047 40.395-.442 12.951-4.562 5.518-6.401 6.77-6.476 5.518-6.696 4.341-3.384 1.251-8.213 4.415-4.222.736-30.567-4.783-5.798-.662-5.798-6.402-8.019-7.137-6.328-4.047-5.887-4.268-2.959z" fill="#ffd952"/><path d="m435.883 260.465h46.3855v6.08809h-46.3855z" fill="#000"/><path d="m0 0h46.3855v6.08809h-46.3855z" fill="#000" transform="matrix(1 0 0 -1 435.883 382.227)"/><path d="m499.663 278.729h5.79818v6.08809h-5.79818z" fill="#000"/><path d="m0 0h5.79818v6.08809h-5.79818z" fill="#000" transform="matrix(-1 0 0 1 418.488 278.729)"/><path d="m493.864 272.641h5.79818v6.08809h-5.79818z" fill="#000"/><path d="m0 0h5.79818v6.08809h-5.79818z" fill="#000" transform="matrix(-1 0 0 1 424.286 272.641)"/><path d="m505.461 284.817h5.79818v6.08809h-5.79818z" fill="#000"/><path d="m0 0h5.79818v6.08809h-5.79818z" fill="#000" transform="matrix(-1 0 0 1 412.69 284.817)"/><path d="m511.259 290.905h5.79818v12.1762h-5.79818z" fill="#000"/><path d="m0 0h5.79818v12.1762h-5.79818z" fill="#000" transform="matrix(-1 0 0 1 406.892 290.905)"/><path d="m0 0h5.79818v6.08809h-5.79818z" fill="#000" transform="matrix(1 0 0 -1 499.663 363.962)"/><path d="m482.268 266.553h11.5964v6.08809h-11.5964z" fill="#000"/><path d="m0 0h11.5964v6.08809h-11.5964z" fill="#000" transform="matrix(-1 0 0 1 435.883 266.553)"/><path d="m418.488 363.962h5.79818v6.08809h-5.79818z" fill="#000" transform="matrix(-1 0 -0 -1 836.976 727.924)"/><path d="m0 0h5.79818v6.08809h-5.79818z" fill="#000" transform="matrix(1 0 0 -1 493.864 370.05)"/><path d="m424.286 370.05h5.79818v6.08809h-5.79818z" fill="#000" transform="matrix(-1 0 -0 -1 848.572 740.1)"/><path d="m0 0h5.79818v6.08809h-5.79818z" fill="#000" transform="matrix(1 0 0 -1 505.461 357.874)"/><path d="m412.69 357.874h5.79818v6.08809h-5.79818z" fill="#000" transform="matrix(-1 0 -0 -1 825.38 715.748)"/><path d="m0 0h5.79818v12.1762h-5.79818z" fill="#000" transform="matrix(1 0 0 -1 511.259 351.786)"/><path d="m406.892 351.786h5.79818v12.1762h-5.79818z" fill="#000" transform="matrix(-1 0 -0 -1 813.784 703.572)"/><path d="m517.057 303.082h5.79818v36.5285h-5.79818z" fill="#000"/><path d="m395.295 303.082h5.79818v36.5285h-5.79818z" fill="#000"/><path d="m0 0h11.5964v6.08809h-11.5964z" fill="#000" transform="matrix(1 0 0 -1 482.268 376.139)"/><path d="m435.883 376.139h11.5964v6.08809h-11.5964z" fill="#000" transform="matrix(-1 0 -0 -1 871.766 752.278)"/><path d="m443.848 348.866h12.065v4.46852h-12.065z" fill="#e29e00"/><path d="m475.127 347.972h12.5118v5.36222h-12.5118z" fill="#e29e00"/><path d="m454.687 315.263h-1.002v10.021h-25.724v.001h21.715v6.013h-11.025v4.009h-2.004v4.009h-6.013v-4.009h-2.673v-4.009h-4.343v-6.013h1.003v-6.014h1.336v-3.341h-3.341v-2.672h2.005v-2.004h2.672v2.004h.334v1.671h.334v-10.691h26.726zm-6.681-18.042h2.672v7.016h-15.034v-7.016h4.01v-3.005h8.352z" fill="#ffc74e"/><path d="m468.718 297.222h2.005v2.004h-2.005v.001h6.014v2.004h4.009v2.005h4.008v2.004h2.005v2.004h4.009v2.005h2.004v2.004h2.005v4.009h2.004v10.022h-2.004v10.023h-2.005v6.014h-3.128v7.544h-5.809v-11.553h-.893v7.978h-4.916v-7.979h-1.289v2.005h-6.014v2.005h-13.028v8.351h-6.014v-11.692h-.334v8.351h-5.012v-9.02h-1.669v-4.009h6.013v-6.013h4.009v-5.011h2.004v-29.065h14.031zm-15.033 37.082h1.002v-1.002h-1.002z" fill="#ffe37e"/><path d="m454.687 293.213h8.0178v8.0178h-8.0178z" fill="#ffe37e"/><path d="m461.703 295.218h8.0178v2.00445h-8.0178z" fill="#ffe37e"/><path d="m462.705 297.222h8.0178v2.00445h-8.0178z" fill="#ffe37e"/><path d="m468.718 299.227h6.01335v2.00445h-6.01335z" fill="#ffe37e"/><path d="m474.732 301.231h4.0089v2.00445h-4.0089z" fill="#ffe37e"/><path d="m478.74 303.236h4.0089v2.00445h-4.0089z" fill="#ffe37e"/><path d="m482.749 305.24h4.0089v2.00445h-4.0089z" fill="#ffe37e"/><path d="m489.765 317.267h5.01112v8.0178h-5.01112z" fill="#ffc74e"/><path d="m487.761 322.612h5.01112v8.68594h-5.01112z" fill="#ffc74e"/><path d="m485.756 325.284h5.01112v10.0222h-5.01112z" fill="#ffc74e"/><path d="m478.741 331.298h7.01557v6.01335h-7.01557z" fill="#ffc74e"/><path d="m476.736 327.289h6.01335v4.0089h-6.01335z" fill="#ffc74e"/><path d="m487.761 313.258h7.01557v6.01335h-7.01557z" fill="#ffc74e"/><path d="m460.701 337.311h8.0178v4.0089h-8.0178z" fill="#ffc74e"/><path d="m456.692 335.307h6.01335v4.0089h-6.01335z" fill="#ffc74e"/><path d="m454.687 331.298h4.67705v4.0089h-4.67705z" fill="#ffc74e"/><path d="m448.006 335.307h4.67705v4.0089h-4.67705z" fill="#ffc74e"/><path d="m466.637 335.46h8.04333v4.02166h-8.04333z" fill="#ffc74e"/><path d="m471.553 331.438h10.2776v7.59648h-10.2776z" fill="#ffc74e"/><path d="m482.724 333.226h6.25592v8.04333h-6.25592z" fill="#ffc74e"/><path d="m476.021 337.247h5.36222v10.7244h-5.36222z" fill="#ffc74e"/><path d="m443.663 337.311h12.0267v12.0267h-12.0267z" fill="#ffc74e"/><path d="m453.351 304.237v-6.681l-1.838-1.838-2.338 2.506-2.339 4.844.836 1.169 1.503 1.504h.668z" fill="#ffe37e"/><path d="m438.819 300.396-3.341-1.838h-2.005l-1.503 1.17-2.004-.835-2.84-.669-1.169 2.506-2.506 1.002v3.007l2.506 5.178h4.844l2.505 1.837 4.176.836 2.339-2.673 1.67-1.169v-7.016z" fill="#ffe37e"/><path d="m430.634 293.213h2.00445v6.01335h-2.00445z" fill="#ffe37e"/><path d="m440.656 330.296h2.00445v2.33852h-2.00445z" fill="#ffc74e"/><path d="m482.277 340.375h5.36222v7.59648h-5.36222z" fill="#ffc74e"/><path d="m452.683 293.213h2.00445v10.0222h-2.00445z" fill="#e29e00"/><path d="m450.678 291.209h2.00445v4.0089h-2.00445z" fill="#e29e00"/><path d="m450.678 303.236h2.00445v2.00445h-2.00445z" fill="#e29e00"/><path d="m446.669 299.227h2.00445v2.00445h-2.00445z" fill="#e29e00"/><path d="m442.661 293.213h2.00445v2.00445h-2.00445z" fill="#e29e00"/><path d="m436.647 295.218h2.00445v2.00445h-2.00445z" fill="#e29e00"/><path d="m434.643 295.218h2.00445v2.00445h-2.00445z" fill="#e29e00"/><path d="m432.638 295.218h2.00445v2.00445h-2.00445z" fill="#e29e00"/><path d="m426.625 297.222h2.00445v2.00445h-2.00445z" fill="#e29e00"/><path d="m424.62 299.227h2.00445v2.00445h-2.00445z" fill="#e29e00"/><path d="m426.625 303.236h2.00445v2.00445h-2.00445z" fill="#e29e00"/><path d="m434.643 304.238h2.00445v2.00445h-2.00445z" fill="#e29e00"/><path d="m440.656 301.231h2.00445v8.0178h-2.00445z" fill="#e29e00"/><path d="m424.62 307.244h2.00445v4.0089h-2.00445z" fill="#e29e00"/><path d="m426.625 309.249h2.00445v4.0089h-2.00445z" fill="#e29e00"/><path d="m422.616 311.253h2.00445v2.00445h-2.00445z" fill="#e29e00"/><path d="m422.616 329.293h4.0089v2.00445h-4.0089z" fill="#e29e00"/><path d="m424.62 331.298h8.0178v2.00445h-8.0178z" fill="#e29e00"/><path d="m422.616 315.262h2.00445v2.00445h-2.00445z" fill="#e29e00"/><path d="m424.62 315.262h2.00445v4.0089h-2.00445z" fill="#e29e00"/><path d="m421.614 325.285h2.00445v4.0089h-2.00445z" fill="#e29e00"/><path d="m422.616 319.272h2.00445v6.01335h-2.00445z" fill="#e29e00"/><path d="m426.625 313.258h2.00445v2.00445h-2.00445z" fill="#e29e00"/><path d="m428.629 309.249h2.00445v2.00445h-2.00445z" fill="#e29e00"/><path d="m420.612 313.258h2.00445v4.0089h-2.00445z" fill="#e29e00"/><path d="m422.616 301.231h2.00445v6.01335h-2.00445z" fill="#e29e00"/><path d="m428.629 301.231h2.00445v4.0089h-2.00445z" fill="#e29e00"/><path d="m427.961 305.24h2.00445v4.0089h-2.00445z" fill="#e29e00"/><path d="m432.638 293.213h2.00445v2.00445h-2.00445z" fill="#e29e00"/><path d="m428.629 291.209h2.00445v8.0178h-2.00445z" fill="#e29e00"/><path d="m430.634 287.2h2.00445v6.01335h-2.00445z" fill="#e29e00"/><path d="m434.643 297.222h2.00445v2.00445h-2.00445z" fill="#e29e00"/><path d="m436.647 299.227h4.0089v2.00445h-4.0089z" fill="#e29e00"/><path d="m438.652 309.249h2.00445v2.00445h-2.00445z" fill="#e29e00"/><path d="m430.634 309.249h2.00445v2.00445h-2.00445z" fill="#e29e00"/><path d="m432.638 311.253h6.01335v2.00445h-6.01335z" fill="#e29e00"/><path d="m430.634 339.316h6.01335v2.00445h-6.01335z" fill="#e29e00"/><path d="m430.634 299.227h2.00445v2.00445h-2.00445z" fill="#e29e00"/><path d="m432.638 297.222h2.00445v2.00445h-2.00445z" fill="#e29e00"/><path d="m440.656 293.213h2.00445v2.00445h-2.00445z" fill="#e29e00"/><path d="m438.652 293.213h2.00445v4.0089h-2.00445z" fill="#e29e00"/><path d="m448.674 297.222h2.00445v2.00445h-2.00445z" fill="#e29e00"/><path d="m450.678 295.218h2.00445v2.00445h-2.00445z" fill="#e29e00"/><path d="m448.674 305.24h2.00445v2.00445h-2.00445z" fill="#e29e00"/><path d="m446.669 307.244h2.00445v2.00445h-2.00445z" fill="#e29e00"/><path d="m444.665 311.253h2.00445v2.00445h-2.00445z" fill="#e29e00"/><path d="m446.669 313.258h2.00445v3.34075h-2.00445z" fill="#e29e00"/><path d="m448.674 309.249h2.00445v7.34965h-2.00445z" fill="#e29e00"/><path d="m446.669 301.231h2.00445v4.0089h-2.00445z" fill="#e29e00"/><path d="m448.674 295.218h2.00445v2.00445h-2.00445z" fill="#e29e00"/><path d="m446.669 293.213h2.00445v4.0089h-2.00445z" fill="#e29e00"/><path d="m444.665 293.213h2.00445v4.0089h-2.00445z" fill="#e29e00"/><path d="m454.687 291.209h8.0178v2.00445h-8.0178z" fill="#e29e00"/><path d="m462.705 293.213h6.01335v2.00445h-6.01335z" fill="#e29e00"/><path d="m468.718 295.218h2.00445v2.00445h-2.00445z" fill="#e29e00"/><path d="m482.749 303.236h2.00445v2.00445h-2.00445z" fill="#e29e00"/><path d="m488.763 307.244h2.00445v2.00445h-2.00445z" fill="#e29e00"/><path d="m490.767 309.249h2.00445v2.00445h-2.00445z" fill="#e29e00"/><path d="m492.772 311.253h2.00445v2.00445h-2.00445z" fill="#e29e00"/><path d="m492.772 313.258h2.00445v2.00445h-2.00445z" fill="#e29e00"/><path d="m498.785 317.267h2.00445v4.0089h-2.00445z" fill="#e29e00"/><path d="m470.723 297.222h4.0089v2.00445h-4.0089z" fill="#e29e00"/><path d="m474.732 299.227h4.0089v2.00445h-4.0089z" fill="#e29e00"/><path d="m478.741 301.231h4.0089v2.00445h-4.0089z" fill="#e29e00"/><path d="m484.754 305.24h4.0089v2.00445h-4.0089z" fill="#e29e00"/><path d="m496.781 315.262h2.00445v2.00445h-2.00445z" fill="#e29e00"/><path d="m494.776 315.262h2.00445v10.0222h-2.00445z" fill="#e29e00"/><path d="m492.772 325.285h2.00445v6.01335h-2.00445z" fill="#e29e00"/><path d="m500.79 321.276h2.00445v6.01335h-2.00445z" fill="#e29e00"/><path d="m498.785 327.289h2.00445v4.0089h-2.00445z" fill="#e29e00"/><path d="m490.767 331.298h2.00445v4.0089h-2.00445z" fill="#e29e00"/><path d="m488.763 335.307h2.00445v6.01335h-2.00445z" fill="#e29e00"/><path d="m486.746 341.269h2.23426v12.9587h-2.23426z" fill="#e29e00"/><path d="m480.937 337.247h1.78741v12.065h-1.78741z" fill="#e29e00"/><path d="m476.021 339.316h2.00445v6.01335h-2.00445z" fill="#e29e00"/><path d="m479.149 347.972h1.78741v4.91537h-1.78741z" fill="#e29e00"/><path d="m474.234 345.291h1.78741v8.93703h-1.78741z" fill="#e29e00"/><path d="m474.681 347.525h12.5118v1.78741h-12.5118z" fill="#e29e00"/><path d="m474.234 352.44h13.4056v1.78741h-13.4056z" fill="#e29e00"/><path d="m478.741 333.302h2.00445v4.0089h-2.00445z" fill="#e29e00"/><path d="m476.736 331.298h2.00445v2.00445h-2.00445z" fill="#e29e00"/><path d="m476.736 335.307h2.00445v2.00445h-2.00445z" fill="#e29e00"/><path d="m454.572 337.247h2.23426v16.9804h-2.23426z" fill="#e29e00"/><path d="m448.763 337.247h1.78741v10.7244h-1.78741z" fill="#e29e00"/><path d="m442.507 337.247h2.23426v15.193h-2.23426z" fill="#e29e00"/><path d="m454.572 335.307h2.23424v2.00445h-2.23424z" fill="#e29e00"/><path d="m452.683 333.302h2.00445v2.00445h-2.00445z" fill="#e29e00"/><path d="m444.665 331.298h2.00445v2.00445h-2.00445z" fill="#e29e00"/><path d="m446.669 329.293h2.00445v4.0089h-2.00445z" fill="#e29e00"/><path d="m454.687 309.249h2.00445v4.0089h-2.00445z" fill="#e29e00"/><path d="m452.683 303.236h2.00445v6.01335h-2.00445z" fill="#e29e00"/><path d="m448.674 325.285h2.00445v6.01335h-2.00445z" fill="#e29e00"/><path d="m450.678 321.276h2.00445v6.01335h-2.00445z" fill="#e29e00"/><path d="m452.683 313.258h2.00445v10.0222h-2.00445z" fill="#e29e00"/><path d="m474.732 337.311h2.00445v2.00445h-2.00445z" fill="#e29e00"/><path d="m468.718 339.316h6.01335v2.00445h-6.01335z" fill="#e29e00"/><path d="m456.692 339.316h4.0089v2.00445h-4.0089z" fill="#e29e00"/><path d="m442.507 347.525h12.5118v2.23426h-12.5118z" fill="#e29e00"/><path d="m442.507 352.44h12.065v1.78741h-12.065z" fill="#e29e00"/><path d="m460.701 341.32h8.0178v2.00445h-8.0178z" fill="#e29e00"/><path d="m474.732 327.289h2.00445v4.0089h-2.00445z" fill="#e29e00"/><path d="m446.976 347.972h1.78741v6.25592h-1.78741z" fill="#e29e00"/><path d="m446.976 335.46h2.00445v4.0089h-2.00445z" fill="#e29e00"/><path d="m440.656 332.635h2.00445v4.67705h-2.00445z" fill="#e29e00"/><path d="m442.661 330.296h2.00445v3.00667h-2.00445z" fill="#e29e00"/><path d="m432.638 329.293h2.00445v2.00445h-2.00445z" fill="#e29e00"/><path d="m426.625 333.302h2.00445v2.00445h-2.00445z" fill="#e29e00"/><path d="m428.629 335.307h2.00445v4.0089h-2.00445z" fill="#e29e00"/><path d="m434.643 337.311h2.00445v2.00445h-2.00445z" fill="#e29e00"/><path d="m436.647 335.307h2.00445v4.0089h-2.00445z" fill="#e29e00"/><path d="m438.652 330.296h2.00445v5.01112h-2.00445z" fill="#e29e00"/><path d="m558.243 194.674-8.691-4.714-39.515-1.39-6.033 4.783-6.181.662-5.739 6.328-6.328 6.254-5.519 6.402-4.782 4.415-2.208 8.593-4.635 4.872.882 31.419 4.121 5.003 1.177 7.506 6.181 5.445 3.9 5.371 7.284 6.181 3.9 5.371 6.77 1.545 5.592 4.047 40.395-.441 12.951-4.562 5.518-6.402 6.77-6.475 5.518-6.697 4.341-3.383 1.251-8.213 4.415-4.223.736-30.566-4.783-5.798-.662-5.798-6.402-8.019-7.137-6.328-4.047-5.887-4.268-2.959z" fill="#ffd952"/><path d="m506.06 185.42h46.3855v6.08809h-46.3855z" fill="#000"/><path d="m0 0h46.3855v6.08809h-46.3855z" fill="#000" transform="matrix(1 0 0 -1 506.06 307.181)"/><path d="m569.84 203.684h5.79818v6.08809h-5.79818z" fill="#000"/><path d="m0 0h5.79818v6.08809h-5.79818z" fill="#000" transform="matrix(-1 0 0 1 488.665 203.684)"/><path d="m564.041 197.596h5.79818v6.08809h-5.79818z" fill="#000"/><path d="m0 0h5.79818v6.08809h-5.79818z" fill="#000" transform="matrix(-1 0 0 1 494.463 197.596)"/><path d="m575.638 209.772h5.79818v6.08809h-5.79818z" fill="#000"/><path d="m0 0h5.79818v6.08809h-5.79818z" fill="#000" transform="matrix(-1 0 0 1 482.867 209.772)"/><path d="m581.436 215.86h5.79818v12.1762h-5.79818z" fill="#000"/><path d="m0 0h5.79818v12.1762h-5.79818z" fill="#000" transform="matrix(-1 0 0 1 477.069 215.86)"/><path d="m0 0h5.79818v6.08809h-5.79818z" fill="#000" transform="matrix(1 0 0 -1 569.84 288.917)"/><path d="m552.445 191.508h11.5964v6.08809h-11.5964z" fill="#000"/><path d="m0 0h11.5964v6.08809h-11.5964z" fill="#000" transform="matrix(-1 0 0 1 506.06 191.508)"/><path d="m488.665 288.917h5.79818v6.08809h-5.79818z" fill="#000" transform="matrix(-1 0 -0 -1 977.33 577.834)"/><path d="m0 0h5.79818v6.08809h-5.79818z" fill="#000" transform="matrix(1 0 0 -1 564.041 295.005)"/><path d="m494.463 295.005h5.79818v6.08809h-5.79818z" fill="#000" transform="matrix(-1 0 -0 -1 988.926 590.01)"/><path d="m0 0h5.79818v6.08809h-5.79818z" fill="#000" transform="matrix(1 0 0 -1 575.638 282.829)"/><path d="m482.867 282.829h5.79818v6.08809h-5.79818z" fill="#000" transform="matrix(-1 0 -0 -1 965.734 565.658)"/><path d="m0 0h5.79818v12.1762h-5.79818z" fill="#000" transform="matrix(1 0 0 -1 581.436 276.741)"/><path d="m477.069 276.741h5.79818v12.1762h-5.79818z" fill="#000" transform="matrix(-1 0 -0 -1 954.138 553.482)"/><path d="m587.234 228.036h5.79818v36.5285h-5.79818z" fill="#000"/><path d="m465.472 228.036h5.79818v36.5285h-5.79818z" fill="#000"/><path d="m0 0h11.5964v6.08809h-11.5964z" fill="#000" transform="matrix(1 0 0 -1 552.445 301.093)"/><path d="m506.06 301.093h11.5964v6.08809h-11.5964z" fill="#000" transform="matrix(-1 0 -0 -1 1012.12 602.186)"/><path d="m518.649 214.761-1.492-2.153-.498.331-1.493 1.325-1.99.994.166-2.982-2.487-1.325h-3.317l-.498 7.619-1.658 1.988-1.825-1.988-1.326-2.153-.332-1.656-1.658-2.153-2.156 1.656v3.975l1.658 1.656 2.156 1.988v3.644l-1.658 1.822-.498 11.097-1.658.994-.498 3.81-.995 1.49-.663 5.135 2.156 2.65 1.658 1.657h7.96l1.327-1.657.498-3.147 1.492-.662 2.156-1.822 1.659 1.49v1.491l1.99 2.65v11.098l1.824.828v4.472l1.493 2.153.663 13.913 3.483.497v-15.901l1.824-.662 1.824 2.153.664 13.582 3.317.331.331-15.404h9.453l1.991.663v2.816l1.658.331-.332 2.981 1.825 2.154.663 7.288h3.814v-10.104l1.493-.331 2.156 1.656 1.493 1.988.331 6.791h3.483l.498-8.448-2.156-1.987v-2.319l-2.322-1.491v-24.845l-.995-1.822-2.488-1.656-1.493-2.154h-9.784l-1.327 1.657h-8.458v-3.313l-.995-1.987-.995-2.319-.995-1.16-.498-2.319-1.327-1.49-.829-1.491-1.492-1.325-.332-3.313-1.161-1.325-1.658-.497-.498-2.319-2.322-1.325z" fill="#ffe37e"/><path d="m498.943 213.54h2.06325v5.60024h-2.06325z" fill="#ffc74e"/><path d="m515.741 213.556h2.06325v5.60024h-2.06325z" fill="#ffc74e"/><path d="m500.913 217.279h1.87673v3.75381h-1.87673z" fill="#ffc74e"/><path d="m514.051 215.402h1.87673v5.63032h-1.87673z" fill="#ffc74e"/><path d="m517.804 219.14h1.87673v5.63032h-1.87673z" fill="#ffc74e"/><path d="m521.558 222.909h1.87673v5.63032h-1.87673z" fill="#ffc74e"/><path d="m519.681 224.786h1.87673v5.63032h-1.87673z" fill="#ffc74e"/><path d="m515.945 221.033h1.87673v1.8768h-1.87673z" fill="#ffc74e"/><path d="m523.434 228.54h1.87673v5.63032h-1.87673z" fill="#ffc74e"/><path d="m527.188 234.17h1.87673v3.7536h-1.87673z" fill="#ffc74e"/><path d="m525.311 228.869h1.87673v3.7536h-1.87673z" fill="#ffc74e"/><path d="m529.065 236.985h1.87673v3.7536h-1.87673z" fill="#ffc74e"/><path d="m496.518 244.583 1.646-1.504h7.901l1.317 2.173 1.81 1.003v5.851l-.987 1.672-8.559.501-1.646-1.839-1.153-1.337z" fill="#ffc74e"/><path d="m498.82 251.626h9.60041v1.68654h-9.60041z" fill="#ffc74e"/><path d="m517.804 252.469h1.8768v10.6025h-1.8768z" fill="#ffc74e"/><path d="m519.681 263.072h1.8768v7.50712h-1.8768z" fill="#ffc74e"/><path d="m515.927 247.683h1.8768v3.75352h-1.8768z" fill="#ffc74e"/><path d="m521.557 278.086h1.87673v6.40785h-1.87673z" fill="#ffc74e"/><path d="m529.065 278.086h1.87673v6.40785h-1.87673z" fill="#ffc74e"/><path d="m548.208 278.086h1.87673v6.40785h-1.87673z" fill="#ffc74e"/><path d="m557.591 278.086h1.87673v6.40785h-1.87673z" fill="#ffc74e"/><path d="m544.454 268.702h5.63029v3.75352h-5.63029z" fill="#ffc74e"/><path d="m546.331 272.456h3.75349v5.63032h-3.75349z" fill="#ffc74e"/><path d="m532.818 266.826h17.2662v1.87665h-17.2662z" fill="#ffc74e"/><path d="m532.818 264.948h15.3895v1.87673h-15.3895z" fill="#ffc74e"/><path d="m508.42 221.033h1.87677v5.6303h-1.87677z" fill="#e29e00"/><path d="m500.913 221.033h1.87677v5.6303h-1.87677z" fill="#e29e00"/><path d="m497.16 213.525h1.87677v5.6303h-1.87677z" fill="#e29e00"/><path d="m517.804 213.525h1.87677v5.6303h-1.87677z" fill="#e29e00"/><path d="m512.174 211.648h1.87677v5.6303h-1.87677z" fill="#e29e00"/><path d="m506.544 209.772h1.87677v9.38383h-1.87677z" fill="#e29e00"/><path d="m504.667 219.155h1.87677v7.50706h-1.87677z" fill="#e29e00"/><path d="m506.555 209.772h5.63618v1.98924h-5.63618z" fill="#e29e00"/><path d="m508.42 217.279h5.6303v1.87677h-5.6303z" fill="#e29e00"/><path d="m510.297 219.155h1.87677v1.87677h-1.87677z" fill="#e29e00"/><path d="m514.051 213.525h1.87677v1.87677h-1.87677z" fill="#e29e00"/><path d="m515.927 211.648h1.87677v1.87677h-1.87677z" fill="#e29e00"/><path d="m514.051 221.033h1.87677v1.87677h-1.87677z" fill="#e29e00"/><path d="m515.927 222.909h1.87677v3.75353h-1.87677z" fill="#e29e00"/><path d="m502.79 217.279h1.87677v3.75353h-1.87677z" fill="#e29e00"/><path d="m500.913 213.525h1.87677v3.75353h-1.87677z" fill="#e29e00"/><path d="m517.804 224.786h1.87677v5.6303h-1.87677z" fill="#e29e00"/><path d="m523.434 222.909h1.87677v5.6303h-1.87677z" fill="#e29e00"/><path d="m525.311 226.663h1.87677v3.75353h-1.87677z" fill="#e29e00"/><path d="m527.188 230.416h1.87677v3.75353h-1.87677z" fill="#e29e00"/><path d="m514.051 247.683h1.87677v3.75353h-1.87677z" fill="#e29e00"/><path d="m508.42 245.806h1.87677v7.50706h-1.87677z" fill="#e29e00"/><path d="m495.283 243.929h1.87677v7.50706h-1.87677z" fill="#e29e00"/><path d="m515.927 238.299h1.87677v5.6303h-1.87677z" fill="#e29e00"/><path d="m529.065 234.17h1.87677v3.75353h-1.87677z" fill="#e29e00"/><path d="m521.558 228.54h1.87677v5.6303h-1.87677z" fill="#e29e00"/><path d="m525.311 232.293h1.87677v5.6303h-1.87677z" fill="#e29e00"/><path d="m530.941 237.923h1.87677v5.6303h-1.87677z" fill="#e29e00"/><path d="m532.818 242.052h1.87677v11.2606h-1.87677z" fill="#e29e00"/><path d="m538.824 245.806h1.87677v9.38383h-1.87677z" fill="#e29e00"/><path d="m517.804 264.949h1.87677v5.6303h-1.87677z" fill="#e29e00"/><path d="m515.927 252.938h1.87677v12.0113h-1.87677z" fill="#e29e00"/><path d="m544.454 243.929h1.87677v11.2606h-1.87677z" fill="#e29e00"/><path d="m550.084 243.929h1.87677v11.2606h-1.87677z" fill="#e29e00"/><path d="m555.715 245.806h1.87677v26.6501h-1.87677z" fill="#e29e00"/><path d="m515.927 219.155h1.87677v1.87677h-1.87677z" fill="#e29e00"/><path d="m499.036 211.648h1.87677v1.87677h-1.87677z" fill="#e29e00"/><path d="m499.036 219.155h1.87677v1.87677h-1.87677z" fill="#e29e00"/><path d="m519.681 230.416h1.87677v1.87677h-1.87677z" fill="#e29e00"/><path d="m523.434 234.17h1.87677v1.87677h-1.87677z" fill="#e29e00"/><path d="m521.558 236.047h1.87677v1.87677h-1.87677z" fill="#e29e00"/><path d="m519.681 237.923h1.87677v1.87677h-1.87677z" fill="#e29e00"/><path d="m514.051 236.422h1.87677v1.87677h-1.87677z" fill="#e29e00"/><path d="m512.2 234.545h1.85084v1.87677h-1.85084z" fill="#e29e00"/><path d="m512.174 245.806h1.87677v1.87677h-1.87677z" fill="#e29e00"/><path d="m510.297 247.683h1.87677v1.87677h-1.87677z" fill="#e29e00"/><path d="m506.544 243.929h1.87677v1.87677h-1.87677z" fill="#e29e00"/><path d="m502.415 247.683h1.87677v1.87677h-1.87677z" fill="#e29e00"/><path d="m498.661 247.683h1.87677v1.87677h-1.87677z" fill="#e29e00"/><path d="m497.16 251.436h1.87677v1.87677h-1.87677z" fill="#e29e00"/><path d="m514.051 243.929h1.87677v1.87677h-1.87677z" fill="#e29e00"/><path d="m497.16 238.299h1.87677v3.75353h-1.87677z" fill="#e29e00"/><path d="m499.036 226.462h1.87677v13.7135h-1.87677z" fill="#e29e00"/><path d="m527.188 237.923h1.87677v1.87677h-1.87677z" fill="#e29e00"/><path d="m530.941 253.313h1.87677v1.87677h-1.87677z" fill="#e29e00"/><path d="m536.947 255.189h1.87677v1.87677h-1.87677z" fill="#e29e00"/><path d="m536.947 243.929h1.87677v1.87677h-1.87677z" fill="#e29e00"/><path d="m527.188 261.195h1.87677v1.87677h-1.87677z" fill="#e29e00"/><path d="m525.311 255.189h1.87677v1.87677h-1.87677z" fill="#e29e00"/><path d="m542.577 242.052h1.87677v1.87677h-1.87677z" fill="#e29e00"/><path d="m542.577 255.189h1.87677v1.87677h-1.87677z" fill="#e29e00"/><path d="m529.065 243.553h1.87677v1.87677h-1.87677z" fill="#e29e00"/><path d="m553.838 257.066h1.87677v1.87677h-1.87677z" fill="#e29e00"/><path d="m548.208 242.052h1.87677v1.87677h-1.87677z" fill="#e29e00"/><path d="m551.961 242.052h1.87677v1.87677h-1.87677z" fill="#e29e00"/><path d="m553.838 243.929h1.87677v1.87677h-1.87677z" fill="#e29e00"/><path d="m557.591 245.806h1.87677v1.87677h-1.87677z" fill="#e29e00"/><path d="m559.468 247.683h1.87677v3.75353h-1.87677z" fill="#e29e00"/><path d="m557.591 272.456h1.87677v3.75353h-1.87677z" fill="#e29e00"/><path d="m550.084 272.456h1.87677v3.75353h-1.87677z" fill="#e29e00"/><path d="m544.454 274.333h1.87677v3.75353h-1.87677z" fill="#e29e00"/><path d="m561.345 251.436h1.87677v3.75353h-1.87677z" fill="#e29e00"/><path d="m559.468 255.189h1.87677v5.6303h-1.87677z" fill="#e29e00"/><path d="m559.468 276.209h1.87677v11.2606h-1.87677z" fill="#e29e00"/><path d="m555.715 278.086h1.87677v9.38383h-1.87677z" fill="#e29e00"/><path d="m550.084 276.209h1.87677v11.2606h-1.87677z" fill="#e29e00"/><path d="m546.331 278.086h1.87677v9.38383h-1.87677z" fill="#e29e00"/><path d="m530.941 266.826h1.87677v20.6445h-1.87677z" fill="#e29e00"/><path d="m527.188 270.204h1.87677v17.2663h-1.87677z" fill="#e29e00"/><path d="m523.434 266.45h1.87677v21.0198h-1.87677z" fill="#e29e00"/><path d="m519.681 270.579h1.87677v16.8909h-1.87677z" fill="#e29e00"/><path d="m548.208 255.189h1.87677v1.87677h-1.87677z" fill="#e29e00"/><path d="m525.311 239.8h1.87677v1.87677h-1.87677z" fill="#e29e00"/><path d="m523.434 241.677h1.87677v1.87677h-1.87677z" fill="#e29e00"/><path d="m529.065 239.8h1.87677v1.87677h-1.87677z" fill="#e29e00"/><path d="m534.695 242.052h6.00565v1.87677h-6.00565z" fill="#e29e00"/><path d="m527.188 245.43h1.87677v1.87677h-1.87677z" fill="#e29e00"/><path d="m525.311 247.307h1.87677v1.87677h-1.87677z" fill="#e29e00"/><path d="m540.701 240.176h11.2606v1.87677h-11.2606z" fill="#e29e00"/><path d="m551.961 258.943h1.87677v1.87677h-1.87677z" fill="#e29e00"/><path d="m550.084 260.82h1.87677v1.87677h-1.87677z" fill="#e29e00"/><path d="m550.084 264.949h1.87677v1.87677h-1.87677z" fill="#e29e00"/><path d="m525.311 268.327h1.87677v1.87677h-1.87677z" fill="#e29e00"/><path d="m529.065 272.08h1.87677v1.87677h-1.87677z" fill="#e29e00"/><path d="m529.065 276.209h1.87677v1.87677h-1.87677z" fill="#e29e00"/><path d="m521.557 272.08h1.87677v1.87677h-1.87677z" fill="#e29e00"/><path d="m521.557 276.209h1.87677v1.87677h-1.87677z" fill="#e29e00"/><path d="m548.208 266.826h1.87677v1.87677h-1.87677z" fill="#e29e00"/><path d="m555.715 274.333h1.87677v1.87677h-1.87677z" fill="#e29e00"/><path d="m542.577 272.456h5.6303v1.87677h-5.6303z" fill="#e29e00"/><path d="m548.208 270.579h5.6303v1.87677h-5.6303z" fill="#e29e00"/><path d="m515.927 263.072h11.2606v1.87677h-11.2606z" fill="#e29e00"/><path d="m532.443 268.702h15.7648v1.87677h-15.7648z" fill="#e29e00"/><path d="m515.927 257.066h9.38383v1.87677h-9.38383z" fill="#e29e00"/><path d="m515.927 251.436h7.50706v1.87677h-7.50706z" fill="#e29e00"/><path d="m498.661 253.313h9.75918v1.87677h-9.75918z" fill="#e29e00"/><path d="m497.16 242.053h9.38383v1.87677h-9.38383z" fill="#e29e00"/><path d="m551.961 274.333h1.87677v1.87677h-1.87677z" fill="#e29e00"/><path d="m555.715 283.716h4.50424v3.75353h-4.50424z" fill="#e29e00"/><path d="m553.838 276.209h1.87677v1.87677h-1.87677z" fill="#e29e00"/><path d="m548.208 276.209h1.87677v1.87677h-1.87677z" fill="#e29e00"/><path d="m546.331 283.716h4.50424v3.75353h-4.50424z" fill="#e29e00"/><path d="m542.577 270.579h1.87677v1.87677h-1.87677z" fill="#e29e00"/><path d="m521.558 243.553h1.87677v1.87677h-1.87677z" fill="#e29e00"/><path d="m527.188 283.716h4.50424v3.75353h-4.50424z" fill="#e29e00"/><path d="m521.558 221.033h1.87677v1.87677h-1.87677z" fill="#e29e00"/><path d="m519.681 219.155h1.87677v7.50706h-1.87677z" fill="#e29e00"/><path d="m519.681 283.716h4.50424v3.75353h-4.50424z" fill="#e29e00"/><path d="m513.058 227.527-3.128-1.673h-1.877l-1.408 1.065-1.876-.761-2.659-.608-1.095 2.281-2.346.913v2.737l2.346 4.715h4.536l2.346 1.673 3.91.76 2.189-2.433 1.564-1.065v-6.387z" fill="#ffe37e"/><path d="m501.641 224.637h3.75352v1.82499h-3.75352z" fill="#e29e00"/><path d="m499.764 226.462h1.87677v1.82499h-1.87677z" fill="#e29e00"/><path d="m501.641 230.112h1.87677v1.82499h-1.87677z" fill="#e29e00"/><path d="m509.148 231.025h1.87677v1.82499h-1.87677z" fill="#e29e00"/><path d="m514.778 228.287h1.87677v7.29994h-1.87677z" fill="#e29e00"/><path d="m499.764 233.762h1.87677v3.64997h-1.87677z" fill="#e29e00"/><path d="m501.641 235.588h1.87677v1.82497h-1.87677z" fill="#e29e00"/><path d="m503.518 235.588h1.87677v1.82499h-1.87677z" fill="#e29e00"/><path d="m497.887 228.287h1.87677v5.47496h-1.87677z" fill="#e29e00"/><path d="m503.518 228.287h1.87677v3.64997h-1.87677z" fill="#e29e00"/><path d="m502.892 231.937h1.87677v3.64997h-1.87677z" fill="#e29e00"/><path d="m509.148 224.637h1.98333v1.82499h-1.98333z" fill="#e29e00"/><path d="m511.025 226.462h3.75354v1.82499h-3.75354z" fill="#e29e00"/><path d="m512.901 235.588h1.87677v1.82499h-1.87677z" fill="#e29e00"/><path d="m505.394 235.588h1.87677v1.82499h-1.87677z" fill="#e29e00"/><path d="m507.271 237.412h5.63031v1.82499h-5.63031z" fill="#e29e00"/><path d="m505.394 226.462h1.87677v1.82499h-1.87677z" fill="#e29e00"/><path d="m507.271 224.637h1.87677v1.82499h-1.87677z" fill="#e29e00"/><path d="m599.606 314.408-5.447-2.954-24.766-.871-3.781 2.997-3.874.415-3.597 3.966-3.966 3.92-3.459 4.012-2.998 2.767-1.383 5.386-2.905 3.053.553 19.692 2.583 3.136.737 4.704 3.874 3.412 2.444 3.367 4.566 3.873 2.444 3.367 4.243.968 3.505 2.537 25.317-.277 8.117-2.859 3.458-4.012 4.243-4.058 3.459-4.198 2.721-2.12.784-5.148 2.767-2.646.461-19.157-2.998-3.634-.415-3.634-4.012-5.026-4.473-3.966-2.537-3.689-2.674-1.855z" fill="#ffd952"/><path d="m566.9 308.608h29.0717v3.81567h-29.0717z" fill="#000"/><path d="m0 0h29.0717v3.81567h-29.0717z" fill="#000" transform="matrix(1 0 0 -1 566.9 384.921)"/><path d="m606.874 320.055h3.63397v3.81567h-3.63397z" fill="#000"/><path d="m0 0h3.63397v3.81567h-3.63397z" fill="#000" transform="matrix(-1 0 0 1 555.998 320.055)"/><path d="m603.24 316.24h3.63397v3.81567h-3.63397z" fill="#000"/><path d="m0 0h3.63397v3.81567h-3.63397z" fill="#000" transform="matrix(-1 0 0 1 559.632 316.24)"/><path d="m610.508 323.871h3.63397v3.81567h-3.63397z" fill="#000"/><path d="m0 0h3.63397v3.81567h-3.63397z" fill="#000" transform="matrix(-1 0 0 1 552.364 323.871)"/><path d="m614.141 327.687h3.63397v7.63133h-3.63397z" fill="#000"/><path d="m0 0h3.63397v7.63133h-3.63397z" fill="#000" transform="matrix(-1 0 0 1 548.73 327.687)"/><path d="m0 0h3.63397v3.81567h-3.63397z" fill="#000" transform="matrix(1 0 0 -1 606.874 373.475)"/><path d="m595.972 312.424h7.26794v3.81567h-7.26794z" fill="#000"/><path d="m0 0h7.26794v3.81567h-7.26794z" fill="#000" transform="matrix(-1 0 0 1 566.9 312.424)"/><path d="m555.998 373.475h3.63397v3.81567h-3.63397z" fill="#000" transform="matrix(-1 0 -0 -1 1111.996 746.95)"/><path d="m0 0h3.63397v3.81567h-3.63397z" fill="#000" transform="matrix(1 0 0 -1 603.24 377.29)"/><path d="m559.632 377.29h3.63397v3.81567h-3.63397z" fill="#000" transform="matrix(-1 0 -0 -1 1119.264 754.58)"/><path d="m0 0h3.63397v3.81567h-3.63397z" fill="#000" transform="matrix(1 0 0 -1 610.508 369.658)"/><path d="m552.364 369.658h3.63397v3.81567h-3.63397z" fill="#000" transform="matrix(-1 0 -0 -1 1104.728 739.316)"/><path d="m0 0h3.63397v7.63133h-3.63397z" fill="#000" transform="matrix(1 0 0 -1 614.141 365.843)"/><path d="m548.73 365.843h3.63397v7.63133h-3.63397z" fill="#000" transform="matrix(-1 0 -0 -1 1097.46 731.686)"/><path d="m617.775 335.318h3.63397v22.894h-3.63397z" fill="#000"/><path d="m541.462 335.318h3.63397v22.894h-3.63397z" fill="#000"/><path d="m0 0h7.26794v3.81567h-7.26794z" fill="#000" transform="matrix(1 0 0 -1 595.972 381.106)"/><path d="m566.9 381.106h7.26794v3.81567h-7.26794z" fill="#000" transform="matrix(-1 0 -0 -1 1133.8 762.212)"/><path d="m585.863 327.214-1.903-2.284-11.041-.761-3.426 3.045-2.665 2.665-.761 28.172 3.426 2.284 2.284 3.046h20.178l1.903-1.523 3.046-1.142 3.426-2.284 1.523-2.284h.761l3.046-3.046v-3.046l-7.995-.761-3.046-1.904-3.045-3.807-2.284-1.903-.381-11.802z" fill="#ffe37e"/><path d="m596.139 348.34c3.522 0 7.045-.022 10.735-.022v5.87c-1.007 0-1.51 0-2.349 0 0-1.174 0-3.354 0-3.354-1.509 0-5.954 0-8.386 0 0 0 0-1.655 0-2.494z" fill="#e29e00"/><path d="m587.836 329.029h2.516v6.793 6.625c-.754 0-1.593 0-2.516 0 0-4.612 0-8.973 0-13.418z" fill="#e29e00"/><path d="m564.987 359.22h30.1913v2.69029h-30.1913z" fill="#e29e00" transform="matrix(0 -1 1 0 205.767 924.207)"/><path d="m561.37 337.597h16.4525v4.84639h-16.4525z" fill="#e29e00"/><path d="m604.609 354.189v2.515c-1.258 0-2.348 0-3.354 0 0-.754 0-1.509 0-2.515z" fill="#e29e00"/><path d="m593.179 353.827v2.71c-1.606 0-3.301 0-5.175 0 0-.73 0-1.668 0-2.71z" fill="#e29e00"/><path d="m598.006 359.911v2.709c-1.606 0-3.302 0-5.175 0 0-.729 0-1.667 0-2.709z" fill="#e29e00"/><path d="m601.506 356.704v3.207c-1.086 0-2.233 0-3.5 0 0-.864 0-1.973 0-3.207z" fill="#e29e00"/><path d="m590.178 342.444h3.00149v3.00149h-3.00149z" fill="#e29e00"/><path d="m571.063 331.518h2.68369v2.68369h-2.68369z" fill="#e29e00"/><path d="m567.746 325.717h3.41578v3.41578h-3.41578z" fill="#e29e00"/><path d="m584.482 325.614h3.41578v3.41578h-3.41578z" fill="#e29e00"/><path d="m576.431 331.518h2.68369v2.68369h-2.68369z" fill="#e29e00"/><path d="m593.137 345.445h3.00149v3.00149h-3.00149z" fill="#e29e00"/><path d="m593.137 350.826h3.00149v3.00149h-3.00149z" fill="#e29e00"/><path d="m567.677 359.074h3.55415v3.55415h-3.55415z" fill="#e29e00"/><path d="m571.162 362.621h21.6685v2.69029h-21.6685z" fill="#e29e00"/><path d="m571.162 323.026h13.3196v2.69029h-13.3196z" fill="#e29e00"/><path d="m577.272 375.72h12.1824v3.04561h-12.1824z" fill="#e29e00" transform="matrix(0 -1 1 0 201.552 952.992)"/><path d="m581.841 375.72h12.1824v3.04561h-12.1824z" fill="#e29e00" transform="matrix(0 -1 1 0 206.121 957.561)"/><path d="m567.677 342.444h3.55405v16.6308h-3.55405z" fill="#ffc649"/><path d="m571.231 346.946h3.19776v15.6829h-3.19776z" fill="#ffc649"/><path d="m574.429 350.826h3.19776v11.8029h-3.19776z" fill="#ffc649"/><path d="m577.516 359.911h15.3153v2.71752h-15.3153z" fill="#ffc649"/><path d="m588.004 350.826h5.17516v3.00156h-5.17516z" fill="#ffc649"/><path d="m590.178 348.446h5.96122v2.3792h-5.96122z" fill="#ffc649"/><path d="m365.651 300.253h-3.601v-7.178h-3.577v-3.577h-3.577v-3.577h-7.178v-3.6h-7.177v-3.577h-17.933v3.577h-7.178v3.6h-7.154v3.577h-3.6v3.577h-3.578v7.178h-3.6v7.178h-3.577v17.932h3.577v7.178h3.6v7.154h3.578v3.601h3.6v3.577h7.154v3.601h7.178v3.577h17.933v-3.577h7.177v-3.601h7.178v-3.577h3.577v-3.601h3.577v-7.154h3.601v-7.178h3.577v-17.932h-3.577zm-10.755 14.356h-3.601v3.577h-3.577v3.6h-3.6v3.577h-3.577v3.577h-3.578v-7.154h-14.355v3.577h-3.577v3.577h3.577v3.601h3.577v3.577h-10.755v-3.577h-3.577v-3.601h-3.577v-17.932h3.577v-3.577h3.577v-3.577h21.533v-7.178h3.578v3.577h3.577v3.601h3.6v3.577h3.577v3.577h3.601z" fill="#a7eeee"/></svg>