<svg width="650" height="401" viewBox="0 0 650 401" fill="none" xmlns="http://www.w3.org/2000/svg">
<rect x="471.813" y="34.9038" width="8.07692" height="8.07692" fill="#EDF6FF"/>
<rect x="479.89" y="34.9038" width="8.07692" height="8.07692" fill="#E2EDFB"/>
<rect x="496.044" y="34.9038" width="8.07692" height="8.07692" fill="#EFF8FC"/>
<rect x="544.506" y="34.9038" width="8.07692" height="8.07692" fill="#E8EAF9"/>
<rect x="479.89" y="42.981" width="8.07692" height="8.07692" fill="#E6EDFA"/>
<rect x="520.275" y="51.0577" width="8.07692" height="8.07692" fill="#E3EDF5"/>
<rect x="568.737" y="51.0577" width="8.07692" height="8.07692" fill="#E4E9F3"/>
<rect x="576.813" y="51.0577" width="8.07692" height="8.07692" fill="#E3EBFF"/>
<rect x="584.89" y="51.0577" width="8.07692" height="8.07692" fill="#E4EAFC"/>
<rect x="447.583" y="59.1344" width="8.07692" height="8.07692" fill="#E6EEF6"/>
<rect x="552.583" y="59.1344" width="8.07692" height="8.07692" fill="#E5EBF2"/>
<rect x="576.813" y="59.1344" width="8.07692" height="8.07692" fill="#E4E7FD"/>
<rect x="463.737" y="67.2115" width="8.07692" height="8.07692" fill="#E6EFFA"/>
<rect x="479.89" y="67.2115" width="8.07692" height="8.07692" fill="#E1E7FA"/>
<rect x="568.737" y="67.2115" width="8.07692" height="8.07692" fill="#E3EEFA"/>
<rect x="592.967" y="67.2115" width="8.07692" height="8.07692" fill="#ECF2FF"/>
<rect x="431.429" y="75.2887" width="8.07692" height="8.07692" fill="#E2E9FB"/>
<rect x="479.89" y="75.2887" width="8.07692" height="8.07692" fill="#E4EDFC"/>
<rect x="544.506" y="75.2887" width="8.07692" height="8.07692" fill="#ECF8FF"/>
<rect x="592.967" y="75.2887" width="8.07692" height="8.07692" fill="#E5ECF9"/>
<rect x="415.275" y="83.3654" width="8.07692" height="8.07692" fill="#ECF3FE"/>
<rect x="423.352" y="83.3654" width="8.07692" height="8.07692" fill="#EFF9FF"/>
<rect x="471.813" y="83.3654" width="8.07692" height="8.07692" fill="#EBF8FF"/>
<rect x="520.275" y="83.3654" width="8.07692" height="8.07692" fill="#EBF4FF"/>
<rect x="471.813" y="91.4425" width="8.07692" height="8.07692" fill="#E2ECFF"/>
<rect x="609.121" y="91.4425" width="8.07692" height="8.07692" fill="#EEFAFF"/>
<rect x="536.429" y="99.5194" width="8.07692" height="8.07692" fill="#E1E9F2"/>
<rect x="560.66" y="99.5194" width="8.07692" height="8.07692" fill="#E5EAF6"/>
<rect x="609.121" y="99.5194" width="8.07692" height="8.07692" fill="#E9F6FF"/>
<rect x="415.275" y="107.596" width="8.07692" height="8.07692" fill="#E4EEF8"/>
<rect x="423.352" y="107.596" width="8.07692" height="8.07692" fill="#EEF6FF"/>
<rect x="463.737" y="107.596" width="8.07692" height="8.07692" fill="#E9F1FA"/>
<rect x="528.352" y="107.596" width="8.07692" height="8.07692" fill="#E8F1F5"/>
<rect x="568.737" y="107.596" width="8.07692" height="8.07692" fill="#E8ECFA"/>
<rect x="415.275" y="115.673" width="8.07692" height="8.07692" fill="#E7F3FF"/>
<rect x="423.352" y="115.673" width="8.07692" height="8.07692" fill="#E6F0F8"/>
<rect x="512.198" y="115.673" width="8.07692" height="8.07692" fill="#E9F2FF"/>
<rect x="415.275" y="123.75" width="8.07692" height="8.07692" fill="#E1F0FF"/>
<rect x="504.121" y="123.75" width="8.07692" height="8.07692" fill="#E7EDFF"/>
<rect x="528.352" y="131.827" width="8.07692" height="8.07692" fill="#E2EBFA"/>
<rect x="609.121" y="131.827" width="8.07692" height="8.07692" fill="#ECF8FF"/>
<rect x="463.737" y="139.904" width="8.07692" height="8.07692" fill="#EAF5FF"/>
<rect x="544.506" y="139.904" width="8.07692" height="8.07692" fill="#EBF2FB"/>
<rect x="576.813" y="139.904" width="8.07692" height="8.07692" fill="#E4E9F7"/>
<rect x="592.967" y="139.904" width="8.07692" height="8.07692" fill="#E9ECF8"/>
<rect x="609.121" y="139.904" width="8.07692" height="8.07692" fill="#EDF5FF"/>
<rect x="439.506" y="147.981" width="8.07692" height="8.07692" fill="#E4F0FA"/>
<rect x="487.967" y="147.981" width="8.07692" height="8.07692" fill="#E8EFFD"/>
<rect x="512.198" y="147.981" width="8.07692" height="8.07692" fill="#E1EFFF"/>
<rect x="552.583" y="147.981" width="8.07692" height="8.07692" fill="#EFF7FF"/>
<rect x="439.506" y="156.057" width="8.07692" height="8.07692" fill="#E7EFF8"/>
<rect x="592.967" y="156.057" width="8.07692" height="8.07692" fill="#E8F0F9"/>
<rect x="439.506" y="164.135" width="8.07692" height="8.07692" fill="#EDF3FC"/>
<rect x="423.352" y="172.211" width="8.07692" height="8.07692" fill="#E1EEFF"/>
<rect x="463.737" y="172.211" width="8.07692" height="8.07692" fill="#E2E4F6"/>
<rect x="496.044" y="172.211" width="8.07692" height="8.07692" fill="#EDF5FF"/>
<rect x="504.121" y="180.288" width="8.07692" height="8.07692" fill="#E3ECFD"/>
<rect x="544.506" y="180.288" width="8.07692" height="8.07692" fill="#E0EEF9"/>
<path d="M496.045 196.443H487.967V188.365H496.045V196.443ZM447.583 180.288H439.506V172.211H447.583V180.288ZM560.66 172.211H552.583V164.135H560.66V172.211ZM487.967 156.058H479.89V147.981H487.967V156.058ZM496.045 115.673H487.967V107.596H496.045V115.673ZM520.275 107.596H512.198V99.5198H520.275V107.596ZM560.66 75.2883H552.583V67.2112H560.66V75.2883ZM568.737 67.2112H560.66V59.134H568.737V67.2112Z" fill="#E0E9F8"/>
<rect x="496.044" y="196.442" width="8.07692" height="8.07692" fill="#EEF5FF"/>
<rect x="504.121" y="204.519" width="8.07692" height="8.07692" fill="#E2EAFE"/>
<rect x="528.352" y="212.596" width="8.07692" height="8.07692" fill="#E3EDF9"/>
<path d="M487.967 115.673H504.121V107.596H512.198V123.75H504.121V131.827H528.352V139.904H536.429V147.981H552.583V156.057H560.659V164.134H552.583V180.289H544.506V196.443H528.352V204.519H520.275V212.596H528.352V220.673H536.429V228.75H520.274V212.596H512.198V220.673H487.967V204.519H504.121V212.596H512.198V204.519H504.121V188.366H512.198V180.289H504.121V172.211H512.198V156.057H520.274V147.981H504.121V139.904H496.044V131.827H471.814V123.75H479.891V91.4429H487.967V115.673ZM431.429 99.519H439.506V91.4429H471.814V99.519H463.736V115.673H455.659V139.904H463.736V147.981H447.583V139.904H439.506V131.827H431.429V147.981H439.506V180.289H479.891V164.134H471.814V156.057H463.736V147.981H479.891V156.057H487.967V164.134H504.121V172.211H496.044V188.366H487.967V196.443H479.891V204.519H463.736V212.596H455.659V204.519H447.583V196.443H439.506V188.366H431.429V172.211H423.352V164.134H415.274V131.827H423.352V123.75H431.429V107.596H415.274V91.4429H431.429V99.519ZM544.506 212.596H536.429V204.519H544.506V212.596ZM592.967 147.981H601.044V156.057H584.891V139.904H592.967V147.981ZM617.198 131.827H609.121V107.596H617.198V131.827ZM528.352 123.75H520.274V115.673H528.352V123.75ZM544.506 99.519H536.429V107.596H520.274V91.4429H544.506V99.519ZM609.121 107.596H592.967V99.519H576.814V107.596H568.736V99.519H560.659V91.4429H609.121V107.596ZM479.891 83.3657H471.814V91.4419H431.429V83.3657H439.506V75.2886H471.814V67.2114H479.891V83.3657ZM552.583 51.0581H544.506V59.1343H552.583V75.2886H536.429V91.4419H528.352V83.3657H512.198V59.1343H528.352V51.0581H536.429V42.981H552.583V51.0581ZM568.736 75.2886H592.967V83.3657H609.121V91.4419H552.583V75.2886H560.659V67.2114H568.736V75.2886ZM496.044 75.2886H487.967V67.2114H496.044V75.2886ZM592.967 67.2114H584.891V59.1343H592.967V67.2114ZM479.891 51.0581H471.814V42.981H479.891V51.0581ZM496.044 42.981H487.967V34.9038H496.044V42.981Z" fill="#DAE6FE"/>
<path d="M520.275 228.75H487.967V220.673H512.198V212.597H520.275V228.75ZM544.505 228.75H536.429V212.597H560.66V220.673H544.505V228.75ZM487.967 220.673H463.737V212.597H487.967V220.673ZM496.044 204.52H487.967V212.596H463.737V204.52H479.89V196.442H496.044V204.52ZM576.813 147.98H584.89V156.058H592.967V164.135H601.044V139.904H609.122V147.98H617.198V156.058H609.122V172.212H601.044V188.365H592.967V196.442H584.89V204.52H576.813V212.596H544.505V204.52H536.429V212.596H520.275V204.52H528.352V196.442H544.505V188.365H552.583V172.211H560.66V147.981H552.583V139.904H576.813V147.98ZM504.122 196.442H496.044V180.288H504.122V196.442ZM463.737 156.058H471.813V164.135H479.89V180.288H471.813V172.212H463.737V180.288H447.583V147.98H463.737V156.058ZM636.476 166.289H642.032V173.126H636.476V178.576H629.639V173.126H624.084V166.289H629.639V160.838H636.476V166.289ZM423.352 172.212H415.275V164.135H423.352V172.212ZM504.122 147.98H512.198V172.212H504.122V164.135H487.967V156.058H496.044V147.981H471.813V139.904H504.122V147.98ZM447.583 147.981H431.429V139.904H447.583V147.981ZM544.505 147.981H536.429V139.904H544.505V147.981ZM415.275 139.903H407.198V131.827H415.275V139.903ZM439.505 139.903H431.429V131.827H439.505V139.903ZM496.044 139.903H455.66V131.827H496.044V139.903ZM609.122 139.903H536.429V131.827H609.122V139.903ZM415.275 131.826H407.198V107.596H415.275V131.826ZM479.89 123.75H471.813V131.826H455.66V115.673H471.813V107.597H463.737V99.5195H479.89V123.75ZM544.505 83.3652H552.583V91.4424H560.66V107.596H568.737V115.673H576.813V99.5195H592.967V107.596H609.122V131.826H512.198V123.75H528.352V115.673H536.429V107.596H544.505V91.4424H536.429V75.2891H544.505V83.3652ZM512.198 83.3652H520.275V99.5195H512.198V107.597H504.122V115.673H496.044V107.597H487.967V91.4424H479.89V83.3652H487.967V75.2891H512.198V83.3652ZM528.352 115.673H512.198V107.596H528.352V115.673ZM439.505 99.5195H431.429V91.4424H439.505V99.5195ZM431.429 83.3652H415.275V75.2891H431.429V83.3652ZM609.122 83.3652H601.044V75.2891H609.122V83.3652ZM393.384 75.2891H386.547V68.25H393.384V75.2891ZM463.737 75.2881H423.352V67.2119H463.737V75.2881ZM512.198 75.2881H496.044V67.2119H512.198V75.2881ZM592.967 75.2881H576.813V67.2119H592.967V75.2881ZM609.122 75.2881H601.044V67.2119H609.122V75.2881ZM544.505 26.8271H560.66V34.9033H576.813V42.9805H584.89V51.0576H568.737V59.1348H544.505V51.0576H552.583V34.9043H544.505V42.9805H536.429V51.0576H520.275V59.1348H512.198V67.2109H455.66V59.1348H447.583V67.2109H431.429V59.1348H439.505V51.0576H447.583V42.9805H455.66V34.9033H471.813V51.0576H487.967V42.9805H504.122V34.9043H471.813V26.8271H487.967V18.75H544.505V26.8271ZM576.813 67.2109H568.737V59.1348H576.813V67.2109ZM601.044 67.2109H592.967V59.1348H601.044V67.2109ZM402.358 45.9385H407.914V52.7754H402.358V58.2256H395.521V52.7754H389.965V45.9385H395.521V40.4873H402.358V45.9385Z" fill="white"/>
<path d="M128.229 186.827H160.031C160.984 186.827 161.745 187.588 161.745 188.541V245.099C161.745 246.051 160.984 246.813 160.031 246.813H27.1093C25.5859 246.813 24.2528 245.67 25.3954 243.385L59.6733 169.688C59.8638 169.307 60.0542 168.926 59.8638 168.545C59.6733 168.164 59.102 168.164 58.9116 168.164H26.7285C25.7763 168.164 25.0146 167.403 25.0146 166.45V109.892C25.0146 108.94 25.7763 107.988 26.7285 107.988H159.65C161.174 107.988 162.507 109.13 161.364 111.606L127.467 185.303C127.277 185.684 127.087 186.065 127.277 186.446C127.467 186.827 128.039 186.827 128.229 186.827Z" fill="#E4D0FF"/>
<path d="M168.33 107.988H231.173C232.315 107.988 233.077 108.94 233.077 109.892V156.738H238.028L257.643 109.892C258.214 108.749 258.595 107.988 260.119 107.988H324.485C325.818 107.988 326.199 108.559 325.437 110.273L297.253 177.686L325.437 244.528C326.199 246.242 325.818 246.813 324.485 246.813H259.928C258.405 246.813 258.024 246.051 257.453 244.909L238.409 199.395H233.077V244.909C233.077 246.051 232.315 246.813 231.173 246.813H168.33C167.187 246.813 166.426 246.051 166.426 244.909V109.892C166.426 108.559 167.187 107.988 168.33 107.988Z" fill="#E4D0FF"/>
<path d="M81.9314 299.236L90.7301 263.609C90.8743 263.032 91.4513 262.599 92.0282 262.599H139.627C140.781 262.599 141.358 263.32 140.925 264.474L105.442 366.885C105.298 367.462 104.721 367.75 104.144 367.75H58.7089C57.9877 367.75 57.4107 367.462 57.2665 366.885L22.072 264.474C21.6393 263.32 22.2162 262.599 23.3701 262.599H70.825C71.4019 262.599 71.9789 263.032 72.1231 263.609L80.7775 299.236C80.9218 299.813 81.066 300.102 81.3545 300.102C81.643 300.102 81.7872 299.813 81.9314 299.236Z" fill="#E4D0FF"/>
<path d="M188.295 262.599C217.575 262.599 241.231 285.966 241.231 315.247C241.231 344.527 217.575 367.75 188.295 367.75C159.014 367.75 135.359 344.527 135.359 315.247C135.359 285.966 159.014 262.599 188.295 262.599ZM188.295 320.295C191.035 320.295 193.343 318.132 193.343 315.247C193.343 312.506 191.035 310.198 188.295 310.198C185.554 310.198 183.246 312.506 183.246 315.247C183.246 318.132 185.554 320.295 188.295 320.295Z" fill="#E4D0FF"/>
<path d="M245.58 262.599H347.702C348.423 262.599 349 263.176 349 263.897V314.526C349 315.247 348.423 315.824 347.702 315.824H321.45V366.452C321.45 367.173 320.729 367.75 320.008 367.75H273.13C272.409 367.75 271.832 367.173 271.832 366.452V315.824H245.58C244.859 315.824 244.282 315.247 244.282 314.526V263.897C244.282 263.176 244.859 262.599 245.58 262.599Z" fill="#E4D0FF"/>
<path d="M378.622 313.66C364.343 313.66 352.659 302.121 352.659 287.841C352.659 273.562 364.343 262.599 378.622 262.599C393.046 262.599 404.585 273.562 404.585 287.841C404.585 302.121 393.046 313.66 378.622 313.66ZM354.823 316.689H402.422C403.143 316.689 403.864 317.41 403.864 318.132V366.308C403.864 367.173 403.143 367.75 402.422 367.75H354.823C354.102 367.75 353.38 367.173 353.38 366.308V318.132C353.38 317.41 354.102 316.689 354.823 316.689Z" fill="#E4D0FF"/>
<path d="M459.962 314.814V366.452C459.962 367.173 459.241 367.75 458.52 367.75H411.642C410.921 367.75 410.344 367.173 410.344 366.452V264.042C410.344 263.176 410.921 262.599 411.642 262.599H458.808C459.674 262.599 460.251 263.032 460.395 263.897L466.886 314.381C466.886 314.67 467.174 314.67 467.174 314.381V264.042C467.174 263.176 467.751 262.599 468.472 262.599H515.35C516.071 262.599 516.793 263.176 516.793 264.042V366.452C516.793 367.173 516.071 367.75 515.35 367.75H468.04C467.463 367.606 467.03 367.029 466.886 366.452L460.251 314.814C460.251 314.526 459.962 314.526 459.962 314.814Z" fill="#E4D0FF"/>
<path d="M581.175 317.555H626.899C627.62 317.555 628.053 318.276 628.053 318.997V348.278C628.053 348.999 627.476 349.72 626.755 349.72H615.216C605.552 361.115 590.984 367.75 575.117 367.75C545.837 367.75 521.893 344.383 521.893 315.103C521.893 285.966 545.837 262.599 575.117 262.599C602.523 262.599 625.745 283.37 627.909 311.064C628.053 312.362 627.765 312.795 626.467 312.795H581.175C580.743 312.795 580.31 312.506 580.021 312.073C578.723 310.198 577.137 309.333 575.117 309.333C571.8 309.333 569.203 311.929 569.203 315.103C569.203 318.42 571.8 321.016 575.117 321.016C577.137 321.016 578.867 320.007 580.021 318.132C580.31 317.699 580.743 317.555 581.175 317.555Z" fill="#E4D0FF"/>
<rect x="210" y="378.958" width="78" height="6.7915" fill="#E6E1E8"/>
<rect x="367.506" y="378.958" width="52.4944" height="6.7915" fill="#E6E1E8"/>
<rect x="516" y="378.958" width="61.6019" height="6.7915" fill="#E6E1E8"/>
<path d="M543.193 238.375H536.093V231.276H543.193V238.375ZM585.79 238.375H578.691V231.276H585.79V238.375ZM543.193 231.275H536.093V224.177H543.193V231.275ZM578.691 231.275H571.591V224.177H578.691V231.275ZM536.093 224.176H528.994V217.077H536.093V224.176ZM578.691 224.176H571.591V217.077H578.691V224.176ZM528.994 217.077H521.894V209.977H528.994V217.077ZM585.79 217.077H578.691V209.977H585.79V217.077ZM607.088 217.077H599.99V209.977H607.088V217.077Z" fill="#181425"/>
<path d="M550.292 252.574H536.093V245.474H550.292V252.574ZM571.591 252.574H564.492V245.474H571.591V252.574ZM528.994 238.376H536.093V245.474H521.894V238.375H528.994V238.376ZM521.894 238.375H507.131V231.275H521.894V238.375Z" fill="white"/>
<path d="M564.492 252.574H550.292V245.474H564.492V252.574ZM614.188 252.574H607.088V245.474H614.188V252.574ZM607.088 209.977H599.99V217.077H585.79V209.977H578.691V217.077H571.591V202.878H607.088V209.977Z" fill="#E4A672"/>
<path d="M550.292 259.674H536.093V252.574H550.292V259.674ZM571.591 259.674H564.492V252.574H571.591V259.674ZM528.994 245.475H536.093V252.574H521.894V245.474H528.994V245.475ZM521.894 245.474H507.131V238.375H521.894V245.474Z" fill="#C0CBDC"/>
<path d="M564.492 259.674H550.292V252.574H564.492V259.674ZM614.188 259.674H607.088V252.574H614.188V259.674Z" fill="#B76F52"/>
<path d="M614.188 273.873H607.088V266.773H614.188V273.873ZM607.088 266.773H571.591V245.474H607.088V266.773ZM599.99 181.579H607.088V188.678H614.188V195.778H585.79V188.678H571.591V181.579H557.392V174.479H599.99V181.579Z" fill="#B65088"/>
<path d="M592.89 280.972H585.79V273.873H592.89V280.972ZM585.79 273.873H578.691V266.773H585.79V273.873ZM550.292 245.474H543.193V238.375H550.292V245.474ZM607.088 238.375H585.79V231.276H607.088V238.375ZM607.088 231.275H578.691V224.177H607.088V231.275ZM543.193 224.176H536.093V217.077H543.193V224.176ZM607.088 224.176H578.691V217.077H607.088V224.176ZM536.093 217.077H528.994V209.977H536.093V217.077ZM528.994 209.977H521.894V202.878H528.994V209.977Z" fill="#282C45"/>
<path d="M599.99 280.972H592.89V273.873H599.99V280.972ZM592.89 273.873H585.79V266.773H592.89V273.873ZM550.292 238.375H543.193V231.275H550.292V238.375Z" fill="#3B4567"/>
<path d="M550.292 288.072H543.193V266.773H550.292V259.674H571.591V266.773H564.492V273.873H557.392V280.972H550.292V288.072ZM607.088 273.873H592.89V266.773H607.088V273.873ZM578.691 238.375H607.088V245.474H550.292V231.276H578.691V238.375ZM571.591 231.275H543.193V224.177H571.591V231.275ZM614.188 231.275H607.088V224.177H614.188V231.275ZM571.591 188.678H585.79V195.778H614.188V224.176H607.088V202.878H571.591V224.176H543.193V195.778H550.292V181.579H571.591V188.678Z" fill="#6A396D"/>
<rect x="329.817" y="168.035" width="13.7504" height="6.7915" fill="#3D4564"/>
<rect x="320.275" y="158.683" width="16.4173" height="6.7915" fill="#C2CBDA"/>
<path d="M436.034 167.497V174.479H422.068V167.497H436.034ZM443.017 167.497H436.034V160.513H443.017V167.497ZM415.086 146.548H408.103V139.566H415.086V146.548ZM436.034 146.548H422.068V139.566H436.034V146.548ZM443.017 139.565H408.103V132.583H443.017V139.565Z" fill="#E4A672"/>
<path d="M436.034 174.479V181.463H422.068V174.479H436.034ZM443.017 174.479H436.034V167.497H443.017V174.479Z" fill="#B76F51"/>
<path d="M373.189 181.463V188.445H338.275V181.463H373.189ZM401.12 181.463H373.189V174.479H401.12V181.463ZM415.086 174.479H401.12V167.497H415.086V174.479Z" fill="white"/>
<path d="M436.034 181.462V188.445H422.068V181.462H436.034Z" fill="#3B4567"/>
<path d="M422.068 188.445H408.103V181.463H422.068V188.445ZM443.017 188.445H436.034V174.479H443.017V188.445ZM422.068 174.479H415.086V167.497H422.068V174.479ZM450 174.479H443.017V160.513H450V174.479ZM443.017 160.513H415.086V153.531H408.103V146.548H443.017V160.513ZM443.017 132.583H408.103V118.618H443.017V132.583ZM436.034 118.617H415.086V111.634H436.034V118.617Z" fill="#262B44"/>
<path d="M373.189 188.445V195.427H338.275V188.445H373.189ZM401.12 188.445H373.189V181.463H401.12V188.445ZM415.086 181.463H401.12V174.479H415.086V181.463Z" fill="#C0CBDC"/>
<path d="M408.103 188.445V195.427H387.154V188.445H408.103Z" fill="#9E2835"/>
<path d="M429.052 209.393H422.068V195.427H408.103V188.445H443.017V195.427H429.052V209.393Z" fill="#E43D45"/>
<path d="M387.154 216.376H380.172V195.427H401.12V202.411H394.138V209.393H387.154V216.376ZM443.017 202.411H429.052V195.427H443.017V202.411ZM408.103 188.445H401.12V181.463H408.103V188.445ZM422.068 181.463H415.086V174.479H422.068V181.463ZM408.103 153.531H415.086V160.513H436.034V167.497H401.12V174.479H387.154V139.566H408.103V153.531ZM422.068 146.548H415.086V139.566H422.068V146.548ZM443.017 146.548H436.034V139.566H443.017V146.548ZM408.103 139.565H387.154V118.618H408.103V139.565ZM415.086 118.617H394.138V111.634H415.086V118.617Z" fill="#181626"/>
<path d="M263.432 258.529H256.074V251.17H263.432V258.529ZM270.79 251.17H263.432V236.456H270.79V251.17ZM270.79 236.455H263.432V221.739H270.79V236.455ZM278.147 221.739H270.79V177.591H278.147V221.739Z" fill="#C0CBDC"/>
<path d="M270.79 258.529H263.432V251.17H270.79V258.529ZM278.147 251.17H270.79V236.456H278.147V251.17ZM278.147 236.455H270.79V221.739H278.147V236.455ZM285.506 221.739H278.147V177.591H285.506V221.739Z" fill="white"/>
<path d="M256.074 295.318H248.716V280.603H256.074V295.318ZM263.432 280.602H256.074V265.886H263.432V280.602Z" fill="#B76F51"/>
<path d="M263.432 295.318H256.074V280.603H263.432V295.318ZM270.79 280.602H263.432V265.886H270.79V280.602ZM285.506 251.17H278.147V243.813H285.506V251.17Z" fill="#E4A672"/>
<path d="M300.222 302.676H292.863V295.319H300.222V302.676ZM292.863 295.318H263.432V280.603H292.863V295.318ZM292.863 280.602H270.79V273.245H292.863V280.602ZM292.863 265.886H270.79V251.17H292.863V265.886ZM263.432 251.17H256.074V243.813H263.432V251.17ZM292.863 243.813H278.147V236.456H292.863V243.813ZM292.863 236.455H278.147V221.739H292.863V236.455Z" fill="#3A4466"/>
<path d="M285.506 310.035H278.147V302.676H263.432V295.319H292.863V302.676H285.506V310.035ZM256.074 302.676H241.357V295.319H256.074V302.676ZM263.432 265.886H256.074V258.529H263.432V265.886ZM292.863 251.17H285.506V243.813H292.863V251.17ZM292.863 221.739H285.506V214.381H292.863V221.739Z" fill="#181425"/>
<path d="M241.357 324.75H234V302.676H241.357V324.75ZM256.074 310.035H248.716V317.392H241.358V302.676H256.074V310.035ZM263.432 302.676H256.074V295.319H263.432V302.676ZM248.716 295.318H241.358V280.603H248.716V295.318ZM263.432 243.813H256.074V280.602H241.358V236.456H263.432V243.813ZM292.863 273.245H270.79V265.886H292.863V273.245ZM270.79 265.886H263.432V258.529H270.79V265.886ZM270.79 221.739H263.432V236.455H241.358V221.739H248.716V214.381H270.79V221.739Z" fill="#272C45"/>
</svg>
