<svg fill="none" height="70" viewBox="0 0 298 70" width="298" xmlns="http://www.w3.org/2000/svg"><path d="m292.999 60.1066.001 5.2544-288.1167.0044v-4.727l.0002-55.62563h288.1165z" fill="#f9feff"/><g fill="#026262"><path d="m10.2256.591431h277.432v4.42123h-277.432z"/><path d="m.461914 60.0875h49.7326v4.42123h-49.7326z" transform="matrix(0 -1 1 0 -59.625586 60.549414)"/><path d="m293 60.0875h49.7326v4.42123h-49.7326z" transform="matrix(0 -1 1 0 232.9125 353.0875)"/><path d="m10.2256 65.2572h277.432v4.42123h-277.432z"/><path d="m4.8833 5.0127h5.34232v5.34232h-5.34232z"/><path d="m4.8833 59.9147h5.34232v5.34232h-5.34232z"/><path d="m287.657 5.0127h5.34232v5.34232h-5.34232z"/><path d="m287.657 59.9147h5.34232v5.34232h-5.34232z"/></g></svg>