<svg fill="none" height="225" viewBox="0 0 332 225" width="332" xmlns="http://www.w3.org/2000/svg"><path d="m231.631 28.0349v-4.5814-4.5815h-9.163v-7.8413h-13.127v4.229h-3.965v-8.81045h-3.965v-5.903016h-13.127v7.841316h-3.965v6.87215 1.9383 6.1673h-18.238v4.5815h-7.841v-4.5815h-13.744v5.2863h2.643v3.9647h88.809v-4.5814z" fill="#d9f8ff"/><path d="m213.394 32.3522v-4.3171h4.581v-4.4933-4.5815h-9.163v4.5815h-4.581v3.8766.6167 4.3171h-22.819v-4.3171h4.581v-4.4933h4.581v-4.5815h-4.581v-4.1409-4.7576h6.52v-4.66959-4.75765h-4.582v4.75765h-4.581v4.66959h-5.286v4.7576h-3.26v4.1409h-7.225v4.5815h9.163v3.8766h-4.581v4.9338h-18.238v-4.9338h-4.581v-3.8766h-4.582v3.8766h-4.581v4.9338h-4.582v4.8458h100.616v-4.8458z" fill="#2fbabb"/><path d="m163.086 23.5416h4.581v4.5814h-4.581z" fill="#2fbabb"/><path d="m206.675 132.831h41.057v5.022h-41.057z" fill="#d9f8ff"/><path d="m228.701 127.809v-4.053h-4.053v-4.053h-5.022v-5.022h-10.044v5.022h-5.991v10.044h3.084v2.996h37.092v-5.022h-15.066z" fill="#d9f8ff"/><path d="m215.662 132.303v-4.494h-8.987v-4.053h4.053v-8.986h-5.11v5.022h-4.053v8.017 2.027 2.995h4.053v5.11h42.114v-5.55h-32.07z" fill="#2fbabb"/><path d="m327.218 148.152v-5.198h-10.22v5.198.97 5.11h14.361v-6.08z" fill="#d9f8ff"/><path d="m316.998 148.152h-5.198v5.111.969 4.141h19.647v-5.11h-14.361z" fill="#2fbabb"/><path d="m115.126 214.631v-4.053h-4.67v-3.965h-4.493v-4.669h-8.6346v-13.216h-8.6343v-4.669h-4.5814v-4.494h-6.6079v4.494h-.7048v4.669h-9.7796v17.885h-13.9206v-9.955h-12.4227v9.955h-9.251v-8.634h-4.6696v-4.669h-4.6695v-4.67h-9.1629v4.67 4.669h-6.51976v8.634h-2.02641v4.67h.70484v3.436.441 4.669h118.67723v-5.11z" fill="#d9f8ff"/><g fill="#2fbabb"><path d="m106.579 219.477v-4.934h-4.669v4.934h-9.2513v-4.934h-3.9647v-2.731h-4.5815v-4.846h4.6696v-5.022h-4.6696v5.022h-4.6695v4.934 2.731 1.586 3.348h-30.9248v-4.405h-3.9647v-4.494h-3.8766v-4.141h3.8766v-4.934h3.9647v-4.845h-8.458v4.845h-3.9647v4.406.44 4.141 4.493h3.9647v4.406h-21.85v-4.406h-4.6695v-4.493h-4.66956v-4.317-4.758-2.907h3.96466v-5.198h-7.75317v4.757h-4.669544v3.436 4.758 4.317.441 4.053h4.669544v4.669 4.67h123.25837v-4.846h-21.762z"/><path d="m74.8616 179.565v4.494h-7.8414v4.669h-4.6695v4.846 4.405h-4.6695v4.67 4.669h4.6695v4.67h4.6695v-4.67-4.757-4.229h4.6696v-4.846h3.1718v-4.229h4.6695v-4.405-.793-4.494z"/></g></svg>