<svg fill="none" height="280" viewBox="0 0 445 280" width="445" xmlns="http://www.w3.org/2000/svg"><path d="m314.89 270.3v-4.644-4.644h-9.287v-7.948h-13.306v4.287h-4.019v-8.931h-4.019v-5.983h-13.306v7.948h-4.019v6.966 1.964 6.251h-18.396v4.644h-7.948v-4.644h-13.931v5.359h2.679v4.018h90.018v-4.643z" fill="#d9f8ff"/><path d="m296.405 274.586v-4.376h4.643v-4.554-4.644h-9.287v4.644h-4.644v3.929.625 4.376h-23.129v-4.376h4.643v-4.554h4.644v-4.644h-4.644v-4.197-4.823h6.609v-4.733-4.822h-4.644v4.822h-4.644v4.733h-5.358v4.823h-3.304v4.197h-7.323v4.644h9.287v3.929h-4.643v5.001h-18.486v-5.001h-4.644v-3.929h-4.644v3.929h-4.643v5.001h-4.644v4.912h101.984v-4.912z" fill="#2fbabb"/><path d="m245.412 265.745h4.644v4.644h-4.644z" fill="#2fbabb"/><path d="m109.615 204.799h41.616v5.09h-41.616z" fill="#d9f8ff"/><path d="m131.941 199.709v-4.108h-4.108v-4.108h-5.09v-4.912h-10.181v5.09h-6.072v10.092h3.125v3.036h37.597v-5.09z" fill="#d9f8ff"/><path d="m118.724 204.353v-4.555h-9.109v-4.108h4.108v-9.109h-5.179v5.09h-4.108v8.127 2.054 3.036h4.108v5.18h42.686v-5.626h-32.506z" fill="#2fbabb"/><path d="m136.579 39.7008h-41.6151v-5.0903h41.6151z" fill="#d9f8ff"/><path d="m99.0718 29.6095v5.0903h37.5962v-3.0363h3.126v-10.1806h-6.073v-5.0903h-10.18v5.0903h-5.09v4.108h-4.108v4.1079h-15.2712z" fill="#d9f8ff"/><path d="m94.9639 34.164v5.6261h42.6871v-5.1796h4.108v-3.0363-2.054-8.1266h-4.108v-5.0903h-5.18v9.109h4.108v4.1079h-9.109v4.5545h-32.5061z" fill="#2fbabb"/><path d="m15.7971 5.94416v-5.26889h-10.35911v5.26889.98234 5.1796h14.55641v-6.16194z" fill="#d9f8ff"/><path d="m5.43786 5.94417h-5.268915v5.17963.9823 4.1972h19.914655v-5.1795h-14.55646v-5.17963z" fill="#2fbabb"/><path d="m323.999 115.82v5.001h115.916v-4.555-.446-3.304h.625v-4.555h-1.965v-8.3944h-6.34v-4.5544-4.5545h-9.02v4.5545h-4.554v4.5544h-4.555v8.3944h-8.93v-9.7339h-12.145v9.7339h-13.575v-17.414h-9.555v-4.5545h-.625v-4.4651h-6.43v4.4651h-4.554v4.5545h-8.395v12.86h-8.395v4.554h-4.465v3.84h-4.554v3.93h-8.484z" fill="#d9f8ff"/><g fill="#2fbabb"><path d="m319.534 120.642v4.733h120.47v-4.554-4.555h4.555v-3.929-.447-4.286-4.644-3.3041h-4.555v-4.6437h-7.68v5.0898h3.84v2.858 4.644 4.286h-4.554v4.466h-4.555v4.376h-21.343v-4.376h3.84v-4.466-4.018-.447-4.376h-3.84v-4.7326h-8.305v4.7326h3.84v4.823h3.751v4.018h-3.751v4.466h-3.84v4.376h-30.274v-3.215-1.608-2.679-4.822h-4.555v-5.001h-4.554v4.911h4.554v4.823h-4.554v2.679h-3.84v4.822h-9.02v-4.822h-4.554v4.822z"/><path d="m367.222 81.5274v4.4651.7145 4.3758h4.555v4.1973h3.125v4.7329h4.555v4.197 4.555 4.554h4.554v-4.554h4.555v-4.555-4.5541h-4.555v-4.3758-4.7331h-4.554v-4.5545h-7.68v-4.4651z"/></g></svg>