<svg fill="none" height="19" viewBox="0 0 1513 19" width="1513" xmlns="http://www.w3.org/2000/svg"><g fill="#d0f4fc"><path d="m.979003 8.04025h.035157v-2.52832h2.16504v-2.4961h7.8613v-2.602537h5.2578v2.602537h2.6036v2.4961h2.6552v-2.4961h7.8614v2.49609h2.6025v-5.098628l2.6025-.000001v2.602539h2.6563v2.49609h2.6025v-2.49609h2.6026v-2.602539l5.2588-.000001v2.60254h2.6025v-2.60254h2.6562v2.60254h2.6026v2.49609h5.2578v-2.49609h2.6035v2.49609h2.6025v-2.49609h5.2588v2.49609h2.6026v-2.49609h2.6552v2.5498h5.2588v-2.5498h5.2051v2.5498h5.2588v-2.5498l5.2588-.00001v2.54981h7.8611v-2.39063h7.862v-2.761716h5.205v2.761716h2.655v2.39063h2.603v-2.39063h7.861v2.39063h2.603v-5.152347l2.656-.000001v2.761718h2.602v2.39063h2.604v-2.39063h2.655v-2.761718l5.205-.000001v2.761719h2.656v-2.761719h2.603v2.761719h2.656v2.39062h5.205v-2.39062h2.603v2.39062h2.656v-2.39062h5.205v2.39062h2.656v-2.39062h2.603v2.39062h5.258v-2.39062h5.258v2.39062h5.206v-2.39062h5.258v2.39062h7.862v-2.39063h7.861v-2.761715h5.259v2.761715h2.602v2.39063h2.603v-2.39063h7.861v2.39063h2.655v-5.152346l2.604-.000001v2.761717h2.602v2.39063h2.656v-2.39063h2.603v-2.761717l5.258-.000001v2.761718h2.603v-2.761718h2.656v2.761718h2.602v2.39063l5.259-.00001v-2.39062h2.603v2.39062h2.602v-2.39062h5.259v2.39062h2.603v-2.5498h2.656v2.5498h5.205v-2.5498h5.259v2.5498h5.257v-2.5498h5.206v2.5498h7.862v-2.5498h7.861v-2.602543l5.258-.000001v2.602544l2.603-.00001v2.54981h2.656v-2.54981h7.861v2.54981h2.603v-5.152345l2.656-.000001v2.602536h2.602v2.54981h2.603v-2.54981h2.655v-2.602536l5.206-.000001v2.602537h2.656v-2.602537h2.602v2.602537h2.604v2.54981h5.257v-2.54981h2.604v2.54981h2.655v-2.54981h5.205v2.54981l2.657-.00001v-2.5498h2.602v2.5498h5.259v-2.5498h5.205v2.5498h5.259v-2.5498h5.259v2.5498h7.861v-2.5498h7.86v-2.602542l5.206-.000001v2.602543h2.656v2.5498h2.602v-2.5498h7.861v2.5498h2.657v-5.152344h2.602v2.602534h2.603v2.54981h2.656v-2.54981h2.603v-2.602535l5.258-.000001v2.602536h2.603v-2.602536h2.602v2.602536h2.657v2.54981h5.205v-2.54981h2.655v2.54981h2.603v-2.54981h5.258v2.54981h2.073v-.05372h1.646v-2.49609h5.258v2.49609h5.259v-2.49609h5.205v2.49609h7.915v-2.49609h7.861v-2.602541h5.205v2.602541h2.655v2.49609h2.604v-2.49609h7.861v2.49609h2.603v-5.098633h2.655v2.602543h2.603v2.49609h2.603v-2.49609h2.655v-2.602544h5.206v2.602544l2.656-.00001v-2.602534h2.602v2.602534h2.603v2.4961h5.259v-2.4961h2.602v2.4961h2.656v-2.4961h5.206v2.4961h2.656v-2.4961h2.602v2.54981h5.259v-2.54981h5.205v2.54981h5.259v-2.54981h5.258v2.54981l7.861-.00001v-2.39062h7.861v-2.76172h5.259v2.76172h2.603v2.39062h2.602v-2.39062h7.862v2.39062h2.656v-5.152342h2.602v2.761722h2.603v2.39062h2.655v-2.39062h2.604v-2.761722l5.258-.000001v2.761723h2.602v-2.761723h2.604v2.761723h2.655v2.39062h5.206v-2.5498l2.655-.00001v2.54981h2.603v-2.54981h5.259v2.54981h2.602v-2.54981h2.656v2.54981h5.205v-2.54981h5.259v2.54981h5.258v-2.54981h5.206v2.54981h7.861v-2.33692h7.862v-2.815429h5.258v2.815429h2.602v2.33691h2.656v-2.33691h7.862v2.33691h2.602v-5.15234l2.603-.000001v2.815431h2.656v2.33691h2.603v-2.33691h2.602v-2.815431l5.259-.000001v2.815432h2.602v-2.815432h2.657v2.815432h2.602v2.33691h5.258v-2.33691h2.603v2.33691h2.656v-2.33691h5.205v2.33691h2.656v-2.54981h2.603v2.54981h5.258v-2.54981h5.205v2.54981h5.259v-2.54981h5.259v2.54981h7.861v-2.54981h7.861v-2.602538h5.206v2.602538h2.655v2.54981h2.603v-2.54981h7.861v2.5498h2.603v-5.152339l2.656-.000001v2.60254h2.602v2.5498h2.603v-2.5498h2.656v-2.60254l5.205-.000001v2.602541h2.656v-2.602541h2.603v2.602541h2.656v2.5498h5.205v-2.5498h2.656v2.5498h2.603v-2.5498h5.258v2.5498h2.603v-2.5498h2.603v2.5498h5.258v-2.5498l5.259-.00001v2.54981h5.205v-2.54981h5.258v2.54981h7.862v-2.54981h7.861v-2.602536l5.259-.000001v2.602537h2.602v2.54981h2.603v-2.54981h7.861v2.54981h2.656v-5.152348l2.603-.000001v2.602539h2.603v2.5498h2.655v-2.5498h2.602v-2.602539l5.259-.000001v2.60254h2.603v-2.60254h2.656v2.60254h2.602v2.5498h5.259v-2.5498h2.603v2.5498h10.464v12.90725l-986.179996.0001z"/><path d="m988.616 3.0155h2.602v2.4961h2.657v-2.4961h7.865v2.4961h2.6v-5.098636h2.6v2.602536h2.66v2.4961h2.6v-2.4961h2.6v-2.602536h5.26v2.602536h2.6v-2.602536h2.66v2.602536h2.6v2.4961h5.26v-2.4961h2.6v2.4961h2.61v-2.4961h5.26v2.4961h2.6v-2.4961h2.65v2.54981h5.26v-2.54981h5.21v2.54981h5.26v-2.54981h5.25v2.54981h7.87v-2.39063h7.86v-2.761716h5.2v2.761716h2.66v2.39063h2.6v-2.39063h7.86v2.39063h2.6v-5.152346h2.66v2.761716h2.6v2.39063h2.61v-2.39063h2.65v-2.761716h5.21v2.761716h2.65v-2.761716h2.61v2.761716h2.65v2.39063h5.21v-2.39063h2.6v2.39063h2.66v-2.39063h5.2v2.39063h2.66v-2.39063h2.6v2.39063h5.26v-2.39063h5.26v2.39063h5.2v-2.39063h5.26v2.39063h7.86v-2.39063h7.86v-2.761716h5.26v2.761716h2.6v2.39063h2.61v-2.39063h7.86v2.39063h2.65v-5.152346h2.61v2.761716h2.6v2.39063h2.65v-2.39063h2.61v-2.761716h5.26v2.761716h2.6v-2.761716h2.65v2.761716h2.61v2.39063h5.26v-2.39063h2.6v2.39063h2.6v-2.39063h5.26v2.39063h2.6v-2.54981h2.66v2.54981h5.2v-2.54981h5.26v2.54981h5.26v-2.54981h5.21v2.54981h7.86v-2.54981h7.86v-2.602536h5.26v2.602536h2.6v2.54981h2.66v-2.54981h7.86v2.54981h2.6v-5.152346h2.66v2.602536h2.6v2.54981h2.6v-2.54981h2.66v-2.602536h5.2v2.602536h2.66v-2.602536h2.6v2.602536h2.6v2.54981h5.26v-2.54981h2.6v2.54981h2.66v-2.54981h5.2v2.54981h2.66v-2.54981h2.6v2.54981h5.26v-2.54981h5.21v2.54981h5.26v-2.54981h5.25v2.54981h7.87v-2.54981h7.86v-2.602536h5.2v2.602536h2.66v2.54981h2.6v-2.54981h7.86v2.54981h2.66v-5.152346h2.6v2.602536h2.6v2.54981h2.66v-2.54981h2.6v-2.602536h5.26v2.602536h2.6v-2.602536h2.61v2.602536h2.65v2.54981h5.21v-2.54981h2.65v2.54981h2.61v-2.54981h5.25v2.54981h2.08v-.05371h1.64v-2.4961h5.26v2.4961h5.26v-2.4961h5.2v2.4961h7.92v-2.4961h7.86v-2.602536h5.21v2.602536h2.65v2.4961h2.6v-2.4961h7.87v2.4961h2.6v-5.098636h2.65v2.602536h1.65v15.457h-562.448v-10.35739h-.266v-2.60351h25.231v-2.4961h7.861v-2.602536h5.258z"/></g></svg>