<svg fill="none" height="49" viewBox="0 0 49 49" width="49" xmlns="http://www.w3.org/2000/svg"><g fill="#026262"><path d="m48.8409 32.6259h-2.295v2.295h2.295z"/><path d="m46.5458 21.2108h-9.135v-9.15h2.28v-2.27996h-2.28v-2.295h-25.14v2.295h-2.29498v2.27996h-2.28v2.28h-2.28v2.295h-2.295v2.28h-2.28v6.855h2.28v-2.28h11.42998v4.575h2.28v4.56h2.295v4.575h2.28v4.575h2.295v-18.285h9.135v4.575h-2.28v4.56h-2.295v4.575h-2.28v4.575h-2.28v2.28h-2.295v2.295h2.295v2.28h2.28v-2.28h2.28v-2.295h2.295v-2.28h2.28v-2.28h2.295v-2.295h2.28v-2.28h2.28v-2.295h2.295v-2.28h2.28v-2.28h2.28v-2.295h2.295v-6.855h-2.295zm-13.71 0h-16.005v-2.295h-2.28v-9.13496h9.15v2.27996h2.28v2.28h2.28v2.295h2.295v2.28h2.28z"/><path d="m46.5456 39.4957h-2.28v2.28h2.28z"/><path d="m46.5456 16.6357h-2.28v2.28h2.28z"/><path d="m44.2658 41.7758h-2.28v2.28h2.28z"/><path d="m44.2658 37.2008h-2.28v2.295h2.28z"/><path d="m44.2658 14.3408h-2.28v2.295h2.28z"/><path d="m41.9854 5.20583h-2.295v2.28h2.295v2.295h2.28v-2.295h2.28v-2.28h-2.28v-2.295h-2.28z"/><path d="m41.9854 39.4957h-2.295v2.28h2.295z"/><path d="m41.9854 12.0608h-2.295v2.28h2.295z"/><path d="m37.4109 46.3508h-2.28v2.28h2.28z"/><path d="m37.4109.630798h-2.28v2.280002h2.28z"/><path d="m23.7008 12.0608h-2.295v2.28h2.295z"/><path d="m23.7008 2.91083h-2.295v2.295h2.295z"/><path d="m21.406 41.7758h-2.28v2.28h2.28z"/><path d="m21.406 14.3408h-2.28v2.295h2.28z"/><path d="m19.1256 39.4957h-2.295v2.28h2.295z"/><path d="m19.1256 16.6357h-2.295v2.28h2.295z"/><path d="m16.8308 44.0558h-2.28v2.295h2.28z"/><path d="m16.8308 37.2008h-2.28v2.295h2.28z"/><path d="m14.551 34.9208h-2.28v2.28h2.28z"/><path d="m12.2711 32.6259h-2.29503v2.295h2.29503z"/><path d="m9.9758 30.3458h-2.28v2.28h2.28z"/><path d="m9.9758 5.20581h-2.28v2.28h2.28z"/><path d="m5.41609 37.2008v2.295h-2.295v2.28h2.295v2.28h2.28v-2.28h2.28v-2.28h-2.28v-2.295z"/><path d="m7.69602 28.0658h-2.28v2.28h2.28z"/><path d="m7.69602 7.48584h-2.28v2.295h2.28z"/><path d="m7.69602 2.91083h-2.28v2.295h2.28z"/><path d="m5.41609 25.7708h-2.295v2.295h2.295z"/><path d="m5.41609 5.20581h-2.295v2.28h2.295z"/><path d="m3.12082 32.6259h-2.28v2.295h2.28z"/></g></svg>