<svg fill="none" height="48" viewBox="0 0 49 48" width="49" xmlns="http://www.w3.org/2000/svg"><g fill="#026262"><path d="m48.2185 18.4921h-2.2664v11.2873h2.2664z"/><path d="m43.7006 4.95333v-4.517875h-2.2516v2.251525h-2.2663v2.26635h-2.2515v6.76937h6.7694v-2.2515h2.2515v-2.26635h2.2663v-2.25152z"/><path d="m45.9527 29.7794h-2.2515v4.5178h2.2515z"/><path d="m45.9527 13.9742h-2.2515v4.5179h2.2515z"/><path d="m43.7012 34.2972h-2.2515v4.5179h2.2515z"/><path d="m41.449 38.8152h-2.2664v2.2515h2.2664z"/><path d="m39.1827 41.0667h-4.503v2.2515h4.503z"/><path d="m36.9312 11.7227h-2.2515v2.2515h2.2515z"/><path d="m34.6799 13.9742h-2.2663v2.2664h2.2663z"/><path d="m34.68 43.3183h-4.5179v2.2663h4.5179z"/><path d="m32.4136 20.7585h-2.2515v6.7694h2.2515z"/><path d="m32.4136 16.2406h-2.2515v2.2515h2.2515z"/><path d="m34.68 2.68701h-4.5179v2.26634h4.5179z"/><path d="m30.1618 27.5279h-2.2663v2.2515h2.2663z"/><path d="m30.1618 18.4921h-2.2663v2.2664h2.2663z"/><path d="m30.1618 45.5846h-11.2873v2.2515h11.2873z"/><path d="m27.8956 20.7585h-2.2516v2.2515h2.2516z"/><path d="m27.8959 29.7794h-6.7694v2.2515h6.7694z"/><path d="m25.6451 23.01h-2.2515v2.2515h2.2515z"/><path d="m27.8959 16.2406h-6.7694v2.2515h6.7694z"/><path d="m30.1618.435455h-11.2873v2.251525h11.2873z"/><path d="m21.126 27.5279h-2.2515v2.2515h2.2515z"/><path d="m21.126 18.4921h-2.2515v2.2664h2.2515z"/><path d="m18.8743 43.3183h-4.5179v2.2663h4.5179z"/><path d="m18.8747 20.7585h-2.2663v6.7694h2.2663z"/><path d="m18.8743 2.68701h-4.5179v2.26634h4.5179z"/><path d="m14.3567 41.0667h-4.51783v2.2515h4.51783z"/><path d="m14.3567 4.95337h-4.51783v2.25153h4.51783z"/><path d="m12.1053 18.4922h2.2515v-4.5179h4.5179v-2.2515h13.5388v-2.25153h-2.2516v-2.26634h-11.2872v2.26634h-4.5179v2.25153h-2.2515v2.2515h-2.26637v4.5179h-2.25153v11.2873h2.25153v4.5178h2.26637v2.2516h2.2515v2.2663h4.5179v2.2515h11.2872v-2.2515h4.5179v-2.2663h2.2515v-2.2516h2.2516v-4.5178h2.2663v-11.2873h-2.2663v-2.2515h-2.2516v13.5388h-2.2515v4.5178h-2.2663v2.2516h-13.5388v-2.2516h-4.5179v-4.5178h-2.2515z"/><path d="m9.83893 38.8152h-2.25153v2.2515h2.25153z"/><path d="m9.83893 7.20493h-2.25153v2.26634h2.25153z"/><path d="m7.58747 34.2972h-2.25153v4.5179h2.25153z"/><path d="m7.58747 9.47125h-2.25153v4.50305h2.25153z"/><path d="m5.33617 29.7794h-2.26635v4.5178h2.26635z"/><path d="m5.33617 13.9742h-2.26635v4.5179h2.26635z"/><path d="m3.06989 18.4921h-2.251531v11.2873h2.251531z"/></g></svg>