<svg fill="none" height="46" viewBox="0 0 38 46" width="38" xmlns="http://www.w3.org/2000/svg"><g fill="#026262"><path d="m37.332 8.85388h-2.1704v17.40592h2.1704z"/><path d="m35.1612 26.2598h-2.1846v2.1704h2.1846z"/><path d="m35.1612 6.66922h-2.1846v2.18466h2.1846z"/><path d="m32.9765 28.4302h-2.1703v2.1704h2.1703z"/><path d="m32.9765 4.49884h-2.1703v2.17038h2.1703z"/><path d="m30.8062 30.6006h-2.1846v2.1846h2.1846z"/><path d="m30.8062 2.31418h-2.1846v2.18466h2.1846z"/><path d="m22.0963 32.7852v-8.7101h-2.1704v8.7101h-2.1704v-8.7101h-2.1847v8.7101h-6.52539v2.1704h2.17039v8.7101h2.1847v-2.1847h10.8804v2.1847h2.1704v-8.7101h2.1704v-2.1704zm2.1846 4.3408h-10.8804v-2.1704h10.8804z"/><path d="m26.4511 15.3793h-2.1703v4.3408h2.1703z"/><path d="m24.2809 19.7201h-2.1847v4.355h2.1847z"/><path d="m24.2809 43.6656h-10.8805v2.1704h10.8805z"/><path d="m15.5708 19.7201h-2.1704v4.355h2.1704z"/><path d="m13.4005 15.3793h-2.1847v4.3408h2.1847z"/><path d="m28.6217.143799h-19.57629v2.170381h19.57629z"/><path d="m9.04538 30.6006h-2.17038v2.1846h2.17038z"/><path d="m9.04538 2.31418h-2.17038v2.18466h2.17038z"/><path d="m6.87509 28.4302h-2.18466v2.1704h2.18466z"/><path d="m6.87509 4.49884h-2.18466v2.17038h2.18466z"/><path d="m4.6904 26.2598h-2.17038v2.1704h2.17038z"/><path d="m4.6904 6.66922h-2.17038v2.18466h2.17038z"/><path d="m2.51999 8.85388h-2.170381v17.40592h2.170381z"/></g></svg>