<svg fill="none" height="48" viewBox="0 0 48 48" width="48" xmlns="http://www.w3.org/2000/svg"><g fill="#026262"><path d="m45.3525 7.20488h-2.2515v-2.25152h-2.2663v-2.26635h-2.2516v-2.251524h-33.86178v9.035744h2.26634v2.25157h2.25153v-2.25157h27.09241v2.25157h2.2515v22.5745h-2.2515v2.2515h-2.2663v2.2515h-29.34398v-2.2515h-2.25153v2.2515h-2.251528v9.0358h2.251528v-6.7694h29.34391v6.7694h15.8052v-38.36487h-2.2664zm-36.11331 0h-2.25153v-4.51787h2.25153zm4.51791 0h-2.2664v-4.51787h2.2664zm20.3082 0h-18.0567v-4.51787h18.0567zm11.2872 15.80512h-2.2515v-11.2872h-2.2663v-2.25157h-2.2516v-2.26635h-2.2515v-2.25152h2.2515v2.25152h2.2516v2.26635h2.2663v2.25157h2.2515z"/><path d="m31.8137 23.0099h-2.2663v2.2516h2.2663z"/><path d="m31.8138 34.2972h-6.7694v2.2516h6.7694z"/><path d="m29.5474 18.4922h-2.2515v2.2515h2.2515z"/><path d="m29.5472 47.8362v-4.5179h-6.7694v4.5179h2.2664v-2.2516h2.2515v2.2516z"/><path d="m29.5473 25.2616h-9.0209v2.2663h9.0209z"/><path d="m22.7779 18.4922h-2.2515v2.2515h2.2515z"/><path d="m20.5269 23.0099h-2.2515v2.2516h2.2515z"/><path d="m18.2751 34.2972h-2.2663v2.2516h2.2663z"/><path d="m36.3314 32.0309v-18.0567h-22.5746v18.0567zm-20.323-15.7903h18.0566v13.5388h-18.0566z"/><path d="m13.7571 34.2972h-2.2664v2.2516h2.2664z"/><path d="m11.4908 11.7227h-2.25154v20.3082h2.25154z"/><path d="m9.23932 32.0309h-2.25153v2.2663h2.25153z"/><path d="m6.98753 34.2972h-2.26634v2.2516h2.26634z"/></g></svg>