<svg fill="none" height="400" viewBox="0 0 650 400" width="650" xmlns="http://www.w3.org/2000/svg"><path d="m122.58 149.252c0 4.628 2.828 6.942 7.456 6.942 3.856 0 6.941-2.828 6.941-6.17 0-4.628-3.856-7.456-9.769-7.456-57.3315-.257-97.1804-18.768-97.1804-58.3594 0-36.2496 47.3045-61.9586 97.9514-61.9586 50.389 0 95.123 20.5672 95.123 59.1307 0 1.5425-1.285 2.8279-3.085 2.8279h-82.526c-2.057 0-3.599-1.2854-3.599-3.5992 0-3.5993-3.342-5.9131-7.199-5.9131-4.113 0-7.455 2.828-7.455 6.1702 0 1.7996.514 6.4272 7.198 6.4272 64.53 0 98.466 23.3953 98.466 62.7303 0 36.763-33.936 59.644-98.209 59.644-50.9034 0-95.38-21.081-95.38-60.416 0-1.542 1.2855-2.828 3.0851-2.828h85.0969c1.799 0 3.085 1.286 3.085 2.828z" fill="#8cd9da"/><path d="m379.571 142.825 43.705 62.987c.515.771.515 1.8 0 2.571-.514.771-1.285 1.285-2.313 1.285h-85.097c-.771 0-1.543-.257-2.057-1.028l-15.168-21.338v19.796c0 1.542-1.028 2.57-2.571 2.57h-75.841c-1.543 0-2.571-1.028-2.571-2.57v-182.2771c0-1.5425 1.028-2.5709 2.571-2.5709h112.862c37.278 0 64.272 25.4519 64.272 62.7299 0 24.9381-15.168 48.0761-37.792 57.8451zm-60.159-65.8149v15.9396h4.371c4.627 0 8.484-3.5993 8.484-7.9698s-3.857-7.9698-8.484-7.9698z" fill="#8cd9da"/><path d="m438.981 22.25h178.42c1.543 0 2.571.7713 2.571 2.5709v51.1609c0 1.7996-1.028 2.5709-2.571 2.5709h-94.609v9.2552h60.931c1.542 0 2.313.7713 2.313 2.5709v51.4182c0 1.799-.771 2.571-2.313 2.571h-60.931v9.255h94.609c1.543 0 2.571.771 2.571 2.314v51.161c0 1.799-1.028 2.57-2.571 2.57h-178.42c-1.542 0-2.571-1.028-2.571-2.313v-182.5341c0-1.2855 1.029-2.5709 2.571-2.5709z" fill="#8cd9da"/><path d="m221.848 134.064h19.087v10.52c-1.804 0-2.705 0-4.208 0 0-2.104 0-6.012 0-6.012-2.706 0-10.671 0-15.029 0 .15-1.503.15-3.005.15-4.508z" fill="#000"/><path d="m206.82 99.4976h4.508v12.1734 11.873c-1.352 0-2.855 0-4.508 0 0-8.266 0-16.081 0-24.0464z" fill="#000"/><path d="m165.873 153.601h54.1034v4.82104h-54.1034z" fill="#000" transform="matrix(0 -1 1 0 12.272 319.474)"/><path d="m159.391 114.852h29.4831v8.68481h-29.4831z" fill="#000"/><path d="m236.877 144.584v4.509c-2.254 0-4.208 0-6.011 0 0-1.353 0-2.706 0-4.509z" fill="#000"/><path d="m216.394 143.936v4.856c-2.878 0-5.916 0-9.274 0 0-1.308 0-2.988 0-4.856z" fill="#000"/><path d="m225.044 154.839v4.856c-2.879 0-5.917 0-9.274 0 0-1.308 0-2.989 0-4.856z" fill="#000"/><path d="m231.316 149.093v5.746c-1.946 0-4.001 0-6.272 0 0-1.547 0-3.536 0-5.746z" fill="#000"/><path d="m148.408 361.455h36.3309v13.4559h-36.3309z" fill="#0d0a03"/><path d="m242.599 358.764h37.6765v16.1471h-37.6765z" fill="#0d0a03"/><path d="m160.928 205.943h8.048v21.126h12.072v33.199h-3.018v30.178h-12.072v18.109h-33.198v12.072h-6.036v12.071h-18.107v-12.071h-8.048v-12.072h-13.0785v-18.109h3.0186v-18.107h4.0234v-10.06h-10.0595v-8.048h6.0361v-6.036h8.0478v6.036h1.0059v5.03h1.0062v-32.192h23.137v-21.126h12.073v-9.053h25.149z" fill="#824419"/><path d="m223.299 205.944h6.036v6.035h-6.036v.001h18.108v6.035h12.072v6.036h12.072v6.036h6.036v6.037h12.071v6.036h6.037v6.035h6.036v12.072h6.036v30.18h-6.036v30.179h-6.036v18.108h-9.419v22.722h-17.493v-34.793h-2.691v24.028h-14.802v-24.028h-3.883v6.036h-18.108v6.035h-39.233v25.15h-18.108v-35.21h-1.006v25.151h-15.089v-27.162h-5.031v-12.073h18.108v-18.107h12.072v-15.09h6.036v-87.521h42.251zm-45.269 111.665h3.018v-3.019h-3.018z" fill="#a35a27"/><path d="m181.048 193.872h24.1437v24.1437h-24.1437z" fill="#d09062"/><path d="m202.173 199.908h24.1437v6.03593h-24.1437z" fill="#d09062"/><path d="m205.191 205.943h24.1437v6.03593h-24.1437z" fill="#d09062"/><path d="m223.299 211.98h18.1078v6.03593h-18.1078z" fill="#d09062"/><path d="m241.407 218.016h12.0719v6.03593h-12.0719z" fill="#d09062"/><path d="m253.479 224.052h12.0719v6.03593h-12.0719z" fill="#d09062"/><path d="m265.551 230.087h12.0719v6.03593h-12.0719z" fill="#d09062"/><path d="m286.677 266.303h15.0898v24.1437h-15.0898z" fill="#824418"/><path d="m280.641 282.398h15.0898v26.1557h-15.0898z" fill="#824418"/><path d="m274.605 290.446h15.0898v30.1797h-15.0898z" fill="#824418"/><path d="m253.479 308.554h21.1258v18.1078h-21.1258z" fill="#824418"/><path d="m247.443 296.482h18.1078v12.0719h-18.1078z" fill="#824418"/><path d="m280.641 254.23h21.1258v18.1078h-21.1258z" fill="#824418"/><path d="m199.156 326.662h24.1437v12.0719h-24.1437z" fill="#824418"/><path d="m187.084 320.626h18.1078v12.0719h-18.1078z" fill="#824418"/><path d="m181.048 308.554h14.0838v12.0719h-14.0838z" fill="#824418"/><path d="m160.928 320.626h14.0838v12.0719h-14.0838z" fill="#824418"/><path d="m217.033 321.087h24.2206v12.1103h-24.2206z" fill="#824418"/><path d="m231.834 308.977h30.9486v22.875h-30.9486z" fill="#824418"/><path d="m265.474 314.36h18.8383v24.2206h-18.8383z" fill="#824418"/><path d="m245.29 326.47h16.1471v32.2942h-16.1471z" fill="#824418"/><path d="m147.85 326.662h36.2156v36.2156h-36.2156z" fill="#824418"/><path d="m177.024 227.069v-20.12l-5.533-5.533-7.042 7.545-7.042 14.587 2.515 3.521 4.527 4.527h2.012z" fill="#f5f5f5"/><path d="m133.263 215.5-10.06-5.533h-6.035l-4.527 3.521-6.036-2.515-8.5513-2.012-3.5209 7.545-7.5449 3.018v9.054l7.5449 15.593h14.5872l7.545 5.533 12.574 2.515 7.042-8.048 5.03-3.521v-21.126z" fill="#fff"/><path d="m108.617 193.872h6.03593v18.1078h-6.03593z" fill="#f5f5f5"/><path d="m138.796 305.536h6.03593v7.04192h-6.03593z" fill="#824419"/><path d="m264.128 335.889h16.1471v22.875h-16.1471z" fill="#824418"/><path d="m175.012 193.872h6.03593v30.1797h-6.03593z" fill="#000"/><path d="m168.976 187.836h6.03593v12.0719h-6.03593z" fill="#000"/><path d="m168.976 224.052h6.03593v6.03593h-6.03593z" fill="#000"/><path d="m156.904 211.98h6.03593v6.03593h-6.03593z" fill="#000"/><path d="m144.832 193.872h6.03593v6.03593h-6.03593z" fill="#000"/><path d="m126.725 199.908h6.03593v6.03593h-6.03593z" fill="#000"/><path d="m120.689 199.908h6.03593v6.03593h-6.03593z" fill="#000"/><path d="m114.653 199.908h6.03593v6.03593h-6.03593z" fill="#000"/><path d="m96.5449 205.943h6.03593v6.03593h-6.03593z" fill="#000"/><path d="m90.5089 211.98h6.03593v6.03593h-6.03593z" fill="#000"/><path d="m96.5449 224.052h6.03593v6.03593h-6.03593z" fill="#000"/><path d="m120.689 227.07h6.03593v6.03593h-6.03593z" fill="#000"/><path d="m138.796 218.016h6.03593v24.1437h-6.03593z" fill="#000"/><path d="m90.5089 236.123h6.03593v12.0719h-6.03593z" fill="#000"/><path d="m96.5449 242.159h6.03593v12.0719h-6.03593z" fill="#000"/><path d="m84.4731 248.195h6.03593v6.03593h-6.03593z" fill="#000"/><path d="m84.4731 302.519h12.0719v6.03593h-12.0719z" fill="#000"/><path d="m90.5089 308.555h24.1437v6.03593h-24.1437z" fill="#000"/><path d="m84.4731 260.267h6.03593v6.03593h-6.03593z" fill="#000"/><path d="m90.5089 260.267h6.03593v12.0719h-6.03593z" fill="#000"/><path d="m81.4551 290.447h6.03593v12.0719h-6.03593z" fill="#000"/><path d="m84.4731 272.339h6.03593v18.1078h-6.03593z" fill="#000"/><path d="m96.5449 254.231h6.03593v6.03593h-6.03593z" fill="#000"/><path d="m102.581 242.159h6.03593v6.03593h-6.03593z" fill="#000"/><path d="m78.437 254.231h6.03593v12.0719h-6.03593z" fill="#000"/><path d="m84.4731 218.016h6.03593v18.1078h-6.03593z" fill="#000"/><path d="m102.581 218.016h6.03593v12.0719h-6.03593z" fill="#000"/><path d="m100.569 230.087h6.03593v12.0719h-6.03593z" fill="#000"/><path d="m114.653 193.872h6.03593v6.03593h-6.03593z" fill="#000"/><path d="m102.581 187.836h6.03593v24.1437h-6.03593z" fill="#000"/><path d="m108.617 175.764h6.03593v18.1078h-6.03593z" fill="#000"/><path d="m120.689 205.943h6.03593v6.03593h-6.03593z" fill="#000"/><path d="m126.725 211.98h12.0719v6.03593h-12.0719z" fill="#000"/><path d="m132.761 242.159h6.03593v6.03593h-6.03593z" fill="#000"/><path d="m108.617 242.159h6.03593v6.03593h-6.03593z" fill="#000"/><path d="m114.653 248.195h18.1078v6.03593h-18.1078z" fill="#000"/><path d="m108.617 332.698h18.1078v6.03593h-18.1078z" fill="#000"/><path d="m108.617 211.98h6.03593v6.03593h-6.03593z" fill="#000"/><path d="m114.653 205.943h6.03593v6.03593h-6.03593z" fill="#000"/><path d="m138.796 193.872h6.03593v6.03593h-6.03593z" fill="#000"/><path d="m132.761 193.872h6.03593v12.0719h-6.03593z" fill="#000"/><path d="m162.94 205.943h6.03593v6.03593h-6.03593z" fill="#000"/><path d="m168.976 199.908h6.03593v6.03593h-6.03593z" fill="#000"/><path d="m162.94 230.087h6.03593v6.03593h-6.03593z" fill="#000"/><path d="m156.904 236.123h6.03593v6.03593h-6.03593z" fill="#000"/><path d="m150.868 248.195h6.03593v6.03593h-6.03593z" fill="#000"/><path d="m156.904 254.231h6.03593v10.0599h-6.03593z" fill="#000"/><path d="m162.94 242.159h6.03593v22.1318h-6.03593z" fill="#000"/><path d="m156.904 218.016h6.03593v12.0719h-6.03593z" fill="#000"/><path d="m162.94 199.908h6.03593v6.03593h-6.03593z" fill="#000"/><path d="m156.904 193.872h6.03593v12.0719h-6.03593z" fill="#000"/><path d="m150.868 193.872h6.03593v12.0719h-6.03593z" fill="#000"/><path d="m181.048 187.836h24.1437v6.03593h-24.1437z" fill="#000"/><path d="m205.192 193.872h18.1078v6.03593h-18.1078z" fill="#000"/><path d="m223.3 199.908h6.03593v6.03593h-6.03593z" fill="#000"/><path d="m265.551 224.052h6.03593v6.03593h-6.03593z" fill="#000"/><path d="m283.659 236.123h6.03593v6.03593h-6.03593z" fill="#000"/><path d="m289.695 242.159h6.03593v6.03593h-6.03593z" fill="#000"/><path d="m295.731 248.195h6.03593v6.03593h-6.03593z" fill="#000"/><path d="m295.731 254.231h6.03593v6.03593h-6.03593z" fill="#000"/><path d="m313.838 266.303h6.03593v12.0719h-6.03593z" fill="#000"/><path d="m229.335 205.943h12.0719v6.03593h-12.0719z" fill="#000"/><path d="m241.407 211.98h12.0719v6.03593h-12.0719z" fill="#000"/><path d="m253.479 218.016h12.0719v6.03593h-12.0719z" fill="#000"/><path d="m271.587 230.087h12.0719v6.03593h-12.0719z" fill="#000"/><path d="m307.803 260.267h6.03593v6.03593h-6.03593z" fill="#000"/><path d="m301.767 260.267h6.03593v30.1797h-6.03593z" fill="#000"/><path d="m295.731 290.447h6.03593v18.1078h-6.03593z" fill="#000"/><path d="m319.874 278.375h6.03593v18.1078h-6.03593z" fill="#000"/><path d="m313.838 296.483h6.03593v12.0719h-6.03593z" fill="#000"/><path d="m289.695 308.555h6.03593v12.0719h-6.03593z" fill="#000"/><path d="m283.659 320.626h6.03593v18.1078h-6.03593z" fill="#000"/><path d="m277.584 338.581h6.72795v39.0221h-6.72795z" fill="#000"/><path d="m260.092 326.47h5.38236v36.3309h-5.38236z" fill="#000"/><path d="m245.29 332.698h6.03593v18.1078h-6.03593z" fill="#000"/><path d="m254.709 358.765h5.38236v14.8015h-5.38236z" fill="#000"/><path d="m239.908 350.691h5.38236v26.9118h-5.38236z" fill="#000"/><path d="m241.253 357.418h37.6765v5.38236h-37.6765z" fill="#000"/><path d="m239.908 372.22h40.3677v5.38236h-40.3677z" fill="#000"/><path d="m253.479 314.591h6.03593v12.0719h-6.03593z" fill="#000"/><path d="m247.443 308.555h6.03593v6.03593h-6.03593z" fill="#000"/><path d="m247.443 320.626h6.03593v6.03593h-6.03593z" fill="#000"/><path d="m180.702 326.47h6.72795v51.1324h-6.72795z" fill="#000"/><path d="m163.209 326.47h5.38236v32.2942h-5.38236z" fill="#000"/><path d="m144.371 326.47h6.72795v45.7501h-6.72795z" fill="#000"/><path d="m181.048 320.626h6.03593v6.03593h-6.03593z" fill="#000"/><path d="m175.012 314.591h6.03593v6.03593h-6.03593z" fill="#000"/><path d="m150.868 308.555h6.03593v6.03593h-6.03593z" fill="#000"/><path d="m156.904 302.519h6.03593v12.0719h-6.03593z" fill="#000"/><path d="m181.048 242.159h6.03593v12.0719h-6.03593z" fill="#000"/><path d="m175.012 224.052h6.03593v18.1078h-6.03593z" fill="#000"/><path d="m162.94 290.447h6.03593v18.1078h-6.03593z" fill="#000"/><path d="m168.976 278.375h6.03593v18.1078h-6.03593z" fill="#000"/><path d="m175.012 254.231h6.03593v30.1797h-6.03593z" fill="#000"/><path d="m241.407 326.662h6.03593v6.03593h-6.03593z" fill="#000"/><path d="m223.3 332.698h18.1078v6.03593h-18.1078z" fill="#000"/><path d="m318.59 377.504h6.60971v5.50809h-6.60971z" fill="#000"/><path d="m187.084 332.698h12.0719v6.03593h-12.0719z" fill="#000"/><path d="m144.371 357.418h37.6765v6.72795h-37.6765z" fill="#000"/><path d="m144.371 372.22h36.3309v5.38236h-36.3309z" fill="#000"/><path d="m199.156 338.734h24.1437v6.03593h-24.1437z" fill="#000"/><path d="m118.095 377.504h196.088v5.50809h-196.088z" fill="#000"/><path d="m241.407 296.483h6.03593v12.0719h-6.03593z" fill="#000"/><path d="m157.827 358.765h5.38236v18.8383h-5.38236z" fill="#000"/><path d="m157.827 321.088h6.03593v12.0719h-6.03593z" fill="#000"/><path d="m138.796 312.579h6.03593v14.0838h-6.03593z" fill="#000"/><path d="m144.832 305.537h6.03593v9.0539h-6.03593z" fill="#000"/><path d="m114.653 302.519h6.03593v6.03593h-6.03593z" fill="#000"/><path d="m96.5449 314.591h6.03593v6.03593h-6.03593z" fill="#000"/><path d="m102.581 320.626h6.03593v12.0719h-6.03593z" fill="#000"/><path d="m120.689 326.662h6.03593v6.03593h-6.03593z" fill="#000"/><path d="m126.725 320.626h6.03593v12.0719h-6.03593z" fill="#000"/><path d="m132.761 305.537h6.03593v15.0898h-6.03593z" fill="#000"/><path d="m437.153 153.876-4.578-6.606-1.526 1.017-4.579 4.064-6.105 3.049.509-9.146-7.631-4.065h-10.175l-1.526 23.373-5.087 6.097-5.597-6.097-4.069-6.606-1.018-5.08-5.087-6.606-6.614 5.081v12.194l5.088 5.081 6.613 6.097v11.179l-5.087 5.589-1.526 34.042-5.088 3.048-1.526 11.686-3.052 4.573-2.035 15.751 6.613 8.129 5.088 5.081h24.419l4.07-5.081 1.526-9.653 4.579-2.033 6.613-5.589 5.088 4.573v4.573l6.104 8.129v34.043l5.596 2.54v13.719l4.579 6.605 2.035 42.679 10.684 1.525v-48.777l5.596-2.032 5.596 6.605 2.035 41.663 10.174 1.016 1.018-47.252h28.998l6.105 2.032v8.638l5.087 1.016-1.017 9.146 5.596 6.605 2.035 22.356h11.701v-30.994l4.578-1.016 6.614 5.081 4.578 6.097 1.018 20.832h10.683l1.526-25.913-6.613-6.097v-7.113l-7.122-4.573v-76.214l-3.053-5.589-7.631-5.081-4.578-6.605h-30.016l-4.07 5.081h-25.945v-10.162l-3.053-6.097-3.052-7.113-3.053-3.557-1.526-7.113-4.07-4.573-2.543-4.573-4.579-4.064-1.017-10.162-3.562-4.065-5.087-1.524-1.526-7.114-7.123-4.064z" fill="#fff"/><path d="m410.856 144.902h6.32914v17.1791h-6.32914z" fill="#dadada"/><path d="m376.704 150.133h6.32914v17.1791h-6.32914z" fill="#ffd7d4"/><path d="m428.232 150.18h6.32914v17.1791h-6.32914z" fill="#ffd7d4"/><path d="m382.747 161.601h5.75698v11.5151h-5.75698z" fill="#dadada"/><path d="m423.047 155.844h5.75698v17.2714h-5.75698z" fill="#dadada"/><path d="m434.561 167.312h5.75698v17.2714h-5.75698z" fill="#dadada"/><path d="m446.075 178.873h5.75698v17.2714h-5.75698z" fill="#dadada"/><path d="m440.318 184.63h5.75698v17.2714h-5.75698z" fill="#dadada"/><path d="m428.858 173.115h5.75698v5.7572h-5.75698z" fill="#dadada"/><path d="m451.832 196.144h5.75698v17.2714h-5.75698z" fill="#dadada"/><path d="m463.346 213.415h5.75698v11.5144h-5.75698z" fill="#dadada"/><path d="m457.589 197.156h5.75698v11.5144h-5.75698z" fill="#dadada"/><path d="m469.103 222.051h5.75698v11.5144h-5.75698z" fill="#dadada"/><path d="m417.186 156.656h5.42498v11.7541h-5.42498z" fill="#bababa" transform="matrix(0 1 -1 0 573.842 -260.53)"/><path d="m369.265 245.358 5.049-4.615h24.236l4.04 6.667 5.554 3.077v17.948l-3.03 5.128-26.256 1.538-5.049-5.641-3.534-4.102z" fill="#ffd7d5"/><path d="m376.326 266.964h29.4499v5.17355h-29.4499z" fill="#ffb8b3"/><path d="m434.561 269.55h5.7572v32.5238h-5.7572z" fill="#d9d9d9"/><path d="m440.318 302.074h5.7572v23.0286h-5.7572z" fill="#d9d9d9"/><path d="m428.804 254.866h5.7572v11.5142h-5.7572z" fill="#d9d9d9"/><path d="m411.587 243.352h5.7572v11.5142h-5.7572z" fill="#d9d9d9"/><path d="m417.344 237.595h5.7572v11.5142h-5.7572z" fill="#d9d9d9"/><path d="m423.101 231.838h5.7572v11.5142h-5.7572z" fill="#d9d9d9"/><path d="m405.829 243.352h5.7572v5.75764h-5.7572z" fill="#d9d9d9"/><path d="m446.075 348.131h5.75698v19.6565h-5.75698z" fill="#ffd7d5"/><path d="m469.104 348.131h5.75698v19.6565h-5.75698z" fill="#ffd7d5"/><path d="m527.826 348.131h5.75698v19.6565h-5.75698z" fill="#ffd7d5"/><path d="m556.611 348.131h5.75698v19.6565h-5.75698z" fill="#ffd7d5"/><path d="m516.311 319.345h17.2713v11.5142h-17.2713z" fill="#c2c2c2"/><path d="m522.069 330.86h11.5141v17.2714h-11.5141z" fill="#c2c2c2"/><path d="m480.618 313.588h52.9651v5.75676h-52.9651z" fill="#c2c2c2"/><path d="m480.617 307.831h47.2082v5.75698h-47.2082z" fill="#d9d9d9"/><g fill="#000"><path d="m405.776 173.115h5.7571v17.2713h-5.7571z"/><path d="m382.747 173.115h5.7571v17.2713h-5.7571z"/><path d="m371.233 150.087h5.7571v17.2713h-5.7571z"/><path d="m434.561 150.087h5.7571v17.2713h-5.7571z"/><path d="m417.29 144.33h5.7571v17.2713h-5.7571z"/><path d="m400.018 138.573h5.7571v28.7855h-5.7571z"/><path d="m394.261 167.358h5.7571v23.0284h-5.7571z"/><path d="m400.054 138.573h17.2893v6.10212h-17.2893z"/><path d="m405.776 161.602h17.2713v5.7571h-17.2713z"/><path d="m411.532 167.358h5.7571v5.7571h-5.7571z"/><path d="m423.047 150.087h5.7571v5.7571h-5.7571z"/><path d="m428.804 144.33h5.7571v5.7571h-5.7571z"/><path d="m423.047 173.115h5.7571v5.7571h-5.7571z"/><path d="m428.804 178.872h5.7571v11.5142h-5.7571z"/><path d="m388.504 161.602h5.7571v11.5142h-5.7571z"/><path d="m382.747 150.087h5.7571v11.5142h-5.7571z"/><path d="m434.561 184.63h5.7571v17.2713h-5.7571z"/><path d="m451.832 178.872h5.7571v17.2713h-5.7571z"/><path d="m457.589 190.387h5.7571v11.5142h-5.7571z"/><path d="m463.346 201.901h5.7571v11.5142h-5.7571z"/><path d="m423.047 254.866h5.7571v11.5142h-5.7571z"/><path d="m405.776 249.109h5.7571v23.0284h-5.7571z"/><path d="m365.476 243.352h5.7571v23.0284h-5.7571z"/><path d="m428.804 226.081h5.7571v17.2713h-5.7571z"/><path d="m469.104 213.415h5.7571v11.5142h-5.7571z"/><path d="m446.075 196.144h5.7571v17.2713h-5.7571z"/><path d="m457.589 207.658h5.7571v17.2713h-5.7571z"/><path d="m474.86 224.929h5.7571v17.2713h-5.7571z"/><path d="m480.617 237.594h5.7571v34.5426h-5.7571z"/><path d="m499.04 249.109h5.7571v28.7855h-5.7571z"/><path d="m499.04 290.559h5.7571v17.2713h-5.7571z"/><path d="m516.311 290.559h5.7571v17.2713h-5.7571z"/><path d="m480.617 283.651h5.7571v17.2713h-5.7571z"/><path d="m434.561 307.831h5.7571v17.2713h-5.7571z"/><path d="m428.804 270.986h5.7571v36.8454h-5.7571z"/><path d="m516.311 243.352h5.7571v34.5426h-5.7571z"/><path d="m533.583 243.352h5.7571v34.5426h-5.7571z"/><path d="m550.854 249.109h5.7571v81.7508h-5.7571z"/><path d="m428.804 167.358h5.7571v5.7571h-5.7571z"/><path d="m376.99 144.33h5.7571v5.7571h-5.7571z"/><path d="m376.99 167.358h5.7571v5.7571h-5.7571z"/><path d="m440.318 201.901h5.7571v5.7571h-5.7571z"/><path d="m451.832 213.415h5.7571v5.7571h-5.7571z"/><path d="m446.075 219.172h5.7571v5.7571h-5.7571z"/><path d="m440.318 224.929h5.7571v5.7571h-5.7571z"/><path d="m423.047 220.324h5.7571v5.7571h-5.7571z"/><path d="m417.369 214.566h5.67756v5.7571h-5.67756z"/><path d="m417.29 249.109h5.7571v5.7571h-5.7571z"/><path d="m411.532 254.866h5.7571v5.7571h-5.7571z"/><path d="m400.018 243.352h5.7571v5.7571h-5.7571z"/><path d="m387.353 254.866h5.7571v5.7571h-5.7571z"/><path d="m375.839 254.866h5.7571v5.7571h-5.7571z"/><path d="m371.233 266.38h5.7571v5.7571h-5.7571z"/><path d="m423.047 243.352h5.7571v5.7571h-5.7571z"/><path d="m417.29 231.838h5.7571v11.5142h-5.7571z"/><path d="m371.233 226.081h5.7571v11.5142h-5.7571z"/><path d="m376.99 190.387h5.7571v41.4511h-5.7571z"/><path d="m411.532 226.081h5.7571v5.7571h-5.7571z"/><path d="m463.346 224.929h5.7571v5.7571h-5.7571z"/><path d="m474.86 272.137h5.7571v5.7571h-5.7571z"/><path d="m493.283 277.895h5.7571v5.7571h-5.7571z"/><path d="m493.283 307.831h5.7571v5.7571h-5.7571z"/><path d="m510.554 307.831h5.7571v5.7571h-5.7571z"/><path d="m493.283 243.352h5.7571v5.7571h-5.7571z"/><path d="m474.86 300.923h5.7571v5.7571h-5.7571z"/><path d="m463.346 296.317h5.7571v5.7571h-5.7571z"/><path d="m457.589 277.895h5.7571v5.7571h-5.7571z"/><path d="m510.554 237.594h5.7571v5.7571h-5.7571z"/><path d="m510.554 277.895h5.7571v5.7571h-5.7571z"/><path d="m469.104 242.2h5.7571v5.7571h-5.7571z"/><path d="m545.097 283.651h5.7571v5.7571h-5.7571z"/><path d="m527.826 237.594h5.7571v5.7571h-5.7571z"/><path d="m539.34 237.594h5.7571v5.7571h-5.7571z"/><path d="m545.097 243.352h5.7571v5.7571h-5.7571z"/><path d="m556.611 249.109h5.7571v5.7571h-5.7571z"/><path d="m562.368 254.866h5.7571v11.5142h-5.7571z"/><path d="m556.611 330.86h5.7571v11.5142h-5.7571z"/><path d="m533.583 330.86h5.7571v11.5142h-5.7571z"/><path d="m516.311 336.617h5.7571v11.5142h-5.7571z"/><path d="m568.125 266.38h5.7571v11.5142h-5.7571z"/><path d="m562.368 277.895h5.7571v17.2713h-5.7571z"/><path d="m562.368 342.374h5.7571v34.5426h-5.7571z"/><path d="m550.854 348.131h5.7571v28.7855h-5.7571z"/><path d="m533.583 342.374h5.7571v34.5426h-5.7571z"/><path d="m522.069 348.131h5.7571v28.7855h-5.7571z"/><path d="m474.86 313.588h5.7571v63.3284h-5.7571z"/><path d="m463.346 323.951h5.7571v52.9653h-5.7571z"/><path d="m451.832 312.437h5.7571v64.4795h-5.7571z"/><path d="m440.318 325.102h5.7571v51.8139h-5.7571z"/><path d="m527.826 277.895h5.7571v5.7571h-5.7571z"/><path d="m457.589 230.686h5.7571v5.7571h-5.7571z"/><path d="m451.832 236.443h5.7571v5.7571h-5.7571z"/><path d="m469.104 230.686h5.7571v5.7571h-5.7571z"/><path d="m486.375 237.594h18.4227v5.7571h-18.4227z"/><path d="m463.346 247.958h5.7571v5.7571h-5.7571z"/><path d="m457.589 253.715h5.7571v5.7571h-5.7571z"/><path d="m504.797 231.838h34.5426v5.7571h-34.5426z"/><path d="m539.34 289.408h5.7571v5.7571h-5.7571z"/><path d="m533.583 295.165h5.7571v5.7571h-5.7571z"/><path d="m533.583 307.831h5.7571v5.7571h-5.7571z"/><path d="m457.589 318.194h5.7571v5.7571h-5.7571z"/><path d="m469.103 329.708h5.7571v5.7571h-5.7571z"/><path d="m469.103 342.374h5.7571v5.7571h-5.7571z"/><path d="m446.075 329.708h5.7571v5.7571h-5.7571z"/><path d="m446.075 342.374h5.7571v5.7571h-5.7571z"/><path d="m527.826 313.588h5.7571v5.7571h-5.7571z"/><path d="m550.854 336.617h5.7571v5.7571h-5.7571z"/><path d="m510.554 330.86h17.2713v5.7571h-17.2713z"/><path d="m527.826 325.102h17.2713v5.7571h-17.2713z"/><path d="m428.804 302.074h34.5426v5.7571h-34.5426z"/><path d="m479.466 319.345h48.3596v5.7571h-48.3596z"/><path d="m425.724 376.823h154.709v6.18834h-154.709z"/><path d="m428.804 283.651h28.7855v5.7571h-28.7855z"/><path d="m428.804 266.38h23.0284v5.7571h-23.0284z"/><path d="m397.876 376.823h23.0284v6.18838h-23.0284z"/><path d="m375.839 272.137h29.9369v5.7571h-29.9369z"/><path d="m371.233 237.595h28.7855v5.7571h-28.7855z"/><path d="m539.34 336.617h5.7571v5.7571h-5.7571z"/><path d="m550.854 365.402h13.817v11.5142h-13.817z"/><path d="m545.097 342.374h5.7571v5.7571h-5.7571z"/><path d="m527.826 342.374h5.7571v5.7571h-5.7571z"/><path d="m522.069 365.402h13.817v11.5142h-13.817z"/><path d="m510.554 325.102h5.7571v5.7571h-5.7571z"/><path d="m446.075 242.2h5.7571v5.7571h-5.7571z"/><path d="m463.346 365.402h13.817v11.5142h-13.817z"/><path d="m446.075 173.115h5.7571v5.7571h-5.7571z"/><path d="m440.318 167.358h5.7571v23.0284h-5.7571z"/><path d="m440.318 365.402h13.817v11.5142h-13.817z"/></g><path d="m412.012 193.037-9.595-5.132h-5.757l-4.318 3.266-5.757-2.333-8.156-1.866-3.358 6.998-7.197 2.799v8.398l7.197 14.462h13.913l7.196 5.132 11.994 2.332 6.717-7.464 4.797-3.266v-19.594z" fill="#fff"/><path d="m376.99 184.173h11.5142v5.59826h-11.5142z" fill="#000"/><path d="m371.233 189.772h5.75711v5.59826h-5.75711z" fill="#000"/><path d="m376.99 200.968h5.75711v5.59826h-5.75711z" fill="#000"/><path d="m400.018 203.768h5.75711v5.59826h-5.75711z" fill="#000"/><path d="m417.29 195.37h5.75711v22.393h-5.75711z" fill="#000"/><path d="m371.233 212.165h5.75711v11.1965h-5.75711z" fill="#000"/><path d="m376.99 217.763h5.75711v5.5982h-5.75711z" fill="#000"/><path d="m382.747 217.763h5.75711v5.59826h-5.75711z" fill="#000"/><path d="m365.476 195.37h5.75711v16.7948h-5.75711z" fill="#000"/><path d="m382.747 195.37h5.75711v11.1965h-5.75711z" fill="#000"/><path d="m380.828 206.566h5.75711v11.1965h-5.75711z" fill="#000"/><path d="m400.018 184.173h6.084v5.59826h-6.084z" fill="#000"/><path d="m405.776 189.772h11.5142v5.59826h-11.5142z" fill="#000"/><path d="m411.533 217.763h5.75711v5.59826h-5.75711z" fill="#000"/><path d="m388.504 217.763h5.75711v5.59826h-5.75711z" fill="#000"/><path d="m394.261 223.361h17.2713v5.59826h-17.2713z" fill="#000"/><path d="m388.504 189.772h5.75711v5.59826h-5.75711z" fill="#000"/><path d="m394.261 184.173h5.75711v5.59826h-5.75711z" fill="#000"/><path d="m211.015 123.537h5.37873v5.37873h-5.37873z" fill="#000"/><path d="m176.762 103.959h4.80922v4.80922h-4.80922z" fill="#000"/><path d="m170.818 93.562h6.12114v6.12114h-6.12114z" fill="#000"/><path d="m200.808 93.3765h6.12114v6.12114h-6.12114z" fill="#000"/><path d="m186.38 103.959h4.80922v4.80922h-4.80922z" fill="#000"/><path d="m216.319 128.915h5.37873v5.37873h-5.37873z" fill="#000"/><path d="m216.319 138.557h5.37873v5.37873h-5.37873z" fill="#000"/><path d="m170.694 153.339h6.36909v6.36909h-6.36909z" fill="#000"/><path d="m176.939 159.695h38.8304v4.82104h-38.8304z" fill="#000"/><path d="m176.939 88.741h23.8689v4.82104h-23.8689z" fill="#000"/><path d="m188.246 189.081h27.7424v4.82104h-27.7424z" fill="#000" transform="matrix(0 -1 1 0 -.835 377.327)"/><path d="m196.354 189.081h27.7424v4.82104h-27.7424z" fill="#000" transform="matrix(0 -1 1 0 7.273 385.435)"/></svg>