<svg width="1512" height="92" viewBox="0 0 1512 92" fill="none" xmlns="http://www.w3.org/2000/svg">
<g clip-path="url(#clip0_80_2459)">
<path d="M430.689 46.3147H401.475V44.2432H395.207V37.9754H401.74H430.689V46.3147Z" fill="#009E9E"/>
<path d="M395.207 42.1185H399.35V40.047H401.475V42.1185V44.2432H395.207V42.1185Z" fill="#29B8B8" fill-opacity="0.9624"/>
<path d="M430.689 46.3147H423.359V48.3862H417.091V46.3147H407.742V48.3862H401.475V46.3147V44.2432H405.618V42.1185H407.742V44.2432H409.814V42.1185H416.082V44.2432H422.349V42.2247H424.421V40.047H426.492V42.2247H428.617V44.2432H430.689V46.3147Z" fill="#29B8B8" fill-opacity="0.9624"/>
<path d="M572.722 46.3147H601.989V44.2432H608.203V37.9754H601.67H572.722V46.3147Z" fill="#009E9E"/>
<path d="M608.203 42.1185H604.06V40.047H601.989V42.1185V44.2432H608.203V42.1185Z" fill="#29B8B8" fill-opacity="0.9624"/>
<path d="M572.722 46.3147H580.052V48.3862H586.32V46.3147H595.721V48.3862H601.989V46.3147V44.2432H597.793V42.1185H595.721V44.2432H593.596V42.1185H587.329V44.2432H581.061V42.2247H578.989V40.047H576.918V42.2247H574.846V44.2432H572.722V46.3147Z" fill="#29B8B8" fill-opacity="0.9624"/>
<path d="M31.1479 45.4648V43.6058H25.5176V37.9754H31.1479H31.626H57.3874V45.4648H31.1479Z" fill="#009E9E"/>
<path d="M50.8541 45.4649V47.324H45.2237V45.4649H36.7782V47.324H31.1479V45.4649V43.6058H25.5176V41.6936H29.2357V39.8346H31.1479V41.6936V43.6058H34.866V41.6936H36.7782V43.6058H38.6373V41.6936H44.2676V43.6058H49.898V41.6936H51.757V39.8346H53.6692V41.6936H55.5283V43.6058H57.3874V45.4649H50.8541Z" fill="#29B8B8" fill-opacity="0.9624"/>
<path d="M182.105 41.5875V43.4465H176.58V47.1116H151.032V43.4465H145.561V37.9756H151.032H176.58H181.148H182.105H185.716V41.5875H182.105Z" fill="#009E9E"/>
<path d="M182.105 41.5875V43.4465H176.581V41.5875V40.9501V39.7815H178.44H185.717V41.5875H182.105Z" fill="#29B8B8" fill-opacity="0.9624"/>
<path d="M172.491 48.9174H169.304V50.7234H163.833V48.9174H154.697V47.1115H151.032V45.2524H154.697V43.4465H156.503V45.2524H158.309V43.4465H163.833V45.2524H169.304V43.4465H174.775V45.2524H176.581V47.1115H172.491V48.9174Z" fill="#29B8B8" fill-opacity="0.9624"/>
<path d="M145.561 43.4465V41.5875H149.172V39.7815H151.032V41.5875V42.0124V43.4465H145.561Z" fill="#29B8B8" fill-opacity="0.9624"/>
<path d="M669.075 41.5875V43.4465H674.546V47.1116H700.148V43.4465H705.619V37.9756H700.148H674.546H669.978H669.075H665.41V41.5875H669.075Z" fill="#009E9E"/>
<path d="M669.075 41.5875V43.4465H674.546V41.5875V40.9501V39.7815H672.74H665.41V41.5875H669.075Z" fill="#29B8B8" fill-opacity="0.9624"/>
<path d="M678.689 48.9174H681.876V50.7234H687.347V48.9174H696.483V47.1115H700.148V45.2524H696.483V43.4465H694.677V45.2524H692.818V43.4465H687.347V45.2524H681.876V43.4465H676.405V45.2524H674.546V47.1115H678.689V48.9174Z" fill="#29B8B8" fill-opacity="0.9624"/>
<path d="M705.619 43.4465V41.5875H701.954V39.7815H700.148V41.5875V42.0124V43.4465H705.619Z" fill="#29B8B8" fill-opacity="0.9624"/>
<path d="M491.348 37.9756H-13.2573V16.1979H491.348V37.9756Z" fill="#2FBABB"/>
<path d="M226.563 39.7815V43.4465H221.092H215.621V41.5875H211.956V37.9756H215.621H215.992H221.092H225.872H226.563H230.653V39.7815H226.563Z" fill="#009E9E"/>
<path d="M221.092 43.4465V45.2524H219.233H217.427V43.4465H215.621V41.5874H221.092H224.703V39.7815H226.563V41.5874V41.9592V43.4465H221.092Z" fill="#29B8B8" fill-opacity="0.9624"/>
<path d="M213.762 41.5874H211.956V39.7814H213.762H215.567V41.5874H213.762Z" fill="#29B8B8" fill-opacity="0.9624"/>
<path d="M503.246 39.7815V43.4465H508.717H514.188V41.5875H517.853V37.9756H514.188H513.816H508.717H503.883H503.246H499.103V39.7815H503.246Z" fill="#009E9E"/>
<path d="M508.717 43.4465V45.2524H510.523H512.382V43.4465H514.188V41.5874H508.717H505.052V39.7815H503.246V41.5874V41.9592V43.4465H508.717Z" fill="#29B8B8" fill-opacity="0.9624"/>
<path d="M515.993 41.5874H517.853V39.7814H515.993H514.188V41.5874H515.993Z" fill="#29B8B8" fill-opacity="0.9624"/>
<path d="M773.183 39.7815V43.4465H767.712H762.241V41.5875H758.576V37.9756H762.241H762.613H767.712H772.545H773.183H777.326V39.7815H773.183Z" fill="#009E9E"/>
<path d="M767.712 43.4465V45.2524H765.906H764.047V43.4465H762.241V41.5874H767.712H771.377V39.7815H773.183V41.5874V41.9592V43.4465H767.712Z" fill="#29B8B8" fill-opacity="0.9624"/>
<path d="M760.435 41.5874H758.576V39.7814H760.435H762.241V41.5874H760.435Z" fill="#29B8B8" fill-opacity="0.9624"/>
<path d="M995.687 37.9756H491.082V16.1979H995.687V37.9756Z" fill="#2FBABB"/>
<path d="M154.803 5.52124H152.519V2.28115H154.803V5.52124Z" fill="#088484"/>
<path d="M187.257 7.11475H184.973V3.87466H187.257V7.11475Z" fill="#088484"/>
<path d="M540.374 5.36206H538.09V1.21899H540.374V5.36206Z" fill="#088484"/>
<path d="M506.167 7.11475H503.883V3.87466H506.167V7.11475Z" fill="#088484"/>
<path d="M550.573 7.11475H548.289V3.87466H550.573V7.11475Z" fill="#088484"/>
<path d="M721.182 7.38037H718.898V4.14028H721.182V7.38037Z" fill="#088484"/>
<path d="M749.599 9.55811H746.997V4.3527H749.599V9.55811Z" fill="#088484"/>
<path d="M995.687 17.3132V26.821H491.348H491.082H-13.2573V16.1978V14.7105H-1.09369V12.1609H4.16483V14.7105H12.026V12.1609H19.8873V9.55824H25.1458V12.1609H27.7485V14.7105H30.3512V12.1609H33.2195V9.55824H36.7782V12.1609H38.2124H46.0736V14.7105H48.6763V12.1609H51.279V9.55824H56.5375V12.1609H59.1402V9.55824H61.7429V12.1609H64.3456V14.7105H69.6041V12.1609H72.2068V14.7105H74.8095V12.1609H80.068V14.7105H82.0333V12.0016H84.4767V9.13331H88.0886V6.63684H90.3726V9.13331H95.7905V11.9485V12.1078V14.7105H101.049V12.3203H102.536V6.90243H104.82V12.3203H106.308V14.7105H114.222V12.3203H122.083V9.61136H127.342V12.3203H129.944V14.7105H132.547V12.3203H140.408V14.7105H143.011V12.3734V9.71759H145.614V12.3734H148.216V14.7105H150.819V12.3734H153.422V9.71759H154.75V5.57452H157.034V9.71759H158.68V12.3734H161.283V9.71759H163.886V12.3734H166.488V14.7105H171.747V12.3734H172.703H174.35H182.529V7.16801H184.813V12.3734H185.61H187.469V14.7105H196.287V12.3734H201.545V14.7105H209.3V12.3734H214.559V14.7105H216.418V12.3734H224.279V9.55824H229.537V12.3734H232.14V14.7105H234.743V12.3734H242.604V14.7105H245.207V12.2672V9.55824H247.809V12.2672H250.412V14.7105H253.015V12.2672H255.617V9.55824H260.876V12.2672H263.479V9.55824H266.081V12.2672H268.684V14.7105H273.943V12.2672H276.545V14.7105H279.148V12.2672H284.407V14.7105H287.009V12.1078H289.612V14.7105H294.87V12.1078H300.129V14.7105H305.387V12.1078H310.646V14.7105H318.507V12.1078H326.368V9.50512H331.627V12.1078H334.23V14.7105H336.832V12.1078H344.694V14.7105H347.296V12.4265V9.50512H349.899V12.1078H352.502V14.7105H355.104V12.1078H357.707V9.50512H362.966V12.1078H365.568V9.50512H368.171V12.1078H370.774V14.7105H376.032V12.1078H378.635V14.7105H381.238V12.1078H386.496V14.7105H389.099V12.1078H391.701V14.7105H396.96V12.1078H402.219V14.7105H407.477V12.1078H412.736V14.7105H420.597V12.1078H428.458V9.50512H433.716V12.1078H436.319V14.7105H438.922V12.1078H446.783H447.58V9.39889H451.192V6.53061H453.476V9.39889H458.894H459.903V9.55824H465.161V6.90243H467.764V9.55824H470.367V12.1609H472.969V14.7636H478.228V12.1609H480.831V14.7636H483.433V12.1609H488.692V14.7636H490.763V12.1609H497.669V14.7105H502.927V12.1609H505.902V7.11489H508.186V12.1609V14.7105H516.047V12.1609H523.908V9.55824H529.167V12.1609H531.769V14.7105H534.372V12.1609H537.134V10.0363H537.24V9.61136H539.79V5.41517H542.074V10.0894V12.2141H542.233H545.686V7.16801H547.97V12.2141H550.094V14.7636H552.697V12.2141H555.3V9.61136H560.558V12.2141H563.161V9.61136H565.764V12.2141H568.366V14.7636H573.625V12.2141H576.228V14.7636H578.83V12.2141H584.089V14.7636H586.691V12.2141H589.294V14.8168H594.553V12.4265H599.811V14.8168H605.07V12.4265H610.328V14.8168H618.189V12.4265H626.051V9.61136H631.309V12.4265H633.912V14.8168H636.515V12.4265H644.376V14.8168H646.978V12.4265V9.66447H649.581V12.4265H652.184V14.8168H654.787V12.4265H657.389V9.66447H662.648V12.4265H665.25V9.66447H667.853V12.4265H670.456V14.8168H675.714V12.5328V7.48671H673.43V4.24661H675.714V7.48671H677.998V12.2672H678.317H681.557V8.28345V7.91163V3.2374H683.363V0.900282H686.125V5.04336H683.841V7.91163H686.497V12.2672H688.781H689.578H691.437V14.5512H700.254V12.2672H705.513V14.5512H713.214V12.2672H716.189V7.48671H718.473V12.5328V14.5512H720.332V12.2672H728.193V9.66447H733.452V12.2672H736.055V14.5512H738.657V12.2672H746.518V14.5512H749.121V12.2672V9.66447H751.724V12.2672H754.327V14.5512H756.929V12.2672H759.532V9.66447H764.79V12.2672H767.393V9.66447H769.996V12.2672H772.599V14.5512H777.857V12.2672H780.46V14.5512H783.062V12.2672H786.462V9.39889H787.471H792.889V6.53061H795.173V9.29266H798.785V12.0016H801.388V12.1078H803.99V14.7105H809.249V12.1078H814.507V14.7105H822.369V12.1078H830.23V9.50512H835.488V12.1078H838.091V14.7105H840.694V12.0016H843.349V7.32736H845.262V4.29973H847.918V8.4428H845.633V12.0016V12.1078H848.555V14.7105H851.158V12.1078V9.66447H853.76V12.1078H856.363V14.7105H858.966V12.1078H861.568V9.66447H866.827V12.1078H869.43V9.66447H872.032V12.1078H874.635V14.7105H879.893V12.1078H882.496V14.7105H885.099V12.1078H890.357V14.7105H892.96V15.6666V14.7636V12.1609H895.563V14.7636H900.821V12.1609H906.08V14.7636H911.338V12.1609H916.597V14.7636H924.458V12.1609H932.319V9.55824H937.578V12.1609H940.181V14.7636H942.783V12.1609H950.644V14.7636H953.247V12.1609V9.55824H955.85V12.1609H958.453V14.7636H961.055V12.1609H963.658V9.55824H968.916V12.1609H976.778V14.7636H995.103V17.3663H995.687V17.3132Z" fill="#088484"/>
<path d="M978.584 27.6179V30.2737H962.861V27.6179H955V30.2737H947.139V27.6179H944.483V30.2737H941.88V27.6179H936.622V30.2737H931.416V27.6179H920.899V30.2737H915.694V27.6179H907.833V30.2737H905.177V27.6179H899.918V27.671H897.316V30.2737H894.713V27.671H889.454V30.2737H884.249V27.671H876.335V30.2737H860.612V27.671H852.751V30.2737H844.89V27.671H842.287V30.2737H839.685V27.671H834.426V30.2737H829.167V27.671H818.704V30.2737H813.445V27.671H805.584V30.2737H802.981V27.671H797.723H795.12V30.2737H792.464V27.671H787.259V30.2737H782V27.671H774.139V30.2737H758.417V27.671H750.555V30.2737H742.694V27.671H740.091V30.2737H737.436V27.671H732.23V30.2737H726.972V27.671H716.455V30.2737H711.249V27.671H703.388V30.2737H700.732V27.671H696.536H695.527H692.871V30.2737H690.268V27.671H685.01V30.2737H679.804V27.671H671.943V30.2737H656.221V27.671H648.359V30.2737H640.498V27.671H637.842V30.2737H635.24V27.671H629.981V30.2737H624.776V27.671H614.259V30.2737H609V27.671H601.139V30.2737H598.536V27.671H593.278H590.675V30.2737H588.072V27.671H582.814V30.2737H577.555V27.671H569.694V30.2737H553.972V27.671H546.111V30.2737H538.249V27.671H535.647V30.2737H533.044V27.671H527.785V30.2737H522.527V27.671H512.063V30.2737H506.805V27.671H498.943V30.2737H496.341V27.671H491.082V27.6179H487.311V30.2737H482.105V27.6179H474.244V30.2737H458.469V27.6179H450.607V30.2737H442.746V27.6179H440.144V30.2737H437.541V27.6179H432.282V30.2737H427.024V27.6179H416.56V30.2737H411.301V27.6179H403.44V30.2737H400.837V27.6179H395.579V27.671H392.976V30.2737H390.374V27.671H385.115V30.2737H379.857V27.671H371.995V30.2737H356.273V27.671H348.412V30.2737H340.55V27.671H337.948V30.2737H335.292V27.671H330.087V30.2737H324.828V27.671H314.364V30.2737H309.106V27.671H301.244V30.2737H298.642V27.671H293.383H290.78V30.2737H288.125V27.671H282.866V30.2737H277.661V27.671H269.8V30.2737H254.077V27.671H246.216V30.2737H238.355V27.671H235.699V30.2737H233.096V27.671H227.838V30.2737H222.632V27.671H212.115V30.2737H206.91V27.671H198.995V30.2737H196.393V27.671H191.134H188.532V30.2737H185.929V27.671H180.67V30.2737H175.412V27.671H167.551V30.2737H151.828V27.671H143.967V30.2737H136.106V27.671H133.503V30.2737H130.9V27.671H125.642V30.2737H120.383V27.671H109.919V30.2737H104.661V27.671H96.7997V30.2737H94.197V27.671H88.4604H86.3358V30.2737H83.68V27.671H78.4745V30.2737H73.216V27.671H65.3548V30.2737H49.6324V27.671H41.7712V30.2737H33.91V27.671H31.3073V30.2737H28.6515V27.671H23.446V30.2737H18.1875V27.671H7.67051V30.2737H2.46511V27.671H-13.2573V25.0683H-2.79341V22.5187H-0.19071V25.0683H5.0678V22.5187H7.67051V19.916H10.3263V22.5187H12.929V19.916H18.1875V22.5187H20.7902V25.0683H23.446V22.5187H26.0487V19.916H28.6515V22.5187V25.0683H31.3073V22.5187H39.1685V25.0683H41.7712V22.5187H44.3739V19.916H49.6324V22.5187H57.4936V25.0683H65.3548V22.5187H70.6133V25.0683H75.8187V22.5187H81.0773V25.0683H86.3358V22.5187H88.9385V25.0683H91.5412V22.5187H96.7997V25.0683H99.4024V22.5187H102.058V25.0683H107.264V22.5187H109.919V19.916H112.522V22.5187H115.178V19.916H120.383V22.5187H123.039V25.0683H125.642V22.5187H128.245V19.916H130.9V22.5187V25.0683H133.503V22.5187H141.364V25.0683H143.967V22.5187H146.623V19.916H151.828V22.5187H159.689V25.0683H167.551V22.5187H172.809V25.0683H178.068V22.5187H183.273V25.0683H188.532V22.5187H191.134V25.0683H193.79V22.7312H198.995V25.0683H201.651V22.7312H204.254V25.0683H209.512V22.7312H212.115V19.916H214.771V22.7312H217.374V19.916H222.632V22.7312H225.235V25.0683H227.838V22.7312H230.493V19.916H233.096V22.7312V25.0683H235.699V22.7312H243.56V25.0683H246.216V22.7312H248.819V19.916H254.077V22.7312H261.938V25.0683H269.8V22.5187H275.005V25.0683H280.263V22.5187H285.522V25.0683H290.727V22.5187H293.383V25.0683H295.986V22.5187H301.244V25.0683H303.847V22.5187H306.503V25.0683H311.708V22.678H314.364V19.916H316.967V22.678H319.569V19.916H324.828V22.678H327.431V25.0683H330.087V22.678H332.689V19.916H335.292V22.678V25.0683H337.948V22.678H345.809V25.0683H348.412V22.678H351.014V19.916H356.273V22.678H364.134V25.0683H371.995V22.5187H377.254V25.0683H382.512V22.5187H387.718V25.0683H392.976V22.5187H395.579V25.0152H398.235V22.5187H403.44V25.0152H406.096V22.5187H408.699V25.0152H413.957V22.5187H416.56V19.916H419.163V22.5187H421.818V19.916H427.024V22.5187H429.68V25.0152H432.282V22.5187H434.885V19.916H437.541V22.5187V25.0152H440.144V22.5187H448.005V25.0152H450.607V22.5187H453.263V19.916H458.469V22.5187H466.33V25.0152H474.244V22.5187H479.45V25.0152H484.708V22.5187H489.967V25.0152H491.613V25.0683H493.685V22.5187H498.943V25.0683H501.546V22.5187H504.202V25.0683H509.407V22.5187H512.063V19.916H514.666V22.5187H517.268V19.916H522.527V22.5187H525.13V25.0683H527.785V22.5187H530.388V19.916H532.991V22.5187V25.0683H535.647V22.5187H543.508V25.0683H546.111V22.5187H548.766V19.916H553.972V22.5187H561.833V25.0683H569.694V22.5187H574.953V25.0683H580.211V22.5187H585.417V25.0683H590.675V22.5187H593.278V25.0683H595.934V22.5187H601.139V25.0683H603.795V22.5187H606.398V25.0683H611.656V22.5187H614.259V19.916H616.862V22.5187H619.517V19.916H624.723V22.5187H627.379V25.0683H629.981V22.5187H632.584V19.916H635.24V22.5187V25.0683H637.842V22.5187H645.704V25.0683H648.359V22.5187H650.962V19.916H656.221V22.5187H664.082V25.0683H671.943V22.5187H677.149V25.0683H682.407V22.5187H687.666V25.0683H692.871V22.5187H695.527V25.0683H698.13V22.678H703.388V25.0683H705.991V22.678H708.593V25.0683H713.852V22.678H716.455V19.916H719.11V22.678H721.713V19.916H726.972V22.678H729.574V25.0683H732.23V22.678H734.833V19.916H737.436V22.678V25.0683H740.091V22.678H747.953V25.0683H750.555V22.678H753.158V19.916H758.417V22.678H766.278V25.0683H774.139V22.678H779.397V25.0683H784.603V22.678H789.861V25.0683H795.12V22.678H797.723V25.0683H800.378V22.678H805.584V25.0683H808.24V22.678H810.842V25.0683H816.048V22.678H818.704V19.916H821.306V22.678H823.962V19.916H829.167V22.678H831.823V25.0683H834.426V22.678H837.029V19.916H839.685V22.678V25.0683H842.287V22.678H850.148V25.0683H852.751V22.678H855.407V19.916H860.612V22.678H868.474V25.0683H876.335V22.5187H881.593V25.0683H886.852V22.5187H892.057V25.0683H899.706H897.316V22.5187H899.971V25.0152H902.574V22.5187H907.833V25.0152H910.435V22.5187H913.038V25.0152H918.297V22.5187H920.899V19.916H923.555V22.5187H926.158V19.916H931.416V22.5187H934.019V25.0152H936.622V22.5187H939.278V19.916H941.88V22.5187V25.0152H944.483V22.5187H952.344V25.0152H955V22.5187H957.603V19.916H962.861V22.5187H970.722V25.0152H995.953V27.6179H978.584Z" fill="#009E9E"/>
</g>
<g clip-path="url(#clip1_80_2459)">
<path d="M1400.06 46.3147H1370.85V44.2432H1364.58V37.9754H1371.11H1400.06V46.3147Z" fill="#009E9E"/>
<path d="M1364.58 42.1185H1368.72V40.047H1370.85V42.1185V44.2432H1364.58V42.1185Z" fill="#29B8B8" fill-opacity="0.9624"/>
<path d="M1400.06 46.3147H1392.73V48.3862H1386.46V46.3147H1377.12V48.3862H1370.85V46.3147V44.2432H1374.99V42.1185H1377.12V44.2432H1379.19V42.1185H1385.45V44.2432H1391.72V42.2247H1393.79V40.047H1395.87V42.2247H1397.99V44.2432H1400.06V46.3147Z" fill="#29B8B8" fill-opacity="0.9624"/>
<path d="M1000.52 45.4648V43.6058H994.891V37.9754H1000.52H1001H1026.76V45.4648H1000.52Z" fill="#009E9E"/>
<path d="M1020.23 45.4649V47.324H1014.6V45.4649H1006.15V47.324H1000.52V45.4649V43.6058H994.891V41.6936H998.609V39.8346H1000.52V41.6936V43.6058H1004.24V41.6936H1006.15V43.6058H1008.01V41.6936H1013.64V43.6058H1019.27V41.6936H1021.13V39.8346H1023.04V41.6936H1024.9V43.6058H1026.76V45.4649H1020.23Z" fill="#29B8B8" fill-opacity="0.9624"/>
<path d="M1151.48 41.5875V43.4465H1145.95V47.1116H1120.4V43.4465H1114.93V37.9756H1120.4H1145.95H1150.52H1151.48H1155.09V41.5875H1151.48Z" fill="#009E9E"/>
<path d="M1151.48 41.5875V43.4465H1145.95V41.5875V40.9501V39.7815H1147.81H1155.09V41.5875H1151.48Z" fill="#29B8B8" fill-opacity="0.9624"/>
<path d="M1141.86 48.9174H1138.68V50.7234H1133.21V48.9174H1124.07V47.1115H1120.4V45.2524H1124.07V43.4465H1125.88V45.2524H1127.68V43.4465H1133.21V45.2524H1138.68V43.4465H1144.15V45.2524H1145.95V47.1115H1141.86V48.9174Z" fill="#29B8B8" fill-opacity="0.9624"/>
<path d="M1114.93 43.4465V41.5875H1118.55V39.7815H1120.4V41.5875V42.0124V43.4465H1114.93Z" fill="#29B8B8" fill-opacity="0.9624"/>
<path d="M1460.72 37.9756H956.116V16.1979H1460.72V37.9756Z" fill="#2FBABB"/>
<path d="M1195.94 39.7815V43.4465H1190.46H1184.99V41.5875H1181.33V37.9756H1184.99H1185.37H1190.46H1195.25H1195.94H1200.03V39.7815H1195.94Z" fill="#009E9E"/>
<path d="M1190.46 43.4465V45.2524H1188.61H1186.8V43.4465H1184.99V41.5874H1190.46H1194.08V39.7815H1195.94V41.5874V41.9592V43.4465H1190.46Z" fill="#29B8B8" fill-opacity="0.9624"/>
<path d="M1183.13 41.5874H1181.33V39.7814H1183.13H1184.94V41.5874H1183.13Z" fill="#29B8B8" fill-opacity="0.9624"/>
<path d="M1472.62 39.7815V43.4465H1478.09H1483.56V41.5875H1487.23V37.9756H1483.56H1483.19H1478.09H1473.26H1472.62H1468.48V39.7815H1472.62Z" fill="#009E9E"/>
<path d="M1478.09 43.4465V45.2524H1479.9H1481.75V43.4465H1483.56V41.5874H1478.09H1474.42V39.7815H1472.62V41.5874V41.9592V43.4465H1478.09Z" fill="#29B8B8" fill-opacity="0.9624"/>
<path d="M1485.37 41.5874H1487.23V39.7814H1485.37H1483.56V41.5874H1485.37Z" fill="#29B8B8" fill-opacity="0.9624"/>
<path d="M1965.06 37.9756H1460.46V16.1979H1965.06V37.9756Z" fill="#2FBABB"/>
<path d="M1124.18 5.52124H1121.89V2.28115H1124.18V5.52124Z" fill="#088484"/>
<path d="M1156.63 7.11475H1154.35V3.87466H1156.63V7.11475Z" fill="#088484"/>
<path d="M1509.75 5.36206H1507.46V1.21899H1509.75V5.36206Z" fill="#088484"/>
<path d="M1475.54 7.11475H1473.26V3.87466H1475.54V7.11475Z" fill="#088484"/>
<path d="M1965.06 17.3132V26.821H1460.72H1460.46H956.116V16.1978V14.7105H968.279V12.1609H973.538V14.7105H981.399V12.1609H989.26V9.55824H994.519V12.1609H997.122V14.7105H999.724V12.1609H1002.59V9.55824H1006.15V12.1609H1007.59H1015.45V14.7105H1018.05V12.1609H1020.65V9.55824H1025.91V12.1609H1028.51V9.55824H1031.12V12.1609H1033.72V14.7105H1038.98V12.1609H1041.58V14.7105H1044.18V12.1609H1049.44V14.7105H1051.41V12.0016H1053.85V9.13331H1057.46V6.63684H1059.75V9.13331H1065.16V11.9485V12.1078V14.7105H1070.42V12.3203H1071.91V6.90243H1074.19V12.3203H1075.68V14.7105H1083.59V12.3203H1091.46V9.61136H1096.71V12.3203H1099.32V14.7105H1101.92V12.3203H1109.78V14.7105H1112.38V12.3734V9.71759H1114.99V12.3734H1117.59V14.7105H1120.19V12.3734H1122.79V9.71759H1124.12V5.57452H1126.41V9.71759H1128.05V12.3734H1130.66V9.71759H1133.26V12.3734H1135.86V14.7105H1141.12V12.3734H1142.08H1143.72H1151.9V7.16801H1154.19V12.3734H1154.98H1156.84V14.7105H1165.66V12.3734H1170.92V14.7105H1178.67V12.3734H1183.93V14.7105H1185.79V12.3734H1193.65V9.55824H1198.91V12.3734H1201.51V14.7105H1204.12V12.3734H1211.98V14.7105H1214.58V12.2672V9.55824H1217.18V12.2672H1219.79V14.7105H1222.39V12.2672H1224.99V9.55824H1230.25V12.2672H1232.85V9.55824H1235.45V12.2672H1238.06V14.7105H1243.32V12.2672H1245.92V14.7105H1248.52V12.2672H1253.78V14.7105H1256.38V12.1078H1258.98V14.7105H1264.24V12.1078H1269.5V14.7105H1274.76V12.1078H1280.02V14.7105H1287.88V12.1078H1295.74V9.50512H1301V12.1078H1303.6V14.7105H1306.21V12.1078H1314.07V14.7105H1316.67V12.4265V9.50512H1319.27V12.1078H1321.87V14.7105H1324.48V12.1078H1327.08V9.50512H1332.34V12.1078H1334.94V9.50512H1337.54V12.1078H1340.15V14.7105H1345.41V12.1078H1348.01V14.7105H1350.61V12.1078H1355.87V14.7105H1358.47V12.1078H1361.07V14.7105H1366.33V12.1078H1371.59V14.7105H1376.85V12.1078H1382.11V14.7105H1389.97V12.1078H1397.83V9.50512H1403.09V12.1078H1405.69V14.7105H1408.29V12.1078H1416.16H1416.95V9.39889H1420.56V6.53061H1422.85V9.39889H1428.27H1429.28V9.55824H1434.53V6.90243H1437.14V9.55824H1439.74V12.1609H1442.34V14.7636H1447.6V12.1609H1450.2V14.7636H1452.81V12.1609H1458.06V14.7636H1460.14V12.1609H1467.04V14.7105H1472.3V12.1609H1475.27V7.11489H1477.56V12.1609V14.7105H1485.42V12.1609H1493.28V9.55824H1498.54V12.1609H1501.14V14.7105H1503.74V12.1609H1506.51V10.0363H1506.61V9.61136H1509.16V5.41517H1511.45V10.0894V12.2141H1511.61H1515.06V7.16801H1517.34V12.2141H1519.47V14.7636H1522.07V12.2141H1524.67V9.61136H1529.93V12.2141H1532.53V9.61136H1535.14V12.2141H1537.74V14.7636H1543V12.2141H1545.6V14.7636H1548.2V12.2141H1553.46V14.7636H1556.06V12.2141H1558.67V14.8168H1563.93V12.4265H1569.18V14.8168H1574.44V12.4265H1579.7V14.8168H1587.56V12.4265H1595.42V9.61136H1600.68V12.4265H1603.28V14.8168H1605.89V12.4265H1613.75V14.8168H1616.35V12.4265V9.66447H1618.95V12.4265H1621.56V14.8168H1624.16V12.4265H1626.76V9.66447H1632.02V12.4265H1634.62V9.66447H1637.23V12.4265H1639.83V14.8168H1645.09V12.5328V7.48671H1642.8V4.24661H1645.09V7.48671H1647.37V12.2672H1647.69H1650.93V8.28345V7.91163V3.2374H1652.74V0.900282H1655.5V5.04336H1653.21V7.91163H1655.87V12.2672H1658.15H1658.95H1660.81V14.5512H1669.63V12.2672H1674.89V14.5512H1682.59V12.2672H1685.56V7.48671H1687.85V12.5328V14.5512H1689.71V12.2672H1697.57V9.66447H1702.82V12.2672H1705.43V14.5512H1708.03V12.2672H1715.89V14.5512H1718.49V12.2672V9.66447H1721.1V12.2672H1723.7V14.5512H1726.3V12.2672H1728.91V9.66447H1734.16V12.2672H1736.77V9.66447H1739.37V12.2672H1741.97V14.5512H1747.23V12.2672H1749.83V14.5512H1752.44V12.2672H1755.83V9.39889H1756.84H1762.26V6.53061H1764.55V9.29266H1768.16V12.0016H1770.76V12.1078H1773.36V14.7105H1778.62V12.1078H1783.88V14.7105H1791.74V12.1078H1799.6V9.50512H1804.86V12.1078H1807.46V14.7105H1810.07V12.0016H1812.72V7.32736H1814.63V4.29973H1817.29V8.4428H1815.01V12.0016V12.1078H1817.93V14.7105H1820.53V12.1078V9.66447H1823.13V12.1078H1825.74V14.7105H1828.34V12.1078H1830.94V9.66447H1836.2V12.1078H1838.8V9.66447H1841.41V12.1078H1844.01V14.7105H1849.27V12.1078H1851.87V14.7105H1854.47V12.1078H1859.73V14.7105H1862.33V15.6666V14.7636V12.1609H1864.94V14.7636H1870.19V12.1609H1875.45V14.7636H1880.71V12.1609H1885.97V14.7636H1893.83V12.1609H1901.69V9.55824H1906.95V12.1609H1909.55V14.7636H1912.16V12.1609H1920.02V14.7636H1922.62V12.1609V9.55824H1925.22V12.1609H1927.83V14.7636H1930.43V12.1609H1933.03V9.55824H1938.29V12.1609H1946.15V14.7636H1964.48V17.3663H1965.06V17.3132Z" fill="#088484"/>
<path d="M1947.96 27.6179V30.2737H1932.23V27.6179H1924.37V30.2737H1916.51V27.6179H1913.86V30.2737H1911.25V27.6179H1905.99V30.2737H1900.79V27.6179H1890.27V30.2737H1885.07V27.6179H1877.21V30.2737H1874.55V27.6179H1869.29V27.671H1866.69V30.2737H1864.09V27.671H1858.83V30.2737H1853.62V27.671H1845.71V30.2737H1829.99V27.671H1822.12V30.2737H1814.26V27.671H1811.66V30.2737H1809.06V27.671H1803.8V30.2737H1798.54V27.671H1788.08V30.2737H1782.82V27.671H1774.96V30.2737H1772.35V27.671H1767.1H1764.49V30.2737H1761.84V27.671H1756.63V30.2737H1751.37V27.671H1743.51V30.2737H1727.79V27.671H1719.93V30.2737H1712.07V27.671H1709.46V30.2737H1706.81V27.671H1701.6V30.2737H1696.34V27.671H1685.83V30.2737H1680.62V27.671H1672.76V30.2737H1670.11V27.671H1665.91H1664.9H1662.24V30.2737H1659.64V27.671H1654.38V30.2737H1649.18V27.671H1641.32V30.2737H1625.59V27.671H1617.73V30.2737H1609.87V27.671H1607.22V30.2737H1604.61V27.671H1599.35V30.2737H1594.15V27.671H1583.63V30.2737H1578.37V27.671H1570.51V30.2737H1567.91V27.671H1562.65H1560.05V30.2737H1557.45V27.671H1552.19V30.2737H1546.93V27.671H1539.07V30.2737H1523.34V27.671H1515.48V30.2737H1507.62V27.671H1505.02V30.2737H1502.42V27.671H1497.16V30.2737H1491.9V27.671H1481.44V30.2737H1476.18V27.671H1468.32V30.2737H1465.71V27.671H1460.46V27.6179H1456.68V30.2737H1451.48V27.6179H1443.62V30.2737H1427.84V27.6179H1419.98V30.2737H1412.12V27.6179H1409.52V30.2737H1406.91V27.6179H1401.66V30.2737H1396.4V27.6179H1385.93V30.2737H1380.67V27.6179H1372.81V30.2737H1370.21V27.6179H1364.95V27.671H1362.35V30.2737H1359.75V27.671H1354.49V30.2737H1349.23V27.671H1341.37V30.2737H1325.65V27.671H1317.78V30.2737H1309.92V27.671H1307.32V30.2737H1304.66V27.671H1299.46V30.2737H1294.2V27.671H1283.74V30.2737H1278.48V27.671H1270.62V30.2737H1268.01V27.671H1262.76H1260.15V30.2737H1257.5V27.671H1252.24V30.2737H1247.03V27.671H1239.17V30.2737H1223.45V27.671H1215.59V30.2737H1207.73V27.671H1205.07V30.2737H1202.47V27.671H1197.21V30.2737H1192.01V27.671H1181.49V30.2737H1176.28V27.671H1168.37V30.2737H1165.77V27.671H1160.51H1157.9V30.2737H1155.3V27.671H1150.04V30.2737H1144.78V27.671H1136.92V30.2737H1121.2V27.671H1113.34V30.2737H1105.48V27.671H1102.88V30.2737H1100.27V27.671H1095.01V30.2737H1089.76V27.671H1079.29V30.2737H1074.03V27.671H1066.17V30.2737H1063.57V27.671H1057.83H1055.71V30.2737H1053.05V27.671H1047.85V30.2737H1042.59V27.671H1034.73V30.2737H1019.01V27.671H1011.14V30.2737H1003.28V27.671H1000.68V30.2737H998.024V27.671H992.819V30.2737H987.561V27.671H977.044V30.2737H971.838V27.671H956.116V25.0683H966.58V22.5187H969.182V25.0683H974.441V22.5187H977.044V19.916H979.699V22.5187H982.302V19.916H987.561V22.5187H990.163V25.0683H992.819V22.5187H995.422V19.916H998.024V22.5187V25.0683H1000.68V22.5187H1008.54V25.0683H1011.14V22.5187H1013.75V19.916H1019.01V22.5187H1026.87V25.0683H1034.73V22.5187H1039.99V25.0683H1045.19V22.5187H1050.45V25.0683H1055.71V22.5187H1058.31V25.0683H1060.91V22.5187H1066.17V25.0683H1068.78V22.5187H1071.43V25.0683H1076.64V22.5187H1079.29V19.916H1081.9V22.5187H1084.55V19.916H1089.76V22.5187H1092.41V25.0683H1095.01V22.5187H1097.62V19.916H1100.27V22.5187V25.0683H1102.88V22.5187H1110.74V25.0683H1113.34V22.5187H1116V19.916H1121.2V22.5187H1129.06V25.0683H1136.92V22.5187H1142.18V25.0683H1147.44V22.5187H1152.65V25.0683H1157.9V22.5187H1160.51V25.0683H1163.16V22.7312H1168.37V25.0683H1171.02V22.7312H1173.63V25.0683H1178.89V22.7312H1181.49V19.916H1184.14V22.7312H1186.75V19.916H1192.01V22.7312H1194.61V25.0683H1197.21V22.7312H1199.87V19.916H1202.47V22.7312V25.0683H1205.07V22.7312H1212.93V25.0683H1215.59V22.7312H1218.19V19.916H1223.45V22.7312H1231.31V25.0683H1239.17V22.5187H1244.38V25.0683H1249.64V22.5187H1254.89V25.0683H1260.1V22.5187H1262.76V25.0683H1265.36V22.5187H1270.62V25.0683H1273.22V22.5187H1275.88V25.0683H1281.08V22.678H1283.74V19.916H1286.34V22.678H1288.94V19.916H1294.2V22.678H1296.8V25.0683H1299.46V22.678H1302.06V19.916H1304.66V22.678V25.0683H1307.32V22.678H1315.18V25.0683H1317.78V22.678H1320.39V19.916H1325.65V22.678H1333.51V25.0683H1341.37V22.5187H1346.63V25.0683H1351.89V22.5187H1357.09V25.0683H1362.35V22.5187H1364.95V25.0152H1367.61V22.5187H1372.81V25.0152H1375.47V22.5187H1378.07V25.0152H1383.33V22.5187H1385.93V19.916H1388.54V22.5187H1391.19V19.916H1396.4V22.5187H1399.05V25.0152H1401.66V22.5187H1404.26V19.916H1406.91V22.5187V25.0152H1409.52V22.5187H1417.38V25.0152H1419.98V22.5187H1422.64V19.916H1427.84V22.5187H1435.7V25.0152H1443.62V22.5187H1448.82V25.0152H1454.08V22.5187H1459.34V25.0152H1460.99V25.0683H1463.06V22.5187H1468.32V25.0683H1470.92V22.5187H1473.57V25.0683H1478.78V22.5187H1481.44V19.916H1484.04V22.5187H1486.64V19.916H1491.9V22.5187H1494.5V25.0683H1497.16V22.5187H1499.76V19.916H1502.36V22.5187V25.0683H1505.02V22.5187H1512.88V25.0683H1515.48V22.5187H1518.14V19.916H1523.34V22.5187H1531.21V25.0683H1539.07V22.5187H1544.33V25.0683H1549.58V22.5187H1554.79V25.0683H1560.05V22.5187H1562.65V25.0683H1565.31V22.5187H1570.51V25.0683H1573.17V22.5187H1575.77V25.0683H1581.03V22.5187H1583.63V19.916H1586.23V22.5187H1588.89V19.916H1594.1V22.5187H1596.75V25.0683H1599.35V22.5187H1601.96V19.916H1604.61V22.5187V25.0683H1607.22V22.5187H1615.08V25.0683H1617.73V22.5187H1620.34V19.916H1625.59V22.5187H1633.45V25.0683H1641.32V22.5187H1646.52V25.0683H1651.78V22.5187H1657.04V25.0683H1662.24V22.5187H1664.9V25.0683H1667.5V22.678H1672.76V25.0683H1675.36V22.678H1677.97V25.0683H1683.22V22.678H1685.83V19.916H1688.48V22.678H1691.09V19.916H1696.34V22.678H1698.95V25.0683H1701.6V22.678H1704.21V19.916H1706.81V22.678V25.0683H1709.46V22.678H1717.33V25.0683H1719.93V22.678H1722.53V19.916H1727.79V22.678H1735.65V25.0683H1743.51V22.678H1748.77V25.0683H1753.98V22.678H1759.23V25.0683H1764.49V22.678H1767.1V25.0683H1769.75V22.678H1774.96V25.0683H1777.61V22.678H1780.22V25.0683H1785.42V22.678H1788.08V19.916H1790.68V22.678H1793.34V19.916H1798.54V22.678H1801.2V25.0683H1803.8V22.678H1806.4V19.916H1809.06V22.678V25.0683H1811.66V22.678H1819.52V25.0683H1822.12V22.678H1824.78V19.916H1829.99V22.678H1837.85V25.0683H1845.71V22.5187H1850.97V25.0683H1856.22V22.5187H1861.43V25.0683H1869.08H1866.69V22.5187H1869.34V25.0152H1871.95V22.5187H1877.21V25.0152H1879.81V22.5187H1882.41V25.0152H1887.67V22.5187H1890.27V19.916H1892.93V22.5187H1895.53V19.916H1900.79V22.5187H1903.39V25.0152H1905.99V22.5187H1908.65V19.916H1911.25V22.5187V25.0152H1913.86V22.5187H1921.72V25.0152H1924.37V22.5187H1926.98V19.916H1932.23V22.5187H1940.1V25.0152H1965.33V27.6179H1947.96Z" fill="#009E9E"/>
</g>
<path d="M900.892 70.9656H897.579V67.5801H900.892V70.9656Z" fill="#2FBABB"/>
<path d="M864.444 70.9656H861.131V67.5801H864.444V70.9656Z" fill="#2FBABB"/>
<path d="M897.579 74.4231H890.952V71.0376H897.579V74.4231Z" fill="#2FBABB"/>
<path d="M871.071 74.4231H864.444V71.0376H871.071V74.4231Z" fill="#2FBABB"/>
<path d="M890.952 77.8086H871.071V74.4231H890.952V77.8086Z" fill="#2FBABB"/>
<path d="M874.601 61.3855H867.542V57.856H874.601V61.3855Z" fill="#009E9E"/>
<path d="M900.892 57.856H897.146V54.5425H900.892V57.856Z" fill="#088484"/>
<path d="M894.769 55.6231V61.6017H890.952V57.856H884.325V61.2415H881.011V64.5549H874.385V61.2415H877.698V57.856H880.003L880.579 54.5426H880.003H874.601V57.856H864.444V62.2499H861.131V54.5426H864.444V51.2292H871.071V47.9157H877.698V37.9754H884.325V47.9157H890.952V51.2292H897.579V55.6231H894.769Z" fill="#088484"/>
<path d="M900.892 64.627H893.905V61.0974H900.892V64.627Z" fill="#088484"/>
<path d="M867.758 64.915H864.084V61.2414H867.758V64.915Z" fill="#088484"/>
<path d="M874.889 68.0845H867.253V64.2668H874.889V68.0845Z" fill="#088484"/>
<path d="M881.372 71.4697H877.41V67.508H881.372V71.4697Z" fill="#088484"/>
<path d="M888.359 74.4951H880.363V70.8215H888.359V74.4951Z" fill="#088484"/>
<path d="M890.952 71.1819H887.278V67.5083H890.952V71.1819Z" fill="#088484"/>
<path d="M891.384 64.915H887.278V60.8093H891.384V64.915Z" fill="#088484"/>
<path d="M897.579 57.856H894.265V54.5425H897.579V57.856Z" fill="#009E9E"/>
<path d="M881.012 57.856H874.385V54.3264H881.012V57.856Z" fill="#009E9E"/>
<path d="M900.892 61.2415H894.265V57.928H900.892V61.2415Z" fill="#2FBABB"/>
<path d="M877.698 61.2415H874.385V57.928H877.698V61.2415Z" fill="#2FBABB"/>
<path d="M867.758 61.2415H864.444V57.928H867.758V61.2415Z" fill="#2FBABB"/>
<path d="M887.71 68.0125L881.011 67.8684L880.867 61.1695H884.325V57.712H891.168V61.1695H887.71V68.0125Z" fill="#009E9E"/>
<path d="M874.385 64.5549H867.758V61.2415H874.385V64.5549Z" fill="#2FBABB"/>
<path d="M864.444 64.5548H867.758V67.8682H874.385V64.5548H877.698V71.1817H881.011V74.4951H871.071V71.1817H864.444V67.8682H861.131V61.2414H864.444V64.5548Z" fill="#009E9E"/>
<path d="M890.952 67.8682H887.638V64.5547H890.952V67.8682Z" fill="#2FBABB"/>
<path d="M881.012 67.8682H877.698V64.5547H881.012V67.8682Z" fill="#2FBABB"/>
<path d="M897.579 71.1819H890.952V61.2416H894.265V64.555H900.892V67.8684H897.579V71.1819Z" fill="#009E9E"/>
<path d="M887.639 71.1819H881.012V67.8684H887.639V71.1819Z" fill="#2FBABB"/>
<path d="M890.952 74.4951H887.638V71.1817H890.952V74.4951Z" fill="#009E9E"/>
<path d="M305.6 70.9656H302.287V67.5801H305.6V70.9656Z" fill="#2FBABB"/>
<path d="M269.152 70.9656H265.839V67.5801H269.152V70.9656Z" fill="#2FBABB"/>
<path d="M302.287 74.4231H295.66V71.0376H302.287V74.4231Z" fill="#2FBABB"/>
<path d="M275.779 74.4231H269.152V71.0376H275.779V74.4231Z" fill="#2FBABB"/>
<path d="M295.66 77.8086H275.779V74.4231H295.66V77.8086Z" fill="#2FBABB"/>
<path d="M279.309 61.3855H272.25V57.856H279.309V61.3855Z" fill="#009E9E"/>
<path d="M305.6 57.856H301.854V54.5425H305.6V57.856Z" fill="#088484"/>
<path d="M299.477 55.6231V61.6017H295.66V57.856H289.033V61.2415H285.719V64.5549H279.093V61.2415H282.406V57.856H284.711L285.287 54.5426H284.711H279.309V57.856H269.152V62.2499H265.839V54.5426H269.152V51.2292H275.779V47.9157H282.406V37.9754H289.033V47.9157H295.66V51.2292H302.287V55.6231H299.477Z" fill="#088484"/>
<path d="M305.6 64.627H298.613V61.0974H305.6V64.627Z" fill="#088484"/>
<path d="M272.466 64.915H268.792V61.2414H272.466V64.915Z" fill="#088484"/>
<path d="M279.597 68.0845H271.961V64.2668H279.597V68.0845Z" fill="#088484"/>
<path d="M286.08 71.4697H282.118V67.508H286.08V71.4697Z" fill="#088484"/>
<path d="M293.067 74.4951H285.071V70.8215H293.067V74.4951Z" fill="#088484"/>
<path d="M295.66 71.1819H291.986V67.5083H295.66V71.1819Z" fill="#088484"/>
<path d="M296.092 64.915H291.986V60.8093H296.092V64.915Z" fill="#088484"/>
<path d="M302.287 57.856H298.973V54.5425H302.287V57.856Z" fill="#009E9E"/>
<path d="M285.72 57.856H279.093V54.3264H285.72V57.856Z" fill="#009E9E"/>
<path d="M305.6 61.2415H298.973V57.928H305.6V61.2415Z" fill="#2FBABB"/>
<path d="M282.406 61.2415H279.093V57.928H282.406V61.2415Z" fill="#2FBABB"/>
<path d="M272.466 61.2415H269.152V57.928H272.466V61.2415Z" fill="#2FBABB"/>
<path d="M292.418 68.0125L285.719 67.8684L285.575 61.1695H289.033V57.712H295.876V61.1695H292.418V68.0125Z" fill="#009E9E"/>
<path d="M279.093 64.5549H272.466V61.2415H279.093V64.5549Z" fill="#2FBABB"/>
<path d="M269.152 64.5548H272.466V67.8682H279.093V64.5548H282.406V71.1817H285.719V74.4951H275.779V71.1817H269.152V67.8682H265.839V61.2414H269.152V64.5548Z" fill="#009E9E"/>
<path d="M295.66 67.8682H292.346V64.5547H295.66V67.8682Z" fill="#2FBABB"/>
<path d="M285.72 67.8682H282.406V64.5547H285.72V67.8682Z" fill="#2FBABB"/>
<path d="M302.287 71.1819H295.66V61.2416H298.973V64.555H305.6V67.8684H302.287V71.1819Z" fill="#009E9E"/>
<path d="M292.347 71.1819H285.72V67.8684H292.347V71.1819Z" fill="#2FBABB"/>
<path d="M295.66 74.4951H292.346V71.1817H295.66V74.4951Z" fill="#009E9E"/>
<defs>
<clipPath id="clip0_80_2459">
<rect width="969.373" height="90.8289" fill="white" transform="matrix(1 0 0 -1 -4.75879 91.0918)"/>
</clipPath>
<clipPath id="clip1_80_2459">
<rect width="969.373" height="90.8289" fill="white" transform="matrix(1 0 0 -1 964.614 91.0918)"/>
</clipPath>
</defs>
</svg>
