<svg fill="none" height="49" viewBox="0 0 47 49" width="47" xmlns="http://www.w3.org/2000/svg"><g fill="#026262"><path d="m41.6819 14.3406v2.295h-2.28v2.28h2.28v2.295h2.28v-2.295h2.295v-2.28h-2.295v-2.295z"/><path d="m43.9621 39.4957h-2.28v2.28h2.28z"/><path d="m37.1071 37.2009h-2.28v2.295h2.28v2.28h2.295v-11.43h-2.295z"/><path d="m39.4019 7.4859h-2.295v2.295h2.295z"/><path d="m37.1071 28.0659h-2.28v2.28h2.28z"/><path d="m30.2525 7.4858v-2.28h-2.28v-2.295h-2.295v-2.280002h-6.855v2.280002h-2.28v2.295h-2.295v2.28h-2.28v18.285h-2.28v2.295h2.28v6.855h-2.28v2.28h4.56v-25.14h16.005v25.14h4.575v-2.28h-2.28v-6.855h2.28v-2.295h-2.28v-18.285z"/><path d="m27.9722 41.7757h-2.295v4.575h2.295z"/><path d="m30.2521 37.2006h-16.005v2.295h16.005z"/><path d="m25.677 28.0659h-2.28v2.28h2.28z"/><path d="m25.677 16.6357h-2.28v2.28h2.28z"/><path d="m23.3972 41.7757h-2.28v6.855h2.28z"/><path d="m23.3972 30.3459h-2.28v2.28h2.28z"/><path d="m23.3972 25.7708h-2.28v2.295h2.28z"/><path d="m23.3972 18.9157h-2.28v2.295h2.28z"/><path d="m23.3972 14.3406h-2.28v2.295h2.28z"/><path d="m21.1173 28.0659h-2.295v2.28h2.295z"/><path d="m21.1173 16.6357h-2.295v2.28h2.295z"/><path d="m18.822 41.7757h-2.28v4.575h2.28z"/><path d="m9.68709 28.0659h-2.295v2.28h2.295z"/><path d="m7.3923 30.3459h-2.28v11.43h2.28v-2.28h2.295v-2.295h-2.295z"/><path d="m7.3923 7.4859h-2.28v2.295h2.28z"/><path d="m5.11203 18.9157h-2.28v2.295h2.28z"/><path d="m5.11203 9.78094h-2.28v2.27996h2.28z"/><path d="m5.11203 5.20587h-2.28v2.28h2.28z"/><path d="m2.83211 44.0557h-2.295001v2.295h2.295001z"/><path d="m2.83211 7.4859h-2.295001v2.295h2.295001z"/></g></svg>