<svg fill="none" height="110" viewBox="0 0 510 110" width="510" xmlns="http://www.w3.org/2000/svg"><path d="m453.594 69.1713v-9.1677l-4.584-.1176v-54.44141l-444.69896.00221v100.5962l444.69896-.002v-15.7885h4.438v-9.0747h8.824v-12.0065z" fill="#f9feff"/><g fill="#026262"><path d="m31.3925 5.40759h13.4692 13.4728 13.471 13.4728 13.4729 13.4708 13.471 13.471 13.473 13.471 13.473 13.471 13.471 13.473 13.471 13.472 13.471 13.473 13.469 13.473 13.473 13.471 13.473 13.469 13.473 13.471 13.473 13.472 13.471 13.471 13.471v-4.419997h-13.471-13.471-13.471-13.472-13.473-13.471-13.473-13.469-13.473-13.471-13.473-13.473-13.469-13.473-13.471-13.472-13.471-13.473-13.471-13.471-13.473-13.471-13.473-13.471-13.471-13.4708-13.4729-13.4728-13.471-13.4728-13.4692-13.4728-13.47097v4.419997h13.47097z"/><path d="m327.77 109.067h13.471 13.471 13.471 13.473 13.471 13.474 13.471 13.47 13.472v-4.42h-13.472-13.47-13.471-13.474-13.471-13.473-13.471-13.471-13.471-13.471-13.475-13.471-13.471-13.471-13.473-13.471-13.47-13.475-13.469-13.473-13.471-13.473-13.471-13.471-13.473-13.4689-13.4746-13.471-13.4729-13.4709-13.4692-13.4747-13.46909v4.42h13.46909 13.4747 13.4692 13.4709 13.4729 13.471 13.4746 13.4689 13.473 13.471 13.471 13.473 13.471 13.473 13.469 13.475 13.47 13.471 13.473 13.471 13.471 13.471 13.475z"/><path d="m457.854 79.6674h-4.419v4.42h4.419z"/><path d="m457.854 72.7186h4.419v-4.42h-4.419z"/><path d="m457.854 81.5587h4.419v-4.42h-4.419z"/><path d="m462.273 77.1387h4.42v-4.42h-4.42z"/><path d="m457.988 64.7659h-4.42v4.42h4.42z"/><path d="m453.568 58.6376v-6.1274-6.1282-6.1274-4.2084-1.45-.4699-4.2075-1.4508-4.6775-1.4499-4.6775-1.4508-4.6766-6.12823h-4.42v6.12823 4.6766 1.4508 4.6775 1.4499 4.6775 1.4508 4.2075.4699 1.45 4.2084 6.1274 6.1282 6.1274 6.1283h4.42z"/><path d="m4.44881 103.692v-5.2788-.9555-6.2347-6.2356-6.2348-6.2355-6.2348-6.2356-6.2347-6.2348-6.2347-4.7603-1.4753-4.7594-1.4762-4.7586-1.4762-4.7585-1.4771-4.7585-6.23476h-4.4200014v6.23476 4.7585 1.4771 4.7585 1.4762 4.7586 1.4762 4.7594 1.4753 4.7603 6.2347 6.2348 6.2347 6.2356 6.2348 6.2355 6.2348 6.2356 6.2347.9555 5.2788.955h4.4200014z"/><path d="m453.435 97.9653v-6.6836-.5107-6.6836h-4.42v6.6836.5107 6.6836 6.6817h4.42z"/><path d="m507.367 82.0869h-2.47v2.4863h2.47z"/><path d="m485.089 72.1906h2.47v-2.4862h17.338v2.4862h2.47v9.8963h2.487v-19.8088h-2.487v-2.47h-2.47v-2.47h-17.338v2.47h-2.47v2.47h-2.47v19.8088h2.47z"/><path d="m504.897 84.5731h-2.47v2.47h2.47z"/><path d="m504.897 74.6606h-2.47v4.9563h2.47z"/><path d="m502.427 87.0432h-12.382v2.47h12.382z"/><path d="m499.941 82.0869h-7.426v2.4863h7.426z"/><path d="m490.045 84.5731h-2.486v2.47h2.486z"/><path d="m490.045 74.6606h-2.486v4.9563h2.486z"/><path d="m487.558 82.0869h-2.47v2.4863h2.47z"/></g></svg>