<svg fill="none" height="100" viewBox="0 0 516 100" width="516" xmlns="http://www.w3.org/2000/svg"><path d="m62.2728 59.211v-9.1677l4.5834-.1176.0005-44.89875 444.6993.00221v91.05324l-444.6998-.0022v-15.7881h-4.437l-.0001-9.0747h-8.8241l.0001-12.0064z" fill="#f9feff"/><g fill="#026262"><path d="m484.475 5.12024h-13.469-13.473-13.471-13.473-13.473-13.471-13.471-13.471-13.473-13.471-13.473-13.471-13.471-13.472-13.471-13.473-13.471-13.473-13.469-13.473-13.473-13.471-13.473-13.469-13.473-13.471-13.472-13.473-13.4712-13.471-13.4709v-4.420001h13.4709 13.471 13.4712 13.473 13.472 13.471 13.473 13.469 13.473 13.471 13.473 13.473 13.469 13.473 13.471 13.473 13.471 13.472 13.471 13.471 13.473 13.471 13.473 13.471 13.471 13.471 13.473 13.473 13.471 13.473 13.469 13.472 13.471v4.420001h-13.471z"/><path d="m188.097 99.1069h-13.471-13.471-13.471-13.473-13.471-13.474-13.4712-13.4691-13.4728v-4.42h13.4728 13.4691 13.4712 13.474 13.471 13.473 13.471 13.471 13.471 13.471 13.475 13.471 13.471 13.471 13.473 13.471 13.471 13.474 13.469 13.473 13.471 13.473 13.471 13.471 13.473 13.469 13.475 13.471 13.473 13.471 13.469 13.474 13.469v4.42h-13.469-13.474-13.469-13.471-13.473-13.471-13.475-13.469-13.473-13.471-13.471-13.473-13.471-13.473-13.469-13.474-13.471-13.471-13.473-13.471-13.471-13.471-13.475z"/><path d="m58.0133 69.7072h4.4193v4.42h-4.4193z"/><path d="m58.0132 62.7584h-4.4194v-4.42h4.4194z"/><path d="m58.0132 71.5985h-4.4194v-4.42h4.4194z"/><path d="m53.5938 67.1785h-4.4194v-4.42h4.4194z"/><path d="m57.8788 54.8056h4.42v4.42h-4.42z"/><path d="m62.2987 49.676v-5.1289-5.1296-5.1289-3.5225-1.2137-.3933-3.5219-1.2144-3.9152-1.2136-3.9152-1.2144-3.9145-5.12959h4.4201v5.12959 3.9145 1.2144 3.9152 1.2136 3.9152 1.2144 3.5219.3933 1.2137 3.5225 5.1289 5.1296 5.1289 5.1295h-4.4201z"/><path d="m511.418 93.8253v-4.7647-.8623-5.627-5.6279-5.627-5.6278-5.627-5.6279-5.627-5.627-5.6271-4.2962-1.3316-4.2955-1.3323-4.2947-1.3323-4.2947-1.3331-4.2947-5.62709h4.42v5.62709 4.2947 1.3331 4.2947 1.3323 4.2947 1.3323 4.2955 1.3316 4.2962 5.6271 5.627 5.627 5.6279 5.627 5.6278 5.627 5.6279 5.627.8623 4.7647.8616h-4.42z"/><path d="m62.4325 88.0051v-6.6836-.5107-6.6836h4.42v6.6836.5107 6.6836 6.6818h-4.42z"/><path d="m2.51492 76.6484h2.48625v2.47h4.94v-2.47h2.48623v-2.47h-2.48623v-2.4863h-2.47v-9.8962h2.47v-2.4863h17.33873v2.4863h2.47v9.8962h-2.47v2.4863h-2.47v2.47h2.47v2.47h4.9563v-2.47h2.47v-4.9563h2.4862v-12.3825h-2.4862v-4.94h-2.47v-2.4862h-2.4863v-2.47h-2.47v-2.47h-17.33873v2.47h-2.47v2.47h-2.47v2.4862h-2.48625v4.94h-2.4699981v12.3825h2.4699981z"/><path d="m27.2801 64.2659h-2.47v4.9562h2.47z"/><path d="m24.8097 76.6484h-12.3825v2.47h12.3825z"/><path d="m22.3237 71.6921h-7.4262v2.4863h7.4262z"/><path d="m12.4272 64.2659h-2.48628v4.9562h2.48628z"/></g></svg>