<svg xmlns="http://www.w3.org/2000/svg" width="470" height="111" fill="none"><path fill="#F9FEFF" d="M457.055 72.605V61.16h-5.994V6.717l-444.7.003v100.596l444.7-.003V91.525h5.994v-9.192h6.664v-9.728h-6.664Z"/><path fill="#026262" d="M33.305 6.718H450.926V.59H6.362v6.128h26.943ZM329.683 110.377h121.244v-6.128H6.362v6.128h323.321ZM463.183 79.27h-6.128v6.127h6.128V79.27ZM463.719 78.733h6.127v-6.127h-6.127v6.127ZM463.451 66.21h-6.127v6.127h6.127v-6.128ZM457.189 59.948V6.718h-6.127v59.358h6.127v-6.128ZM6.362 103.311V6.718H.233V104.25h6.129v-.938ZM457.055 98.122V85.397h-6.127v18.852h6.127v-6.127Z"/></svg>