<svg xmlns="http://www.w3.org/2000/svg" width="471" height="97" fill="none"><path fill="#F9FEFF" d="M13.205 62.653V51.207H19.2V6.505l444.699.002v83.768l-444.7-.002v-8.7h-5.993v-9.192H6.541v-9.728h6.664Z"/><path fill="#026262" d="M436.955 6.505H19.334V.377H463.898v6.128H436.955ZM140.577 96.404H19.333v-6.129H463.897v6.129H140.577ZM7.078 69.317h6.127v6.129H7.078v-6.129ZM6.541 68.781H.414v-6.127h6.127v6.127ZM6.81 56.257h6.127v6.128H6.809v-6.128ZM13.071 51.001V6.505H19.2v49.619H13.07v-5.123ZM463.899 89.47V6.505h6.128v83.77h-6.128v-.805ZM13.205 85.456v-10.01h6.127v14.829h-6.127v-4.82Z"/></svg>