<svg fill="none" height="49" viewBox="0 0 49 49" width="49" xmlns="http://www.w3.org/2000/svg"><g fill="#026262"><path d="m46.4088 39.4809h-2.295v2.295h4.575v-9.15h-2.28z"/><path d="m44.1138 7.4859v2.28h2.295v6.87h2.28v-9.15z"/><path d="m46.4088 30.3459h-2.295v2.28h2.295z"/><path d="m46.4088 16.6357h-2.295v2.28h2.295z"/><path d="m44.114 37.2006h-2.28v2.28h2.28z"/><path d="m44.114 9.76593h-2.28v2.29497h2.28z"/><path d="m34.9792 34.921v6.855h2.28v2.28h2.295v2.295h-6.855v2.28h11.415v-4.575h-2.28v-2.28h-2.28v-4.575h2.28v-2.28z"/><path d="m44.114 18.9157h-9.135v2.28h9.135z"/><path d="m39.5538 5.20587h-2.295v2.28h2.295z"/><path d="m34.979 14.3409h6.855v-2.28h-4.575v-4.575h-2.28z"/><path d="m39.5542 2.9108v2.295h2.28v-4.575002h-9.135v2.280002z"/><path d="m32.6993 44.0557h-2.295v2.295h2.295z"/><path d="m32.6993 30.3459h-2.295v2.28h2.295z"/><path d="m30.4039 18.9158h-2.28v-4.575h-4.575v-9.135h-2.28v-2.295h-2.295v-2.280002h-11.42995v4.575002h2.29499v-2.295h6.85496v2.295h2.28v9.135h2.295v2.295h2.28v2.28h2.28v2.28h2.295v2.295h2.28v2.28h2.295v2.28h2.28v2.295h9.135v-2.295h-6.855v-2.28h-2.28v-4.575h-4.575z"/><path d="m32.6993 2.91083h-2.295v2.295h2.295z"/><path d="m30.404 34.921h-2.28v9.135h2.28z"/><path d="m30.404 28.0508h-2.28v2.295h2.28z"/><path d="m30.404 5.20587h-2.28v9.13503h2.28z"/><path d="m28.1241 32.6259h-2.295v2.295h2.295z"/><path d="m28.1241 25.7708h-2.295v2.28h2.295z"/><path d="m25.8288 30.3459h-2.28v2.28h2.28z"/><path d="m25.8288 23.4908h-2.28v2.28h2.28z"/><path d="m23.549 32.6259h-2.28v2.295h2.28z"/><path d="m23.549 28.0508h-2.28v2.295h2.28z"/><path d="m23.549 21.1957h-2.28v2.295h2.28z"/><path d="m21.2686 34.921h-2.295v9.135h2.295z"/><path d="m21.2686 25.7708h-2.295v2.28h2.295z"/><path d="m21.2686 18.9157h-2.295v2.28h2.295z"/><path d="m18.9738 44.0557h-2.28v2.295h2.28z"/><path d="m18.9738 23.4908h-2.28v2.28h2.28z"/><path d="m18.9738 16.6357h-2.28v2.28h2.28z"/><path d="m16.6941 25.7708h-2.28v2.28h2.28z"/><path d="m16.6941 21.1957h-2.28v2.295h2.28z"/><path d="m9.83894 46.3507v-2.295h-2.29499v4.575h9.14995v-2.28z"/><path d="m14.4139 34.921h-6.86995v2.28h4.57495v4.575h2.295z"/><path d="m14.4142 18.9157h-9.15004v2.28h9.15004z"/><path d="m12.1189 41.7757h-2.28003v2.28h2.28003z"/><path d="m12.1189 5.20587h-2.28003v2.28h2.28003z"/><path d="m14.4142 28.0508h-9.15004v2.295h9.15004z"/><path d="m14.4139 14.3409v-6.855h-2.295v4.575h-4.57495v2.28z"/><path d="m7.54416 37.2006h-2.28v2.28h2.28z"/><path d="m7.54416 9.76593h-2.28v2.29497h2.28z"/><path d="m5.26389 30.3459h-2.28v2.28h2.28z"/><path d="m5.26389 16.6357h-2.28v2.28h2.28z"/><path d="m2.98396 32.6259h-2.294995v9.15h4.574995v-2.295h-2.28z"/><path d="m2.98396 9.7659h2.28v-2.28h-4.574995v9.15h2.294995z"/></g></svg>