<svg fill="none" height="149" viewBox="0 0 298 149" width="298" xmlns="http://www.w3.org/2000/svg"><path d="m295.465 12.4286-9.685-9.2775-273.9009-.00773-8.55928 8.34623v27.5508h292.14518z" fill="#d0f4fc"/><path d="m295.465 136.367-9.685 9.278-273.9009.008-8.55928-8.347.00021-98.2173h292.14497z" fill="#fff"/><g fill="#026262"><path d="m10.2256.403015h277.432v4.42123h-277.432z"/><path d="m.461914 138.566h128.4v4.42123h-128.4z" transform="matrix(0 -1 1 0 -138.104086 139.027914)"/><path d="m293 138.566h128.4v4.42123h-128.4z" transform="matrix(0 -1 1 0 154.434 431.566)"/><path d="m4.69873 36.8781h288.485v4.42123h-288.485z"/><path d="m10.2256 143.909h277.432v4.42123h-277.432z"/><path d="m4.8833 4.82422h5.34232v5.34232h-5.34232z"/><path d="m4.8833 138.566h5.34232v5.34232h-5.34232z"/><path d="m287.657 4.82422h5.34232v5.34232h-5.34232z"/><path d="m278.103 13.4133h5.34232v5.34232h-5.34232z"/><path d="m267.418 13.4133h5.34232v5.34232h-5.34232z"/><path d="m278.103 24.0979h5.34232v5.34232h-5.34232z"/><path d="m267.418 24.0979h5.34232v5.34232h-5.34232z"/><path d="m272.76 18.7556h5.34232v5.34232h-5.34232z"/><path d="m287.657 138.566h5.34232v5.34232h-5.34232z"/></g></svg>