<svg fill="none" height="114" viewBox="0 0 663 114" width="663" xmlns="http://www.w3.org/2000/svg"><path d="m83.4625 4.48706h575.1235v104.66994h-653.28912v-104.66994h41.53492z" fill="#e7ffff"/><path d="m19.2516 103.673h13.2583.3472 13.2489.3586 13.2355.3605 13.247.3491 13.2564.3492 13.2587.349 13.256.349 13.247.359 13.237.359 13.249.347 13.256.351 13.259.347 13.247.36 13.246.351 13.246.359 13.247.349 13.259.347 13.258.349 13.247.359 13.247.349 13.247.36 13.247.349 13.257.347 13.258.351 13.245.361 13.247.349 13.247.359 13.246.35 13.258.349 13.257.349 13.247.358 13.249.349 13.245.361 13.247.349 13.256.349 13.259.347 13.249.358 13.247.349 13.249.359 13.247.347 13.257.351 13.246.361 13.245.349 13.259.349 13.247.358 13.247.349 13.608v5.484h-13.608-.349-13.247-.358-13.247-.349-13.259-.349-13.245-.361-13.246-.351-13.257-.347-13.247-.359-13.249-.349-13.247-.358-13.249-.347-13.259-.349-13.256-.349-13.247-.361-13.245-.349-13.249-.358-13.247-.349-13.257-.349-13.258-.35-13.246-.359-13.247-.349-13.247-.361-13.245-.351-13.258-.347-13.257-.349-13.247-.36-13.247-.349-13.247-.359-13.247-.349-13.258-.347-13.259-.349-13.247-.359-13.246-.351-13.246-.36-13.247-.347-13.259-.351-13.256-.347-13.249-.359-13.237-.359-13.247-.349-13.256-.349-13.2587-.3492-13.2564-.3491-13.247-.3605-13.2355-.3586-13.2489-.3472-13.2583-.3492-13.60552v-5.484h13.60552z" fill="#b2dfe9"/><path d="m297.093.0670166h19.455 19.452 19.452 19.454 19.452 19.452 19.455 19.452 19.455 19.452 19.452 19.454 19.452 11.339 8.113 11.339 19.452 19.455 19.452 19.454v4.4200034h-19.454-19.452-19.455-19.452-11.339-8.113-11.339-19.452-19.454-19.452-19.452-19.455-19.452-19.455-19.452-19.452-19.454-19.452-19.452-19.455-19.452-19.455-19.452-19.452-19.454-19.452-19.455-19.452-19.455-19.452-19.4518-19.4547-19.4519-19.4547-19.45202v-4.4200034h19.45202 19.4547 19.4519 19.4547 19.4518 19.452 19.455 19.452 19.455 19.452 19.454 19.452 19.452 19.455z" fill="#026262"/><path d="m19.252 109.157h13.2584.3472 13.2489.3586 13.2355.3605 13.247.3491 13.2564.3491 13.2583.349 13.257.349 13.247.358 13.238.358 13.249.347 13.257.351 13.258.348 13.246.361 13.245.351 13.247.359 13.247.349 13.258.347 13.259.349 13.247.358 13.247.349 13.247.361 13.247.349 13.256.347 13.259.351 13.245.36 13.247.349 13.247.359 13.247.349 13.258.35 13.256.349 13.247.359 13.249.349 13.245.36 13.247.349 13.257.349 13.258.347 13.249.359 13.247.349 13.249.358 13.247.348 13.256.351 13.247.361 13.244.35 13.258.349 13.247.359 13.247.349 13.607v4.42h-13.607-.349-13.247-.359-13.247-.349-13.258-.35-13.244-.361-13.247-.351-13.256-.348-13.247-.358-13.249-.349-13.247-.359-13.249-.347-13.258-.349-13.257-.349-13.247-.36-13.245-.349-13.249-.359-13.247-.349-13.256-.35-13.258-.349-13.247-.359-13.247-.349-13.247-.36-13.245-.351-13.259-.347-13.256-.349-13.247-.361-13.247-.349-13.247-.358-13.247-.349-13.259-.347-13.258-.349-13.247-.359-13.247-.351-13.245-.361-13.246-.348-13.258-.351-13.257-.347-13.249-.358-13.238-.358-13.247-.349-13.257-.349-13.2583-.3491-13.2564-.3491-13.247-.3605-13.2355-.3586-13.2489-.3472-13.2584-.3491-13.60554v-4.42h13.60554z" fill="#026262"/><path d="m5.29695 26.403v20.6835 20.6835.017 20.6863 20.6837h-4.419997v-20.6837-20.6863-.017-20.6835-20.6835-20.68352h4.419997z" fill="#026262"/><path d="m658.587 109.157h-.001v-104.66994h.001 4.418l.001 104.66994z" fill="#026262"/><path d="m653.102 109.157h-.001v-104.66994h.001 5.483l.001 104.66994z" fill="#b2dfe9"/><g fill="#026262"><path d="m643.519 10.1554h4.86849v4.86849h-4.86849z"/><path d="m633.782 10.1554h4.86849v4.86849h-4.86849z"/><path d="m643.519 19.8925h4.86849v4.86849h-4.86849z"/><path d="m633.782 19.8925h4.86849v4.86849h-4.86849z"/><path d="m638.651 15.0238h4.86849v4.86849h-4.86849z"/></g></svg>